<svg width="209" height="175" viewBox="0 0 209 175" fill="none" xmlns="http://www.w3.org/2000/svg">
<path d="M96.1577 116.984C87.9831 115.284 80.7079 111.789 74.5096 106.145C74.2537 105.912 73.9549 105.724 73.6856 105.503C73.4149 105.284 73.1545 105.051 72.6131 104.588C78.9179 106.122 84.4372 108.665 89.6429 111.898C91.9432 113.327 94.1177 114.956 96.3397 116.505C96.4832 116.605 96.5586 116.804 96.6636 116.956C96.495 116.966 96.3175 117.017 96.1577 116.984ZM70.6294 101.5C67.943 100.657 67.2462 97.9603 65.7921 95.9765C66.8024 96.1334 67.8542 96.1629 68.8187 96.4662C76.5614 98.907 83.2582 103.156 89.776 108.67C86.1369 107.009 83.0067 105.375 79.7241 104.142C76.7774 103.037 73.6412 102.444 70.6294 101.5ZM61.9089 87.8907C61.5657 87.1244 62.9237 87.7191 63.3024 87.8345C72.8838 90.7531 80.8662 96.2029 87.7405 103.388C88.4786 104.16 89.3366 104.817 90.1399 105.527C82.881 99.4973 74.8188 94.9869 65.6086 92.8804C62.5761 92.1866 62.7343 89.7354 61.9089 87.8907ZM59.9592 81.4572C60.045 80.6569 61.0894 81.3877 61.6663 81.5356C72.8794 84.4188 81.3099 91.3922 88.6695 99.9292C89.7775 101.213 90.8751 102.505 91.9772 103.793C88.276 99.8301 84.2552 96.2103 79.8218 93.0505C74.1383 88.9987 67.9267 86.1037 61.1426 84.3862C59.8142 84.0504 59.8541 82.4261 59.9592 81.4572ZM59.2136 77.4305C59.0731 76.003 59.0583 74.5622 58.9902 73.1272C60.1322 73.3521 61.3053 73.4778 62.4133 73.8166C70.3483 76.2545 77.0673 80.7072 82.7434 86.6569C86.7863 90.8937 90.6059 95.3686 93.0526 100.801C93.1518 101.018 93.1843 101.265 93.3707 101.947C90.1 97.1467 86.4402 93.3227 82.4179 89.8167C76.0954 84.3063 68.9474 80.3921 60.761 78.435C60.1115 78.2797 59.2979 78.2959 59.2136 77.4305ZM59.0405 67.0695C59.2343 65.9186 60.2565 66.8358 60.7417 66.9571C71.619 69.6745 80.2744 75.787 86.986 84.6347C89.1931 87.5445 91.6059 90.4321 92.9328 95.0771C87.9002 87.7339 82.7256 81.9247 76.1768 77.503C71.0258 74.0267 65.4148 71.5621 59.3009 70.1657C57.9148 69.8506 58.8734 68.071 59.0405 67.0695ZM59.4976 62.3757C59.7151 61.5754 59.4207 60.1242 61.1278 60.5517C69.295 62.6005 76.5791 66.3343 82.8529 71.9601C86.9342 75.6199 90.3884 79.8403 93.5497 84.3019C93.8426 84.7146 93.955 85.256 94.1873 85.8241C93.8529 86.7827 93.5275 87.7146 93.2021 88.6466C92.7213 87.9439 92.2375 87.2413 91.7583 86.5371C85.7197 77.6702 78.1368 70.5962 68.0672 66.5236C65.4666 65.4719 62.6914 64.8476 59.9902 64.0473C58.9429 63.7381 59.3601 62.886 59.4976 62.3757ZM60.9991 56.599C61.4858 54.6715 62.1944 54.2425 64.1841 54.809C74.1767 57.6493 82.628 62.8712 89.3573 70.7722C91.6059 73.4142 93.8485 76.1125 95.1251 78.9616C95.066 81.1347 94.8337 81.6184 94.3796 81.0208C93.8751 80.361 93.3973 79.6806 92.9092 79.0089C89.4668 74.2633 85.3203 70.1775 80.665 66.676C75.1901 62.5591 68.9977 59.8135 62.3601 58.0768C61.6796 57.8993 60.613 58.1316 60.9991 56.599ZM63.3379 50.846C64.7699 45.1403 68.4075 47.8341 71.2374 48.9658C77.9371 51.6433 84.3898 54.8712 89.094 60.6049C91.9017 64.0281 93.7953 67.96 94.5231 72.4586C94.5038 72.4971 94.4595 72.5932 94.4151 72.6879C94.2982 72.6021 94.1503 72.537 94.0689 72.4246C86.4431 62.0206 76.4031 55.1892 63.8778 52.0235C63.2107 51.8549 63.1619 51.5457 63.3379 50.846ZM69.8557 41.5648C78.7641 44.6063 86.8987 49.0856 93.5393 55.8771C100.115 62.6005 102.297 75.4527 98.4654 84.0711C95.7968 90.0786 94.5689 96.2428 96.1059 102.771C96.1547 102.978 96.1118 103.207 96.1118 104.576C94.7065 98.4677 94.4343 93.5194 95.9743 88.5371C99.8426 76.0178 96.921 61.5547 85.2893 53.3194C79.9993 49.5738 74.1102 47.0131 68.014 44.8903C67.7299 44.7912 67.514 44.4953 67.2669 44.2927C68.1027 43.3104 68.6057 41.1388 69.8557 41.5648ZM100.625 85.1333C105.229 74.2027 103.458 63.3579 95.6429 54.278C89.7139 47.3889 81.7241 43.161 73.2714 39.8932C72.7744 39.7009 70.6338 39.8489 72.3054 38.2453C73.9238 36.692 75.5229 35.0781 77.3321 33.7689C78.7863 32.7171 80.2759 31.7778 81.7848 30.8902C81.7419 29.9568 81.7582 29.0233 81.8469 28.0943C77.2996 30.6136 73.1338 33.8976 69.3601 37.945C62.5598 45.235 58.3689 53.9422 57.0331 63.9334C54.7313 81.1525 59.9754 95.7783 72.5835 107.561C80.2345 114.709 89.523 118.681 100.035 119.989C103.945 120.474 104.008 119.647 102.69 116.463C98.4817 106.298 95.955 96.2206 100.625 85.1333Z" fill="url(#paint0_linear_103_6000)"/>
<path d="M96.1577 116.984C87.9831 115.284 80.7079 111.789 74.5096 106.145C74.2537 105.912 73.9549 105.724 73.6856 105.503C73.4149 105.284 73.1545 105.051 72.6131 104.588C78.9179 106.122 84.4372 108.665 89.6429 111.898C91.9432 113.327 94.1177 114.956 96.3397 116.505C96.4832 116.605 96.5586 116.804 96.6636 116.956C96.495 116.966 96.3175 117.017 96.1577 116.984ZM70.6294 101.5C67.943 100.657 67.2462 97.9603 65.7921 95.9765C66.8024 96.1334 67.8542 96.1629 68.8187 96.4662C76.5614 98.907 83.2582 103.156 89.776 108.67C86.1369 107.009 83.0067 105.375 79.7241 104.142C76.7774 103.037 73.6412 102.444 70.6294 101.5ZM61.9089 87.8907C61.5657 87.1244 62.9237 87.7191 63.3024 87.8345C72.8838 90.7531 80.8662 96.2029 87.7405 103.388C88.4786 104.16 89.3366 104.817 90.1399 105.527C82.881 99.4973 74.8188 94.9869 65.6086 92.8804C62.5761 92.1866 62.7343 89.7354 61.9089 87.8907ZM59.9592 81.4572C60.045 80.6569 61.0894 81.3877 61.6663 81.5356C72.8794 84.4188 81.3099 91.3922 88.6695 99.9292C89.7775 101.213 90.8751 102.505 91.9772 103.793C88.276 99.8301 84.2552 96.2103 79.8218 93.0505C74.1383 88.9987 67.9267 86.1037 61.1426 84.3862C59.8142 84.0504 59.8541 82.4261 59.9592 81.4572ZM59.2136 77.4305C59.0731 76.003 59.0583 74.5622 58.9902 73.1272C60.1322 73.3521 61.3053 73.4778 62.4133 73.8166C70.3483 76.2545 77.0673 80.7072 82.7434 86.6569C86.7863 90.8937 90.6059 95.3686 93.0526 100.801C93.1518 101.018 93.1843 101.265 93.3707 101.947C90.1 97.1467 86.4402 93.3227 82.4179 89.8167C76.0954 84.3063 68.9474 80.3921 60.761 78.435C60.1115 78.2797 59.2979 78.2959 59.2136 77.4305ZM59.0405 67.0695C59.2343 65.9186 60.2565 66.8358 60.7417 66.9571C71.619 69.6745 80.2744 75.787 86.986 84.6347C89.1931 87.5445 91.6059 90.4321 92.9328 95.0771C87.9002 87.7339 82.7256 81.9247 76.1768 77.503C71.0258 74.0267 65.4148 71.5621 59.3009 70.1657C57.9148 69.8506 58.8734 68.071 59.0405 67.0695ZM59.4976 62.3757C59.7151 61.5754 59.4207 60.1242 61.1278 60.5517C69.295 62.6005 76.5791 66.3343 82.8529 71.9601C86.9342 75.6199 90.3884 79.8403 93.5497 84.3019C93.8426 84.7146 93.955 85.256 94.1873 85.8241C93.8529 86.7827 93.5275 87.7146 93.2021 88.6466C92.7213 87.9439 92.2375 87.2413 91.7583 86.5371C85.7197 77.6702 78.1368 70.5962 68.0672 66.5236C65.4666 65.4719 62.6914 64.8476 59.9902 64.0473C58.9429 63.7381 59.3601 62.886 59.4976 62.3757ZM60.9991 56.599C61.4858 54.6715 62.1944 54.2425 64.1841 54.809C74.1767 57.6493 82.628 62.8712 89.3573 70.7722C91.6059 73.4142 93.8485 76.1125 95.1251 78.9616C95.066 81.1347 94.8337 81.6184 94.3796 81.0208C93.8751 80.361 93.3973 79.6806 92.9092 79.0089C89.4668 74.2633 85.3203 70.1775 80.665 66.676C75.1901 62.5591 68.9977 59.8135 62.3601 58.0768C61.6796 57.8993 60.613 58.1316 60.9991 56.599ZM63.3379 50.846C64.7699 45.1403 68.4075 47.8341 71.2374 48.9658C77.9371 51.6433 84.3898 54.8712 89.094 60.6049C91.9017 64.0281 93.7953 67.96 94.5231 72.4586C94.5038 72.4971 94.4595 72.5932 94.4151 72.6879C94.2982 72.6021 94.1503 72.537 94.0689 72.4246C86.4431 62.0206 76.4031 55.1892 63.8778 52.0235C63.2107 51.8549 63.1619 51.5457 63.3379 50.846ZM69.8557 41.5648C78.7641 44.6063 86.8987 49.0856 93.5393 55.8771C100.115 62.6005 102.297 75.4527 98.4654 84.0711C95.7968 90.0786 94.5689 96.2428 96.1059 102.771C96.1547 102.978 96.1118 103.207 96.1118 104.576C94.7065 98.4677 94.4343 93.5194 95.9743 88.5371C99.8426 76.0178 96.921 61.5547 85.2893 53.3194C79.9993 49.5738 74.1102 47.0131 68.014 44.8903C67.7299 44.7912 67.514 44.4953 67.2669 44.2927C68.1027 43.3104 68.6057 41.1388 69.8557 41.5648ZM100.625 85.1333C105.229 74.2027 103.458 63.3579 95.6429 54.278C89.7139 47.3889 81.7241 43.161 73.2714 39.8932C72.7744 39.7009 70.6338 39.8489 72.3054 38.2453C73.9238 36.692 75.5229 35.0781 77.3321 33.7689C78.7863 32.7171 80.2759 31.7778 81.7848 30.8902C81.7419 29.9568 81.7582 29.0233 81.8469 28.0943C77.2996 30.6136 73.1338 33.8976 69.3601 37.945C62.5598 45.235 58.3689 53.9422 57.0331 63.9334C54.7313 81.1525 59.9754 95.7783 72.5835 107.561C80.2345 114.709 89.523 118.681 100.035 119.989C103.945 120.474 104.008 119.647 102.69 116.463C98.4817 106.298 95.955 96.2206 100.625 85.1333Z" fill="#FFE9BF" fill-opacity="0.24" style="mix-blend-mode:saturation"/>
<path d="M146.647 79.5294C141.544 80.9495 136.942 83.4495 132.708 86.5664C127.041 90.738 122.377 95.9541 117.387 102.027C118.943 97.7544 121.28 94.9748 123.514 92.1241C128.026 86.3682 133.252 81.4081 139.59 77.701C143.137 75.6255 146.979 74.2113 150.929 73.1166C151.338 73.0027 152.149 72.3976 152.358 73.8178C153.04 78.4584 149.661 78.6906 146.647 79.5294ZM149.784 84.3963C139.937 86.8519 131.539 91.8431 124.226 98.7647C122.968 99.9541 121.828 101.266 120.634 102.522C125.206 96.2351 130.644 90.8786 137.214 86.7824C141.319 84.2232 145.726 82.2794 150.48 81.2187C150.67 81.1773 151.111 81.4628 151.108 81.4717C150.721 82.4806 151.146 84.056 149.784 84.3963ZM149.113 88.2617C148.264 94.1271 142.782 93.1537 139.192 94.7011C133.732 97.0547 128.533 99.7292 123.854 103.392C122.874 104.16 121.919 104.959 120.3 106.272C125.165 101.291 129.664 97.1316 134.878 93.7943C139.119 91.0798 143.624 88.9599 148.466 87.5694C148.695 87.5043 148.957 87.559 149.202 87.5575C149.173 87.7927 149.148 88.028 149.113 88.2617ZM144.955 96.4038C143.19 100.996 139.02 101.692 134.955 102.784C129.98 104.121 125.357 106.374 120.467 109.391C127.961 103.078 135.587 98.2233 144.579 95.8268C144.753 95.781 144.951 95.8298 145.137 95.8342C145.078 96.0251 145.028 96.2189 144.955 96.4038ZM114.008 117.195C115.797 114.092 134.164 104.62 138.066 104.8C131.195 111.296 123.261 115.383 114.008 117.195ZM110.791 78.3933C109.347 68.4331 112.249 59.9523 119.902 53.1859C126.023 47.7717 133.266 44.4137 140.835 41.708C142.634 41.0645 143.057 43.285 143.769 44.3634C144.149 44.9403 142.843 44.9359 142.323 45.1385C132.934 48.8028 123.769 52.9078 118.237 61.9316C113.199 70.1506 112.542 79.0131 115.379 88.2188C116.973 93.3816 116.78 98.5843 114.702 103.732C117.9 94.5399 112.017 86.8445 110.791 78.3933ZM147.932 51.3886C148.213 52.149 147.082 51.9626 146.572 52.1001C135.022 55.2377 125.559 61.5337 118.063 70.8281C117.576 71.4317 117.045 71.9997 116.535 72.584C116.7 71.7334 116.803 70.8666 117.038 70.0367C120.004 59.5825 127.964 54.1297 137.232 50.0395C139.835 48.8915 142.539 47.9744 145.519 46.8279C146.366 48.3767 147.347 49.8087 147.932 51.3886ZM150.118 57.115C150.257 58.3472 148.664 58.0676 147.868 58.2851C139.683 60.5262 132.455 64.4227 126.187 70.1713C122.643 73.4228 119.487 76.9835 116.678 80.8696C116.587 80.9983 116.393 81.053 116.246 81.1418C116.115 80.6699 115.983 80.1965 115.777 79.4584C116.968 76.2838 119.298 73.6817 121.488 71.0411C127.576 63.6964 135.264 58.6475 144.301 55.6342C145.597 55.2022 146.911 54.7259 148.253 54.5484C150.155 54.2984 150.016 56.2082 150.118 57.115ZM152.402 69.2541C152.398 70.7393 151.088 70.4287 150.306 70.6107C141.847 72.5678 134.72 76.8888 128.406 82.7099C124.891 85.9525 121.922 89.6537 119.161 93.5369C119.053 93.6907 118.81 93.7484 118.631 93.852C118.635 93.5177 118.519 93.1123 118.664 92.8579C123.718 83.9954 130.072 76.3681 139.15 71.3104C143.008 69.1609 147.139 67.7689 151.378 66.6432C152.171 66.4316 152.396 67.01 152.402 69.2541ZM151.319 60.7925C151.171 61.9168 153.313 63.5618 150.98 64.1239C139.461 66.8991 130.097 72.9835 122.708 82.1581C121.325 83.8741 120.187 85.7883 118.912 87.593C118.588 88.0516 118.169 88.4451 117.795 88.8682C117.591 88.3608 117.363 87.8623 117.187 87.346C116.986 86.7498 116.831 86.1389 116.57 85.2395C118.249 83.0294 119.952 80.6285 121.819 78.3592C129.249 69.3251 138.494 63.084 149.967 60.3399C150.513 60.2097 151.446 59.828 151.319 60.7925ZM142.819 39.6104C140.818 37.384 138.952 35.0719 136.579 33.1754C134.257 31.3204 131.857 29.7257 129.391 28.3425C129.36 29.1621 129.292 29.9816 129.158 30.7893C131.609 32.2139 133.957 33.8663 136.189 35.7731C137.36 36.7746 138.349 37.9906 139.421 39.1059C138.489 39.5704 137.591 40.1281 136.619 40.4817C128.769 43.3368 121.668 47.5602 115.973 53.5824C109.172 60.7703 107.239 69.6698 108.697 79.4021C109.431 84.3016 112.226 88.5635 112.911 93.423C114.198 102.55 110.632 110.7 107.403 118.886C107.039 119.808 107.013 120.229 108.172 120.161C118.687 119.546 128.088 116.028 136.263 109.36C147.846 99.9097 153.989 87.5945 154.522 72.7749C154.969 60.328 151.313 49.0617 142.819 39.6104Z" fill="url(#paint1_linear_103_6000)"/>
<path d="M146.647 79.5294C141.544 80.9495 136.942 83.4495 132.708 86.5664C127.041 90.738 122.377 95.9541 117.387 102.027C118.943 97.7544 121.28 94.9748 123.514 92.1241C128.026 86.3682 133.252 81.4081 139.59 77.701C143.137 75.6255 146.979 74.2113 150.929 73.1166C151.338 73.0027 152.149 72.3976 152.358 73.8178C153.04 78.4584 149.661 78.6906 146.647 79.5294ZM149.784 84.3963C139.937 86.8519 131.539 91.8431 124.226 98.7647C122.968 99.9541 121.828 101.266 120.634 102.522C125.206 96.2351 130.644 90.8786 137.214 86.7824C141.319 84.2232 145.726 82.2794 150.48 81.2187C150.67 81.1773 151.111 81.4628 151.108 81.4717C150.721 82.4806 151.146 84.056 149.784 84.3963ZM149.113 88.2617C148.264 94.1271 142.782 93.1537 139.192 94.7011C133.732 97.0547 128.533 99.7292 123.854 103.392C122.874 104.16 121.919 104.959 120.3 106.272C125.165 101.291 129.664 97.1316 134.878 93.7943C139.119 91.0798 143.624 88.9599 148.466 87.5694C148.695 87.5043 148.957 87.559 149.202 87.5575C149.173 87.7927 149.148 88.028 149.113 88.2617ZM144.955 96.4038C143.19 100.996 139.02 101.692 134.955 102.784C129.98 104.121 125.357 106.374 120.467 109.391C127.961 103.078 135.587 98.2233 144.579 95.8268C144.753 95.781 144.951 95.8298 145.137 95.8342C145.078 96.0251 145.028 96.2189 144.955 96.4038ZM114.008 117.195C115.797 114.092 134.164 104.62 138.066 104.8C131.195 111.296 123.261 115.383 114.008 117.195ZM110.791 78.3933C109.347 68.4331 112.249 59.9523 119.902 53.1859C126.023 47.7717 133.266 44.4137 140.835 41.708C142.634 41.0645 143.057 43.285 143.769 44.3634C144.149 44.9403 142.843 44.9359 142.323 45.1385C132.934 48.8028 123.769 52.9078 118.237 61.9316C113.199 70.1506 112.542 79.0131 115.379 88.2188C116.973 93.3816 116.78 98.5843 114.702 103.732C117.9 94.5399 112.017 86.8445 110.791 78.3933ZM147.932 51.3886C148.213 52.149 147.082 51.9626 146.572 52.1001C135.022 55.2377 125.559 61.5337 118.063 70.8281C117.576 71.4317 117.045 71.9997 116.535 72.584C116.7 71.7334 116.803 70.8666 117.038 70.0367C120.004 59.5825 127.964 54.1297 137.232 50.0395C139.835 48.8915 142.539 47.9744 145.519 46.8279C146.366 48.3767 147.347 49.8087 147.932 51.3886ZM150.118 57.115C150.257 58.3472 148.664 58.0676 147.868 58.2851C139.683 60.5262 132.455 64.4227 126.187 70.1713C122.643 73.4228 119.487 76.9835 116.678 80.8696C116.587 80.9983 116.393 81.053 116.246 81.1418C116.115 80.6699 115.983 80.1965 115.777 79.4584C116.968 76.2838 119.298 73.6817 121.488 71.0411C127.576 63.6964 135.264 58.6475 144.301 55.6342C145.597 55.2022 146.911 54.7259 148.253 54.5484C150.155 54.2984 150.016 56.2082 150.118 57.115ZM152.402 69.2541C152.398 70.7393 151.088 70.4287 150.306 70.6107C141.847 72.5678 134.72 76.8888 128.406 82.7099C124.891 85.9525 121.922 89.6537 119.161 93.5369C119.053 93.6907 118.81 93.7484 118.631 93.852C118.635 93.5177 118.519 93.1123 118.664 92.8579C123.718 83.9954 130.072 76.3681 139.15 71.3104C143.008 69.1609 147.139 67.7689 151.378 66.6432C152.171 66.4316 152.396 67.01 152.402 69.2541ZM151.319 60.7925C151.171 61.9168 153.313 63.5618 150.98 64.1239C139.461 66.8991 130.097 72.9835 122.708 82.1581C121.325 83.8741 120.187 85.7883 118.912 87.593C118.588 88.0516 118.169 88.4451 117.795 88.8682C117.591 88.3608 117.363 87.8623 117.187 87.346C116.986 86.7498 116.831 86.1389 116.57 85.2395C118.249 83.0294 119.952 80.6285 121.819 78.3592C129.249 69.3251 138.494 63.084 149.967 60.3399C150.513 60.2097 151.446 59.828 151.319 60.7925ZM142.819 39.6104C140.818 37.384 138.952 35.0719 136.579 33.1754C134.257 31.3204 131.857 29.7257 129.391 28.3425C129.36 29.1621 129.292 29.9816 129.158 30.7893C131.609 32.2139 133.957 33.8663 136.189 35.7731C137.36 36.7746 138.349 37.9906 139.421 39.1059C138.489 39.5704 137.591 40.1281 136.619 40.4817C128.769 43.3368 121.668 47.5602 115.973 53.5824C109.172 60.7703 107.239 69.6698 108.697 79.4021C109.431 84.3016 112.226 88.5635 112.911 93.423C114.198 102.55 110.632 110.7 107.403 118.886C107.039 119.808 107.013 120.229 108.172 120.161C118.687 119.546 128.088 116.028 136.263 109.36C147.846 99.9097 153.989 87.5945 154.522 72.7749C154.969 60.328 151.313 49.0617 142.819 39.6104Z" fill="#FFE9BF" fill-opacity="0.24" style="mix-blend-mode:saturation"/>
<path d="M115.319 36.3849C115.677 36.0846 116.072 35.7932 116.454 35.5121L116.52 35.4633C116.954 35.1453 117.417 34.774 117.874 34.3701C118.22 35.5684 118.418 36.6882 118.418 37.6793C118.418 45.4738 111.63 48.2415 108.307 49.1306C108.704 44.3273 111.112 39.9249 115.319 36.3849ZM92.5853 37.6793C92.5853 36.6867 92.7836 35.5684 93.1253 34.3775C93.5365 34.7399 93.9774 35.0935 94.4818 35.4633L94.5484 35.5121C94.93 35.7932 95.325 36.0846 95.683 36.3849C99.8916 39.9249 102.301 44.3288 102.695 49.1306C99.3724 48.243 92.5853 45.4752 92.5853 37.6793ZM105.636 12.5785C105.59 12.5593 105.548 12.5992 105.501 12.6051C105.454 12.5992 105.414 12.5593 105.367 12.5785C105.328 12.5933 105.33 12.6421 105.303 12.6717L104.716 13.2649C103.859 14.1347 96.4138 21.8138 92.5765 29.6719C91.9981 28.1186 91.7096 26.2162 91.7096 23.7103C91.7096 15.2546 102.795 5.22195 105.501 2.89944C108.207 5.22195 119.294 15.2575 119.294 23.7103C119.294 26.2147 119.004 28.1156 118.424 29.6719C114.48 21.5978 106.627 13.6081 106.287 13.2649L105.698 12.6717C105.671 12.6421 105.674 12.5933 105.636 12.5785ZM89.5824 26.5387C89.6726 27.4292 89.8057 28.2236 89.9877 28.9662C90.1652 29.7014 90.4004 30.4041 90.6844 31.055C90.8516 31.4322 91.0809 31.9234 91.3841 32.3849C91.3886 32.3923 91.3945 32.3982 91.3989 32.4041C90.6904 34.3479 90.325 36.1216 90.325 37.6793C90.325 49.4102 103.587 51.5788 103.723 51.5996L104.716 51.7519C104.729 51.7549 104.744 51.7549 104.756 51.7549C104.773 51.7549 104.782 51.7342 104.798 51.7297C104.816 51.7268 104.835 51.7268 104.853 51.7209C104.868 51.7149 104.865 51.6913 104.878 51.6824C104.918 51.6587 104.973 51.6572 104.995 51.6129C105.011 51.5848 104.982 51.5567 104.986 51.5271C104.994 51.5004 105.031 51.4916 105.031 51.4635L105.028 50.5004C105.013 44.5033 102.294 39.0521 97.1638 34.7385C96.723 34.3657 96.257 34.0254 95.8028 33.6911C95.4389 33.4248 95.0735 33.1571 94.7289 32.8686C94.5573 32.7251 94.3871 32.5757 94.2274 32.4204C94.1504 32.3435 94.075 32.2651 94.001 32.1852C93.9759 32.1571 93.9537 32.1186 93.9285 32.0905C96.7511 25.3922 103.23 18.1022 105.501 15.6658C107.77 18.0978 114.247 25.3804 117.075 32.089C117.05 32.1186 117.029 32.1556 117.004 32.1837C116.929 32.2651 116.853 32.3435 116.775 32.4204C116.617 32.5757 116.449 32.7251 116.273 32.8686C115.929 33.1571 115.563 33.4248 115.155 33.7237C114.686 34.0683 114.262 34.382 113.838 34.7385C108.707 39.0536 105.989 44.5048 105.975 50.5004L105.972 51.4635C105.972 51.4916 106.007 51.5004 106.016 51.5271C106.02 51.5567 105.991 51.5848 106.006 51.6129C106.029 51.6572 106.082 51.6587 106.124 51.6824C106.137 51.6913 106.134 51.7149 106.149 51.7209C106.167 51.7268 106.186 51.7268 106.204 51.7297C106.22 51.7342 106.229 51.7549 106.245 51.7549C106.259 51.7549 106.273 51.7549 106.287 51.7519L107.279 51.5996C107.414 51.5788 120.677 49.4102 120.677 37.6793C120.677 36.1261 120.312 34.3494 119.605 32.4056C119.609 32.3982 119.615 32.3938 119.62 32.3864C119.927 31.9174 120.155 31.4278 120.318 31.055C120.6 30.4145 120.836 29.7118 121.015 28.9677C121.197 28.2236 121.33 27.4292 121.42 26.5387C121.51 25.6615 121.552 24.7354 121.552 23.7103C121.552 19.1629 118.948 13.8744 113.807 7.99268C109.992 3.62282 106.226 0.615398 106.19 0.585812L105.698 0.192318C105.676 0.168652 105.679 0.128708 105.649 0.113914C105.602 0.0902443 105.553 0.124271 105.501 0.131668C105.449 0.124271 105.401 0.0902443 105.353 0.113914C105.324 0.128708 105.327 0.168652 105.304 0.192318L104.81 0.588768C104.411 0.908298 100.831 3.82844 97.1934 7.99268C92.0543 13.8773 89.4492 19.1644 89.4492 23.7103C89.4492 24.7354 89.4921 25.6615 89.5824 26.5387Z" fill="url(#paint2_linear_103_6000)"/>
<path d="M115.319 36.3849C115.677 36.0846 116.072 35.7932 116.454 35.5121L116.52 35.4633C116.954 35.1453 117.417 34.774 117.874 34.3701C118.22 35.5684 118.418 36.6882 118.418 37.6793C118.418 45.4738 111.63 48.2415 108.307 49.1306C108.704 44.3273 111.112 39.9249 115.319 36.3849ZM92.5853 37.6793C92.5853 36.6867 92.7836 35.5684 93.1253 34.3775C93.5365 34.7399 93.9774 35.0935 94.4818 35.4633L94.5484 35.5121C94.93 35.7932 95.325 36.0846 95.683 36.3849C99.8916 39.9249 102.301 44.3288 102.695 49.1306C99.3724 48.243 92.5853 45.4752 92.5853 37.6793ZM105.636 12.5785C105.59 12.5593 105.548 12.5992 105.501 12.6051C105.454 12.5992 105.414 12.5593 105.367 12.5785C105.328 12.5933 105.33 12.6421 105.303 12.6717L104.716 13.2649C103.859 14.1347 96.4138 21.8138 92.5765 29.6719C91.9981 28.1186 91.7096 26.2162 91.7096 23.7103C91.7096 15.2546 102.795 5.22195 105.501 2.89944C108.207 5.22195 119.294 15.2575 119.294 23.7103C119.294 26.2147 119.004 28.1156 118.424 29.6719C114.48 21.5978 106.627 13.6081 106.287 13.2649L105.698 12.6717C105.671 12.6421 105.674 12.5933 105.636 12.5785ZM89.5824 26.5387C89.6726 27.4292 89.8057 28.2236 89.9877 28.9662C90.1652 29.7014 90.4004 30.4041 90.6844 31.055C90.8516 31.4322 91.0809 31.9234 91.3841 32.3849C91.3886 32.3923 91.3945 32.3982 91.3989 32.4041C90.6904 34.3479 90.325 36.1216 90.325 37.6793C90.325 49.4102 103.587 51.5788 103.723 51.5996L104.716 51.7519C104.729 51.7549 104.744 51.7549 104.756 51.7549C104.773 51.7549 104.782 51.7342 104.798 51.7297C104.816 51.7268 104.835 51.7268 104.853 51.7209C104.868 51.7149 104.865 51.6913 104.878 51.6824C104.918 51.6587 104.973 51.6572 104.995 51.6129C105.011 51.5848 104.982 51.5567 104.986 51.5271C104.994 51.5004 105.031 51.4916 105.031 51.4635L105.028 50.5004C105.013 44.5033 102.294 39.0521 97.1638 34.7385C96.723 34.3657 96.257 34.0254 95.8028 33.6911C95.4389 33.4248 95.0735 33.1571 94.7289 32.8686C94.5573 32.7251 94.3871 32.5757 94.2274 32.4204C94.1504 32.3435 94.075 32.2651 94.001 32.1852C93.9759 32.1571 93.9537 32.1186 93.9285 32.0905C96.7511 25.3922 103.23 18.1022 105.501 15.6658C107.77 18.0978 114.247 25.3804 117.075 32.089C117.05 32.1186 117.029 32.1556 117.004 32.1837C116.929 32.2651 116.853 32.3435 116.775 32.4204C116.617 32.5757 116.449 32.7251 116.273 32.8686C115.929 33.1571 115.563 33.4248 115.155 33.7237C114.686 34.0683 114.262 34.382 113.838 34.7385C108.707 39.0536 105.989 44.5048 105.975 50.5004L105.972 51.4635C105.972 51.4916 106.007 51.5004 106.016 51.5271C106.02 51.5567 105.991 51.5848 106.006 51.6129C106.029 51.6572 106.082 51.6587 106.124 51.6824C106.137 51.6913 106.134 51.7149 106.149 51.7209C106.167 51.7268 106.186 51.7268 106.204 51.7297C106.22 51.7342 106.229 51.7549 106.245 51.7549C106.259 51.7549 106.273 51.7549 106.287 51.7519L107.279 51.5996C107.414 51.5788 120.677 49.4102 120.677 37.6793C120.677 36.1261 120.312 34.3494 119.605 32.4056C119.609 32.3982 119.615 32.3938 119.62 32.3864C119.927 31.9174 120.155 31.4278 120.318 31.055C120.6 30.4145 120.836 29.7118 121.015 28.9677C121.197 28.2236 121.33 27.4292 121.42 26.5387C121.51 25.6615 121.552 24.7354 121.552 23.7103C121.552 19.1629 118.948 13.8744 113.807 7.99268C109.992 3.62282 106.226 0.615398 106.19 0.585812L105.698 0.192318C105.676 0.168652 105.679 0.128708 105.649 0.113914C105.602 0.0902443 105.553 0.124271 105.501 0.131668C105.449 0.124271 105.401 0.0902443 105.353 0.113914C105.324 0.128708 105.327 0.168652 105.304 0.192318L104.81 0.588768C104.411 0.908298 100.831 3.82844 97.1934 7.99268C92.0543 13.8773 89.4492 19.1644 89.4492 23.7103C89.4492 24.7354 89.4921 25.6615 89.5824 26.5387Z" fill="#FFE9BF" fill-opacity="0.24" style="mix-blend-mode:saturation"/>
<path d="M128.332 33.7335C128.332 30.235 127.484 23.4021 121.808 16.9523C121.718 16.8503 121.565 16.8295 121.454 16.902C121.34 16.9745 121.296 17.1195 121.352 17.2438C121.975 18.6639 122.401 20.2689 122.618 22.0175C122.623 22.0574 122.638 22.0944 122.66 22.1284C124.965 25.806 125.993 29.3844 125.993 33.7335C125.993 47.5487 114.036 53.7722 105.525 53.787C97.0147 53.7722 85.0575 47.5487 85.0575 33.7335C85.0575 29.3844 86.0856 25.806 88.3904 22.1284C88.4126 22.0944 88.4274 22.0574 88.4318 22.0175C88.6493 20.2689 89.0753 18.6639 89.6981 17.2438C89.7543 17.1195 89.7099 16.9745 89.596 16.902C89.4851 16.831 89.3327 16.8517 89.2425 16.9523C83.5664 23.4021 82.7188 30.235 82.7188 33.7335C82.7188 49.0887 96.0058 56.0118 105.485 56.0473C105.488 56.0473 105.49 56.0503 105.493 56.0503C105.503 56.0503 105.515 56.0488 105.525 56.0488C105.536 56.0488 105.547 56.0503 105.558 56.0503C105.561 56.0503 105.562 56.0473 105.565 56.0473C115.044 56.0118 128.332 49.0887 128.332 33.7335Z" fill="url(#paint3_linear_103_6000)"/>
<path d="M128.332 33.7335C128.332 30.235 127.484 23.4021 121.808 16.9523C121.718 16.8503 121.565 16.8295 121.454 16.902C121.34 16.9745 121.296 17.1195 121.352 17.2438C121.975 18.6639 122.401 20.2689 122.618 22.0175C122.623 22.0574 122.638 22.0944 122.66 22.1284C124.965 25.806 125.993 29.3844 125.993 33.7335C125.993 47.5487 114.036 53.7722 105.525 53.787C97.0147 53.7722 85.0575 47.5487 85.0575 33.7335C85.0575 29.3844 86.0856 25.806 88.3904 22.1284C88.4126 22.0944 88.4274 22.0574 88.4318 22.0175C88.6493 20.2689 89.0753 18.6639 89.6981 17.2438C89.7543 17.1195 89.7099 16.9745 89.596 16.902C89.4851 16.831 89.3327 16.8517 89.2425 16.9523C83.5664 23.4021 82.7188 30.235 82.7188 33.7335C82.7188 49.0887 96.0058 56.0118 105.485 56.0473C105.488 56.0473 105.49 56.0503 105.493 56.0503C105.503 56.0503 105.515 56.0488 105.525 56.0488C105.536 56.0488 105.547 56.0503 105.558 56.0503C105.561 56.0503 105.562 56.0473 105.565 56.0473C115.044 56.0118 128.332 49.0887 128.332 33.7335Z" fill="#FFE9BF" fill-opacity="0.24" style="mix-blend-mode:saturation"/>
<path d="M0.767139 164.16L0.848043 165.778C1.08931 170.436 4.63895 173.435 8.87339 173.435C12.9056 173.435 15.5277 171.343 15.5277 167.475C15.5277 160.253 0.928946 160.253 0.928946 151.491C0.928946 147.663 4.43669 145.098 9.67953 145.098C12.3407 145.098 14.1957 145.926 15.5682 146.835C15.8903 147.031 16.2125 147.624 16.2934 147.742L16.5766 147.663C16.4957 147.387 16.4552 146.953 16.4148 146.4L16.2934 144.308H16.7369L17.2209 153.624L16.4148 153.663L16.3339 152.004C16.1316 148.886 14.0758 145.808 9.67953 145.808C6.09088 145.808 4.03362 147.505 4.03362 150.623C4.03362 157.608 18.8346 157.53 18.8346 166.804C18.8346 171.541 15.0842 174.105 8.95285 174.105C6.21079 174.105 4.19543 173.396 1.93591 171.974C1.61374 171.776 0.967953 171.027 0.848043 170.673L0.645784 170.712C0.807591 171.106 0.807591 171.935 0.848043 172.408L0.967953 174.896H0.56488L0 164.121L0.767139 164.16Z" fill="url(#paint4_linear_103_6000)"/>
<path d="M0.767139 164.16L0.848043 165.778C1.08931 170.436 4.63895 173.435 8.87339 173.435C12.9056 173.435 15.5277 171.343 15.5277 167.475C15.5277 160.253 0.928946 160.253 0.928946 151.491C0.928946 147.663 4.43669 145.098 9.67953 145.098C12.3407 145.098 14.1957 145.926 15.5682 146.835C15.8903 147.031 16.2125 147.624 16.2934 147.742L16.5766 147.663C16.4957 147.387 16.4552 146.953 16.4148 146.4L16.2934 144.308H16.7369L17.2209 153.624L16.4148 153.663L16.3339 152.004C16.1316 148.886 14.0758 145.808 9.67953 145.808C6.09088 145.808 4.03362 147.505 4.03362 150.623C4.03362 157.608 18.8346 157.53 18.8346 166.804C18.8346 171.541 15.0842 174.105 8.95285 174.105C6.21079 174.105 4.19543 173.396 1.93591 171.974C1.61374 171.776 0.967953 171.027 0.848043 170.673L0.645784 170.712C0.807591 171.106 0.807591 171.935 0.848043 172.408L0.967953 174.896H0.56488L0 164.121L0.767139 164.16Z" fill="#FFE9BF" fill-opacity="0.24" style="mix-blend-mode:saturation"/>
<path d="M48.9128 165.389L41.3714 148.931C41.0492 148.3 41.0088 147.787 41.0088 147.353H40.6057C40.6057 147.59 40.4844 148.103 40.0813 148.931L32.0141 165.389H48.9128ZM25.2803 173.441H25.9665C27.0948 173.441 27.7406 172.335 28.4254 170.993L40.8874 145.419H44.3157V145.893C44.3157 146.682 44.4775 147.709 44.7188 148.181L55.164 170.993C56.0511 172.887 56.2129 173.441 57.7847 173.441H58.1488V173.796H49.6785V173.441H53.0663V173.361C52.4624 173.165 52.0175 172.176 51.6953 171.506L49.2349 166.1H31.6529L29.272 170.993C29.1521 171.31 29.0307 171.625 29.0307 171.9C29.0307 172.809 29.8369 173.441 31.1675 173.441H33.3461V173.796H25.2803V173.441Z" fill="url(#paint5_linear_103_6000)"/>
<path d="M48.9128 165.389L41.3714 148.931C41.0492 148.3 41.0088 147.787 41.0088 147.353H40.6057C40.6057 147.59 40.4844 148.103 40.0813 148.931L32.0141 165.389H48.9128ZM25.2803 173.441H25.9665C27.0948 173.441 27.7406 172.335 28.4254 170.993L40.8874 145.419H44.3157V145.893C44.3157 146.682 44.4775 147.709 44.7188 148.181L55.164 170.993C56.0511 172.887 56.2129 173.441 57.7847 173.441H58.1488V173.796H49.6785V173.441H53.0663V173.361C52.4624 173.165 52.0175 172.176 51.6953 171.506L49.2349 166.1H31.6529L29.272 170.993C29.1521 171.31 29.0307 171.625 29.0307 171.9C29.0307 172.809 29.8369 173.441 31.1675 173.441H33.3461V173.796H25.2803V173.441Z" fill="#FFE9BF" fill-opacity="0.24" style="mix-blend-mode:saturation"/>
<path d="M64.8506 159.458C64.8506 150.815 71.0614 145.052 80.3364 145.052C83.3212 145.052 86.1846 145.882 88.4831 147.578C88.6854 147.776 88.8457 148.092 88.9671 148.368L89.2488 148.288C89.1693 147.974 89.1274 147.539 89.1274 147.144L89.048 144.264H89.451L89.8541 155.669L89.048 155.708L88.9266 152.038C88.6854 148.486 84.37 145.723 80.0142 145.723C72.7141 145.723 68.8033 150.301 68.8033 158.826C68.8033 168.259 72.9164 173.35 80.4982 173.35C84.6922 173.35 88.8053 171.298 90.3785 167.983L91.1442 168.259C89.4106 172.206 85.0953 174.1 80.4578 174.1C71.1423 174.1 64.891 168.259 64.891 159.497L64.8506 159.458Z" fill="url(#paint6_linear_103_6000)"/>
<path d="M64.8506 159.458C64.8506 150.815 71.0614 145.052 80.3364 145.052C83.3212 145.052 86.1846 145.882 88.4831 147.578C88.6854 147.776 88.8457 148.092 88.9671 148.368L89.2488 148.288C89.1693 147.974 89.1274 147.539 89.1274 147.144L89.048 144.264H89.451L89.8541 155.669L89.048 155.708L88.9266 152.038C88.6854 148.486 84.37 145.723 80.0142 145.723C72.7141 145.723 68.8033 150.301 68.8033 158.826C68.8033 168.259 72.9164 173.35 80.4982 173.35C84.6922 173.35 88.8053 171.298 90.3785 167.983L91.1442 168.259C89.4106 172.206 85.0953 174.1 80.4578 174.1C71.1423 174.1 64.891 168.259 64.891 159.497L64.8506 159.458Z" fill="#FFE9BF" fill-opacity="0.24" style="mix-blend-mode:saturation"/>
<path fill-rule="evenodd" clip-rule="evenodd" d="M100.856 173.476H99.2839L99.1221 173.79H111.463V173.435H108.883C106.744 173.435 106.463 173.239 106.463 171.345V148.218C106.463 147.309 106.26 146.639 105.736 146.165V146.126H110.333C115.294 146.126 118.641 149.362 118.641 154.177C118.641 159.03 115.294 162.268 110.333 162.268H108.318V162.938H108.841C110.359 162.938 111.625 164.265 113.274 165.994C113.595 166.33 113.931 166.682 114.286 167.042C120.577 173.476 128.042 174.367 133.405 174.367L134.168 174.383C124.085 174.383 117.109 165.7 117.109 165.7C115.616 164.28 114.245 163.175 112.39 163.017V162.78L113.277 162.74C118.601 162.307 122.674 159.03 122.674 154.216C122.674 148.968 117.955 145.454 110.857 145.454H99.2839V145.809H100.856C102.994 145.809 103.195 146.007 103.195 147.901V171.384C103.195 173.278 102.994 173.476 100.856 173.476Z" fill="url(#paint7_linear_103_6000)"/>
<path fill-rule="evenodd" clip-rule="evenodd" d="M100.856 173.476H99.2839L99.1221 173.79H111.463V173.435H108.883C106.744 173.435 106.463 173.239 106.463 171.345V148.218C106.463 147.309 106.26 146.639 105.736 146.165V146.126H110.333C115.294 146.126 118.641 149.362 118.641 154.177C118.641 159.03 115.294 162.268 110.333 162.268H108.318V162.938H108.841C110.359 162.938 111.625 164.265 113.274 165.994C113.595 166.33 113.931 166.682 114.286 167.042C120.577 173.476 128.042 174.367 133.405 174.367L134.168 174.383C124.085 174.383 117.109 165.7 117.109 165.7C115.616 164.28 114.245 163.175 112.39 163.017V162.78L113.277 162.74C118.601 162.307 122.674 159.03 122.674 154.216C122.674 148.968 117.955 145.454 110.857 145.454H99.2839V145.809H100.856C102.994 145.809 103.195 146.007 103.195 147.901V171.384C103.195 173.278 102.994 173.476 100.856 173.476Z" fill="#FFE9BF" fill-opacity="0.24" style="mix-blend-mode:saturation"/>
<path d="M146.349 145.621V146.054H143.993C141.39 146.054 141.096 146.293 141.096 148.601V167.768C141.096 171.469 143.403 173.438 147.675 173.438C153.419 173.438 156.56 170.844 156.56 166.04V149.466C156.56 147.158 156.069 146.054 153.467 146.054H151.504V145.621H161.47V146.054H160.586C158.034 146.054 157.541 147.158 157.541 149.466V166.04C157.541 171.419 154.056 174.304 147.675 174.304C141.244 174.304 136.923 170.989 136.923 166.04V148.601C136.923 146.293 136.58 146.054 133.977 146.054H132.602V145.621H146.349Z" fill="url(#paint8_linear_103_6000)"/>
<path d="M146.349 145.621V146.054H143.993C141.39 146.054 141.096 146.293 141.096 148.601V167.768C141.096 171.469 143.403 173.438 147.675 173.438C153.419 173.438 156.56 170.844 156.56 166.04V149.466C156.56 147.158 156.069 146.054 153.467 146.054H151.504V145.621H161.47V146.054H160.586C158.034 146.054 157.541 147.158 157.541 149.466V166.04C157.541 171.419 154.056 174.304 147.675 174.304C141.244 174.304 136.923 170.989 136.923 166.04V148.601C136.923 146.293 136.58 146.054 133.977 146.054H132.602V145.621H146.349Z" fill="#FFE9BF" fill-opacity="0.24" style="mix-blend-mode:saturation"/>
<path d="M169.789 173.636H170.514C172.772 173.636 173.095 173.044 173.258 170.833L174.427 148.062V147.233C174.427 146.325 174.143 145.97 172.209 145.97H170.433V145.616H176.968L188.462 168.228C188.864 169.019 189.147 169.689 189.147 169.926H189.347C189.347 169.689 189.671 168.821 189.953 168.228L201.447 145.616H208.101V145.97H206.609C204.432 145.97 204.11 146.562 204.11 147.706C204.11 148.023 204.149 148.378 204.149 148.773L205.197 170.833C205.278 173.083 205.602 173.636 208.02 173.636H208.988V173.991H197.415V173.636H199.027C201.447 173.636 201.769 173.044 201.769 172.097V171.426L200.882 150.628C200.842 149.917 200.842 149.324 200.842 148.891H200.56C200.56 149.01 200.277 149.68 199.874 150.509L187.936 174.149L187.815 174.425H187.695L187.573 174.149L175.798 150.943C175.435 150.154 175.314 149.404 175.314 149.285H175.152C175.152 149.641 175.152 149.917 175.113 150.628L173.983 171.348C173.983 171.702 173.943 172.018 173.943 172.294C173.943 173.242 174.305 173.675 176.766 173.675H178.339V174.03H169.789V173.636Z" fill="url(#paint9_linear_103_6000)"/>
<path d="M169.789 173.636H170.514C172.772 173.636 173.095 173.044 173.258 170.833L174.427 148.062V147.233C174.427 146.325 174.143 145.97 172.209 145.97H170.433V145.616H176.968L188.462 168.228C188.864 169.019 189.147 169.689 189.147 169.926H189.347C189.347 169.689 189.671 168.821 189.953 168.228L201.447 145.616H208.101V145.97H206.609C204.432 145.97 204.11 146.562 204.11 147.706C204.11 148.023 204.149 148.378 204.149 148.773L205.197 170.833C205.278 173.083 205.602 173.636 208.02 173.636H208.988V173.991H197.415V173.636H199.027C201.447 173.636 201.769 173.044 201.769 172.097V171.426L200.882 150.628C200.842 149.917 200.842 149.324 200.842 148.891H200.56C200.56 149.01 200.277 149.68 199.874 150.509L187.936 174.149L187.815 174.425H187.695L187.573 174.149L175.798 150.943C175.435 150.154 175.314 149.404 175.314 149.285H175.152C175.152 149.641 175.152 149.917 175.113 150.628L173.983 171.348C173.983 171.702 173.943 172.018 173.943 172.294C173.943 173.242 174.305 173.675 176.766 173.675H178.339V174.03H169.789V173.636Z" fill="#FFE9BF" fill-opacity="0.24" style="mix-blend-mode:saturation"/>
<defs>
<linearGradient id="paint0_linear_103_6000" x1="56.5224" y1="74.1165" x2="103.648" y2="74.1165" gradientUnits="userSpaceOnUse">
<stop offset="0.0186222" stop-color="#9A8C84"/>
<stop offset="0.4235" stop-color="#D3CCC5"/>
<stop offset="0.4999" stop-color="#DED9D1"/>
<stop offset="0.5991" stop-color="#D1CAC0"/>
<stop offset="0.7129" stop-color="#C7C0B1"/>
<stop offset="0.8064" stop-color="#C4BCAC"/>
<stop offset="0.8566" stop-color="#B8AF9E"/>
<stop offset="0.9516" stop-color="#978E78"/>
<stop offset="0.9972" stop-color="#867664"/>
</linearGradient>
<linearGradient id="paint1_linear_103_6000" x1="107.197" y1="74.2662" x2="154.747" y2="74.2662" gradientUnits="userSpaceOnUse">
<stop offset="0.0186222" stop-color="#9A8C84"/>
<stop offset="0.4235" stop-color="#D3CCC5"/>
<stop offset="0.4999" stop-color="#DED9D1"/>
<stop offset="0.5991" stop-color="#D1CAC0"/>
<stop offset="0.7129" stop-color="#C7C0B1"/>
<stop offset="0.8064" stop-color="#C4BCAC"/>
<stop offset="0.8566" stop-color="#B8AF9E"/>
<stop offset="0.9516" stop-color="#978E78"/>
<stop offset="0.9972" stop-color="#867664"/>
</linearGradient>
<linearGradient id="paint2_linear_103_6000" x1="89.4606" y1="25.9363" x2="121.679" y2="25.9363" gradientUnits="userSpaceOnUse">
<stop offset="0.0186222" stop-color="#9A8C84"/>
<stop offset="0.4235" stop-color="#D3CCC5"/>
<stop offset="0.4999" stop-color="#DED9D1"/>
<stop offset="0.5991" stop-color="#D1CAC0"/>
<stop offset="0.7129" stop-color="#C7C0B1"/>
<stop offset="0.8064" stop-color="#C4BCAC"/>
<stop offset="0.8566" stop-color="#B8AF9E"/>
<stop offset="0.9516" stop-color="#978E78"/>
<stop offset="0.9972" stop-color="#867664"/>
</linearGradient>
<linearGradient id="paint3_linear_103_6000" x1="82.7349" y1="36.4592" x2="128.513" y2="36.4592" gradientUnits="userSpaceOnUse">
<stop offset="0.0186222" stop-color="#9A8C84"/>
<stop offset="0.4235" stop-color="#D3CCC5"/>
<stop offset="0.4999" stop-color="#DED9D1"/>
<stop offset="0.5991" stop-color="#D1CAC0"/>
<stop offset="0.7129" stop-color="#C7C0B1"/>
<stop offset="0.8064" stop-color="#C4BCAC"/>
<stop offset="0.8566" stop-color="#B8AF9E"/>
<stop offset="0.9516" stop-color="#978E78"/>
<stop offset="0.9972" stop-color="#867664"/>
</linearGradient>
<linearGradient id="paint4_linear_103_6000" x1="0.00665319" y1="159.605" x2="18.9096" y2="159.605" gradientUnits="userSpaceOnUse">
<stop offset="0.0186222" stop-color="#9A8C84"/>
<stop offset="0.4235" stop-color="#D3CCC5"/>
<stop offset="0.4999" stop-color="#DED9D1"/>
<stop offset="0.5991" stop-color="#D1CAC0"/>
<stop offset="0.7129" stop-color="#C7C0B1"/>
<stop offset="0.8064" stop-color="#C4BCAC"/>
<stop offset="0.8566" stop-color="#B8AF9E"/>
<stop offset="0.9516" stop-color="#978E78"/>
<stop offset="0.9972" stop-color="#867664"/>
</linearGradient>
<linearGradient id="paint5_linear_103_6000" x1="25.2919" y1="159.611" x2="58.2795" y2="159.611" gradientUnits="userSpaceOnUse">
<stop offset="0.0186222" stop-color="#9A8C84"/>
<stop offset="0.4235" stop-color="#D3CCC5"/>
<stop offset="0.4999" stop-color="#DED9D1"/>
<stop offset="0.5991" stop-color="#D1CAC0"/>
<stop offset="0.7129" stop-color="#C7C0B1"/>
<stop offset="0.8064" stop-color="#C4BCAC"/>
<stop offset="0.8566" stop-color="#B8AF9E"/>
<stop offset="0.9516" stop-color="#978E78"/>
<stop offset="0.9972" stop-color="#867664"/>
</linearGradient>
<linearGradient id="paint6_linear_103_6000" x1="64.8599" y1="159.185" x2="91.2488" y2="159.185" gradientUnits="userSpaceOnUse">
<stop offset="0.0186222" stop-color="#9A8C84"/>
<stop offset="0.4235" stop-color="#D3CCC5"/>
<stop offset="0.4999" stop-color="#DED9D1"/>
<stop offset="0.5991" stop-color="#D1CAC0"/>
<stop offset="0.7129" stop-color="#C7C0B1"/>
<stop offset="0.8064" stop-color="#C4BCAC"/>
<stop offset="0.8566" stop-color="#B8AF9E"/>
<stop offset="0.9516" stop-color="#978E78"/>
<stop offset="0.9972" stop-color="#867664"/>
</linearGradient>
<linearGradient id="paint7_linear_103_6000" x1="99.1344" y1="159.922" x2="134.307" y2="159.922" gradientUnits="userSpaceOnUse">
<stop offset="0.0186222" stop-color="#9A8C84"/>
<stop offset="0.4235" stop-color="#D3CCC5"/>
<stop offset="0.4999" stop-color="#DED9D1"/>
<stop offset="0.5991" stop-color="#D1CAC0"/>
<stop offset="0.7129" stop-color="#C7C0B1"/>
<stop offset="0.8064" stop-color="#C4BCAC"/>
<stop offset="0.8566" stop-color="#B8AF9E"/>
<stop offset="0.9516" stop-color="#978E78"/>
<stop offset="0.9972" stop-color="#867664"/>
</linearGradient>
<linearGradient id="paint8_linear_103_6000" x1="132.612" y1="159.966" x2="161.585" y2="159.966" gradientUnits="userSpaceOnUse">
<stop offset="0.0186222" stop-color="#9A8C84"/>
<stop offset="0.4235" stop-color="#D3CCC5"/>
<stop offset="0.4999" stop-color="#DED9D1"/>
<stop offset="0.5991" stop-color="#D1CAC0"/>
<stop offset="0.7129" stop-color="#C7C0B1"/>
<stop offset="0.8064" stop-color="#C4BCAC"/>
<stop offset="0.8566" stop-color="#B8AF9E"/>
<stop offset="0.9516" stop-color="#978E78"/>
<stop offset="0.9972" stop-color="#867664"/>
</linearGradient>
<linearGradient id="paint9_linear_103_6000" x1="169.803" y1="160.024" x2="209.144" y2="160.024" gradientUnits="userSpaceOnUse">
<stop offset="0.0186222" stop-color="#9A8C84"/>
<stop offset="0.4235" stop-color="#D3CCC5"/>
<stop offset="0.4999" stop-color="#DED9D1"/>
<stop offset="0.5991" stop-color="#D1CAC0"/>
<stop offset="0.7129" stop-color="#C7C0B1"/>
<stop offset="0.8064" stop-color="#C4BCAC"/>
<stop offset="0.8566" stop-color="#B8AF9E"/>
<stop offset="0.9516" stop-color="#978E78"/>
<stop offset="0.9972" stop-color="#867664"/>
</linearGradient>
</defs>
</svg>
