<svg width="75" height="8" viewBox="0 0 75 8" fill="none" xmlns="http://www.w3.org/2000/svg">
<path d="M1.06138 4.1354C1.05268 4.41379 0.800388 4.68349 0.530692 4.69219C0.269696 4.70089 0 4.41379 0 4.1354C0 3.8657 0.278396 3.59601 0.556791 3.60471C0.800388 3.60471 1.09618 3.8657 1.06138 4.1354Z" fill="url(#paint0_linear_231_5861)"/>
<path d="M1.06138 4.1354C1.05268 4.41379 0.800388 4.68349 0.530692 4.69219C0.269696 4.70089 0 4.41379 0 4.1354C0 3.8657 0.278396 3.59601 0.556791 3.60471C0.800388 3.60471 1.09618 3.8657 1.06138 4.1354Z" fill="#FFE9BF" fill-opacity="0.24" style="mix-blend-mode:saturation"/>
<path d="M4.27318 4.1354C4.26448 4.41379 4.01218 4.68349 3.74248 4.69219C3.48149 4.70089 3.21179 4.41379 3.21179 4.1354C3.21179 3.8657 3.49019 3.59601 3.76858 3.60471C4.01218 3.60471 4.30798 3.8657 4.27318 4.1354Z" fill="url(#paint1_linear_231_5861)"/>
<path d="M4.27318 4.1354C4.26448 4.41379 4.01218 4.68349 3.74248 4.69219C3.48149 4.70089 3.21179 4.41379 3.21179 4.1354C3.21179 3.8657 3.49019 3.59601 3.76858 3.60471C4.01218 3.60471 4.30798 3.8657 4.27318 4.1354Z" fill="#FFE9BF" fill-opacity="0.24" style="mix-blend-mode:saturation"/>
<path d="M7.4669 4.1354C7.4582 4.41379 7.2059 4.68349 6.93621 4.69219C6.67521 4.70089 6.40552 4.41379 6.40552 4.1354C6.40552 3.8657 6.68391 3.59601 6.96231 3.60471C7.19721 3.60471 7.493 3.8657 7.4669 4.1354Z" fill="url(#paint2_linear_231_5861)"/>
<path d="M7.4669 4.1354C7.4582 4.41379 7.2059 4.68349 6.93621 4.69219C6.67521 4.70089 6.40552 4.41379 6.40552 4.1354C6.40552 3.8657 6.68391 3.59601 6.96231 3.60471C7.19721 3.60471 7.493 3.8657 7.4669 4.1354Z" fill="#FFE9BF" fill-opacity="0.24" style="mix-blend-mode:saturation"/>
<path d="M10.6689 4.1354C10.6602 4.41379 10.4079 4.68349 10.1382 4.69219C9.87724 4.70089 9.60754 4.41379 9.60754 4.1354C9.60754 3.8657 9.88594 3.59601 10.1643 3.60471C10.3992 3.60471 10.695 3.8657 10.6689 4.1354Z" fill="url(#paint3_linear_231_5861)"/>
<path d="M10.6689 4.1354C10.6602 4.41379 10.4079 4.68349 10.1382 4.69219C9.87724 4.70089 9.60754 4.41379 9.60754 4.1354C9.60754 3.8657 9.88594 3.59601 10.1643 3.60471C10.3992 3.60471 10.695 3.8657 10.6689 4.1354Z" fill="#FFE9BF" fill-opacity="0.24" style="mix-blend-mode:saturation"/>
<path d="M13.8546 4.1354C13.8459 4.41379 13.5936 4.68349 13.3239 4.69219C13.0629 4.70089 12.7932 4.41379 12.7932 4.1354C12.7932 3.8657 13.0716 3.59601 13.35 3.60471C13.5936 3.60471 13.8894 3.8657 13.8546 4.1354Z" fill="url(#paint4_linear_231_5861)"/>
<path d="M13.8546 4.1354C13.8459 4.41379 13.5936 4.68349 13.3239 4.69219C13.0629 4.70089 12.7932 4.41379 12.7932 4.1354C12.7932 3.8657 13.0716 3.59601 13.35 3.60471C13.5936 3.60471 13.8894 3.8657 13.8546 4.1354Z" fill="#FFE9BF" fill-opacity="0.24" style="mix-blend-mode:saturation"/>
<path d="M17.0663 4.1354C17.0576 4.41379 16.8053 4.68349 16.5356 4.69219C16.2746 4.70089 16.0049 4.41379 16.0049 4.1354C16.0049 3.8657 16.2833 3.59601 16.5617 3.60471C16.8053 3.60471 17.1011 3.8657 17.0663 4.1354Z" fill="url(#paint5_linear_231_5861)"/>
<path d="M17.0663 4.1354C17.0576 4.41379 16.8053 4.68349 16.5356 4.69219C16.2746 4.70089 16.0049 4.41379 16.0049 4.1354C16.0049 3.8657 16.2833 3.59601 16.5617 3.60471C16.8053 3.60471 17.1011 3.8657 17.0663 4.1354Z" fill="#FFE9BF" fill-opacity="0.24" style="mix-blend-mode:saturation"/>
<path d="M20.2601 4.1354C20.2514 4.41379 19.9991 4.68349 19.7294 4.69219C19.4684 4.70089 19.1987 4.41379 19.1987 4.1354C19.1987 3.8657 19.4771 3.59601 19.7555 3.60471C19.9991 3.60471 20.2949 3.8657 20.2601 4.1354Z" fill="url(#paint6_linear_231_5861)"/>
<path d="M20.2601 4.1354C20.2514 4.41379 19.9991 4.68349 19.7294 4.69219C19.4684 4.70089 19.1987 4.41379 19.1987 4.1354C19.1987 3.8657 19.4771 3.59601 19.7555 3.60471C19.9991 3.60471 20.2949 3.8657 20.2601 4.1354Z" fill="#FFE9BF" fill-opacity="0.24" style="mix-blend-mode:saturation"/>
<path d="M23.4718 4.1354C23.4631 4.41379 23.2108 4.68349 22.9411 4.69219C22.6801 4.70089 22.4104 4.41379 22.4104 4.1354C22.4104 3.8657 22.6888 3.59601 22.9672 3.60471C23.2021 3.60471 23.4979 3.8657 23.4718 4.1354Z" fill="url(#paint7_linear_231_5861)"/>
<path d="M23.4718 4.1354C23.4631 4.41379 23.2108 4.68349 22.9411 4.69219C22.6801 4.70089 22.4104 4.41379 22.4104 4.1354C22.4104 3.8657 22.6888 3.59601 22.9672 3.60471C23.2021 3.60471 23.4979 3.8657 23.4718 4.1354Z" fill="#FFE9BF" fill-opacity="0.24" style="mix-blend-mode:saturation"/>
<path d="M26.6656 4.1354C26.6569 4.41379 26.4046 4.68349 26.1349 4.69219C25.8739 4.70089 25.6042 4.41379 25.6042 4.1354C25.6042 3.8657 25.8826 3.59601 26.161 3.60471C26.3959 3.60471 26.6917 3.8657 26.6656 4.1354Z" fill="url(#paint8_linear_231_5861)"/>
<path d="M26.6656 4.1354C26.6569 4.41379 26.4046 4.68349 26.1349 4.69219C25.8739 4.70089 25.6042 4.41379 25.6042 4.1354C25.6042 3.8657 25.8826 3.59601 26.161 3.60471C26.3959 3.60471 26.6917 3.8657 26.6656 4.1354Z" fill="#FFE9BF" fill-opacity="0.24" style="mix-blend-mode:saturation"/>
<path d="M29.8553 4.1354C29.8466 4.41379 29.5943 4.68349 29.3246 4.69219C29.0636 4.70089 28.7939 4.41379 28.7939 4.1354C28.7939 3.8657 29.0723 3.59601 29.3507 3.60471C29.5943 3.60471 29.8901 3.8657 29.8553 4.1354Z" fill="url(#paint9_linear_231_5861)"/>
<path d="M29.8553 4.1354C29.8466 4.41379 29.5943 4.68349 29.3246 4.69219C29.0636 4.70089 28.7939 4.41379 28.7939 4.1354C28.7939 3.8657 29.0723 3.59601 29.3507 3.60471C29.5943 3.60471 29.8901 3.8657 29.8553 4.1354Z" fill="#FFE9BF" fill-opacity="0.24" style="mix-blend-mode:saturation"/>
<path d="M43.0182 4.1354C43.0095 4.41379 42.7572 4.68349 42.4875 4.69219C42.2265 4.70089 41.9568 4.41379 41.9568 4.1354C41.9568 3.8657 42.2352 3.59601 42.5136 3.60471C42.7572 3.60471 43.053 3.8657 43.0182 4.1354Z" fill="url(#paint10_linear_231_5861)"/>
<path d="M43.0182 4.1354C43.0095 4.41379 42.7572 4.68349 42.4875 4.69219C42.2265 4.70089 41.9568 4.41379 41.9568 4.1354C41.9568 3.8657 42.2352 3.59601 42.5136 3.60471C42.7572 3.60471 43.053 3.8657 43.0182 4.1354Z" fill="#FFE9BF" fill-opacity="0.24" style="mix-blend-mode:saturation"/>
<path d="M46.2132 4.1354C46.2045 4.41379 45.9522 4.68349 45.6825 4.69219C45.4215 4.70089 45.1519 4.41379 45.1519 4.1354C45.1519 3.8657 45.4303 3.59601 45.7086 3.60471C45.9522 3.60471 46.248 3.8657 46.2132 4.1354Z" fill="url(#paint11_linear_231_5861)"/>
<path d="M46.2132 4.1354C46.2045 4.41379 45.9522 4.68349 45.6825 4.69219C45.4215 4.70089 45.1519 4.41379 45.1519 4.1354C45.1519 3.8657 45.4303 3.59601 45.7086 3.60471C45.9522 3.60471 46.248 3.8657 46.2132 4.1354Z" fill="#FFE9BF" fill-opacity="0.24" style="mix-blend-mode:saturation"/>
<path d="M49.4071 4.1354C49.3984 4.41379 49.1461 4.68349 48.8764 4.69219C48.6154 4.70089 48.3457 4.41379 48.3457 4.1354C48.3457 3.8657 48.6241 3.59601 48.9025 3.60471C49.1461 3.60471 49.4419 3.8657 49.4071 4.1354Z" fill="url(#paint12_linear_231_5861)"/>
<path d="M49.4071 4.1354C49.3984 4.41379 49.1461 4.68349 48.8764 4.69219C48.6154 4.70089 48.3457 4.41379 48.3457 4.1354C48.3457 3.8657 48.6241 3.59601 48.9025 3.60471C49.1461 3.60471 49.4419 3.8657 49.4071 4.1354Z" fill="#FFE9BF" fill-opacity="0.24" style="mix-blend-mode:saturation"/>
<path d="M52.6188 4.1354C52.6101 4.41379 52.3578 4.68349 52.0881 4.69219C51.8271 4.70089 51.5574 4.41379 51.5574 4.1354C51.5574 3.8657 51.8358 3.59601 52.1142 3.60471C52.3491 3.60471 52.6449 3.8657 52.6188 4.1354Z" fill="url(#paint13_linear_231_5861)"/>
<path d="M52.6188 4.1354C52.6101 4.41379 52.3578 4.68349 52.0881 4.69219C51.8271 4.70089 51.5574 4.41379 51.5574 4.1354C51.5574 3.8657 51.8358 3.59601 52.1142 3.60471C52.3491 3.60471 52.6449 3.8657 52.6188 4.1354Z" fill="#FFE9BF" fill-opacity="0.24" style="mix-blend-mode:saturation"/>
<path d="M55.8126 4.1354C55.8039 4.41379 55.5516 4.68349 55.2819 4.69219C55.0209 4.70089 54.7512 4.41379 54.7512 4.1354C54.7512 3.8657 55.0296 3.59601 55.308 3.60471C55.5429 3.60471 55.8387 3.8657 55.8126 4.1354Z" fill="url(#paint14_linear_231_5861)"/>
<path d="M55.8126 4.1354C55.8039 4.41379 55.5516 4.68349 55.2819 4.69219C55.0209 4.70089 54.7512 4.41379 54.7512 4.1354C54.7512 3.8657 55.0296 3.59601 55.308 3.60471C55.5429 3.60471 55.8387 3.8657 55.8126 4.1354Z" fill="#FFE9BF" fill-opacity="0.24" style="mix-blend-mode:saturation"/>
<path d="M59.0038 4.1354C58.9951 4.41379 58.7428 4.68349 58.4731 4.69219C58.2121 4.70089 57.9424 4.41379 57.9424 4.1354C57.9424 3.8657 58.2208 3.59601 58.4992 3.60471C58.7428 3.60471 59.0386 3.8657 59.0038 4.1354Z" fill="url(#paint15_linear_231_5861)"/>
<path d="M59.0038 4.1354C58.9951 4.41379 58.7428 4.68349 58.4731 4.69219C58.2121 4.70089 57.9424 4.41379 57.9424 4.1354C57.9424 3.8657 58.2208 3.59601 58.4992 3.60471C58.7428 3.60471 59.0386 3.8657 59.0038 4.1354Z" fill="#FFE9BF" fill-opacity="0.24" style="mix-blend-mode:saturation"/>
<path d="M62.2142 4.1354C62.2055 4.41379 61.9532 4.68349 61.6835 4.69219C61.4225 4.70089 61.1528 4.41379 61.1528 4.1354C61.1528 3.8657 61.4312 3.59601 61.7096 3.60471C61.9532 3.60471 62.249 3.8657 62.2142 4.1354Z" fill="url(#paint16_linear_231_5861)"/>
<path d="M62.2142 4.1354C62.2055 4.41379 61.9532 4.68349 61.6835 4.69219C61.4225 4.70089 61.1528 4.41379 61.1528 4.1354C61.1528 3.8657 61.4312 3.59601 61.7096 3.60471C61.9532 3.60471 62.249 3.8657 62.2142 4.1354Z" fill="#FFE9BF" fill-opacity="0.24" style="mix-blend-mode:saturation"/>
<path d="M68.0933 0.429688L74.9999 3.88302L68.0933 7.33636L71.8983 3.88302L68.0933 0.429688Z" fill="url(#paint17_linear_231_5861)"/>
<path d="M68.0933 0.429688L74.9999 3.88302L68.0933 7.33636L71.8983 3.88302L68.0933 0.429688Z" fill="#FFE9BF" fill-opacity="0.24" style="mix-blend-mode:saturation"/>
<path d="M63.7129 0L70.4437 3.885L63.7129 7.77001L66.127 3.885L63.7129 0Z" fill="url(#paint18_linear_231_5861)"/>
<path d="M63.7129 0L70.4437 3.885L63.7129 7.77001L66.127 3.885L63.7129 0Z" fill="#FFE9BF" fill-opacity="0.24" style="mix-blend-mode:saturation"/>
<path d="M35.9001 2.62988C35.9001 2.62988 35.4779 3.1928 34.6863 3.65016C33.3142 3.91403 31.6255 4.05475 31.6255 4.05475C31.6255 4.05475 33.3142 4.19548 34.6863 4.45935C35.4779 4.91672 35.9001 5.47963 35.9001 5.47963C35.9001 5.47963 36.3223 4.91672 37.1139 4.45935C38.486 4.19548 40.1747 4.05475 40.1747 4.05475C40.1747 4.05475 38.486 3.91403 37.1139 3.65016C36.3399 3.18693 35.9001 2.62988 35.9001 2.62988Z" fill="url(#paint19_linear_231_5861)"/>
<path d="M35.9001 2.62988C35.9001 2.62988 35.4779 3.1928 34.6863 3.65016C33.3142 3.91403 31.6255 4.05475 31.6255 4.05475C31.6255 4.05475 33.3142 4.19548 34.6863 4.45935C35.4779 4.91672 35.9001 5.47963 35.9001 5.47963C35.9001 5.47963 36.3223 4.91672 37.1139 4.45935C38.486 4.19548 40.1747 4.05475 40.1747 4.05475C40.1747 4.05475 38.486 3.91403 37.1139 3.65016C36.3399 3.18693 35.9001 2.62988 35.9001 2.62988Z" fill="#FFE9BF" fill-opacity="0.24" style="mix-blend-mode:saturation"/>
<defs>
<linearGradient id="paint0_linear_231_5861" x1="0.531971" y1="4.692" x2="0.531971" y2="3.60017" gradientUnits="userSpaceOnUse">
<stop offset="0.0186222" stop-color="#9A8C84"/>
<stop offset="0.4235" stop-color="#D3CCC5"/>
<stop offset="0.4999" stop-color="#DED9D1"/>
<stop offset="0.5991" stop-color="#D1CAC0"/>
<stop offset="0.7129" stop-color="#C7C0B1"/>
<stop offset="0.8064" stop-color="#C4BCAC"/>
<stop offset="0.8566" stop-color="#B8AF9E"/>
<stop offset="0.9516" stop-color="#978E78"/>
<stop offset="0.9972" stop-color="#867664"/>
</linearGradient>
<linearGradient id="paint1_linear_231_5861" x1="3.74376" y1="4.692" x2="3.74376" y2="3.60017" gradientUnits="userSpaceOnUse">
<stop offset="0.0186222" stop-color="#9A8C84"/>
<stop offset="0.4235" stop-color="#D3CCC5"/>
<stop offset="0.4999" stop-color="#DED9D1"/>
<stop offset="0.5991" stop-color="#D1CAC0"/>
<stop offset="0.7129" stop-color="#C7C0B1"/>
<stop offset="0.8064" stop-color="#C4BCAC"/>
<stop offset="0.8566" stop-color="#B8AF9E"/>
<stop offset="0.9516" stop-color="#978E78"/>
<stop offset="0.9972" stop-color="#867664"/>
</linearGradient>
<linearGradient id="paint2_linear_231_5861" x1="6.93689" y1="4.692" x2="6.93689" y2="3.60017" gradientUnits="userSpaceOnUse">
<stop offset="0.0186222" stop-color="#9A8C84"/>
<stop offset="0.4235" stop-color="#D3CCC5"/>
<stop offset="0.4999" stop-color="#DED9D1"/>
<stop offset="0.5991" stop-color="#D1CAC0"/>
<stop offset="0.7129" stop-color="#C7C0B1"/>
<stop offset="0.8064" stop-color="#C4BCAC"/>
<stop offset="0.8566" stop-color="#B8AF9E"/>
<stop offset="0.9516" stop-color="#978E78"/>
<stop offset="0.9972" stop-color="#867664"/>
</linearGradient>
<linearGradient id="paint3_linear_231_5861" x1="10.1389" y1="4.692" x2="10.1389" y2="3.60017" gradientUnits="userSpaceOnUse">
<stop offset="0.0186222" stop-color="#9A8C84"/>
<stop offset="0.4235" stop-color="#D3CCC5"/>
<stop offset="0.4999" stop-color="#DED9D1"/>
<stop offset="0.5991" stop-color="#D1CAC0"/>
<stop offset="0.7129" stop-color="#C7C0B1"/>
<stop offset="0.8064" stop-color="#C4BCAC"/>
<stop offset="0.8566" stop-color="#B8AF9E"/>
<stop offset="0.9516" stop-color="#978E78"/>
<stop offset="0.9972" stop-color="#867664"/>
</linearGradient>
<linearGradient id="paint4_linear_231_5861" x1="13.3252" y1="4.692" x2="13.3252" y2="3.60017" gradientUnits="userSpaceOnUse">
<stop offset="0.0186222" stop-color="#9A8C84"/>
<stop offset="0.4235" stop-color="#D3CCC5"/>
<stop offset="0.4999" stop-color="#DED9D1"/>
<stop offset="0.5991" stop-color="#D1CAC0"/>
<stop offset="0.7129" stop-color="#C7C0B1"/>
<stop offset="0.8064" stop-color="#C4BCAC"/>
<stop offset="0.8566" stop-color="#B8AF9E"/>
<stop offset="0.9516" stop-color="#978E78"/>
<stop offset="0.9972" stop-color="#867664"/>
</linearGradient>
<linearGradient id="paint5_linear_231_5861" x1="16.5369" y1="4.692" x2="16.5369" y2="3.60017" gradientUnits="userSpaceOnUse">
<stop offset="0.0186222" stop-color="#9A8C84"/>
<stop offset="0.4235" stop-color="#D3CCC5"/>
<stop offset="0.4999" stop-color="#DED9D1"/>
<stop offset="0.5991" stop-color="#D1CAC0"/>
<stop offset="0.7129" stop-color="#C7C0B1"/>
<stop offset="0.8064" stop-color="#C4BCAC"/>
<stop offset="0.8566" stop-color="#B8AF9E"/>
<stop offset="0.9516" stop-color="#978E78"/>
<stop offset="0.9972" stop-color="#867664"/>
</linearGradient>
<linearGradient id="paint6_linear_231_5861" x1="19.7307" y1="4.692" x2="19.7307" y2="3.60017" gradientUnits="userSpaceOnUse">
<stop offset="0.0186222" stop-color="#9A8C84"/>
<stop offset="0.4235" stop-color="#D3CCC5"/>
<stop offset="0.4999" stop-color="#DED9D1"/>
<stop offset="0.5991" stop-color="#D1CAC0"/>
<stop offset="0.7129" stop-color="#C7C0B1"/>
<stop offset="0.8064" stop-color="#C4BCAC"/>
<stop offset="0.8566" stop-color="#B8AF9E"/>
<stop offset="0.9516" stop-color="#978E78"/>
<stop offset="0.9972" stop-color="#867664"/>
</linearGradient>
<linearGradient id="paint7_linear_231_5861" x1="22.9418" y1="4.692" x2="22.9418" y2="3.60017" gradientUnits="userSpaceOnUse">
<stop offset="0.0186222" stop-color="#9A8C84"/>
<stop offset="0.4235" stop-color="#D3CCC5"/>
<stop offset="0.4999" stop-color="#DED9D1"/>
<stop offset="0.5991" stop-color="#D1CAC0"/>
<stop offset="0.7129" stop-color="#C7C0B1"/>
<stop offset="0.8064" stop-color="#C4BCAC"/>
<stop offset="0.8566" stop-color="#B8AF9E"/>
<stop offset="0.9516" stop-color="#978E78"/>
<stop offset="0.9972" stop-color="#867664"/>
</linearGradient>
<linearGradient id="paint8_linear_231_5861" x1="26.1356" y1="4.692" x2="26.1356" y2="3.60017" gradientUnits="userSpaceOnUse">
<stop offset="0.0186222" stop-color="#9A8C84"/>
<stop offset="0.4235" stop-color="#D3CCC5"/>
<stop offset="0.4999" stop-color="#DED9D1"/>
<stop offset="0.5991" stop-color="#D1CAC0"/>
<stop offset="0.7129" stop-color="#C7C0B1"/>
<stop offset="0.8064" stop-color="#C4BCAC"/>
<stop offset="0.8566" stop-color="#B8AF9E"/>
<stop offset="0.9516" stop-color="#978E78"/>
<stop offset="0.9972" stop-color="#867664"/>
</linearGradient>
<linearGradient id="paint9_linear_231_5861" x1="29.3259" y1="4.692" x2="29.3259" y2="3.60017" gradientUnits="userSpaceOnUse">
<stop offset="0.0186222" stop-color="#9A8C84"/>
<stop offset="0.4235" stop-color="#D3CCC5"/>
<stop offset="0.4999" stop-color="#DED9D1"/>
<stop offset="0.5991" stop-color="#D1CAC0"/>
<stop offset="0.7129" stop-color="#C7C0B1"/>
<stop offset="0.8064" stop-color="#C4BCAC"/>
<stop offset="0.8566" stop-color="#B8AF9E"/>
<stop offset="0.9516" stop-color="#978E78"/>
<stop offset="0.9972" stop-color="#867664"/>
</linearGradient>
<linearGradient id="paint10_linear_231_5861" x1="42.4888" y1="4.692" x2="42.4888" y2="3.60017" gradientUnits="userSpaceOnUse">
<stop offset="0.0186222" stop-color="#9A8C84"/>
<stop offset="0.4235" stop-color="#D3CCC5"/>
<stop offset="0.4999" stop-color="#DED9D1"/>
<stop offset="0.5991" stop-color="#D1CAC0"/>
<stop offset="0.7129" stop-color="#C7C0B1"/>
<stop offset="0.8064" stop-color="#C4BCAC"/>
<stop offset="0.8566" stop-color="#B8AF9E"/>
<stop offset="0.9516" stop-color="#978E78"/>
<stop offset="0.9972" stop-color="#867664"/>
</linearGradient>
<linearGradient id="paint11_linear_231_5861" x1="45.6838" y1="4.692" x2="45.6838" y2="3.60017" gradientUnits="userSpaceOnUse">
<stop offset="0.0186222" stop-color="#9A8C84"/>
<stop offset="0.4235" stop-color="#D3CCC5"/>
<stop offset="0.4999" stop-color="#DED9D1"/>
<stop offset="0.5991" stop-color="#D1CAC0"/>
<stop offset="0.7129" stop-color="#C7C0B1"/>
<stop offset="0.8064" stop-color="#C4BCAC"/>
<stop offset="0.8566" stop-color="#B8AF9E"/>
<stop offset="0.9516" stop-color="#978E78"/>
<stop offset="0.9972" stop-color="#867664"/>
</linearGradient>
<linearGradient id="paint12_linear_231_5861" x1="48.8777" y1="4.692" x2="48.8777" y2="3.60017" gradientUnits="userSpaceOnUse">
<stop offset="0.0186222" stop-color="#9A8C84"/>
<stop offset="0.4235" stop-color="#D3CCC5"/>
<stop offset="0.4999" stop-color="#DED9D1"/>
<stop offset="0.5991" stop-color="#D1CAC0"/>
<stop offset="0.7129" stop-color="#C7C0B1"/>
<stop offset="0.8064" stop-color="#C4BCAC"/>
<stop offset="0.8566" stop-color="#B8AF9E"/>
<stop offset="0.9516" stop-color="#978E78"/>
<stop offset="0.9972" stop-color="#867664"/>
</linearGradient>
<linearGradient id="paint13_linear_231_5861" x1="52.0887" y1="4.692" x2="52.0887" y2="3.60017" gradientUnits="userSpaceOnUse">
<stop offset="0.0186222" stop-color="#9A8C84"/>
<stop offset="0.4235" stop-color="#D3CCC5"/>
<stop offset="0.4999" stop-color="#DED9D1"/>
<stop offset="0.5991" stop-color="#D1CAC0"/>
<stop offset="0.7129" stop-color="#C7C0B1"/>
<stop offset="0.8064" stop-color="#C4BCAC"/>
<stop offset="0.8566" stop-color="#B8AF9E"/>
<stop offset="0.9516" stop-color="#978E78"/>
<stop offset="0.9972" stop-color="#867664"/>
</linearGradient>
<linearGradient id="paint14_linear_231_5861" x1="55.2826" y1="4.692" x2="55.2826" y2="3.60017" gradientUnits="userSpaceOnUse">
<stop offset="0.0186222" stop-color="#9A8C84"/>
<stop offset="0.4235" stop-color="#D3CCC5"/>
<stop offset="0.4999" stop-color="#DED9D1"/>
<stop offset="0.5991" stop-color="#D1CAC0"/>
<stop offset="0.7129" stop-color="#C7C0B1"/>
<stop offset="0.8064" stop-color="#C4BCAC"/>
<stop offset="0.8566" stop-color="#B8AF9E"/>
<stop offset="0.9516" stop-color="#978E78"/>
<stop offset="0.9972" stop-color="#867664"/>
</linearGradient>
<linearGradient id="paint15_linear_231_5861" x1="58.4744" y1="4.692" x2="58.4744" y2="3.60017" gradientUnits="userSpaceOnUse">
<stop offset="0.0186222" stop-color="#9A8C84"/>
<stop offset="0.4235" stop-color="#D3CCC5"/>
<stop offset="0.4999" stop-color="#DED9D1"/>
<stop offset="0.5991" stop-color="#D1CAC0"/>
<stop offset="0.7129" stop-color="#C7C0B1"/>
<stop offset="0.8064" stop-color="#C4BCAC"/>
<stop offset="0.8566" stop-color="#B8AF9E"/>
<stop offset="0.9516" stop-color="#978E78"/>
<stop offset="0.9972" stop-color="#867664"/>
</linearGradient>
<linearGradient id="paint16_linear_231_5861" x1="61.6848" y1="4.692" x2="61.6848" y2="3.60017" gradientUnits="userSpaceOnUse">
<stop offset="0.0186222" stop-color="#9A8C84"/>
<stop offset="0.4235" stop-color="#D3CCC5"/>
<stop offset="0.4999" stop-color="#DED9D1"/>
<stop offset="0.5991" stop-color="#D1CAC0"/>
<stop offset="0.7129" stop-color="#C7C0B1"/>
<stop offset="0.8064" stop-color="#C4BCAC"/>
<stop offset="0.8566" stop-color="#B8AF9E"/>
<stop offset="0.9516" stop-color="#978E78"/>
<stop offset="0.9972" stop-color="#867664"/>
</linearGradient>
<linearGradient id="paint17_linear_231_5861" x1="68.0957" y1="3.88222" x2="75.0274" y2="3.88222" gradientUnits="userSpaceOnUse">
<stop offset="0.0186222" stop-color="#9A8C84"/>
<stop offset="0.4235" stop-color="#D3CCC5"/>
<stop offset="0.4999" stop-color="#DED9D1"/>
<stop offset="0.5991" stop-color="#D1CAC0"/>
<stop offset="0.7129" stop-color="#C7C0B1"/>
<stop offset="0.8064" stop-color="#C4BCAC"/>
<stop offset="0.8566" stop-color="#B8AF9E"/>
<stop offset="0.9516" stop-color="#978E78"/>
<stop offset="0.9972" stop-color="#867664"/>
</linearGradient>
<linearGradient id="paint18_linear_231_5861" x1="63.7153" y1="3.8841" x2="70.4705" y2="3.8841" gradientUnits="userSpaceOnUse">
<stop offset="0.0186222" stop-color="#9A8C84"/>
<stop offset="0.4235" stop-color="#D3CCC5"/>
<stop offset="0.4999" stop-color="#DED9D1"/>
<stop offset="0.5991" stop-color="#D1CAC0"/>
<stop offset="0.7129" stop-color="#C7C0B1"/>
<stop offset="0.8064" stop-color="#C4BCAC"/>
<stop offset="0.8566" stop-color="#B8AF9E"/>
<stop offset="0.9516" stop-color="#978E78"/>
<stop offset="0.9972" stop-color="#867664"/>
</linearGradient>
<linearGradient id="paint19_linear_231_5861" x1="31.6285" y1="4.05442" x2="40.2087" y2="4.05442" gradientUnits="userSpaceOnUse">
<stop offset="0.0186222" stop-color="#9A8C84"/>
<stop offset="0.4235" stop-color="#D3CCC5"/>
<stop offset="0.4999" stop-color="#DED9D1"/>
<stop offset="0.5991" stop-color="#D1CAC0"/>
<stop offset="0.7129" stop-color="#C7C0B1"/>
<stop offset="0.8064" stop-color="#C4BCAC"/>
<stop offset="0.8566" stop-color="#B8AF9E"/>
<stop offset="0.9516" stop-color="#978E78"/>
<stop offset="0.9972" stop-color="#867664"/>
</linearGradient>
</defs>
</svg>
