<svg width="98" height="82" viewBox="0 0 98 82" fill="none" xmlns="http://www.w3.org/2000/svg">
<path d="M45.0899 54.7929C41.2576 53.9961 37.847 52.3573 34.9412 49.7116C34.8212 49.6021 34.6811 49.514 34.5549 49.4106C34.428 49.308 34.3059 49.1984 34.0521 48.9814C37.0078 49.7005 39.5953 50.8927 42.0357 52.4087C43.1141 53.0786 44.1336 53.8421 45.1752 54.5682C45.2425 54.6154 45.2779 54.7083 45.3271 54.7797C45.248 54.7846 45.1648 54.8082 45.0899 54.7929ZM33.1221 47.534C31.8627 47.1387 31.5361 45.8745 30.8544 44.9445C31.328 45.018 31.8211 45.0319 32.2733 45.174C35.9031 46.3183 39.0426 48.3101 42.0982 50.8954C40.3921 50.1166 38.9247 49.3503 37.3858 48.7726C36.0043 48.2546 34.5341 47.9765 33.1221 47.534ZM29.0339 41.1538C28.873 40.7946 29.5097 41.0734 29.6872 41.1274C34.179 42.4957 37.9212 45.0506 41.1439 48.4189C41.4899 48.7809 41.8922 49.0889 42.2688 49.4217C38.8657 46.595 35.0861 44.4805 30.7684 43.493C29.3467 43.1677 29.4209 42.0186 29.0339 41.1538ZM28.1199 38.1378C28.1601 37.7626 28.6497 38.1052 28.9202 38.1745C34.177 39.5261 38.1292 42.7953 41.5794 46.7975C42.0988 47.3995 42.6134 48.0049 43.1301 48.609C41.3949 46.7511 39.51 45.0541 37.4316 43.5727C34.7671 41.6732 31.8551 40.316 28.6747 39.5109C28.0519 39.3535 28.0707 38.592 28.1199 38.1378ZM27.7704 36.25C27.7045 35.5808 27.6976 34.9053 27.6657 34.2326C28.201 34.338 28.751 34.397 29.2704 34.5558C32.9904 35.6987 36.1403 37.7861 38.8012 40.5754C40.6966 42.5616 42.4872 44.6595 43.6343 47.206C43.6807 47.3079 43.696 47.4238 43.7834 47.7435C42.25 45.493 40.5343 43.7003 38.6487 42.0567C35.6846 39.4734 32.3336 37.6384 28.4958 36.7209C28.1913 36.6481 27.8099 36.6557 27.7704 36.25ZM27.6892 31.3927C27.7801 30.8532 28.2593 31.2832 28.4868 31.34C33.5861 32.614 37.6438 35.4796 40.7902 39.6274C41.8249 40.9915 42.956 42.3452 43.5781 44.5228C41.2188 41.0803 38.7929 38.3569 35.7228 36.284C33.308 34.6543 30.6775 33.4989 27.8113 32.8442C27.1615 32.6965 27.6109 31.8622 27.6892 31.3927ZM27.9035 29.1923C28.0055 28.8171 27.8675 28.1367 28.6678 28.3372C32.4966 29.2977 35.9114 31.0481 38.8526 33.6855C40.7659 35.4012 42.3853 37.3798 43.8673 39.4714C44.0046 39.6648 44.0573 39.9187 44.1662 40.185C44.0094 40.6344 43.8569 41.0713 43.7043 41.5082C43.4789 41.1788 43.2521 40.8493 43.0274 40.5192C40.1966 36.3624 36.6417 33.0461 31.921 31.1368C30.7018 30.6438 29.4008 30.3511 28.1345 29.9759C27.6435 29.831 27.839 29.4315 27.9035 29.1923ZM28.6074 26.4841C28.8356 25.5805 29.1678 25.3794 30.1005 25.645C34.7852 26.9765 38.7471 29.4246 41.9019 33.1286C42.956 34.3672 44.0074 35.6321 44.6059 36.9678C44.5781 37.9866 44.4692 38.2133 44.2563 37.9332C44.0198 37.6239 43.7958 37.3049 43.567 36.99C41.9532 34.7652 40.0093 32.8498 37.8269 31.2083C35.2602 29.2782 32.3572 27.9911 29.2455 27.1769C28.9264 27.0937 28.4264 27.2026 28.6074 26.4841ZM29.7039 23.7871C30.3752 21.1123 32.0805 22.3751 33.4072 22.9057C36.548 24.1609 39.5731 25.6741 41.7784 28.3621C43.0947 29.9669 43.9824 31.8102 44.3236 33.9192C44.3146 33.9372 44.2938 33.9823 44.273 34.0267C44.2182 33.9864 44.1488 33.9559 44.1107 33.9032C40.5357 29.0258 35.8289 25.8232 29.957 24.3391C29.6442 24.2601 29.6213 24.1151 29.7039 23.7871ZM32.7594 19.4361C36.9357 20.8619 40.7493 22.9618 43.8624 26.1457C46.945 29.2977 47.968 35.3228 46.1718 39.3632C44.9207 42.1795 44.3451 45.0693 45.0656 48.1297C45.0885 48.2268 45.0684 48.3343 45.0684 48.9758C44.4096 46.1123 44.282 43.7926 45.0039 41.4569C46.8174 35.5877 45.4478 28.8074 39.9948 24.9466C37.5148 23.1907 34.754 21.9902 31.896 20.995C31.7629 20.9486 31.6616 20.8099 31.5458 20.7149C31.9376 20.2544 32.1734 19.2363 32.7594 19.4361ZM47.1843 39.8611C49.3425 34.7368 48.5124 29.6527 44.8486 25.396C42.069 22.1664 38.3234 20.1843 34.3607 18.6524C34.1277 18.5622 33.1242 18.6316 33.9079 17.8798C34.6666 17.1517 35.4162 16.395 36.2644 15.7813C36.9461 15.2882 37.6445 14.8478 38.3518 14.4317C38.3317 13.9941 38.3394 13.5565 38.381 13.121C36.2491 14.302 34.2962 15.8416 32.5271 17.7391C29.3391 21.1566 27.3744 25.2386 26.7482 29.9225C25.6691 37.9949 28.1275 44.8516 34.0383 50.3753C37.6251 53.7263 41.9796 55.5884 46.9076 56.2014C48.7405 56.4289 48.7703 56.0412 48.1524 54.5488C46.1794 49.7831 44.9949 45.0589 47.1843 39.8611Z" fill="url(#paint0_linear_103_10097)"/>
<path d="M45.0899 54.7929C41.2576 53.9961 37.847 52.3573 34.9412 49.7116C34.8212 49.6021 34.6811 49.514 34.5549 49.4106C34.428 49.308 34.3059 49.1984 34.0521 48.9814C37.0078 49.7005 39.5953 50.8927 42.0357 52.4087C43.1141 53.0786 44.1336 53.8421 45.1752 54.5682C45.2425 54.6154 45.2779 54.7083 45.3271 54.7797C45.248 54.7846 45.1648 54.8082 45.0899 54.7929ZM33.1221 47.534C31.8627 47.1387 31.5361 45.8745 30.8544 44.9445C31.328 45.018 31.8211 45.0319 32.2733 45.174C35.9031 46.3183 39.0426 48.3101 42.0982 50.8954C40.3921 50.1166 38.9247 49.3503 37.3858 48.7726C36.0043 48.2546 34.5341 47.9765 33.1221 47.534ZM29.0339 41.1538C28.873 40.7946 29.5097 41.0734 29.6872 41.1274C34.179 42.4957 37.9212 45.0506 41.1439 48.4189C41.4899 48.7809 41.8922 49.0889 42.2688 49.4217C38.8657 46.595 35.0861 44.4805 30.7684 43.493C29.3467 43.1677 29.4209 42.0186 29.0339 41.1538ZM28.1199 38.1378C28.1601 37.7626 28.6497 38.1052 28.9202 38.1745C34.177 39.5261 38.1292 42.7953 41.5794 46.7975C42.0988 47.3995 42.6134 48.0049 43.1301 48.609C41.3949 46.7511 39.51 45.0541 37.4316 43.5727C34.7671 41.6732 31.8551 40.316 28.6747 39.5109C28.0519 39.3535 28.0707 38.592 28.1199 38.1378ZM27.7704 36.25C27.7045 35.5808 27.6976 34.9053 27.6657 34.2326C28.201 34.338 28.751 34.397 29.2704 34.5558C32.9904 35.6987 36.1403 37.7861 38.8012 40.5754C40.6966 42.5616 42.4872 44.6595 43.6343 47.206C43.6807 47.3079 43.696 47.4238 43.7834 47.7435C42.25 45.493 40.5343 43.7003 38.6487 42.0567C35.6846 39.4734 32.3336 37.6384 28.4958 36.7209C28.1913 36.6481 27.8099 36.6557 27.7704 36.25ZM27.6892 31.3927C27.7801 30.8532 28.2593 31.2832 28.4868 31.34C33.5861 32.614 37.6438 35.4796 40.7902 39.6274C41.8249 40.9915 42.956 42.3452 43.5781 44.5228C41.2188 41.0803 38.7929 38.3569 35.7228 36.284C33.308 34.6543 30.6775 33.4989 27.8113 32.8442C27.1615 32.6965 27.6109 31.8622 27.6892 31.3927ZM27.9035 29.1923C28.0055 28.8171 27.8675 28.1367 28.6678 28.3372C32.4966 29.2977 35.9114 31.0481 38.8526 33.6855C40.7659 35.4012 42.3853 37.3798 43.8673 39.4714C44.0046 39.6648 44.0573 39.9187 44.1662 40.185C44.0094 40.6344 43.8569 41.0713 43.7043 41.5082C43.4789 41.1788 43.2521 40.8493 43.0274 40.5192C40.1966 36.3624 36.6417 33.0461 31.921 31.1368C30.7018 30.6438 29.4008 30.3511 28.1345 29.9759C27.6435 29.831 27.839 29.4315 27.9035 29.1923ZM28.6074 26.4841C28.8356 25.5805 29.1678 25.3794 30.1005 25.645C34.7852 26.9765 38.7471 29.4246 41.9019 33.1286C42.956 34.3672 44.0074 35.6321 44.6059 36.9678C44.5781 37.9866 44.4692 38.2133 44.2563 37.9332C44.0198 37.6239 43.7958 37.3049 43.567 36.99C41.9532 34.7652 40.0093 32.8498 37.8269 31.2083C35.2602 29.2782 32.3572 27.9911 29.2455 27.1769C28.9264 27.0937 28.4264 27.2026 28.6074 26.4841ZM29.7039 23.7871C30.3752 21.1123 32.0805 22.3751 33.4072 22.9057C36.548 24.1609 39.5731 25.6741 41.7784 28.3621C43.0947 29.9669 43.9824 31.8102 44.3236 33.9192C44.3146 33.9372 44.2938 33.9823 44.273 34.0267C44.2182 33.9864 44.1488 33.9559 44.1107 33.9032C40.5357 29.0258 35.8289 25.8232 29.957 24.3391C29.6442 24.2601 29.6213 24.1151 29.7039 23.7871ZM32.7594 19.4361C36.9357 20.8619 40.7493 22.9618 43.8624 26.1457C46.945 29.2977 47.968 35.3228 46.1718 39.3632C44.9207 42.1795 44.3451 45.0693 45.0656 48.1297C45.0885 48.2268 45.0684 48.3343 45.0684 48.9758C44.4096 46.1123 44.282 43.7926 45.0039 41.4569C46.8174 35.5877 45.4478 28.8074 39.9948 24.9466C37.5148 23.1907 34.754 21.9902 31.896 20.995C31.7629 20.9486 31.6616 20.8099 31.5458 20.7149C31.9376 20.2544 32.1734 19.2363 32.7594 19.4361ZM47.1843 39.8611C49.3425 34.7368 48.5124 29.6527 44.8486 25.396C42.069 22.1664 38.3234 20.1843 34.3607 18.6524C34.1277 18.5622 33.1242 18.6316 33.9079 17.8798C34.6666 17.1517 35.4162 16.395 36.2644 15.7813C36.9461 15.2882 37.6445 14.8478 38.3518 14.4317C38.3317 13.9941 38.3394 13.5565 38.381 13.121C36.2491 14.302 34.2962 15.8416 32.5271 17.7391C29.3391 21.1566 27.3744 25.2386 26.7482 29.9225C25.6691 37.9949 28.1275 44.8516 34.0383 50.3753C37.6251 53.7263 41.9796 55.5884 46.9076 56.2014C48.7405 56.4289 48.7703 56.0412 48.1524 54.5488C46.1794 49.7831 44.9949 45.0589 47.1843 39.8611Z" fill="#FFE9BF" fill-opacity="0.24" style="mix-blend-mode:saturation"/>
<path d="M68.761 37.2334C66.3684 37.8991 64.2109 39.0712 62.2261 40.5324C59.5693 42.4881 57.3827 44.9333 55.0435 47.7802C55.7731 45.7773 56.8688 44.4742 57.916 43.1379C60.0312 40.4394 62.4813 38.1141 65.4523 36.3762C67.1153 35.4032 68.9163 34.7402 70.768 34.227C70.9601 34.1736 71.3401 33.89 71.4379 34.5558C71.7576 36.7313 70.1737 36.8402 68.761 37.2334ZM70.2312 39.515C65.6153 40.6662 61.6783 43.0061 58.2496 46.251C57.6601 46.8086 57.1254 47.4237 56.5657 48.0125C58.7094 45.0651 61.2587 42.5539 64.3385 40.6336C66.263 39.4339 68.3289 38.5226 70.5579 38.0254C70.6466 38.0059 70.8533 38.1398 70.8519 38.144C70.6709 38.6169 70.8699 39.3555 70.2312 39.515ZM69.9171 41.3271C69.519 44.0769 66.9489 43.6205 65.2657 44.346C62.706 45.4493 60.2691 46.7032 58.0755 48.4203C57.6157 48.7802 57.1684 49.1547 56.409 49.7705C58.6899 47.4355 60.7989 45.4854 63.2435 43.9208C65.2318 42.6483 67.3435 41.6545 69.6133 41.0026C69.7208 40.9721 69.8436 40.9977 69.9587 40.997C69.9448 41.1073 69.933 41.2176 69.9171 41.3271ZM67.9676 45.1442C67.1403 47.2968 65.1853 47.6234 63.2796 48.1353C60.9473 48.7622 58.7801 49.8184 56.4874 51.2324C60.0007 48.2733 63.5757 45.9972 67.7915 44.8737C67.8726 44.8522 67.9656 44.8751 68.0529 44.8772C68.0252 44.9666 68.0016 45.0575 67.9676 45.1442ZM53.4595 54.8914C54.298 53.4364 62.9085 48.9959 64.738 49.0805C61.5167 52.1257 57.7974 54.0418 53.4595 54.8914ZM51.9512 36.7008C51.2743 32.0314 52.635 28.0556 56.2225 24.8835C59.0922 22.3453 62.4876 20.771 66.0362 19.5026C66.8795 19.2009 67.0779 20.2419 67.4114 20.7474C67.5897 21.0179 66.9773 21.0158 66.7339 21.1108C62.3322 22.8286 58.0353 24.7531 55.4423 28.9835C53.0802 32.8366 52.7723 36.9914 54.1024 41.307C54.8493 43.7273 54.7592 46.1664 53.7848 48.5798C55.2842 44.2704 52.5261 40.6628 51.9512 36.7008ZM69.363 24.0409C69.4947 24.3973 68.9649 24.31 68.7256 24.3744C63.3108 25.8454 58.8744 28.7969 55.3604 33.1542C55.1323 33.4371 54.8833 33.7035 54.6441 33.9774C54.7217 33.5786 54.7696 33.1722 54.8798 32.7832C56.2703 27.8822 60.0021 25.3259 64.3469 23.4084C65.5674 22.8702 66.8351 22.4403 68.2319 21.9028C68.6292 22.6289 69.089 23.3002 69.363 24.0409ZM70.388 26.7254C70.4531 27.3031 69.7062 27.172 69.3331 27.274C65.496 28.3246 62.1075 30.1513 59.1692 32.8463C57.5075 34.3706 56.0283 36.0399 54.7113 37.8617C54.6683 37.922 54.5775 37.9477 54.5088 37.9893C54.4471 37.7681 54.3854 37.5462 54.289 37.2001C54.8472 35.7118 55.9395 34.492 56.9659 33.2541C59.8204 29.8108 63.4245 27.4439 67.6611 26.0312C68.2686 25.8287 68.8844 25.6054 69.5135 25.5222C70.4053 25.405 70.3401 26.3003 70.388 26.7254ZM71.4587 32.4163C71.4566 33.1126 70.8429 32.967 70.476 33.0523C66.5106 33.9698 63.1693 35.9955 60.2094 38.7244C58.5617 40.2446 57.1698 41.9797 55.875 43.8002C55.8244 43.8723 55.7107 43.8993 55.6267 43.9479C55.6288 43.7911 55.574 43.6011 55.642 43.4818C58.0117 39.3271 60.9903 35.7514 65.2463 33.3803C67.055 32.3726 68.9912 31.72 70.9788 31.1923C71.3505 31.0931 71.456 31.3643 71.4587 32.4163ZM70.9511 28.4495C70.8817 28.9765 71.8859 29.7477 70.7923 30.0112C65.392 31.3123 61.0021 34.1646 57.538 38.4657C56.8896 39.2702 56.3563 40.1676 55.7585 41.0137C55.6066 41.2287 55.4104 41.4131 55.2349 41.6115C55.1392 41.3736 55.0324 41.1399 54.9499 40.8979C54.8556 40.6184 54.7828 40.332 54.6607 39.9103C55.4478 38.8742 56.246 37.7487 57.1212 36.6848C60.6047 32.4496 64.9384 29.5237 70.3172 28.2373C70.5731 28.1762 71.0107 27.9973 70.9511 28.4495ZM66.9662 18.5192C66.0279 17.4755 65.1534 16.3915 64.041 15.5025C62.9522 14.6328 61.8274 13.8852 60.6713 13.2368C60.6567 13.621 60.6248 14.0052 60.5617 14.3838C61.7108 15.0517 62.8114 15.8263 63.8579 16.7203C64.4072 17.1898 64.8704 17.7598 65.3732 18.2827C64.9363 18.5005 64.5154 18.7619 64.0597 18.9277C60.3793 20.2661 57.0505 22.2461 54.3805 25.0693C51.1925 28.4391 50.2861 32.6112 50.9699 37.1737C51.3138 39.4706 52.6239 41.4686 52.945 43.7468C53.5483 48.0257 51.877 51.8462 50.3631 55.684C50.1925 56.1161 50.18 56.3137 50.7237 56.2818C55.6531 55.9933 60.0603 54.3442 63.8926 51.2179C69.3227 46.7878 72.2029 41.0144 72.4525 34.0668C72.662 28.2317 70.9483 22.95 66.9662 18.5192Z" fill="url(#paint1_linear_103_10097)"/>
<path d="M68.761 37.2334C66.3684 37.8991 64.2109 39.0712 62.2261 40.5324C59.5693 42.4881 57.3827 44.9333 55.0435 47.7802C55.7731 45.7773 56.8688 44.4742 57.916 43.1379C60.0312 40.4394 62.4813 38.1141 65.4523 36.3762C67.1153 35.4032 68.9163 34.7402 70.768 34.227C70.9601 34.1736 71.3401 33.89 71.4379 34.5558C71.7576 36.7313 70.1737 36.8402 68.761 37.2334ZM70.2312 39.515C65.6153 40.6662 61.6783 43.0061 58.2496 46.251C57.6601 46.8086 57.1254 47.4237 56.5657 48.0125C58.7094 45.0651 61.2587 42.5539 64.3385 40.6336C66.263 39.4339 68.3289 38.5226 70.5579 38.0254C70.6466 38.0059 70.8533 38.1398 70.8519 38.144C70.6709 38.6169 70.8699 39.3555 70.2312 39.515ZM69.9171 41.3271C69.519 44.0769 66.9489 43.6205 65.2657 44.346C62.706 45.4493 60.2691 46.7032 58.0755 48.4203C57.6157 48.7802 57.1684 49.1547 56.409 49.7705C58.6899 47.4355 60.7989 45.4854 63.2435 43.9208C65.2318 42.6483 67.3435 41.6545 69.6133 41.0026C69.7208 40.9721 69.8436 40.9977 69.9587 40.997C69.9448 41.1073 69.933 41.2176 69.9171 41.3271ZM67.9676 45.1442C67.1403 47.2968 65.1853 47.6234 63.2796 48.1353C60.9473 48.7622 58.7801 49.8184 56.4874 51.2324C60.0007 48.2733 63.5757 45.9972 67.7915 44.8737C67.8726 44.8522 67.9656 44.8751 68.0529 44.8772C68.0252 44.9666 68.0016 45.0575 67.9676 45.1442ZM53.4595 54.8914C54.298 53.4364 62.9085 48.9959 64.738 49.0805C61.5167 52.1257 57.7974 54.0418 53.4595 54.8914ZM51.9512 36.7008C51.2743 32.0314 52.635 28.0556 56.2225 24.8835C59.0922 22.3453 62.4876 20.771 66.0362 19.5026C66.8795 19.2009 67.0779 20.2419 67.4114 20.7474C67.5897 21.0179 66.9773 21.0158 66.7339 21.1108C62.3322 22.8286 58.0353 24.7531 55.4423 28.9835C53.0802 32.8366 52.7723 36.9914 54.1024 41.307C54.8493 43.7273 54.7592 46.1664 53.7848 48.5798C55.2842 44.2704 52.5261 40.6628 51.9512 36.7008ZM69.363 24.0409C69.4947 24.3973 68.9649 24.31 68.7256 24.3744C63.3108 25.8454 58.8744 28.7969 55.3604 33.1542C55.1323 33.4371 54.8833 33.7035 54.6441 33.9774C54.7217 33.5786 54.7696 33.1722 54.8798 32.7832C56.2703 27.8822 60.0021 25.3259 64.3469 23.4084C65.5674 22.8702 66.8351 22.4403 68.2319 21.9028C68.6292 22.6289 69.089 23.3002 69.363 24.0409ZM70.388 26.7254C70.4531 27.3031 69.7062 27.172 69.3331 27.274C65.496 28.3246 62.1075 30.1513 59.1692 32.8463C57.5075 34.3706 56.0283 36.0399 54.7113 37.8617C54.6683 37.922 54.5775 37.9477 54.5088 37.9893C54.4471 37.7681 54.3854 37.5462 54.289 37.2001C54.8472 35.7118 55.9395 34.492 56.9659 33.2541C59.8204 29.8108 63.4245 27.4439 67.6611 26.0312C68.2686 25.8287 68.8844 25.6054 69.5135 25.5222C70.4053 25.405 70.3401 26.3003 70.388 26.7254ZM71.4587 32.4163C71.4566 33.1126 70.8429 32.967 70.476 33.0523C66.5106 33.9698 63.1693 35.9955 60.2094 38.7244C58.5617 40.2446 57.1698 41.9797 55.875 43.8002C55.8244 43.8723 55.7107 43.8993 55.6267 43.9479C55.6288 43.7911 55.574 43.6011 55.642 43.4818C58.0117 39.3271 60.9903 35.7514 65.2463 33.3803C67.055 32.3726 68.9912 31.72 70.9788 31.1923C71.3505 31.0931 71.456 31.3643 71.4587 32.4163ZM70.9511 28.4495C70.8817 28.9765 71.8859 29.7477 70.7923 30.0112C65.392 31.3123 61.0021 34.1646 57.538 38.4657C56.8896 39.2702 56.3563 40.1676 55.7585 41.0137C55.6066 41.2287 55.4104 41.4131 55.2349 41.6115C55.1392 41.3736 55.0324 41.1399 54.9499 40.8979C54.8556 40.6184 54.7828 40.332 54.6607 39.9103C55.4478 38.8742 56.246 37.7487 57.1212 36.6848C60.6047 32.4496 64.9384 29.5237 70.3172 28.2373C70.5731 28.1762 71.0107 27.9973 70.9511 28.4495ZM66.9662 18.5192C66.0279 17.4755 65.1534 16.3915 64.041 15.5025C62.9522 14.6328 61.8274 13.8852 60.6713 13.2368C60.6567 13.621 60.6248 14.0052 60.5617 14.3838C61.7108 15.0517 62.8114 15.8263 63.8579 16.7203C64.4072 17.1898 64.8704 17.7598 65.3732 18.2827C64.9363 18.5005 64.5154 18.7619 64.0597 18.9277C60.3793 20.2661 57.0505 22.2461 54.3805 25.0693C51.1925 28.4391 50.2861 32.6112 50.9699 37.1737C51.3138 39.4706 52.6239 41.4686 52.945 43.7468C53.5483 48.0257 51.877 51.8462 50.3631 55.684C50.1925 56.1161 50.18 56.3137 50.7237 56.2818C55.6531 55.9933 60.0603 54.3442 63.8926 51.2179C69.3227 46.7878 72.2029 41.0144 72.4525 34.0668C72.662 28.2317 70.9483 22.95 66.9662 18.5192Z" fill="#FFE9BF" fill-opacity="0.24" style="mix-blend-mode:saturation"/>
<path d="M54.0743 17.0074C54.2421 16.8666 54.4273 16.73 54.6062 16.5982L54.6374 16.5753C54.8406 16.4262 55.0577 16.2522 55.272 16.0628C55.4342 16.6246 55.5272 17.1496 55.5272 17.6142C55.5272 21.2683 52.3447 22.5658 50.7871 22.9826C50.9729 20.7308 52.1019 18.6669 54.0743 17.0074ZM43.4165 17.6142C43.4165 17.1489 43.5094 16.6246 43.6696 16.0663C43.8624 16.2362 44.0691 16.402 44.3056 16.5753L44.3368 16.5982C44.5157 16.73 44.7009 16.8666 44.8687 17.0074C46.8417 18.6669 47.9714 20.7315 48.1559 22.9826C46.5983 22.5665 43.4165 21.269 43.4165 17.6142ZM49.5346 5.84685C49.5131 5.83783 49.4937 5.85656 49.4715 5.85933C49.4493 5.85656 49.4306 5.83783 49.4084 5.84685C49.3904 5.85378 49.391 5.87667 49.3786 5.89054L49.1032 6.16863C48.7017 6.57641 45.2113 10.1764 43.4124 13.8603C43.1412 13.1321 43.006 12.2403 43.006 11.0655C43.006 7.10139 48.2031 2.39806 49.4715 1.30926C50.7399 2.39806 55.9377 7.10278 55.9377 11.0655C55.9377 12.2396 55.8018 13.1307 55.5299 13.8603C53.6811 10.0751 49.9992 6.32953 49.8397 6.16863L49.5637 5.89054C49.5512 5.87667 49.5526 5.85378 49.5346 5.84685ZM42.0087 12.3914C42.051 12.8089 42.1134 13.1813 42.1987 13.5295C42.2819 13.8741 42.3922 14.2036 42.5254 14.5087C42.6037 14.6855 42.7112 14.9158 42.8534 15.1322C42.8555 15.1356 42.8582 15.1384 42.8603 15.1412C42.5281 16.0524 42.3568 16.8839 42.3568 17.6142C42.3568 23.1137 48.5741 24.1304 48.6379 24.1401L49.1032 24.2115C49.1095 24.2129 49.1164 24.2129 49.122 24.2129C49.1303 24.2129 49.1344 24.2032 49.1421 24.2011C49.1504 24.1997 49.1594 24.1997 49.1677 24.1969C49.1747 24.1942 49.1733 24.1831 49.1795 24.1789C49.1983 24.1678 49.2239 24.1671 49.2343 24.1463C49.2419 24.1331 49.2281 24.12 49.2302 24.1061C49.2336 24.0936 49.251 24.0894 49.251 24.0763L49.2496 23.6248C49.2426 20.8133 47.968 18.2578 45.5629 16.2355C45.3562 16.0608 45.1378 15.9013 44.9249 15.7445C44.7543 15.6197 44.583 15.4942 44.4214 15.3589C44.341 15.2917 44.2612 15.2216 44.1863 15.1488C44.1502 15.1127 44.1149 15.076 44.0802 15.0385C44.0684 15.0254 44.058 15.0073 44.0462 14.9942C45.3694 11.854 48.407 8.43639 49.4715 7.29419C50.5353 8.43431 53.5715 11.8484 54.8975 14.9935C54.8857 15.0073 54.876 15.0247 54.8642 15.0378C54.8288 15.076 54.7934 15.1127 54.7567 15.1488C54.6825 15.2216 54.6041 15.2917 54.5216 15.3589C54.36 15.4942 54.1887 15.6197 53.9973 15.7598C53.7775 15.9214 53.5784 16.0684 53.3801 16.2355C50.9743 18.2585 49.7003 20.814 49.6934 23.6248L49.692 24.0763C49.692 24.0894 49.7087 24.0936 49.7128 24.1061C49.7149 24.12 49.701 24.1331 49.708 24.1463C49.7191 24.1671 49.744 24.1678 49.7635 24.1789C49.7697 24.1831 49.7683 24.1942 49.7752 24.1969C49.7836 24.1997 49.7926 24.1997 49.8009 24.2011C49.8085 24.2032 49.8127 24.2129 49.8203 24.2129C49.8266 24.2129 49.8335 24.2129 49.8397 24.2115L50.3051 24.1401C50.3682 24.1304 56.5861 23.1137 56.5861 17.6142C56.5861 16.886 56.4148 16.0531 56.0834 15.1419C56.0854 15.1384 56.0882 15.1363 56.0903 15.1329C56.2345 14.913 56.3413 14.6835 56.4176 14.5087C56.5501 14.2084 56.6603 13.879 56.7443 13.5302C56.8296 13.1813 56.892 12.8089 56.9343 12.3914C56.9766 11.9802 56.996 11.5461 56.996 11.0655C56.996 8.93363 55.7754 6.45436 53.3655 3.69699C51.577 1.64838 49.8113 0.238489 49.7947 0.224619L49.5637 0.0401478C49.5533 0.0290527 49.5547 0.0103264 49.5408 0.00339127C49.5187 -0.00770569 49.4958 0.00824738 49.4715 0.0117149C49.4472 0.00824738 49.4243 -0.00770569 49.4021 0.00339127C49.3883 0.0103264 49.3897 0.0290527 49.3793 0.0401478L49.1476 0.226006C48.9604 0.375801 47.2821 1.74478 45.5768 3.69699C43.1675 6.45574 41.9463 8.93432 41.9463 11.0655C41.9463 11.5461 41.9664 11.9802 42.0087 12.3914Z" fill="url(#paint2_linear_103_10097)"/>
<path d="M54.0743 17.0074C54.2421 16.8666 54.4273 16.73 54.6062 16.5982L54.6374 16.5753C54.8406 16.4262 55.0577 16.2522 55.272 16.0628C55.4342 16.6246 55.5272 17.1496 55.5272 17.6142C55.5272 21.2683 52.3447 22.5658 50.7871 22.9826C50.9729 20.7308 52.1019 18.6669 54.0743 17.0074ZM43.4165 17.6142C43.4165 17.1489 43.5094 16.6246 43.6696 16.0663C43.8624 16.2362 44.0691 16.402 44.3056 16.5753L44.3368 16.5982C44.5157 16.73 44.7009 16.8666 44.8687 17.0074C46.8417 18.6669 47.9714 20.7315 48.1559 22.9826C46.5983 22.5665 43.4165 21.269 43.4165 17.6142ZM49.5346 5.84685C49.5131 5.83783 49.4937 5.85656 49.4715 5.85933C49.4493 5.85656 49.4306 5.83783 49.4084 5.84685C49.3904 5.85378 49.391 5.87667 49.3786 5.89054L49.1032 6.16863C48.7017 6.57641 45.2113 10.1764 43.4124 13.8603C43.1412 13.1321 43.006 12.2403 43.006 11.0655C43.006 7.10139 48.2031 2.39806 49.4715 1.30926C50.7399 2.39806 55.9377 7.10278 55.9377 11.0655C55.9377 12.2396 55.8018 13.1307 55.5299 13.8603C53.6811 10.0751 49.9992 6.32953 49.8397 6.16863L49.5637 5.89054C49.5512 5.87667 49.5526 5.85378 49.5346 5.84685ZM42.0087 12.3914C42.051 12.8089 42.1134 13.1813 42.1987 13.5295C42.2819 13.8741 42.3922 14.2036 42.5254 14.5087C42.6037 14.6855 42.7112 14.9158 42.8534 15.1322C42.8555 15.1356 42.8582 15.1384 42.8603 15.1412C42.5281 16.0524 42.3568 16.8839 42.3568 17.6142C42.3568 23.1137 48.5741 24.1304 48.6379 24.1401L49.1032 24.2115C49.1095 24.2129 49.1164 24.2129 49.122 24.2129C49.1303 24.2129 49.1344 24.2032 49.1421 24.2011C49.1504 24.1997 49.1594 24.1997 49.1677 24.1969C49.1747 24.1942 49.1733 24.1831 49.1795 24.1789C49.1983 24.1678 49.2239 24.1671 49.2343 24.1463C49.2419 24.1331 49.2281 24.12 49.2302 24.1061C49.2336 24.0936 49.251 24.0894 49.251 24.0763L49.2496 23.6248C49.2426 20.8133 47.968 18.2578 45.5629 16.2355C45.3562 16.0608 45.1378 15.9013 44.9249 15.7445C44.7543 15.6197 44.583 15.4942 44.4214 15.3589C44.341 15.2917 44.2612 15.2216 44.1863 15.1488C44.1502 15.1127 44.1149 15.076 44.0802 15.0385C44.0684 15.0254 44.058 15.0073 44.0462 14.9942C45.3694 11.854 48.407 8.43639 49.4715 7.29419C50.5353 8.43431 53.5715 11.8484 54.8975 14.9935C54.8857 15.0073 54.876 15.0247 54.8642 15.0378C54.8288 15.076 54.7934 15.1127 54.7567 15.1488C54.6825 15.2216 54.6041 15.2917 54.5216 15.3589C54.36 15.4942 54.1887 15.6197 53.9973 15.7598C53.7775 15.9214 53.5784 16.0684 53.3801 16.2355C50.9743 18.2585 49.7003 20.814 49.6934 23.6248L49.692 24.0763C49.692 24.0894 49.7087 24.0936 49.7128 24.1061C49.7149 24.12 49.701 24.1331 49.708 24.1463C49.7191 24.1671 49.744 24.1678 49.7635 24.1789C49.7697 24.1831 49.7683 24.1942 49.7752 24.1969C49.7836 24.1997 49.7926 24.1997 49.8009 24.2011C49.8085 24.2032 49.8127 24.2129 49.8203 24.2129C49.8266 24.2129 49.8335 24.2129 49.8397 24.2115L50.3051 24.1401C50.3682 24.1304 56.5861 23.1137 56.5861 17.6142C56.5861 16.886 56.4148 16.0531 56.0834 15.1419C56.0854 15.1384 56.0882 15.1363 56.0903 15.1329C56.2345 14.913 56.3413 14.6835 56.4176 14.5087C56.5501 14.2084 56.6603 13.879 56.7443 13.5302C56.8296 13.1813 56.892 12.8089 56.9343 12.3914C56.9766 11.9802 56.996 11.5461 56.996 11.0655C56.996 8.93363 55.7754 6.45436 53.3655 3.69699C51.577 1.64838 49.8113 0.238489 49.7947 0.224619L49.5637 0.0401478C49.5533 0.0290527 49.5547 0.0103264 49.5408 0.00339127C49.5187 -0.00770569 49.4958 0.00824738 49.4715 0.0117149C49.4472 0.00824738 49.4243 -0.00770569 49.4021 0.00339127C49.3883 0.0103264 49.3897 0.0290527 49.3793 0.0401478L49.1476 0.226006C48.9604 0.375801 47.2821 1.74478 45.5768 3.69699C43.1675 6.45574 41.9463 8.93432 41.9463 11.0655C41.9463 11.5461 41.9664 11.9802 42.0087 12.3914Z" fill="#FFE9BF" fill-opacity="0.24" style="mix-blend-mode:saturation"/>
<path d="M60.1755 15.7644C60.1755 14.1242 59.7781 10.9209 57.1171 7.89728C57.0748 7.84942 57.0034 7.83971 56.9514 7.8737C56.898 7.90768 56.8772 7.97564 56.9035 8.0339C57.1955 8.69966 57.3952 9.45211 57.4972 10.2718C57.4992 10.2906 57.5062 10.3079 57.5166 10.3238C58.5971 12.0479 59.079 13.7255 59.079 15.7644C59.079 22.241 53.4735 25.1586 49.4837 25.1655C45.494 25.1586 39.8884 22.241 39.8884 15.7644C39.8884 13.7255 40.3704 12.0479 41.4509 10.3238C41.4613 10.3079 41.4682 10.2906 41.4703 10.2718C41.5722 9.45211 41.772 8.69966 42.0639 8.0339C42.0903 7.97564 42.0695 7.90768 42.0161 7.8737C41.9641 7.84041 41.8926 7.85012 41.8503 7.89728C39.1894 10.9209 38.792 14.1242 38.792 15.7644C38.792 22.9629 45.021 26.2085 49.465 26.2252C49.4664 26.2252 49.4671 26.2266 49.4685 26.2266C49.4733 26.2266 49.4789 26.2259 49.4837 26.2259C49.4886 26.2259 49.4941 26.2266 49.499 26.2266C49.5004 26.2266 49.5011 26.2252 49.5025 26.2252C53.9464 26.2085 60.1755 22.9629 60.1755 15.7644Z" fill="url(#paint3_linear_103_10097)"/>
<path d="M60.1755 15.7644C60.1755 14.1242 59.7781 10.9209 57.1171 7.89728C57.0748 7.84942 57.0034 7.83971 56.9514 7.8737C56.898 7.90768 56.8772 7.97564 56.9035 8.0339C57.1955 8.69966 57.3952 9.45211 57.4972 10.2718C57.4992 10.2906 57.5062 10.3079 57.5166 10.3238C58.5971 12.0479 59.079 13.7255 59.079 15.7644C59.079 22.241 53.4735 25.1586 49.4837 25.1655C45.494 25.1586 39.8884 22.241 39.8884 15.7644C39.8884 13.7255 40.3704 12.0479 41.4509 10.3238C41.4613 10.3079 41.4682 10.2906 41.4703 10.2718C41.5722 9.45211 41.772 8.69966 42.0639 8.0339C42.0903 7.97564 42.0695 7.90768 42.0161 7.8737C41.9641 7.84041 41.8926 7.85012 41.8503 7.89728C39.1894 10.9209 38.792 14.1242 38.792 15.7644C38.792 22.9629 45.021 26.2085 49.465 26.2252C49.4664 26.2252 49.4671 26.2266 49.4685 26.2266C49.4733 26.2266 49.4789 26.2259 49.4837 26.2259C49.4886 26.2259 49.4941 26.2266 49.499 26.2266C49.5004 26.2266 49.5011 26.2252 49.5025 26.2252C53.9464 26.2085 60.1755 22.9629 60.1755 15.7644Z" fill="#FFE9BF" fill-opacity="0.24" style="mix-blend-mode:saturation"/>
<path d="M0.372333 76.9066L0.410261 77.6651C0.523368 79.8487 2.18746 81.2547 4.17258 81.2547C6.06288 81.2547 7.29215 80.274 7.29215 78.4609C7.29215 75.0752 0.448189 75.0752 0.448189 70.9674C0.448189 69.1726 2.09264 67.9705 4.5505 67.9705C5.79806 67.9705 6.66769 68.3585 7.31111 68.7846C7.46215 68.8767 7.61318 69.1544 7.65111 69.2099L7.78386 69.1726C7.74593 69.0433 7.72696 68.8401 7.708 68.5807L7.65111 67.6H7.85904L8.08593 71.9671L7.708 71.9854L7.67007 71.2079C7.57525 69.7463 6.61148 68.303 4.5505 68.303C2.86813 68.303 1.90367 69.0988 1.90367 70.5604C1.90367 73.8351 8.84245 73.7985 8.84245 78.146C8.84245 80.3668 7.08422 81.569 4.20983 81.569C2.92434 81.569 1.97953 81.2364 0.920256 80.57C0.769222 80.4772 0.466476 80.1257 0.410261 79.9598L0.315441 79.978C0.391297 80.1629 0.391297 80.5517 0.410261 80.7732L0.466476 81.9395H0.277514L0.0126953 76.8883L0.372333 76.9066Z" fill="url(#paint4_linear_103_10097)"/>
<path d="M0.372333 76.9066L0.410261 77.6651C0.523368 79.8487 2.18746 81.2547 4.17258 81.2547C6.06288 81.2547 7.29215 80.274 7.29215 78.4609C7.29215 75.0752 0.448189 75.0752 0.448189 70.9674C0.448189 69.1726 2.09264 67.9705 4.5505 67.9705C5.79806 67.9705 6.66769 68.3585 7.31111 68.7846C7.46215 68.8767 7.61318 69.1544 7.65111 69.2099L7.78386 69.1726C7.74593 69.0433 7.72696 68.8401 7.708 68.5807L7.65111 67.6H7.85904L8.08593 71.9671L7.708 71.9854L7.67007 71.2079C7.57525 69.7463 6.61148 68.303 4.5505 68.303C2.86813 68.303 1.90367 69.0988 1.90367 70.5604C1.90367 73.8351 8.84245 73.7985 8.84245 78.146C8.84245 80.3668 7.08422 81.569 4.20983 81.569C2.92434 81.569 1.97953 81.2364 0.920256 80.57C0.769222 80.4772 0.466476 80.1257 0.410261 79.9598L0.315441 79.978C0.391297 80.1629 0.391297 80.5517 0.410261 80.7732L0.466476 81.9395H0.277514L0.0126953 76.8883L0.372333 76.9066Z" fill="#FFE9BF" fill-opacity="0.24" style="mix-blend-mode:saturation"/>
<path d="M22.9443 77.4827L19.4088 69.7671C19.2578 69.4711 19.2388 69.2307 19.2388 69.0275H19.0499C19.0499 69.1386 18.993 69.379 18.804 69.7671L15.0221 77.4827H22.9443ZM11.8652 81.2572H12.1869C12.7159 81.2572 13.0186 80.7391 13.3397 80.1099L19.1819 68.1206H20.7891V68.3428C20.7891 68.7126 20.865 69.1941 20.9781 69.4156L25.8749 80.1099C26.2907 80.9978 26.3666 81.2572 27.1035 81.2572H27.2741V81.4238H23.3032V81.2572H24.8914V81.22C24.6083 81.1279 24.3997 80.6646 24.2487 80.3503L23.0953 77.8159H14.8527L13.7366 80.1099C13.6804 80.2582 13.6235 80.4059 13.6235 80.5352C13.6235 80.9612 14.0014 81.2572 14.6252 81.2572H15.6465V81.4238H11.8652V81.2572Z" fill="url(#paint5_linear_103_10097)"/>
<path d="M22.9443 77.4827L19.4088 69.7671C19.2578 69.4711 19.2388 69.2307 19.2388 69.0275H19.0499C19.0499 69.1386 18.993 69.379 18.804 69.7671L15.0221 77.4827H22.9443ZM11.8652 81.2572H12.1869C12.7159 81.2572 13.0186 80.7391 13.3397 80.1099L19.1819 68.1206H20.7891V68.3428C20.7891 68.7126 20.865 69.1941 20.9781 69.4156L25.8749 80.1099C26.2907 80.9978 26.3666 81.2572 27.1035 81.2572H27.2741V81.4238H23.3032V81.2572H24.8914V81.22C24.6083 81.1279 24.3997 80.6646 24.2487 80.3503L23.0953 77.8159H14.8527L13.7366 80.1099C13.6804 80.2582 13.6235 80.4059 13.6235 80.5352C13.6235 80.9612 14.0014 81.2572 14.6252 81.2572H15.6465V81.4238H11.8652V81.2572Z" fill="#FFE9BF" fill-opacity="0.24" style="mix-blend-mode:saturation"/>
<path d="M30.4141 74.7041C30.4141 70.6526 33.3257 67.9509 37.6739 67.9509C39.0731 67.9509 40.4155 68.3396 41.4931 69.1348C41.5879 69.2276 41.6631 69.3759 41.72 69.5052L41.852 69.468C41.8148 69.3204 41.7951 69.1165 41.7951 68.9316L41.7579 67.5811H41.9469L42.1358 72.9282L41.7579 72.9465L41.701 71.2256C41.5879 69.5608 39.5649 68.2651 37.5228 68.2651C34.1005 68.2651 32.2671 70.4115 32.2671 74.4081C32.2671 78.8301 34.1953 81.2168 37.7497 81.2168C39.7159 81.2168 41.6441 80.2551 42.3817 78.7007L42.7406 78.8301C41.9279 80.6804 39.9048 81.5684 37.7308 81.5684C33.3636 81.5684 30.433 78.8301 30.433 74.7224L30.4141 74.7041Z" fill="url(#paint6_linear_103_10097)"/>
<path d="M30.4141 74.7041C30.4141 70.6526 33.3257 67.9509 37.6739 67.9509C39.0731 67.9509 40.4155 68.3396 41.4931 69.1348C41.5879 69.2276 41.6631 69.3759 41.72 69.5052L41.852 69.468C41.8148 69.3204 41.7951 69.1165 41.7951 68.9316L41.7579 67.5811H41.9469L42.1358 72.9282L41.7579 72.9465L41.701 71.2256C41.5879 69.5608 39.5649 68.2651 37.5228 68.2651C34.1005 68.2651 32.2671 70.4115 32.2671 74.4081C32.2671 78.8301 34.1953 81.2168 37.7497 81.2168C39.7159 81.2168 41.6441 80.2551 42.3817 78.7007L42.7406 78.8301C41.9279 80.6804 39.9048 81.5684 37.7308 81.5684C33.3636 81.5684 30.433 78.8301 30.433 74.7224L30.4141 74.7041Z" fill="#FFE9BF" fill-opacity="0.24" style="mix-blend-mode:saturation"/>
<path fill-rule="evenodd" clip-rule="evenodd" d="M47.2932 81.2758H46.5563L46.4805 81.4235H52.2658V81.2569H51.0562C50.0538 81.2569 49.9217 81.1648 49.9217 80.2768V69.4349C49.9217 69.0089 49.8269 68.6946 49.5811 68.4725V68.4542H51.7362C54.062 68.4542 55.6313 69.9713 55.6313 72.2287C55.6313 74.5037 54.062 76.0215 51.7362 76.0215H50.7914V76.3357H51.0366C51.7486 76.3357 52.342 76.9578 53.1151 77.7683C53.2656 77.9261 53.4229 78.091 53.5892 78.2599C56.5388 81.2758 60.0385 81.6936 62.5525 81.6936L62.91 81.7012C58.1833 81.7012 54.9127 77.6307 54.9127 77.6307C54.213 76.9649 53.5703 76.4468 52.7006 76.373V76.2619L53.1165 76.2429C55.6123 76.0398 57.5216 74.5037 57.5216 72.247C57.5216 69.7864 55.3095 68.1392 51.982 68.1392H46.5563V68.3058H47.2932C48.2956 68.3058 48.3897 68.3986 48.3897 69.2865V80.2951C48.3897 81.183 48.2956 81.2758 47.2932 81.2758Z" fill="url(#paint7_linear_103_10097)"/>
<path fill-rule="evenodd" clip-rule="evenodd" d="M47.2932 81.2758H46.5563L46.4805 81.4235H52.2658V81.2569H51.0562C50.0538 81.2569 49.9217 81.1648 49.9217 80.2768V69.4349C49.9217 69.0089 49.8269 68.6946 49.5811 68.4725V68.4542H51.7362C54.062 68.4542 55.6313 69.9713 55.6313 72.2287C55.6313 74.5037 54.062 76.0215 51.7362 76.0215H50.7914V76.3357H51.0366C51.7486 76.3357 52.342 76.9578 53.1151 77.7683C53.2656 77.9261 53.4229 78.091 53.5892 78.2599C56.5388 81.2758 60.0385 81.6936 62.5525 81.6936L62.91 81.7012C58.1833 81.7012 54.9127 77.6307 54.9127 77.6307C54.213 76.9649 53.5703 76.4468 52.7006 76.373V76.2619L53.1165 76.2429C55.6123 76.0398 57.5216 74.5037 57.5216 72.247C57.5216 69.7864 55.3095 68.1392 51.982 68.1392H46.5563V68.3058H47.2932C48.2956 68.3058 48.3897 68.3986 48.3897 69.2865V80.2951C48.3897 81.183 48.2956 81.2758 47.2932 81.2758Z" fill="#FFE9BF" fill-opacity="0.24" style="mix-blend-mode:saturation"/>
<path d="M68.6207 68.2167V68.4195H67.5159C66.2957 68.4195 66.158 68.5316 66.158 69.6133V78.5993C66.158 80.334 67.2397 81.2574 69.2424 81.2574C71.9351 81.2574 73.4076 80.0413 73.4076 77.7889V70.019C73.4076 68.9373 73.1776 68.4195 71.9574 68.4195H71.0373V68.2167H75.7096V68.4195H75.2949C74.0986 68.4195 73.8677 68.9373 73.8677 70.019V77.7889C73.8677 80.3109 72.2336 81.6631 69.2424 81.6631C66.2273 81.6631 64.2015 80.1089 64.2015 77.7889V69.6133C64.2015 68.5316 64.0408 68.4195 62.8205 68.4195H62.1758V68.2167H68.6207Z" fill="url(#paint8_linear_103_10097)"/>
<path d="M68.6207 68.2167V68.4195H67.5159C66.2957 68.4195 66.158 68.5316 66.158 69.6133V78.5993C66.158 80.334 67.2397 81.2574 69.2424 81.2574C71.9351 81.2574 73.4076 80.0413 73.4076 77.7889V70.019C73.4076 68.9373 73.1776 68.4195 71.9574 68.4195H71.0373V68.2167H75.7096V68.4195H75.2949C74.0986 68.4195 73.8677 68.9373 73.8677 70.019V77.7889C73.8677 80.3109 72.2336 81.6631 69.2424 81.6631C66.2273 81.6631 64.2015 80.1089 64.2015 77.7889V69.6133C64.2015 68.5316 64.0408 68.4195 62.8205 68.4195H62.1758V68.2167H68.6207Z" fill="#FFE9BF" fill-opacity="0.24" style="mix-blend-mode:saturation"/>
<path d="M79.6104 81.3509H79.9503C81.0089 81.3509 81.16 81.0732 81.2365 80.037L81.7844 69.3616V68.9729C81.7844 68.5475 81.6517 68.3809 80.7448 68.3809H79.9124V68.215H82.9758L88.3643 78.8158C88.5525 79.1863 88.6853 79.5006 88.6853 79.6116H88.7794C88.7794 79.5006 88.9311 79.0935 89.0632 78.8158L94.4517 68.215H97.5713V68.3809H96.8716C95.851 68.3809 95.6999 68.6586 95.6999 69.195C95.6999 69.3433 95.7182 69.5099 95.7182 69.6948L96.2099 80.037C96.2478 81.0915 96.3995 81.3509 97.5333 81.3509H97.9871V81.5175H92.5614V81.3509H93.3172C94.4517 81.3509 94.6027 81.0732 94.6027 80.6296V80.3147L94.1869 70.5645C94.1679 70.2313 94.1679 69.9536 94.1679 69.7504H94.0358C94.0358 69.8059 93.9031 70.1202 93.7141 70.5089L88.1177 81.5913L88.0608 81.7207H88.0046L87.9477 81.5913L82.4272 70.7121C82.2572 70.3423 82.2003 69.9908 82.2003 69.9353H82.1244C82.1244 70.1019 82.1244 70.2313 82.1061 70.5645L81.5765 80.2781C81.5765 80.444 81.5575 80.5923 81.5575 80.7217C81.5575 81.166 81.7275 81.3692 82.881 81.3692H83.6185V81.5358H79.6104V81.3509Z" fill="url(#paint9_linear_103_10097)"/>
<path d="M79.6104 81.3509H79.9503C81.0089 81.3509 81.16 81.0732 81.2365 80.037L81.7844 69.3616V68.9729C81.7844 68.5475 81.6517 68.3809 80.7448 68.3809H79.9124V68.215H82.9758L88.3643 78.8158C88.5525 79.1863 88.6853 79.5006 88.6853 79.6116H88.7794C88.7794 79.5006 88.9311 79.0935 89.0632 78.8158L94.4517 68.215H97.5713V68.3809H96.8716C95.851 68.3809 95.6999 68.6586 95.6999 69.195C95.6999 69.3433 95.7182 69.5099 95.7182 69.6948L96.2099 80.037C96.2478 81.0915 96.3995 81.3509 97.5333 81.3509H97.9871V81.5175H92.5614V81.3509H93.3172C94.4517 81.3509 94.6027 81.0732 94.6027 80.6296V80.3147L94.1869 70.5645C94.1679 70.2313 94.1679 69.9536 94.1679 69.7504H94.0358C94.0358 69.8059 93.9031 70.1202 93.7141 70.5089L88.1177 81.5913L88.0608 81.7207H88.0046L87.9477 81.5913L82.4272 70.7121C82.2572 70.3423 82.2003 69.9908 82.2003 69.9353H82.1244C82.1244 70.1019 82.1244 70.2313 82.1061 70.5645L81.5765 80.2781C81.5765 80.444 81.5575 80.5923 81.5575 80.7217C81.5575 81.166 81.7275 81.3692 82.881 81.3692H83.6185V81.5358H79.6104V81.3509Z" fill="#FFE9BF" fill-opacity="0.24" style="mix-blend-mode:saturation"/>
<defs>
<linearGradient id="paint0_linear_103_10097" x1="26.5088" y1="34.6964" x2="48.6016" y2="34.6964" gradientUnits="userSpaceOnUse">
<stop offset="0.0186222" stop-color="#9A8C84"/>
<stop offset="0.4235" stop-color="#D3CCC5"/>
<stop offset="0.4999" stop-color="#DED9D1"/>
<stop offset="0.5991" stop-color="#D1CAC0"/>
<stop offset="0.7129" stop-color="#C7C0B1"/>
<stop offset="0.8064" stop-color="#C4BCAC"/>
<stop offset="0.8566" stop-color="#B8AF9E"/>
<stop offset="0.9516" stop-color="#978E78"/>
<stop offset="0.9972" stop-color="#867664"/>
</linearGradient>
<linearGradient id="paint1_linear_103_10097" x1="50.2666" y1="34.766" x2="72.5579" y2="34.766" gradientUnits="userSpaceOnUse">
<stop offset="0.0186222" stop-color="#9A8C84"/>
<stop offset="0.4235" stop-color="#D3CCC5"/>
<stop offset="0.4999" stop-color="#DED9D1"/>
<stop offset="0.5991" stop-color="#D1CAC0"/>
<stop offset="0.7129" stop-color="#C7C0B1"/>
<stop offset="0.8064" stop-color="#C4BCAC"/>
<stop offset="0.8566" stop-color="#B8AF9E"/>
<stop offset="0.9516" stop-color="#978E78"/>
<stop offset="0.9972" stop-color="#867664"/>
</linearGradient>
<linearGradient id="paint2_linear_103_10097" x1="41.9516" y1="12.109" x2="57.0559" y2="12.109" gradientUnits="userSpaceOnUse">
<stop offset="0.0186222" stop-color="#9A8C84"/>
<stop offset="0.4235" stop-color="#D3CCC5"/>
<stop offset="0.4999" stop-color="#DED9D1"/>
<stop offset="0.5991" stop-color="#D1CAC0"/>
<stop offset="0.7129" stop-color="#C7C0B1"/>
<stop offset="0.8064" stop-color="#C4BCAC"/>
<stop offset="0.8566" stop-color="#B8AF9E"/>
<stop offset="0.9516" stop-color="#978E78"/>
<stop offset="0.9972" stop-color="#867664"/>
</linearGradient>
<linearGradient id="paint3_linear_103_10097" x1="38.7995" y1="17.0422" x2="60.2605" y2="17.0422" gradientUnits="userSpaceOnUse">
<stop offset="0.0186222" stop-color="#9A8C84"/>
<stop offset="0.4235" stop-color="#D3CCC5"/>
<stop offset="0.4999" stop-color="#DED9D1"/>
<stop offset="0.5991" stop-color="#D1CAC0"/>
<stop offset="0.7129" stop-color="#C7C0B1"/>
<stop offset="0.8064" stop-color="#C4BCAC"/>
<stop offset="0.8566" stop-color="#B8AF9E"/>
<stop offset="0.9516" stop-color="#978E78"/>
<stop offset="0.9972" stop-color="#867664"/>
</linearGradient>
<linearGradient id="paint4_linear_103_10097" x1="0.0158144" y1="74.7714" x2="8.87758" y2="74.7714" gradientUnits="userSpaceOnUse">
<stop offset="0.0186222" stop-color="#9A8C84"/>
<stop offset="0.4235" stop-color="#D3CCC5"/>
<stop offset="0.4999" stop-color="#DED9D1"/>
<stop offset="0.5991" stop-color="#D1CAC0"/>
<stop offset="0.7129" stop-color="#C7C0B1"/>
<stop offset="0.8064" stop-color="#C4BCAC"/>
<stop offset="0.8566" stop-color="#B8AF9E"/>
<stop offset="0.9516" stop-color="#978E78"/>
<stop offset="0.9972" stop-color="#867664"/>
</linearGradient>
<linearGradient id="paint5_linear_103_10097" x1="11.8707" y1="74.7738" x2="27.3354" y2="74.7738" gradientUnits="userSpaceOnUse">
<stop offset="0.0186222" stop-color="#9A8C84"/>
<stop offset="0.4235" stop-color="#D3CCC5"/>
<stop offset="0.4999" stop-color="#DED9D1"/>
<stop offset="0.5991" stop-color="#D1CAC0"/>
<stop offset="0.7129" stop-color="#C7C0B1"/>
<stop offset="0.8064" stop-color="#C4BCAC"/>
<stop offset="0.8566" stop-color="#B8AF9E"/>
<stop offset="0.9516" stop-color="#978E78"/>
<stop offset="0.9972" stop-color="#867664"/>
</linearGradient>
<linearGradient id="paint6_linear_103_10097" x1="30.4184" y1="74.5764" x2="42.7897" y2="74.5764" gradientUnits="userSpaceOnUse">
<stop offset="0.0186222" stop-color="#9A8C84"/>
<stop offset="0.4235" stop-color="#D3CCC5"/>
<stop offset="0.4999" stop-color="#DED9D1"/>
<stop offset="0.5991" stop-color="#D1CAC0"/>
<stop offset="0.7129" stop-color="#C7C0B1"/>
<stop offset="0.8064" stop-color="#C4BCAC"/>
<stop offset="0.8566" stop-color="#B8AF9E"/>
<stop offset="0.9516" stop-color="#978E78"/>
<stop offset="0.9972" stop-color="#867664"/>
</linearGradient>
<linearGradient id="paint7_linear_103_10097" x1="46.4863" y1="74.9218" x2="62.9754" y2="74.9218" gradientUnits="userSpaceOnUse">
<stop offset="0.0186222" stop-color="#9A8C84"/>
<stop offset="0.4235" stop-color="#D3CCC5"/>
<stop offset="0.4999" stop-color="#DED9D1"/>
<stop offset="0.5991" stop-color="#D1CAC0"/>
<stop offset="0.7129" stop-color="#C7C0B1"/>
<stop offset="0.8064" stop-color="#C4BCAC"/>
<stop offset="0.8566" stop-color="#B8AF9E"/>
<stop offset="0.9516" stop-color="#978E78"/>
<stop offset="0.9972" stop-color="#867664"/>
</linearGradient>
<linearGradient id="paint8_linear_103_10097" x1="62.1806" y1="74.9414" x2="75.7634" y2="74.9414" gradientUnits="userSpaceOnUse">
<stop offset="0.0186222" stop-color="#9A8C84"/>
<stop offset="0.4235" stop-color="#D3CCC5"/>
<stop offset="0.4999" stop-color="#DED9D1"/>
<stop offset="0.5991" stop-color="#D1CAC0"/>
<stop offset="0.7129" stop-color="#C7C0B1"/>
<stop offset="0.8064" stop-color="#C4BCAC"/>
<stop offset="0.8566" stop-color="#B8AF9E"/>
<stop offset="0.9516" stop-color="#978E78"/>
<stop offset="0.9972" stop-color="#867664"/>
</linearGradient>
<linearGradient id="paint9_linear_103_10097" x1="79.6168" y1="74.9694" x2="98.0602" y2="74.9694" gradientUnits="userSpaceOnUse">
<stop offset="0.0186222" stop-color="#9A8C84"/>
<stop offset="0.4235" stop-color="#D3CCC5"/>
<stop offset="0.4999" stop-color="#DED9D1"/>
<stop offset="0.5991" stop-color="#D1CAC0"/>
<stop offset="0.7129" stop-color="#C7C0B1"/>
<stop offset="0.8064" stop-color="#C4BCAC"/>
<stop offset="0.8566" stop-color="#B8AF9E"/>
<stop offset="0.9516" stop-color="#978E78"/>
<stop offset="0.9972" stop-color="#867664"/>
</linearGradient>
</defs>
</svg>
