<svg width="240" height="182" viewBox="0 0 240 182" fill="none" xmlns="http://www.w3.org/2000/svg">
<g clip-path="url(#clip0_103_9456)">
<path d="M133.488 79.2178C135.216 80.463 136.512 82.3309 137.424 84.2946C138.336 86.2583 138.864 88.3657 139.344 90.4251C139.824 92.4846 140.304 94.5441 140.976 96.412C141.696 98.3278 142.56 100.196 143.616 101.968C144.672 103.692 145.92 105.32 147.36 106.661C148.08 107.332 148.896 107.859 149.76 108.386C150.624 108.865 151.536 109.296 152.496 109.631C153.456 109.918 154.416 110.11 155.376 110.062C155.856 110.014 156.288 109.966 156.72 109.775C157.152 109.631 157.536 109.344 157.872 109.056C158.16 108.769 158.352 108.338 158.496 107.859C158.592 107.38 158.64 106.901 158.592 106.422C158.544 105.943 158.352 105.464 157.968 105.177C157.776 105.033 157.536 104.985 157.296 105.033C157.056 105.033 156.768 105.129 156.528 105.225C156.768 105.081 157.008 104.937 157.248 104.889C157.536 104.841 157.824 104.841 158.112 104.937C158.4 105.033 158.592 105.273 158.784 105.512C158.928 105.751 159.072 106.039 159.12 106.278C159.264 106.853 159.312 107.428 159.264 107.955C159.168 108.529 159.024 109.104 158.64 109.631C158.256 110.11 157.776 110.493 157.248 110.733C156.72 111.02 156.144 111.164 155.568 111.259C154.416 111.451 153.264 111.307 152.16 111.02C151.056 110.733 150 110.349 149.04 109.823C148.032 109.296 147.072 108.721 146.208 107.955C144.48 106.518 143.136 104.746 141.984 102.878C140.88 101.01 139.968 98.9983 139.296 96.9388C138.624 94.8315 138.24 92.7241 137.904 90.6167C137.568 88.5572 137.232 86.4978 136.56 84.5341C135.888 82.6183 134.928 80.7504 133.488 79.2178Z" fill="url(#paint0_linear_103_9456)"/>
<path d="M133.488 79.2178C135.216 80.463 136.512 82.3309 137.424 84.2946C138.336 86.2583 138.864 88.3657 139.344 90.4251C139.824 92.4846 140.304 94.5441 140.976 96.412C141.696 98.3278 142.56 100.196 143.616 101.968C144.672 103.692 145.92 105.32 147.36 106.661C148.08 107.332 148.896 107.859 149.76 108.386C150.624 108.865 151.536 109.296 152.496 109.631C153.456 109.918 154.416 110.11 155.376 110.062C155.856 110.014 156.288 109.966 156.72 109.775C157.152 109.631 157.536 109.344 157.872 109.056C158.16 108.769 158.352 108.338 158.496 107.859C158.592 107.38 158.64 106.901 158.592 106.422C158.544 105.943 158.352 105.464 157.968 105.177C157.776 105.033 157.536 104.985 157.296 105.033C157.056 105.033 156.768 105.129 156.528 105.225C156.768 105.081 157.008 104.937 157.248 104.889C157.536 104.841 157.824 104.841 158.112 104.937C158.4 105.033 158.592 105.273 158.784 105.512C158.928 105.751 159.072 106.039 159.12 106.278C159.264 106.853 159.312 107.428 159.264 107.955C159.168 108.529 159.024 109.104 158.64 109.631C158.256 110.11 157.776 110.493 157.248 110.733C156.72 111.02 156.144 111.164 155.568 111.259C154.416 111.451 153.264 111.307 152.16 111.02C151.056 110.733 150 110.349 149.04 109.823C148.032 109.296 147.072 108.721 146.208 107.955C144.48 106.518 143.136 104.746 141.984 102.878C140.88 101.01 139.968 98.9983 139.296 96.9388C138.624 94.8315 138.24 92.7241 137.904 90.6167C137.568 88.5572 137.232 86.4978 136.56 84.5341C135.888 82.6183 134.928 80.7504 133.488 79.2178Z" fill="#FFE9BF" fill-opacity="0.24" style="mix-blend-mode:saturation"/>
<path d="M85.7277 104.219C85.2957 103.836 84.7197 103.836 84.2397 104.027C83.7597 104.219 83.4717 104.65 83.3277 105.129C83.0397 106.087 83.3277 107.141 83.9517 107.907C84.5757 108.673 85.4397 109.2 86.3997 109.487C86.8797 109.631 87.3597 109.679 87.8397 109.679C88.0797 109.679 88.3197 109.679 88.5597 109.631C88.7997 109.583 89.0397 109.583 89.3277 109.487C91.2957 109.008 93.1197 107.859 94.7517 106.518C95.5677 105.847 96.3357 105.081 97.0557 104.315C97.7757 103.548 98.4957 102.734 99.1197 101.872C101.712 98.5195 103.104 94.3048 104.928 90.2816C105.84 88.27 106.896 86.2106 108.24 84.3906C109.632 82.5706 111.36 81.0379 113.376 80.1279C111.552 81.4211 110.112 83.0974 109.008 84.9174C107.904 86.7853 107.088 88.7969 106.272 90.8085C105.504 92.8679 104.784 94.9753 103.92 97.0348C103.488 98.0885 103.008 99.0942 102.48 100.1C101.952 101.106 101.28 102.112 100.608 103.022C99.2157 104.842 97.6317 106.518 95.8557 107.955C94.9437 108.673 93.9837 109.296 92.9277 109.871C91.8717 110.397 90.7677 110.828 89.5677 111.02C89.2797 111.068 88.9917 111.068 88.6557 111.116C88.3677 111.164 88.0317 111.164 87.7437 111.116C87.1197 111.068 86.4957 110.924 85.9197 110.733C84.7677 110.302 83.7597 109.535 83.0877 108.482C82.4157 107.428 82.2237 106.087 82.7517 104.985C82.9917 104.458 83.4717 103.932 84.0957 103.788C84.7197 103.596 85.3917 103.74 85.7277 104.219Z" fill="url(#paint1_linear_103_9456)"/>
<path d="M85.7277 104.219C85.2957 103.836 84.7197 103.836 84.2397 104.027C83.7597 104.219 83.4717 104.65 83.3277 105.129C83.0397 106.087 83.3277 107.141 83.9517 107.907C84.5757 108.673 85.4397 109.2 86.3997 109.487C86.8797 109.631 87.3597 109.679 87.8397 109.679C88.0797 109.679 88.3197 109.679 88.5597 109.631C88.7997 109.583 89.0397 109.583 89.3277 109.487C91.2957 109.008 93.1197 107.859 94.7517 106.518C95.5677 105.847 96.3357 105.081 97.0557 104.315C97.7757 103.548 98.4957 102.734 99.1197 101.872C101.712 98.5195 103.104 94.3048 104.928 90.2816C105.84 88.27 106.896 86.2106 108.24 84.3906C109.632 82.5706 111.36 81.0379 113.376 80.1279C111.552 81.4211 110.112 83.0974 109.008 84.9174C107.904 86.7853 107.088 88.7969 106.272 90.8085C105.504 92.8679 104.784 94.9753 103.92 97.0348C103.488 98.0885 103.008 99.0942 102.48 100.1C101.952 101.106 101.28 102.112 100.608 103.022C99.2157 104.842 97.6317 106.518 95.8557 107.955C94.9437 108.673 93.9837 109.296 92.9277 109.871C91.8717 110.397 90.7677 110.828 89.5677 111.02C89.2797 111.068 88.9917 111.068 88.6557 111.116C88.3677 111.164 88.0317 111.164 87.7437 111.116C87.1197 111.068 86.4957 110.924 85.9197 110.733C84.7677 110.302 83.7597 109.535 83.0877 108.482C82.4157 107.428 82.2237 106.087 82.7517 104.985C82.9917 104.458 83.4717 103.932 84.0957 103.788C84.7197 103.596 85.3917 103.74 85.7277 104.219Z" fill="#FFE9BF" fill-opacity="0.24" style="mix-blend-mode:saturation"/>
<path d="M117.553 79.3133C119.473 74.3323 119.761 68.8723 118.465 63.7954C117.793 61.257 116.689 58.8623 115.969 56.2281C115.201 53.5939 115.009 50.7202 115.825 47.9902C116.209 46.6491 116.881 45.3081 117.841 44.2065C118.801 43.1049 120.049 42.2428 121.441 41.716C122.833 41.1891 124.369 40.9975 125.857 41.3328C126.625 41.4765 127.345 41.8118 127.969 42.1949C128.641 42.5781 129.217 43.1049 129.697 43.6318C130.225 44.2065 130.609 44.7812 130.945 45.4518C131.281 46.0744 131.569 46.7449 131.761 47.4154C132.001 48.086 132.145 48.7565 132.289 49.4749C132.433 50.1454 132.481 50.8639 132.529 51.5344C132.721 54.2644 132.481 57.0423 131.905 59.7244C130.801 65.0886 128.593 70.0218 126.433 74.8591C124.225 79.6965 122.017 84.486 120.769 89.5628C119.521 94.6396 119.473 99.956 119.473 105.272C119.473 107.906 119.473 110.589 119.857 113.175C120.049 114.468 120.385 115.761 120.865 116.959C121.345 118.204 122.017 119.353 122.881 120.359C121.969 119.401 121.201 118.3 120.625 117.054C120.049 115.857 119.665 114.564 119.377 113.223C118.801 110.589 118.705 107.906 118.561 105.224C118.465 102.59 118.369 99.9081 118.417 97.226C118.465 94.5439 118.753 91.8617 119.329 89.1796C121.633 78.4991 128.017 69.4949 130.033 59.2454C130.561 56.707 130.801 54.1207 130.657 51.5823C130.609 50.9596 130.561 50.337 130.465 49.7144C130.369 49.0918 130.225 48.4691 130.033 47.8944C129.841 47.3196 129.601 46.7449 129.313 46.2181C129.025 45.6912 128.737 45.1644 128.305 44.7333C127.921 44.3023 127.489 43.9191 127.009 43.6318C126.529 43.3444 126.001 43.1049 125.473 42.9612C124.369 42.7218 123.169 42.8175 122.017 43.2486C121.441 43.4402 120.913 43.7275 120.433 44.0628C119.953 44.3981 119.473 44.7812 119.089 45.2123C118.273 46.0744 117.697 47.176 117.313 48.3733C116.929 49.5707 116.737 50.816 116.737 52.0612C116.737 53.3065 116.929 54.5996 117.217 55.8449C117.793 58.3833 118.849 60.826 119.425 63.5081C120.481 68.8723 119.857 74.5239 117.553 79.3133Z" fill="url(#paint2_linear_103_9456)"/>
<path d="M117.553 79.3133C119.473 74.3323 119.761 68.8723 118.465 63.7954C117.793 61.257 116.689 58.8623 115.969 56.2281C115.201 53.5939 115.009 50.7202 115.825 47.9902C116.209 46.6491 116.881 45.3081 117.841 44.2065C118.801 43.1049 120.049 42.2428 121.441 41.716C122.833 41.1891 124.369 40.9975 125.857 41.3328C126.625 41.4765 127.345 41.8118 127.969 42.1949C128.641 42.5781 129.217 43.1049 129.697 43.6318C130.225 44.2065 130.609 44.7812 130.945 45.4518C131.281 46.0744 131.569 46.7449 131.761 47.4154C132.001 48.086 132.145 48.7565 132.289 49.4749C132.433 50.1454 132.481 50.8639 132.529 51.5344C132.721 54.2644 132.481 57.0423 131.905 59.7244C130.801 65.0886 128.593 70.0218 126.433 74.8591C124.225 79.6965 122.017 84.486 120.769 89.5628C119.521 94.6396 119.473 99.956 119.473 105.272C119.473 107.906 119.473 110.589 119.857 113.175C120.049 114.468 120.385 115.761 120.865 116.959C121.345 118.204 122.017 119.353 122.881 120.359C121.969 119.401 121.201 118.3 120.625 117.054C120.049 115.857 119.665 114.564 119.377 113.223C118.801 110.589 118.705 107.906 118.561 105.224C118.465 102.59 118.369 99.9081 118.417 97.226C118.465 94.5439 118.753 91.8617 119.329 89.1796C121.633 78.4991 128.017 69.4949 130.033 59.2454C130.561 56.707 130.801 54.1207 130.657 51.5823C130.609 50.9596 130.561 50.337 130.465 49.7144C130.369 49.0918 130.225 48.4691 130.033 47.8944C129.841 47.3196 129.601 46.7449 129.313 46.2181C129.025 45.6912 128.737 45.1644 128.305 44.7333C127.921 44.3023 127.489 43.9191 127.009 43.6318C126.529 43.3444 126.001 43.1049 125.473 42.9612C124.369 42.7218 123.169 42.8175 122.017 43.2486C121.441 43.4402 120.913 43.7275 120.433 44.0628C119.953 44.3981 119.473 44.7812 119.089 45.2123C118.273 46.0744 117.697 47.176 117.313 48.3733C116.929 49.5707 116.737 50.816 116.737 52.0612C116.737 53.3065 116.929 54.5996 117.217 55.8449C117.793 58.3833 118.849 60.826 119.425 63.5081C120.481 68.8723 119.857 74.5239 117.553 79.3133Z" fill="#FFE9BF" fill-opacity="0.24" style="mix-blend-mode:saturation"/>
<path d="M84.2883 94.3526C82.0803 85.6358 81.6483 76.3921 82.9923 67.3879C84.2403 58.3837 87.2643 49.6189 91.6803 41.6205C92.7843 39.6568 93.9843 37.6932 95.3283 35.8253C95.9523 34.8674 96.6723 33.9574 97.3443 33.0474C97.6803 32.5684 98.0643 32.1374 98.4003 31.7063C98.7363 31.2753 99.1203 30.7963 99.5043 30.3653C102.432 26.8689 105.744 23.66 109.296 20.8342L110.64 19.7805C111.072 19.4453 111.504 19.11 111.936 18.7268C112.8 18.0084 113.616 17.29 114.48 16.5237C116.112 15.0389 117.696 13.4584 119.136 11.7821C119.856 10.92 120.528 10.0579 121.152 9.14789C121.776 8.2379 122.352 7.28 122.88 6.32211C123.408 5.36421 123.84 4.31053 124.176 3.25684C124.56 2.20316 124.848 1.10158 124.992 0C124.896 2.25105 124.368 4.50211 123.504 6.60947C122.64 8.71684 121.488 10.7284 120.096 12.5484C118.752 14.3684 117.216 16.0926 115.584 17.7211C114.768 18.5353 113.952 19.3016 113.136 20.0679C112.704 20.4511 112.272 20.8342 111.84 21.2174L110.544 22.3189C109.68 23.0374 108.864 23.7558 108.048 24.5221C107.616 24.9053 107.232 25.2884 106.848 25.6716C106.464 26.0547 106.032 26.4379 105.648 26.8211C104.88 27.6353 104.112 28.4016 103.392 29.2637C102.624 30.0779 101.952 30.94 101.232 31.8021C98.4003 35.2026 95.9523 38.9384 93.7443 42.77C89.4243 50.4811 86.3523 58.9584 84.7683 67.6753C83.0883 76.44 82.9923 85.4442 84.2883 94.3526Z" fill="url(#paint3_linear_103_9456)"/>
<path d="M84.2883 94.3526C82.0803 85.6358 81.6483 76.3921 82.9923 67.3879C84.2403 58.3837 87.2643 49.6189 91.6803 41.6205C92.7843 39.6568 93.9843 37.6932 95.3283 35.8253C95.9523 34.8674 96.6723 33.9574 97.3443 33.0474C97.6803 32.5684 98.0643 32.1374 98.4003 31.7063C98.7363 31.2753 99.1203 30.7963 99.5043 30.3653C102.432 26.8689 105.744 23.66 109.296 20.8342L110.64 19.7805C111.072 19.4453 111.504 19.11 111.936 18.7268C112.8 18.0084 113.616 17.29 114.48 16.5237C116.112 15.0389 117.696 13.4584 119.136 11.7821C119.856 10.92 120.528 10.0579 121.152 9.14789C121.776 8.2379 122.352 7.28 122.88 6.32211C123.408 5.36421 123.84 4.31053 124.176 3.25684C124.56 2.20316 124.848 1.10158 124.992 0C124.896 2.25105 124.368 4.50211 123.504 6.60947C122.64 8.71684 121.488 10.7284 120.096 12.5484C118.752 14.3684 117.216 16.0926 115.584 17.7211C114.768 18.5353 113.952 19.3016 113.136 20.0679C112.704 20.4511 112.272 20.8342 111.84 21.2174L110.544 22.3189C109.68 23.0374 108.864 23.7558 108.048 24.5221C107.616 24.9053 107.232 25.2884 106.848 25.6716C106.464 26.0547 106.032 26.4379 105.648 26.8211C104.88 27.6353 104.112 28.4016 103.392 29.2637C102.624 30.0779 101.952 30.94 101.232 31.8021C98.4003 35.2026 95.9523 38.9384 93.7443 42.77C89.4243 50.4811 86.3523 58.9584 84.7683 67.6753C83.0883 76.44 82.9923 85.4442 84.2883 94.3526Z" fill="#FFE9BF" fill-opacity="0.24" style="mix-blend-mode:saturation"/>
<path d="M156.384 94.3526C157.248 85.8274 157.152 77.2542 156 68.8247C155.376 64.61 154.608 60.4432 153.456 56.3721C152.352 52.3011 151.008 48.2779 149.328 44.3984C147.696 40.5189 145.776 36.7353 143.568 33.0953C142.464 31.2753 141.312 29.5032 140.112 27.7789C138.912 26.0547 137.616 24.3305 136.32 22.7021C135.024 21.0737 133.584 19.4453 132.24 17.7211C130.896 15.9968 129.648 14.2247 128.544 12.3568C127.488 10.4411 126.528 8.47737 125.904 6.37C125.568 5.31632 125.376 4.26263 125.184 3.20895C125.088 2.68211 125.04 2.15526 124.992 1.58053L124.848 0L125.136 1.58053C125.28 2.10737 125.376 2.63421 125.52 3.16105C125.808 4.16684 126.144 5.22053 126.528 6.17842C127.296 8.14211 128.352 10.01 129.504 11.7342C130.656 13.5063 132 15.1347 133.392 16.7632C134.784 18.3916 136.224 19.9242 137.664 21.5526C140.544 24.8095 143.088 28.3058 145.44 31.9937C147.744 35.6816 149.76 39.5132 151.488 43.5363C153.168 47.5595 154.56 51.6784 155.616 55.8932C156.672 60.1079 157.44 64.3705 157.824 68.6811C158.64 77.2542 158.208 85.9711 156.384 94.3526Z" fill="url(#paint4_linear_103_9456)"/>
<path d="M156.384 94.3526C157.248 85.8274 157.152 77.2542 156 68.8247C155.376 64.61 154.608 60.4432 153.456 56.3721C152.352 52.3011 151.008 48.2779 149.328 44.3984C147.696 40.5189 145.776 36.7353 143.568 33.0953C142.464 31.2753 141.312 29.5032 140.112 27.7789C138.912 26.0547 137.616 24.3305 136.32 22.7021C135.024 21.0737 133.584 19.4453 132.24 17.7211C130.896 15.9968 129.648 14.2247 128.544 12.3568C127.488 10.4411 126.528 8.47737 125.904 6.37C125.568 5.31632 125.376 4.26263 125.184 3.20895C125.088 2.68211 125.04 2.15526 124.992 1.58053L124.848 0L125.136 1.58053C125.28 2.10737 125.376 2.63421 125.52 3.16105C125.808 4.16684 126.144 5.22053 126.528 6.17842C127.296 8.14211 128.352 10.01 129.504 11.7342C130.656 13.5063 132 15.1347 133.392 16.7632C134.784 18.3916 136.224 19.9242 137.664 21.5526C140.544 24.8095 143.088 28.3058 145.44 31.9937C147.744 35.6816 149.76 39.5132 151.488 43.5363C153.168 47.5595 154.56 51.6784 155.616 55.8932C156.672 60.1079 157.44 64.3705 157.824 68.6811C158.64 77.2542 158.208 85.9711 156.384 94.3526Z" fill="#FFE9BF" fill-opacity="0.24" style="mix-blend-mode:saturation"/>
<path d="M153.024 41.4767C153.456 40.0877 154.128 38.7945 154.944 37.5972C155.808 36.3998 156.816 35.3461 157.968 34.3882C159.12 33.4782 160.416 32.664 161.76 32.0414C163.152 31.4188 164.592 31.0356 165.984 30.7482C168.816 30.1256 171.552 29.8382 173.952 28.8324C176.4 27.8745 178.416 25.9109 180.576 24.043C179.904 25.2882 179.088 26.4856 178.176 27.6351C177.696 28.2098 177.216 28.7367 176.64 29.2156C176.064 29.6945 175.44 30.1256 174.768 30.5088C173.472 31.2751 172.032 31.754 170.64 32.1372C169.248 32.5203 167.856 32.7598 166.464 33.0951C165.12 33.3824 163.824 33.7177 162.576 34.1488C161.328 34.6277 160.128 35.2024 159.024 35.9209C157.872 36.6393 156.816 37.4535 155.808 38.4114C154.8 39.2735 153.888 40.3272 153.024 41.4767Z" fill="url(#paint5_linear_103_9456)"/>
<path d="M153.024 41.4767C153.456 40.0877 154.128 38.7945 154.944 37.5972C155.808 36.3998 156.816 35.3461 157.968 34.3882C159.12 33.4782 160.416 32.664 161.76 32.0414C163.152 31.4188 164.592 31.0356 165.984 30.7482C168.816 30.1256 171.552 29.8382 173.952 28.8324C176.4 27.8745 178.416 25.9109 180.576 24.043C179.904 25.2882 179.088 26.4856 178.176 27.6351C177.696 28.2098 177.216 28.7367 176.64 29.2156C176.064 29.6945 175.44 30.1256 174.768 30.5088C173.472 31.2751 172.032 31.754 170.64 32.1372C169.248 32.5203 167.856 32.7598 166.464 33.0951C165.12 33.3824 163.824 33.7177 162.576 34.1488C161.328 34.6277 160.128 35.2024 159.024 35.9209C157.872 36.6393 156.816 37.4535 155.808 38.4114C154.8 39.2735 153.888 40.3272 153.024 41.4767Z" fill="#FFE9BF" fill-opacity="0.24" style="mix-blend-mode:saturation"/>
<path d="M180.912 23.8516C179.712 26.4379 179.376 29.0721 179.328 31.7542C179.28 34.4363 179.52 37.1184 179.76 39.8963C179.952 42.6742 180 45.5479 179.472 48.4216C179.184 49.8584 178.752 51.2474 178.128 52.5405C177.456 53.8337 176.592 55.031 175.536 55.941C176.928 53.4984 177.504 50.8642 177.696 48.1821C177.888 45.5 177.696 42.8179 177.504 40.0879C177.312 37.31 177.168 34.4842 177.6 31.6105C177.792 30.1737 178.176 28.7847 178.704 27.4437C179.136 26.1026 179.904 24.8574 180.912 23.8516Z" fill="url(#paint6_linear_103_9456)"/>
<path d="M180.912 23.8516C179.712 26.4379 179.376 29.0721 179.328 31.7542C179.28 34.4363 179.52 37.1184 179.76 39.8963C179.952 42.6742 180 45.5479 179.472 48.4216C179.184 49.8584 178.752 51.2474 178.128 52.5405C177.456 53.8337 176.592 55.031 175.536 55.941C176.928 53.4984 177.504 50.8642 177.696 48.1821C177.888 45.5 177.696 42.8179 177.504 40.0879C177.312 37.31 177.168 34.4842 177.6 31.6105C177.792 30.1737 178.176 28.7847 178.704 27.4437C179.136 26.1026 179.904 24.8574 180.912 23.8516Z" fill="#FFE9BF" fill-opacity="0.24" style="mix-blend-mode:saturation"/>
<path d="M163.344 66.6697C168.144 63.7481 172.752 60.5871 177.792 57.9529C178.416 57.6176 179.04 57.3302 179.712 56.995C180.336 56.7076 181.008 56.3723 181.68 56.1329C182.352 55.8455 183.024 55.606 183.696 55.3186C184.032 55.175 184.368 55.0792 184.704 54.9834L185.232 54.7918L185.76 54.6481C187.152 54.2171 188.592 53.9776 190.032 53.8339C191.472 53.6423 192.912 53.5465 194.352 53.5465C200.112 53.4987 205.68 54.4565 211.2 54.8397C212.592 54.9355 213.984 54.9834 215.328 55.0313C216.72 55.0313 218.064 54.9834 219.456 54.8397C220.848 54.696 222.192 54.4565 223.536 54.1692C224.88 53.8339 226.176 53.355 227.52 52.8281C226.32 53.5944 225.072 54.2171 223.728 54.7918C222.384 55.3187 221.04 55.7018 219.6 55.9892C216.816 56.5639 213.936 56.7076 211.104 56.6597C205.44 56.5639 199.872 55.7976 194.352 55.8455C192.96 55.8455 191.616 55.8934 190.272 56.0371C188.928 56.1808 187.584 56.4202 186.288 56.7555L185.808 56.8513L185.328 56.995C184.992 57.0908 184.704 57.1865 184.368 57.2823C183.696 57.5218 183.072 57.7134 182.448 57.9529C181.152 58.4318 179.904 58.9587 178.608 59.5334C173.52 61.8323 168.576 64.5623 163.344 66.6697Z" fill="url(#paint7_linear_103_9456)"/>
<path d="M163.344 66.6697C168.144 63.7481 172.752 60.5871 177.792 57.9529C178.416 57.6176 179.04 57.3302 179.712 56.995C180.336 56.7076 181.008 56.3723 181.68 56.1329C182.352 55.8455 183.024 55.606 183.696 55.3186C184.032 55.175 184.368 55.0792 184.704 54.9834L185.232 54.7918L185.76 54.6481C187.152 54.2171 188.592 53.9776 190.032 53.8339C191.472 53.6423 192.912 53.5465 194.352 53.5465C200.112 53.4987 205.68 54.4565 211.2 54.8397C212.592 54.9355 213.984 54.9834 215.328 55.0313C216.72 55.0313 218.064 54.9834 219.456 54.8397C220.848 54.696 222.192 54.4565 223.536 54.1692C224.88 53.8339 226.176 53.355 227.52 52.8281C226.32 53.5944 225.072 54.2171 223.728 54.7918C222.384 55.3187 221.04 55.7018 219.6 55.9892C216.816 56.5639 213.936 56.7076 211.104 56.6597C205.44 56.5639 199.872 55.7976 194.352 55.8455C192.96 55.8455 191.616 55.8934 190.272 56.0371C188.928 56.1808 187.584 56.4202 186.288 56.7555L185.808 56.8513L185.328 56.995C184.992 57.0908 184.704 57.1865 184.368 57.2823C183.696 57.5218 183.072 57.7134 182.448 57.9529C181.152 58.4318 179.904 58.9587 178.608 59.5334C173.52 61.8323 168.576 64.5623 163.344 66.6697Z" fill="#FFE9BF" fill-opacity="0.24" style="mix-blend-mode:saturation"/>
<path d="M228.336 52.8281C225.792 54.5044 223.68 56.6118 221.712 58.9586C220.752 60.1081 219.744 61.3055 218.928 62.455C218.112 63.6523 217.392 64.9455 216.816 66.2865C215.616 68.9686 214.704 71.8423 213.888 74.716C213.456 76.1529 213.024 77.6376 212.592 79.0744C212.16 80.5113 211.68 81.996 211.104 83.4329C209.952 86.3065 208.56 89.0844 206.88 91.7187C205.152 94.305 203.184 96.7476 200.784 98.8071L199.872 99.5734C199.584 99.8129 199.296 100.1 198.96 100.292L198 100.962C197.664 101.202 197.376 101.393 196.992 101.585L195.984 102.16L195.456 102.447C195.264 102.543 195.12 102.591 194.928 102.687L193.872 103.165C193.536 103.309 193.152 103.501 192.768 103.597C189.84 104.65 186.72 105.129 183.696 104.985C186.72 104.602 189.648 103.836 192.336 102.543C195.024 101.25 197.424 99.5255 199.536 97.466C201.6 95.4065 203.472 93.0597 204.96 90.5213C206.496 87.9829 207.792 85.3486 208.896 82.5708C210.048 79.8408 210.816 76.9192 211.776 74.0455C212.736 71.1718 213.696 68.2023 215.184 65.4723C215.904 64.0834 216.72 62.7423 217.728 61.4971C218.736 60.2518 219.792 59.1981 220.896 58.0965C223.104 56.0371 225.552 54.0255 228.336 52.8281Z" fill="url(#paint8_linear_103_9456)"/>
<path d="M228.336 52.8281C225.792 54.5044 223.68 56.6118 221.712 58.9586C220.752 60.1081 219.744 61.3055 218.928 62.455C218.112 63.6523 217.392 64.9455 216.816 66.2865C215.616 68.9686 214.704 71.8423 213.888 74.716C213.456 76.1529 213.024 77.6376 212.592 79.0744C212.16 80.5113 211.68 81.996 211.104 83.4329C209.952 86.3065 208.56 89.0844 206.88 91.7187C205.152 94.305 203.184 96.7476 200.784 98.8071L199.872 99.5734C199.584 99.8129 199.296 100.1 198.96 100.292L198 100.962C197.664 101.202 197.376 101.393 196.992 101.585L195.984 102.16L195.456 102.447C195.264 102.543 195.12 102.591 194.928 102.687L193.872 103.165C193.536 103.309 193.152 103.501 192.768 103.597C189.84 104.65 186.72 105.129 183.696 104.985C186.72 104.602 189.648 103.836 192.336 102.543C195.024 101.25 197.424 99.5255 199.536 97.466C201.6 95.4065 203.472 93.0597 204.96 90.5213C206.496 87.9829 207.792 85.3486 208.896 82.5708C210.048 79.8408 210.816 76.9192 211.776 74.0455C212.736 71.1718 213.696 68.2023 215.184 65.4723C215.904 64.0834 216.72 62.7423 217.728 61.4971C218.736 60.2518 219.792 59.1981 220.896 58.0965C223.104 56.0371 225.552 54.0255 228.336 52.8281Z" fill="#FFE9BF" fill-opacity="0.24" style="mix-blend-mode:saturation"/>
<path d="M171.264 107.093C173.664 105.513 176.496 104.555 179.424 104.219C182.352 103.932 185.328 104.219 188.16 104.89C191.04 105.56 193.728 106.614 196.416 107.811C199.056 109.009 201.6 110.446 204.096 111.835C209.136 114.756 213.6 118.396 218.256 121.605C220.56 123.234 222.96 124.766 225.456 126.011C227.952 127.305 230.64 128.31 233.424 128.933C230.544 128.789 227.712 128.071 224.976 127.065C222.288 126.011 219.696 124.67 217.248 123.138C212.304 120.12 207.792 116.672 202.944 113.846C200.496 112.409 198.048 111.02 195.504 109.775C193.008 108.53 190.416 107.428 187.728 106.614C185.088 105.8 182.304 105.273 179.52 105.321C176.688 105.369 173.904 105.991 171.264 107.093Z" fill="url(#paint9_linear_103_9456)"/>
<path d="M171.264 107.093C173.664 105.513 176.496 104.555 179.424 104.219C182.352 103.932 185.328 104.219 188.16 104.89C191.04 105.56 193.728 106.614 196.416 107.811C199.056 109.009 201.6 110.446 204.096 111.835C209.136 114.756 213.6 118.396 218.256 121.605C220.56 123.234 222.96 124.766 225.456 126.011C227.952 127.305 230.64 128.31 233.424 128.933C230.544 128.789 227.712 128.071 224.976 127.065C222.288 126.011 219.696 124.67 217.248 123.138C212.304 120.12 207.792 116.672 202.944 113.846C200.496 112.409 198.048 111.02 195.504 109.775C193.008 108.53 190.416 107.428 187.728 106.614C185.088 105.8 182.304 105.273 179.52 105.321C176.688 105.369 173.904 105.991 171.264 107.093Z" fill="#FFE9BF" fill-opacity="0.24" style="mix-blend-mode:saturation"/>
<path d="M176.928 149.671C179.52 150.102 182.112 150.006 184.656 149.623C187.2 149.24 189.696 148.617 192.144 147.899C194.592 147.132 197.04 146.318 199.392 145.312C201.744 144.354 204.096 143.253 206.4 142.056C207.552 141.481 208.656 140.858 209.76 140.188C210.336 139.852 210.864 139.517 211.44 139.23C211.968 138.894 212.496 138.559 213.024 138.224C215.136 136.835 217.2 135.207 219.408 133.77C220.512 133.051 221.616 132.333 222.816 131.662C223.968 131.04 225.216 130.465 226.464 130.034C227.76 129.603 229.056 129.316 230.4 129.22C231.744 129.124 233.088 129.316 234.336 129.699C233.04 129.555 231.744 129.603 230.496 129.842C229.248 130.13 228.048 130.513 226.896 131.088C224.592 132.189 222.528 133.674 220.464 135.254L217.392 137.649C216.384 138.463 215.328 139.278 214.224 140.044C213.696 140.427 213.12 140.81 212.544 141.146C211.968 141.481 211.44 141.864 210.864 142.199C209.712 142.87 208.56 143.492 207.408 144.115C205.056 145.312 202.608 146.414 200.16 147.372C197.664 148.282 195.12 149.096 192.528 149.671C189.936 150.246 187.344 150.677 184.656 150.82C182.112 150.868 179.424 150.581 176.928 149.671Z" fill="url(#paint10_linear_103_9456)"/>
<path d="M176.928 149.671C179.52 150.102 182.112 150.006 184.656 149.623C187.2 149.24 189.696 148.617 192.144 147.899C194.592 147.132 197.04 146.318 199.392 145.312C201.744 144.354 204.096 143.253 206.4 142.056C207.552 141.481 208.656 140.858 209.76 140.188C210.336 139.852 210.864 139.517 211.44 139.23C211.968 138.894 212.496 138.559 213.024 138.224C215.136 136.835 217.2 135.207 219.408 133.77C220.512 133.051 221.616 132.333 222.816 131.662C223.968 131.04 225.216 130.465 226.464 130.034C227.76 129.603 229.056 129.316 230.4 129.22C231.744 129.124 233.088 129.316 234.336 129.699C233.04 129.555 231.744 129.603 230.496 129.842C229.248 130.13 228.048 130.513 226.896 131.088C224.592 132.189 222.528 133.674 220.464 135.254L217.392 137.649C216.384 138.463 215.328 139.278 214.224 140.044C213.696 140.427 213.12 140.81 212.544 141.146C211.968 141.481 211.44 141.864 210.864 142.199C209.712 142.87 208.56 143.492 207.408 144.115C205.056 145.312 202.608 146.414 200.16 147.372C197.664 148.282 195.12 149.096 192.528 149.671C189.936 150.246 187.344 150.677 184.656 150.82C182.112 150.868 179.424 150.581 176.928 149.671Z" fill="#FFE9BF" fill-opacity="0.24" style="mix-blend-mode:saturation"/>
<path d="M209.184 94.784C209.712 94.3529 210.336 94.0177 210.96 93.7303C211.584 93.4429 212.256 93.2513 212.928 93.0598C214.272 92.7245 215.664 92.6287 217.056 92.6766C219.84 92.7724 222.576 93.6345 225.024 94.7361C226.272 95.3108 227.472 95.9334 228.624 96.5561C229.776 97.2266 230.928 97.8971 232.08 98.5677C233.184 99.2382 234.336 100.004 235.44 100.723C235.968 101.058 236.544 101.393 237.12 101.585C237.696 101.777 238.32 101.872 238.992 101.681C238.752 101.872 238.416 102.016 238.08 102.112C237.744 102.208 237.36 102.208 237.024 102.208C236.304 102.16 235.632 101.968 234.96 101.729C233.664 101.25 232.464 100.723 231.264 100.196C228.816 99.1424 226.464 97.8971 224.112 96.8434C221.76 95.7898 219.408 94.8798 216.912 94.4487C214.32 94.0655 211.776 94.0655 209.184 94.784Z" fill="url(#paint11_linear_103_9456)"/>
<path d="M209.184 94.784C209.712 94.3529 210.336 94.0177 210.96 93.7303C211.584 93.4429 212.256 93.2513 212.928 93.0598C214.272 92.7245 215.664 92.6287 217.056 92.6766C219.84 92.7724 222.576 93.6345 225.024 94.7361C226.272 95.3108 227.472 95.9334 228.624 96.5561C229.776 97.2266 230.928 97.8971 232.08 98.5677C233.184 99.2382 234.336 100.004 235.44 100.723C235.968 101.058 236.544 101.393 237.12 101.585C237.696 101.777 238.32 101.872 238.992 101.681C238.752 101.872 238.416 102.016 238.08 102.112C237.744 102.208 237.36 102.208 237.024 102.208C236.304 102.16 235.632 101.968 234.96 101.729C233.664 101.25 232.464 100.723 231.264 100.196C228.816 99.1424 226.464 97.8971 224.112 96.8434C221.76 95.7898 219.408 94.8798 216.912 94.4487C214.32 94.0655 211.776 94.0655 209.184 94.784Z" fill="#FFE9BF" fill-opacity="0.24" style="mix-blend-mode:saturation"/>
<path d="M214.032 114.325C216.528 113.894 219.024 113.703 220.992 112.697C222 112.218 222.864 111.499 223.776 110.733C224.208 110.35 224.688 109.919 225.12 109.536L226.512 108.29C227.424 107.476 228.384 106.662 229.344 105.896C229.824 105.513 230.304 105.129 230.784 104.746C231.264 104.363 231.792 103.98 232.368 103.597C232.944 103.261 233.52 102.926 234.192 102.687C234.864 102.447 235.488 102.351 236.112 102.256C236.736 102.16 237.36 102.112 237.936 102.016C238.512 101.92 239.088 101.729 239.616 101.394C239.472 101.681 239.232 101.92 238.992 102.112C238.752 102.304 238.464 102.495 238.176 102.639C237.6 102.926 236.976 103.166 236.4 103.405C235.824 103.645 235.296 103.836 234.816 104.124C234.336 104.411 233.904 104.746 233.472 105.129C232.608 105.896 231.744 106.758 230.832 107.62C229.92 108.482 229.008 109.296 228.096 110.11C227.136 110.925 226.224 111.739 225.216 112.505C224.208 113.271 223.056 114.038 221.712 114.469C220.416 114.9 219.072 114.996 217.776 114.948C216.528 114.804 215.28 114.613 214.032 114.325Z" fill="url(#paint12_linear_103_9456)"/>
<path d="M214.032 114.325C216.528 113.894 219.024 113.703 220.992 112.697C222 112.218 222.864 111.499 223.776 110.733C224.208 110.35 224.688 109.919 225.12 109.536L226.512 108.29C227.424 107.476 228.384 106.662 229.344 105.896C229.824 105.513 230.304 105.129 230.784 104.746C231.264 104.363 231.792 103.98 232.368 103.597C232.944 103.261 233.52 102.926 234.192 102.687C234.864 102.447 235.488 102.351 236.112 102.256C236.736 102.16 237.36 102.112 237.936 102.016C238.512 101.92 239.088 101.729 239.616 101.394C239.472 101.681 239.232 101.92 238.992 102.112C238.752 102.304 238.464 102.495 238.176 102.639C237.6 102.926 236.976 103.166 236.4 103.405C235.824 103.645 235.296 103.836 234.816 104.124C234.336 104.411 233.904 104.746 233.472 105.129C232.608 105.896 231.744 106.758 230.832 107.62C229.92 108.482 229.008 109.296 228.096 110.11C227.136 110.925 226.224 111.739 225.216 112.505C224.208 113.271 223.056 114.038 221.712 114.469C220.416 114.9 219.072 114.996 217.776 114.948C216.528 114.804 215.28 114.613 214.032 114.325Z" fill="#FFE9BF" fill-opacity="0.24" style="mix-blend-mode:saturation"/>
<path d="M89.136 41.4767C88.272 40.3272 87.36 39.2735 86.352 38.3635C85.344 37.4535 84.288 36.5914 83.136 35.873C81.984 35.1546 80.784 34.5799 79.584 34.1009C78.336 33.6699 77.04 33.3346 75.696 33.0472C74.352 32.7599 72.96 32.4725 71.52 32.0893C70.128 31.7062 68.688 31.2272 67.392 30.4609C66.72 30.0777 66.096 29.6467 65.52 29.1678C64.944 28.6888 64.464 28.162 63.984 27.5872C63.072 26.4377 62.256 25.2883 61.584 23.9951C63.744 25.863 65.76 27.8746 68.208 28.7846C70.656 29.7904 73.392 30.0777 76.176 30.7004C77.568 30.9877 79.008 31.4188 80.4 31.9935C81.792 32.6162 83.04 33.3825 84.192 34.3404C85.344 35.2983 86.352 36.352 87.216 37.5493C88.032 38.7946 88.704 40.0877 89.136 41.4767Z" fill="url(#paint13_linear_103_9456)"/>
<path d="M89.136 41.4767C88.272 40.3272 87.36 39.2735 86.352 38.3635C85.344 37.4535 84.288 36.5914 83.136 35.873C81.984 35.1546 80.784 34.5799 79.584 34.1009C78.336 33.6699 77.04 33.3346 75.696 33.0472C74.352 32.7599 72.96 32.4725 71.52 32.0893C70.128 31.7062 68.688 31.2272 67.392 30.4609C66.72 30.0777 66.096 29.6467 65.52 29.1678C64.944 28.6888 64.464 28.162 63.984 27.5872C63.072 26.4377 62.256 25.2883 61.584 23.9951C63.744 25.863 65.76 27.8746 68.208 28.7846C70.656 29.7904 73.392 30.0777 76.176 30.7004C77.568 30.9877 79.008 31.4188 80.4 31.9935C81.792 32.6162 83.04 33.3825 84.192 34.3404C85.344 35.2983 86.352 36.352 87.216 37.5493C88.032 38.7946 88.704 40.0877 89.136 41.4767Z" fill="#FFE9BF" fill-opacity="0.24" style="mix-blend-mode:saturation"/>
<path d="M61.248 23.8516C62.256 24.8574 63.024 26.1026 63.552 27.4437C64.128 28.7847 64.464 30.1737 64.656 31.6105C65.088 34.4842 64.944 37.31 64.752 40.0879C64.56 42.8179 64.368 45.5479 64.56 48.1821C64.752 50.8642 65.28 53.4505 66.72 55.941C65.616 55.031 64.7521 53.8337 64.1281 52.5405C63.4561 51.2474 63.072 49.8584 62.784 48.4216C62.256 45.5958 62.304 42.7221 62.496 39.8963C62.688 37.1184 62.9761 34.4363 62.9281 31.7542C62.7841 29.0721 62.448 26.39 61.248 23.8516Z" fill="url(#paint14_linear_103_9456)"/>
<path d="M61.248 23.8516C62.256 24.8574 63.024 26.1026 63.552 27.4437C64.128 28.7847 64.464 30.1737 64.656 31.6105C65.088 34.4842 64.944 37.31 64.752 40.0879C64.56 42.8179 64.368 45.5479 64.56 48.1821C64.752 50.8642 65.28 53.4505 66.72 55.941C65.616 55.031 64.7521 53.8337 64.1281 52.5405C63.4561 51.2474 63.072 49.8584 62.784 48.4216C62.256 45.5958 62.304 42.7221 62.496 39.8963C62.688 37.1184 62.9761 34.4363 62.9281 31.7542C62.7841 29.0721 62.448 26.39 61.248 23.8516Z" fill="#FFE9BF" fill-opacity="0.24" style="mix-blend-mode:saturation"/>
<path d="M78.8165 66.6697C73.5845 64.6102 68.6405 61.8323 63.6005 59.5812C62.3525 59.0065 61.0565 58.4797 59.7605 58.0007C59.1365 57.7612 58.4645 57.5218 57.8405 57.3302C57.5045 57.2344 57.2165 57.1386 56.8805 57.0428L56.4005 56.8991L55.9205 56.8033C54.6245 56.4681 53.2805 56.2286 51.9365 56.0849C50.5925 55.9412 49.2485 55.8933 47.8565 55.8933C42.3845 55.8454 36.8165 56.6118 31.1045 56.7076C28.2725 56.7555 25.3925 56.5639 22.6085 56.037C21.2165 55.7497 19.8245 55.3665 18.4805 54.8397C17.1365 54.3128 15.8885 53.6423 14.6885 52.876C15.9845 53.4028 17.3285 53.8818 18.6725 54.217C20.0165 54.5523 21.3605 54.7918 22.7525 54.8876C24.1445 55.0312 25.4885 55.0791 26.8805 55.0791C28.2725 55.0791 29.6165 55.0312 31.0085 54.8876C36.5285 54.5044 42.0965 53.5465 47.8565 53.5944C49.2965 53.5944 50.7365 53.6902 52.1765 53.8818C53.6165 54.0733 55.0565 54.3128 56.4485 54.696L56.9765 54.8397L57.5045 55.0312C57.8405 55.1749 58.2245 55.2707 58.5125 55.3665C59.1845 55.606 59.8565 55.8933 60.5285 56.1807C61.2005 56.4681 61.8245 56.7554 62.4965 57.0428C63.1205 57.3781 63.7925 57.6654 64.4165 58.0007C69.4085 60.5391 74.0165 63.7002 78.8165 66.6697Z" fill="url(#paint15_linear_103_9456)"/>
<path d="M78.8165 66.6697C73.5845 64.6102 68.6405 61.8323 63.6005 59.5812C62.3525 59.0065 61.0565 58.4797 59.7605 58.0007C59.1365 57.7612 58.4645 57.5218 57.8405 57.3302C57.5045 57.2344 57.2165 57.1386 56.8805 57.0428L56.4005 56.8991L55.9205 56.8033C54.6245 56.4681 53.2805 56.2286 51.9365 56.0849C50.5925 55.9412 49.2485 55.8933 47.8565 55.8933C42.3845 55.8454 36.8165 56.6118 31.1045 56.7076C28.2725 56.7555 25.3925 56.5639 22.6085 56.037C21.2165 55.7497 19.8245 55.3665 18.4805 54.8397C17.1365 54.3128 15.8885 53.6423 14.6885 52.876C15.9845 53.4028 17.3285 53.8818 18.6725 54.217C20.0165 54.5523 21.3605 54.7918 22.7525 54.8876C24.1445 55.0312 25.4885 55.0791 26.8805 55.0791C28.2725 55.0791 29.6165 55.0312 31.0085 54.8876C36.5285 54.5044 42.0965 53.5465 47.8565 53.5944C49.2965 53.5944 50.7365 53.6902 52.1765 53.8818C53.6165 54.0733 55.0565 54.3128 56.4485 54.696L56.9765 54.8397L57.5045 55.0312C57.8405 55.1749 58.2245 55.2707 58.5125 55.3665C59.1845 55.606 59.8565 55.8933 60.5285 56.1807C61.2005 56.4681 61.8245 56.7554 62.4965 57.0428C63.1205 57.3781 63.7925 57.6654 64.4165 58.0007C69.4085 60.5391 74.0165 63.7002 78.8165 66.6697Z" fill="#FFE9BF" fill-opacity="0.24" style="mix-blend-mode:saturation"/>
<path d="M13.7764 52.8281C16.6084 54.0255 19.0084 56.0371 21.2164 58.1444C22.3204 59.246 23.3764 60.2997 24.3844 61.545C25.3924 62.7902 26.1604 64.1313 26.9284 65.5202C28.3684 68.2981 29.3764 71.2197 30.3364 74.0934C31.2964 76.9671 32.0644 79.8887 33.2164 82.6187C34.3204 85.3965 35.6164 88.0308 37.1524 90.5692C38.6884 93.1076 40.5124 95.4065 42.5764 97.5139C44.6884 99.5734 47.0884 101.298 49.7764 102.591C52.4644 103.884 55.3924 104.65 58.4164 105.033C55.3924 105.177 52.2724 104.698 49.3444 103.644C48.9604 103.549 48.6244 103.357 48.2404 103.213L47.1844 102.734C46.9924 102.639 46.8004 102.591 46.6564 102.495L46.1284 102.208L45.1204 101.633C44.7844 101.441 44.4484 101.25 44.1124 101.01L43.1524 100.34C42.8164 100.148 42.5284 99.8608 42.2404 99.6213L41.3284 98.855C38.9284 96.7955 36.9604 94.3529 35.2324 91.7665C33.5524 89.1802 32.1604 86.3544 31.0084 83.4808C30.4324 82.0439 29.9524 80.5592 29.5204 79.1223C29.0884 77.6376 28.6564 76.2008 28.2244 74.7639C27.4084 71.8423 26.4964 69.0165 25.2964 66.3344C24.6724 64.9934 24.0004 63.7002 23.1844 62.5029C22.3684 61.3055 21.3604 60.156 20.4004 59.0065C18.4804 56.6118 16.3684 54.4565 13.7764 52.8281Z" fill="url(#paint16_linear_103_9456)"/>
<path d="M13.7764 52.8281C16.6084 54.0255 19.0084 56.0371 21.2164 58.1444C22.3204 59.246 23.3764 60.2997 24.3844 61.545C25.3924 62.7902 26.1604 64.1313 26.9284 65.5202C28.3684 68.2981 29.3764 71.2197 30.3364 74.0934C31.2964 76.9671 32.0644 79.8887 33.2164 82.6187C34.3204 85.3965 35.6164 88.0308 37.1524 90.5692C38.6884 93.1076 40.5124 95.4065 42.5764 97.5139C44.6884 99.5734 47.0884 101.298 49.7764 102.591C52.4644 103.884 55.3924 104.65 58.4164 105.033C55.3924 105.177 52.2724 104.698 49.3444 103.644C48.9604 103.549 48.6244 103.357 48.2404 103.213L47.1844 102.734C46.9924 102.639 46.8004 102.591 46.6564 102.495L46.1284 102.208L45.1204 101.633C44.7844 101.441 44.4484 101.25 44.1124 101.01L43.1524 100.34C42.8164 100.148 42.5284 99.8608 42.2404 99.6213L41.3284 98.855C38.9284 96.7955 36.9604 94.3529 35.2324 91.7665C33.5524 89.1802 32.1604 86.3544 31.0084 83.4808C30.4324 82.0439 29.9524 80.5592 29.5204 79.1223C29.0884 77.6376 28.6564 76.2008 28.2244 74.7639C27.4084 71.8423 26.4964 69.0165 25.2964 66.3344C24.6724 64.9934 24.0004 63.7002 23.1844 62.5029C22.3684 61.3055 21.3604 60.156 20.4004 59.0065C18.4804 56.6118 16.3684 54.4565 13.7764 52.8281Z" fill="#FFE9BF" fill-opacity="0.24" style="mix-blend-mode:saturation"/>
<path d="M70.8962 107.093C68.2562 105.944 65.4722 105.369 62.6882 105.369C59.9042 105.321 57.1682 105.848 54.4802 106.662C51.8402 107.476 49.2482 108.578 46.7042 109.823C44.1602 111.068 41.7122 112.457 39.2642 113.894C34.4162 116.72 29.8562 120.168 24.9602 123.186C22.5122 124.67 19.9202 126.059 17.2322 127.113C14.5442 128.167 11.6642 128.837 8.78418 128.981C11.5682 128.31 14.2562 127.353 16.7522 126.059C19.2482 124.814 21.6482 123.281 23.9522 121.653C28.6082 118.444 33.0722 114.804 38.1122 111.883C40.6082 110.446 43.1522 109.057 45.7922 107.859C48.4322 106.662 51.1682 105.608 54.0482 104.938C56.8802 104.267 59.8562 103.932 62.7842 104.267C65.6642 104.555 68.4962 105.513 70.8962 107.093Z" fill="url(#paint17_linear_103_9456)"/>
<path d="M70.8962 107.093C68.2562 105.944 65.4722 105.369 62.6882 105.369C59.9042 105.321 57.1682 105.848 54.4802 106.662C51.8402 107.476 49.2482 108.578 46.7042 109.823C44.1602 111.068 41.7122 112.457 39.2642 113.894C34.4162 116.72 29.8562 120.168 24.9602 123.186C22.5122 124.67 19.9202 126.059 17.2322 127.113C14.5442 128.167 11.6642 128.837 8.78418 128.981C11.5682 128.31 14.2562 127.353 16.7522 126.059C19.2482 124.814 21.6482 123.281 23.9522 121.653C28.6082 118.444 33.0722 114.804 38.1122 111.883C40.6082 110.446 43.1522 109.057 45.7922 107.859C48.4322 106.662 51.1682 105.608 54.0482 104.938C56.8802 104.267 59.8562 103.932 62.7842 104.267C65.6642 104.555 68.4962 105.513 70.8962 107.093Z" fill="#FFE9BF" fill-opacity="0.24" style="mix-blend-mode:saturation"/>
<path d="M65.1837 149.671C62.7357 150.581 59.9997 150.868 57.3597 150.772C54.6717 150.677 52.0797 150.246 49.4877 149.623C46.8957 149.048 44.3517 148.234 41.8557 147.324C39.3597 146.366 36.9597 145.312 34.6077 144.067C33.4557 143.444 32.2557 142.822 31.1517 142.151C30.5757 141.816 29.9997 141.481 29.4717 141.098C28.8957 140.762 28.3197 140.379 27.7917 139.996C26.6877 139.23 25.6797 138.416 24.6237 137.601L21.5517 135.207C19.4877 133.626 17.4237 132.141 15.1197 131.04C13.9677 130.465 12.7677 130.082 11.5197 129.794C10.2717 129.555 8.97569 129.507 7.67969 129.651C8.92769 129.268 10.2717 129.076 11.6157 129.172C12.9597 129.268 14.3037 129.555 15.5517 129.986C16.7997 130.417 18.0477 130.992 19.1997 131.614C20.3517 132.237 21.5037 132.956 22.6077 133.722C24.8157 135.159 26.8797 136.787 28.9917 138.176C29.5197 138.511 30.0477 138.847 30.5757 139.182C31.1517 139.517 31.6797 139.852 32.2557 140.14C33.3597 140.81 34.5117 141.385 35.6157 142.008C37.8717 143.205 40.2237 144.259 42.6237 145.264C44.9757 146.27 47.4237 147.085 49.8717 147.851C52.3197 148.569 54.8637 149.24 57.3597 149.575C59.9997 150.006 62.5917 150.102 65.1837 149.671Z" fill="url(#paint18_linear_103_9456)"/>
<path d="M65.1837 149.671C62.7357 150.581 59.9997 150.868 57.3597 150.772C54.6717 150.677 52.0797 150.246 49.4877 149.623C46.8957 149.048 44.3517 148.234 41.8557 147.324C39.3597 146.366 36.9597 145.312 34.6077 144.067C33.4557 143.444 32.2557 142.822 31.1517 142.151C30.5757 141.816 29.9997 141.481 29.4717 141.098C28.8957 140.762 28.3197 140.379 27.7917 139.996C26.6877 139.23 25.6797 138.416 24.6237 137.601L21.5517 135.207C19.4877 133.626 17.4237 132.141 15.1197 131.04C13.9677 130.465 12.7677 130.082 11.5197 129.794C10.2717 129.555 8.97569 129.507 7.67969 129.651C8.92769 129.268 10.2717 129.076 11.6157 129.172C12.9597 129.268 14.3037 129.555 15.5517 129.986C16.7997 130.417 18.0477 130.992 19.1997 131.614C20.3517 132.237 21.5037 132.956 22.6077 133.722C24.8157 135.159 26.8797 136.787 28.9917 138.176C29.5197 138.511 30.0477 138.847 30.5757 139.182C31.1517 139.517 31.6797 139.852 32.2557 140.14C33.3597 140.81 34.5117 141.385 35.6157 142.008C37.8717 143.205 40.2237 144.259 42.6237 145.264C44.9757 146.27 47.4237 147.085 49.8717 147.851C52.3197 148.569 54.8637 149.24 57.3597 149.575C59.9997 150.006 62.5917 150.102 65.1837 149.671Z" fill="#FFE9BF" fill-opacity="0.24" style="mix-blend-mode:saturation"/>
<path d="M32.9757 94.7839C30.3837 94.0176 27.7917 94.0655 25.3437 94.4966C22.8477 94.9276 20.4957 95.8376 18.1437 96.8913C15.7917 97.945 13.4397 99.1902 10.9917 100.244C9.79167 100.771 8.59167 101.298 7.29567 101.777C6.62367 102.016 5.95167 102.208 5.23167 102.256C4.89567 102.256 4.51167 102.256 4.17567 102.16C3.83967 102.064 3.50367 101.92 3.26367 101.729C3.93567 101.92 4.55967 101.824 5.13567 101.633C5.71167 101.441 6.28767 101.106 6.81567 100.771C7.91967 100.052 9.02367 99.3339 10.1757 98.6155C11.3277 97.945 12.4317 97.2744 13.6317 96.6039C14.7837 95.9334 15.9837 95.3108 17.2317 94.7839C19.6797 93.6823 22.4157 92.8202 25.1997 92.7245C26.5917 92.6766 27.9837 92.7723 29.3277 93.1076C29.9997 93.2992 30.6717 93.4908 31.2957 93.7781C31.8237 94.0655 32.4477 94.4008 32.9757 94.7839Z" fill="url(#paint19_linear_103_9456)"/>
<path d="M32.9757 94.7839C30.3837 94.0176 27.7917 94.0655 25.3437 94.4966C22.8477 94.9276 20.4957 95.8376 18.1437 96.8913C15.7917 97.945 13.4397 99.1902 10.9917 100.244C9.79167 100.771 8.59167 101.298 7.29567 101.777C6.62367 102.016 5.95167 102.208 5.23167 102.256C4.89567 102.256 4.51167 102.256 4.17567 102.16C3.83967 102.064 3.50367 101.92 3.26367 101.729C3.93567 101.92 4.55967 101.824 5.13567 101.633C5.71167 101.441 6.28767 101.106 6.81567 100.771C7.91967 100.052 9.02367 99.3339 10.1757 98.6155C11.3277 97.945 12.4317 97.2744 13.6317 96.6039C14.7837 95.9334 15.9837 95.3108 17.2317 94.7839C19.6797 93.6823 22.4157 92.8202 25.1997 92.7245C26.5917 92.6766 27.9837 92.7723 29.3277 93.1076C29.9997 93.2992 30.6717 93.4908 31.2957 93.7781C31.8237 94.0655 32.4477 94.4008 32.9757 94.7839Z" fill="#FFE9BF" fill-opacity="0.24" style="mix-blend-mode:saturation"/>
<path d="M28.0801 114.325C26.8321 114.613 25.6321 114.804 24.3361 114.852C23.0401 114.9 21.7441 114.804 20.4001 114.373C19.1041 113.942 17.9521 113.224 16.8961 112.409C15.8881 111.595 14.9761 110.829 14.0161 110.015C13.1041 109.2 12.1441 108.386 11.2801 107.524C10.3681 106.71 9.50409 105.8 8.64009 105.034C8.20809 104.65 7.72809 104.315 7.29609 104.028C6.81609 103.74 6.28809 103.549 5.71209 103.309C5.13609 103.07 4.51209 102.878 3.93609 102.543C3.64809 102.399 3.36009 102.208 3.12009 102.016C2.88009 101.825 2.64009 101.585 2.49609 101.298C3.02409 101.681 3.60009 101.825 4.17609 101.92C4.75209 102.016 5.37609 102.112 6.00009 102.16C6.62409 102.256 7.29609 102.352 7.92009 102.591C8.54409 102.83 9.16809 103.166 9.74409 103.501C10.3201 103.836 10.8001 104.267 11.3281 104.65C11.8081 105.034 12.2881 105.417 12.7681 105.8C13.7281 106.566 14.6881 107.38 15.6001 108.195L16.9921 109.44C17.4721 109.871 17.9041 110.254 18.3361 110.637C19.2481 111.404 20.1121 112.122 21.1201 112.601C23.1361 113.703 25.6321 113.942 28.0801 114.325Z" fill="url(#paint20_linear_103_9456)"/>
<path d="M28.0801 114.325C26.8321 114.613 25.6321 114.804 24.3361 114.852C23.0401 114.9 21.7441 114.804 20.4001 114.373C19.1041 113.942 17.9521 113.224 16.8961 112.409C15.8881 111.595 14.9761 110.829 14.0161 110.015C13.1041 109.2 12.1441 108.386 11.2801 107.524C10.3681 106.71 9.50409 105.8 8.64009 105.034C8.20809 104.65 7.72809 104.315 7.29609 104.028C6.81609 103.74 6.28809 103.549 5.71209 103.309C5.13609 103.07 4.51209 102.878 3.93609 102.543C3.64809 102.399 3.36009 102.208 3.12009 102.016C2.88009 101.825 2.64009 101.585 2.49609 101.298C3.02409 101.681 3.60009 101.825 4.17609 101.92C4.75209 102.016 5.37609 102.112 6.00009 102.16C6.62409 102.256 7.29609 102.352 7.92009 102.591C8.54409 102.83 9.16809 103.166 9.74409 103.501C10.3201 103.836 10.8001 104.267 11.3281 104.65C11.8081 105.034 12.2881 105.417 12.7681 105.8C13.7281 106.566 14.6881 107.38 15.6001 108.195L16.9921 109.44C17.4721 109.871 17.9041 110.254 18.3361 110.637C19.2481 111.404 20.1121 112.122 21.1201 112.601C23.1361 113.703 25.6321 113.942 28.0801 114.325Z" fill="#FFE9BF" fill-opacity="0.24" style="mix-blend-mode:saturation"/>
<path d="M119.904 126.873C118.032 126.202 116.256 125.436 114.48 124.574C112.704 123.712 111.024 122.754 109.296 121.796C107.568 120.838 105.84 119.928 104.064 119.162C102.288 118.396 100.464 117.725 98.592 117.198C96.72 116.671 94.848 116.24 92.928 116.049C91.008 115.857 89.088 115.953 87.264 116.432C85.44 116.911 83.76 117.773 82.416 118.97C81.072 120.216 80.064 121.844 79.632 123.568C79.2 125.292 79.344 127.16 80.16 128.741C80.544 129.507 81.12 130.178 81.792 130.8C82.464 131.375 83.232 131.902 84.048 132.285C85.68 133.099 87.552 133.578 89.424 133.961C91.296 134.297 93.216 134.584 95.136 134.632C98.976 134.776 102.816 134.44 106.608 133.674C110.4 132.956 114.096 131.806 117.696 130.369C121.248 128.932 124.608 126.969 127.968 124.957C131.328 122.946 134.688 120.838 138.336 119.21C140.16 118.396 142.032 117.677 144 117.198C145.968 116.719 148.08 116.48 150.144 116.671C152.208 116.863 154.272 117.486 156.048 118.539C157.824 119.593 159.408 120.982 160.608 122.754C161.184 123.616 161.664 124.574 161.952 125.58C162.24 126.586 162.384 127.687 162.24 128.741C162.144 129.794 161.808 130.848 161.232 131.758C160.704 132.668 159.984 133.482 159.264 134.201C157.776 135.59 155.904 136.643 153.936 137.17C151.968 137.697 149.904 137.793 147.888 137.601C145.872 137.41 143.952 136.979 142.032 136.404C140.112 135.829 138.288 135.159 136.464 134.488C134.64 133.77 132.816 133.003 130.992 132.285C129.168 131.519 127.344 130.8 125.472 130.226C129.264 131.183 132.912 132.716 136.608 134.009C140.304 135.254 144.096 136.404 147.936 136.643C149.856 136.739 151.776 136.643 153.6 136.117C155.376 135.59 157.056 134.632 158.352 133.291C159.024 132.62 159.6 131.95 160.032 131.136C160.464 130.369 160.704 129.507 160.8 128.597C160.944 126.825 160.32 125.053 159.312 123.568C158.256 122.083 156.816 120.838 155.232 119.928C153.648 119.018 151.824 118.491 150 118.348C148.176 118.204 146.256 118.396 144.48 118.875C142.656 119.353 140.88 120.072 139.104 120.838C135.6 122.467 132.288 124.526 128.976 126.538C125.616 128.597 122.208 130.609 118.464 132.141C114.768 133.578 110.928 134.776 107.04 135.494C103.104 136.26 99.12 136.596 95.088 136.404C93.072 136.308 91.104 136.021 89.136 135.638C87.168 135.207 85.2 134.68 83.328 133.722C82.416 133.243 81.504 132.668 80.736 131.95C79.968 131.231 79.248 130.369 78.768 129.411C77.76 127.448 77.664 125.149 78.24 123.137C78.816 121.078 79.968 119.258 81.552 117.869C83.136 116.48 85.056 115.57 87.072 115.139C89.088 114.708 91.152 114.66 93.12 114.899C95.136 115.139 97.056 115.618 98.928 116.24C100.8 116.863 102.672 117.581 104.448 118.443C106.224 119.306 107.952 120.311 109.632 121.317C112.896 123.329 116.256 125.388 119.904 126.873Z" fill="url(#paint21_linear_103_9456)"/>
<path d="M119.904 126.873C118.032 126.202 116.256 125.436 114.48 124.574C112.704 123.712 111.024 122.754 109.296 121.796C107.568 120.838 105.84 119.928 104.064 119.162C102.288 118.396 100.464 117.725 98.592 117.198C96.72 116.671 94.848 116.24 92.928 116.049C91.008 115.857 89.088 115.953 87.264 116.432C85.44 116.911 83.76 117.773 82.416 118.97C81.072 120.216 80.064 121.844 79.632 123.568C79.2 125.292 79.344 127.16 80.16 128.741C80.544 129.507 81.12 130.178 81.792 130.8C82.464 131.375 83.232 131.902 84.048 132.285C85.68 133.099 87.552 133.578 89.424 133.961C91.296 134.297 93.216 134.584 95.136 134.632C98.976 134.776 102.816 134.44 106.608 133.674C110.4 132.956 114.096 131.806 117.696 130.369C121.248 128.932 124.608 126.969 127.968 124.957C131.328 122.946 134.688 120.838 138.336 119.21C140.16 118.396 142.032 117.677 144 117.198C145.968 116.719 148.08 116.48 150.144 116.671C152.208 116.863 154.272 117.486 156.048 118.539C157.824 119.593 159.408 120.982 160.608 122.754C161.184 123.616 161.664 124.574 161.952 125.58C162.24 126.586 162.384 127.687 162.24 128.741C162.144 129.794 161.808 130.848 161.232 131.758C160.704 132.668 159.984 133.482 159.264 134.201C157.776 135.59 155.904 136.643 153.936 137.17C151.968 137.697 149.904 137.793 147.888 137.601C145.872 137.41 143.952 136.979 142.032 136.404C140.112 135.829 138.288 135.159 136.464 134.488C134.64 133.77 132.816 133.003 130.992 132.285C129.168 131.519 127.344 130.8 125.472 130.226C129.264 131.183 132.912 132.716 136.608 134.009C140.304 135.254 144.096 136.404 147.936 136.643C149.856 136.739 151.776 136.643 153.6 136.117C155.376 135.59 157.056 134.632 158.352 133.291C159.024 132.62 159.6 131.95 160.032 131.136C160.464 130.369 160.704 129.507 160.8 128.597C160.944 126.825 160.32 125.053 159.312 123.568C158.256 122.083 156.816 120.838 155.232 119.928C153.648 119.018 151.824 118.491 150 118.348C148.176 118.204 146.256 118.396 144.48 118.875C142.656 119.353 140.88 120.072 139.104 120.838C135.6 122.467 132.288 124.526 128.976 126.538C125.616 128.597 122.208 130.609 118.464 132.141C114.768 133.578 110.928 134.776 107.04 135.494C103.104 136.26 99.12 136.596 95.088 136.404C93.072 136.308 91.104 136.021 89.136 135.638C87.168 135.207 85.2 134.68 83.328 133.722C82.416 133.243 81.504 132.668 80.736 131.95C79.968 131.231 79.248 130.369 78.768 129.411C77.76 127.448 77.664 125.149 78.24 123.137C78.816 121.078 79.968 119.258 81.552 117.869C83.136 116.48 85.056 115.57 87.072 115.139C89.088 114.708 91.152 114.66 93.12 114.899C95.136 115.139 97.056 115.618 98.928 116.24C100.8 116.863 102.672 117.581 104.448 118.443C106.224 119.306 107.952 120.311 109.632 121.317C112.896 123.329 116.256 125.388 119.904 126.873Z" fill="#FFE9BF" fill-opacity="0.24" style="mix-blend-mode:saturation"/>
<path d="M198.768 35.0587C198.912 35.1065 199.056 35.1544 199.2 35.1544C200.64 35.4418 201.696 35.9208 201.984 36.8787C202.176 37.4055 202.32 37.8366 202.224 38.6987C202.176 38.9381 202.896 38.8902 202.896 38.6508C202.896 38.4113 202.896 38.2197 202.944 37.9802C203.232 36.735 204.096 35.4418 206.016 34.9629C206.208 34.915 206.448 34.8671 206.448 34.7713C206.448 34.5797 206.16 34.6276 205.968 34.5797C204.192 34.1487 203.088 33.1908 202.8 31.9934C202.752 31.8018 202.896 30.9397 202.512 30.8918C201.984 30.796 202.176 31.706 202.176 31.8497C202.176 32.4723 201.984 33.0471 201.456 33.526C200.832 34.1008 200.064 34.5797 199.008 34.8192C198.912 34.8192 198.816 34.8671 198.768 34.915C198.624 34.8671 198.624 35.0108 198.768 35.0587Z" fill="url(#paint22_linear_103_9456)"/>
<path d="M198.768 35.0587C198.912 35.1065 199.056 35.1544 199.2 35.1544C200.64 35.4418 201.696 35.9208 201.984 36.8787C202.176 37.4055 202.32 37.8366 202.224 38.6987C202.176 38.9381 202.896 38.8902 202.896 38.6508C202.896 38.4113 202.896 38.2197 202.944 37.9802C203.232 36.735 204.096 35.4418 206.016 34.9629C206.208 34.915 206.448 34.8671 206.448 34.7713C206.448 34.5797 206.16 34.6276 205.968 34.5797C204.192 34.1487 203.088 33.1908 202.8 31.9934C202.752 31.8018 202.896 30.9397 202.512 30.8918C201.984 30.796 202.176 31.706 202.176 31.8497C202.176 32.4723 201.984 33.0471 201.456 33.526C200.832 34.1008 200.064 34.5797 199.008 34.8192C198.912 34.8192 198.816 34.8671 198.768 34.915C198.624 34.8671 198.624 35.0108 198.768 35.0587Z" fill="#FFE9BF" fill-opacity="0.24" style="mix-blend-mode:saturation"/>
<path d="M232.176 80.3194C232.32 80.3673 232.464 80.4152 232.608 80.4152C234.048 80.7026 235.104 81.1815 235.392 82.1394C235.584 82.6662 235.728 83.0973 235.632 83.9594C235.584 84.1989 236.304 84.151 236.304 83.9115C236.304 83.672 236.304 83.4805 236.352 83.241C236.64 81.9957 237.504 80.7026 239.424 80.2236C239.616 80.1757 239.856 80.1278 239.856 80.032C239.856 79.8405 239.568 79.8883 239.376 79.8404C237.6 79.4094 236.496 78.4515 236.208 77.2541C236.16 77.0626 236.304 76.2004 235.92 76.1526C235.392 76.0568 235.584 76.9668 235.584 77.1104C235.584 77.7331 235.392 78.3078 234.864 78.7868C234.24 79.3615 233.472 79.8404 232.416 80.0799C232.32 80.0799 232.224 80.1278 232.176 80.1757C232.08 80.1757 232.08 80.2715 232.176 80.3194Z" fill="url(#paint23_linear_103_9456)"/>
<path d="M232.176 80.3194C232.32 80.3673 232.464 80.4152 232.608 80.4152C234.048 80.7026 235.104 81.1815 235.392 82.1394C235.584 82.6662 235.728 83.0973 235.632 83.9594C235.584 84.1989 236.304 84.151 236.304 83.9115C236.304 83.672 236.304 83.4805 236.352 83.241C236.64 81.9957 237.504 80.7026 239.424 80.2236C239.616 80.1757 239.856 80.1278 239.856 80.032C239.856 79.8405 239.568 79.8883 239.376 79.8404C237.6 79.4094 236.496 78.4515 236.208 77.2541C236.16 77.0626 236.304 76.2004 235.92 76.1526C235.392 76.0568 235.584 76.9668 235.584 77.1104C235.584 77.7331 235.392 78.3078 234.864 78.7868C234.24 79.3615 233.472 79.8404 232.416 80.0799C232.32 80.0799 232.224 80.1278 232.176 80.1757C232.08 80.1757 232.08 80.2715 232.176 80.3194Z" fill="#FFE9BF" fill-opacity="0.24" style="mix-blend-mode:saturation"/>
<path d="M84.5758 12.0215C84.7198 12.0694 84.8638 12.1173 85.0078 12.1173C86.4478 12.4047 87.5038 12.8837 87.7918 13.8415C87.9838 14.3684 88.1278 14.7994 88.0318 15.6615C87.9838 15.901 88.7038 15.8531 88.7038 15.6136C88.7038 15.3742 88.7038 15.1826 88.7518 14.9431C89.0398 13.6979 89.9038 12.4047 91.8238 11.9258C92.0158 11.8779 92.2558 11.83 92.2558 11.7342C92.2558 11.5426 91.9678 11.5905 91.7758 11.5426C89.9998 11.1115 88.8958 10.1537 88.6078 8.95628C88.5598 8.7647 88.7038 7.9026 88.3198 7.8547C87.7918 7.75891 87.9838 8.66891 87.9838 8.8126C87.9838 9.43523 87.7918 10.01 87.2638 10.4889C86.6398 11.0637 85.8718 11.5426 84.8158 11.7821C84.7198 11.7821 84.6238 11.83 84.5758 11.8779C84.4318 11.8779 84.4318 11.9737 84.5758 12.0215Z" fill="url(#paint24_linear_103_9456)"/>
<path d="M84.5758 12.0215C84.7198 12.0694 84.8638 12.1173 85.0078 12.1173C86.4478 12.4047 87.5038 12.8837 87.7918 13.8415C87.9838 14.3684 88.1278 14.7994 88.0318 15.6615C87.9838 15.901 88.7038 15.8531 88.7038 15.6136C88.7038 15.3742 88.7038 15.1826 88.7518 14.9431C89.0398 13.6979 89.9038 12.4047 91.8238 11.9258C92.0158 11.8779 92.2558 11.83 92.2558 11.7342C92.2558 11.5426 91.9678 11.5905 91.7758 11.5426C89.9998 11.1115 88.8958 10.1537 88.6078 8.95628C88.5598 8.7647 88.7038 7.9026 88.3198 7.8547C87.7918 7.75891 87.9838 8.66891 87.9838 8.8126C87.9838 9.43523 87.7918 10.01 87.2638 10.4889C86.6398 11.0637 85.8718 11.5426 84.8158 11.7821C84.7198 11.7821 84.6238 11.83 84.5758 11.8779C84.4318 11.8779 84.4318 11.9737 84.5758 12.0215Z" fill="#FFE9BF" fill-opacity="0.24" style="mix-blend-mode:saturation"/>
<path d="M5.99973 75.5782C6.14373 75.6261 6.28773 75.674 6.43173 75.674C7.87173 75.9613 8.92773 76.4403 9.21573 77.3982C9.40773 77.925 9.55173 78.3561 9.45573 79.2182C9.40773 79.4577 10.1277 79.4098 10.1277 79.1703C10.1277 78.9308 10.1277 78.7392 10.1757 78.4998C10.4637 77.2545 11.3277 75.9613 13.2477 75.4824C13.4397 75.4345 13.6797 75.3866 13.6797 75.2908C13.6797 75.0992 13.3917 75.1471 13.1997 75.0992C11.4237 74.6682 10.3197 73.7103 10.0317 72.5129C9.98373 72.3213 10.1277 71.4592 9.74373 71.4113C9.21573 71.3156 9.40773 72.2256 9.40773 72.3692C9.40773 72.9919 9.21573 73.5666 8.68773 74.0456C8.06373 74.6203 7.29573 75.0992 6.23973 75.3387C6.14373 75.3387 6.04773 75.3866 5.99973 75.4345C5.90373 75.3866 5.90373 75.5303 5.99973 75.5782Z" fill="url(#paint25_linear_103_9456)"/>
<path d="M5.99973 75.5782C6.14373 75.6261 6.28773 75.674 6.43173 75.674C7.87173 75.9613 8.92773 76.4403 9.21573 77.3982C9.40773 77.925 9.55173 78.3561 9.45573 79.2182C9.40773 79.4577 10.1277 79.4098 10.1277 79.1703C10.1277 78.9308 10.1277 78.7392 10.1757 78.4998C10.4637 77.2545 11.3277 75.9613 13.2477 75.4824C13.4397 75.4345 13.6797 75.3866 13.6797 75.2908C13.6797 75.0992 13.3917 75.1471 13.1997 75.0992C11.4237 74.6682 10.3197 73.7103 10.0317 72.5129C9.98373 72.3213 10.1277 71.4592 9.74373 71.4113C9.21573 71.3156 9.40773 72.2256 9.40773 72.3692C9.40773 72.9919 9.21573 73.5666 8.68773 74.0456C8.06373 74.6203 7.29573 75.0992 6.23973 75.3387C6.14373 75.3387 6.04773 75.3866 5.99973 75.4345C5.90373 75.3866 5.90373 75.5303 5.99973 75.5782Z" fill="#FFE9BF" fill-opacity="0.24" style="mix-blend-mode:saturation"/>
<path d="M153.984 12.1178C156.48 12.1178 156.48 8.23828 153.984 8.23828C151.44 8.23828 151.44 12.1178 153.984 12.1178Z" fill="url(#paint26_linear_103_9456)"/>
<path d="M153.984 12.1178C156.48 12.1178 156.48 8.23828 153.984 8.23828C151.44 8.23828 151.44 12.1178 153.984 12.1178Z" fill="#FFE9BF" fill-opacity="0.24" style="mix-blend-mode:saturation"/>
<path d="M41.664 37.5494C44.16 37.5494 44.16 33.6699 41.664 33.6699C39.168 33.6699 39.168 37.5494 41.664 37.5494Z" fill="url(#paint27_linear_103_9456)"/>
<path d="M41.664 37.5494C44.16 37.5494 44.16 33.6699 41.664 33.6699C39.168 33.6699 39.168 37.5494 41.664 37.5494Z" fill="#FFE9BF" fill-opacity="0.24" style="mix-blend-mode:saturation"/>
<path d="M226.464 149.671H226.416C223.92 149.671 223.92 153.55 226.416 153.55C226.464 153.55 226.512 153.55 226.512 153.55C229.008 153.55 229.008 149.671 226.512 149.671C226.464 149.671 226.464 149.671 226.464 149.671C223.968 149.671 223.968 153.55 226.464 153.55H226.512C229.008 153.55 229.008 149.671 226.512 149.671C226.464 149.671 226.416 149.671 226.416 149.671C223.92 149.671 223.92 153.55 226.416 153.55H226.464C228.96 153.55 228.96 149.671 226.464 149.671Z" fill="url(#paint28_linear_103_9456)"/>
<path d="M226.464 149.671H226.416C223.92 149.671 223.92 153.55 226.416 153.55C226.464 153.55 226.512 153.55 226.512 153.55C229.008 153.55 229.008 149.671 226.512 149.671C226.464 149.671 226.464 149.671 226.464 149.671C223.968 149.671 223.968 153.55 226.464 153.55H226.512C229.008 153.55 229.008 149.671 226.512 149.671C226.464 149.671 226.416 149.671 226.416 149.671C223.92 149.671 223.92 153.55 226.416 153.55H226.464C228.96 153.55 228.96 149.671 226.464 149.671Z" fill="#FFE9BF" fill-opacity="0.24" style="mix-blend-mode:saturation"/>
<path d="M7.87207 150.82V150.868C7.87207 153.359 11.7601 153.359 11.7601 150.868C11.7601 150.82 11.7601 150.772 11.7601 150.772C11.7601 148.282 7.87207 148.282 7.87207 150.772V150.82C7.87207 153.311 11.7601 153.311 11.7601 150.82V150.772C11.7601 148.282 7.87207 148.282 7.87207 150.772C7.87207 150.82 7.87207 150.868 7.87207 150.868C7.87207 153.359 11.7601 153.359 11.7601 150.868V150.82C11.7601 148.33 7.87207 148.33 7.87207 150.82Z" fill="url(#paint29_linear_103_9456)"/>
<path d="M7.87207 150.82V150.868C7.87207 153.359 11.7601 153.359 11.7601 150.868C11.7601 150.82 11.7601 150.772 11.7601 150.772C11.7601 148.282 7.87207 148.282 7.87207 150.772V150.82C7.87207 153.311 11.7601 153.311 11.7601 150.82V150.772C11.7601 148.282 7.87207 148.282 7.87207 150.772C7.87207 150.82 7.87207 150.868 7.87207 150.868C7.87207 153.359 11.7601 153.359 11.7601 150.868V150.82C11.7601 148.33 7.87207 148.33 7.87207 150.82Z" fill="#FFE9BF" fill-opacity="0.24" style="mix-blend-mode:saturation"/>
<path d="M238.608 118.54C240.48 118.54 240.48 115.618 238.608 115.618C236.688 115.618 236.688 118.54 238.608 118.54Z" fill="url(#paint30_linear_103_9456)"/>
<path d="M238.608 118.54C240.48 118.54 240.48 115.618 238.608 115.618C236.688 115.618 236.688 118.54 238.608 118.54Z" fill="#FFE9BF" fill-opacity="0.24" style="mix-blend-mode:saturation"/>
<path d="M1.44015 119.689C1.63215 119.689 1.82415 119.689 2.01615 119.689C2.40015 119.689 2.78415 119.546 3.07215 119.258C3.31215 119.019 3.50415 118.588 3.50415 118.204C3.50415 117.821 3.36015 117.438 3.07215 117.151C2.78415 116.911 2.44815 116.72 2.01615 116.72C1.82415 116.72 1.63215 116.72 1.44015 116.72C1.05615 116.72 0.672148 116.863 0.384148 117.151C0.144148 117.39 -0.0478516 117.821 -0.0478516 118.204C-0.0478516 118.588 0.0961484 118.971 0.384148 119.258C0.720148 119.546 1.05615 119.689 1.44015 119.689Z" fill="url(#paint31_linear_103_9456)"/>
<path d="M1.44015 119.689C1.63215 119.689 1.82415 119.689 2.01615 119.689C2.40015 119.689 2.78415 119.546 3.07215 119.258C3.31215 119.019 3.50415 118.588 3.50415 118.204C3.50415 117.821 3.36015 117.438 3.07215 117.151C2.78415 116.911 2.44815 116.72 2.01615 116.72C1.82415 116.72 1.63215 116.72 1.44015 116.72C1.05615 116.72 0.672148 116.863 0.384148 117.151C0.144148 117.39 -0.0478516 117.821 -0.0478516 118.204C-0.0478516 118.588 0.0961484 118.971 0.384148 119.258C0.720148 119.546 1.05615 119.689 1.44015 119.689Z" fill="#FFE9BF" fill-opacity="0.24" style="mix-blend-mode:saturation"/>
<path d="M200.88 169.116C200.88 169.068 200.88 169.02 200.88 169.02C200.88 167.152 197.952 167.152 197.952 169.02C197.952 169.116 197.952 169.164 197.952 169.26C197.952 171.127 200.88 171.127 200.88 169.26C200.88 169.212 200.88 169.164 200.88 169.116C200.88 167.248 197.952 167.248 197.952 169.116C197.952 169.164 197.952 169.212 197.952 169.212C197.952 171.08 200.88 171.08 200.88 169.212C200.88 169.116 200.88 169.068 200.88 168.972C200.88 167.104 197.952 167.104 197.952 168.972C197.952 169.02 197.952 169.068 197.952 169.068C197.952 170.984 200.88 170.984 200.88 169.116Z" fill="url(#paint32_linear_103_9456)"/>
<path d="M200.88 169.116C200.88 169.068 200.88 169.02 200.88 169.02C200.88 167.152 197.952 167.152 197.952 169.02C197.952 169.116 197.952 169.164 197.952 169.26C197.952 171.127 200.88 171.127 200.88 169.26C200.88 169.212 200.88 169.164 200.88 169.116C200.88 167.248 197.952 167.248 197.952 169.116C197.952 169.164 197.952 169.212 197.952 169.212C197.952 171.08 200.88 171.08 200.88 169.212C200.88 169.116 200.88 169.068 200.88 168.972C200.88 167.104 197.952 167.104 197.952 168.972C197.952 169.02 197.952 169.068 197.952 169.068C197.952 170.984 200.88 170.984 200.88 169.116Z" fill="#FFE9BF" fill-opacity="0.24" style="mix-blend-mode:saturation"/>
<path d="M35.664 168.159C37.056 169.548 39.12 167.488 37.776 166.147C37.728 166.099 37.728 166.099 37.68 166.051C36.384 164.71 34.272 166.77 35.664 168.159C37.008 169.5 39.072 167.44 37.728 166.099L37.68 166.051C36.384 164.71 34.272 166.77 35.664 168.159C37.056 169.548 39.12 167.488 37.776 166.147L37.728 166.099C36.384 164.758 34.32 166.818 35.664 168.159Z" fill="url(#paint33_linear_103_9456)"/>
<path d="M35.664 168.159C37.056 169.548 39.12 167.488 37.776 166.147C37.728 166.099 37.728 166.099 37.68 166.051C36.384 164.71 34.272 166.77 35.664 168.159C37.008 169.5 39.072 167.44 37.728 166.099L37.68 166.051C36.384 164.71 34.272 166.77 35.664 168.159C37.056 169.548 39.12 167.488 37.776 166.147L37.728 166.099C36.384 164.758 34.32 166.818 35.664 168.159Z" fill="#FFE9BF" fill-opacity="0.24" style="mix-blend-mode:saturation"/>
<path d="M118.032 178.216C118.176 178.264 118.32 178.312 118.464 178.312C119.904 178.599 120.96 179.078 121.248 180.036C121.44 180.563 121.584 180.994 121.488 181.856C121.44 182.095 122.16 182.047 122.16 181.808C122.16 181.569 122.16 181.377 122.208 181.137C122.496 179.892 123.36 178.599 125.28 178.12C125.472 178.072 125.712 178.024 125.712 177.929C125.712 177.737 125.424 177.785 125.232 177.737C123.456 177.306 122.352 176.348 122.064 175.151C122.016 174.959 122.16 174.097 121.776 174.049C121.248 173.953 121.44 174.863 121.44 175.007C121.44 175.63 121.248 176.204 120.72 176.683C120.096 177.258 119.328 177.737 118.272 177.976C118.176 177.976 118.08 178.024 118.032 178.072C117.936 178.072 117.936 178.168 118.032 178.216Z" fill="url(#paint34_linear_103_9456)"/>
<path d="M118.032 178.216C118.176 178.264 118.32 178.312 118.464 178.312C119.904 178.599 120.96 179.078 121.248 180.036C121.44 180.563 121.584 180.994 121.488 181.856C121.44 182.095 122.16 182.047 122.16 181.808C122.16 181.569 122.16 181.377 122.208 181.137C122.496 179.892 123.36 178.599 125.28 178.12C125.472 178.072 125.712 178.024 125.712 177.929C125.712 177.737 125.424 177.785 125.232 177.737C123.456 177.306 122.352 176.348 122.064 175.151C122.016 174.959 122.16 174.097 121.776 174.049C121.248 173.953 121.44 174.863 121.44 175.007C121.44 175.63 121.248 176.204 120.72 176.683C120.096 177.258 119.328 177.737 118.272 177.976C118.176 177.976 118.08 178.024 118.032 178.072C117.936 178.072 117.936 178.168 118.032 178.216Z" fill="#FFE9BF" fill-opacity="0.24" style="mix-blend-mode:saturation"/>
<path d="M146.208 162.746C148.08 162.746 148.08 159.824 146.208 159.824C144.336 159.824 144.336 162.746 146.208 162.746Z" fill="url(#paint35_linear_103_9456)"/>
<path d="M146.208 162.746C148.08 162.746 148.08 159.824 146.208 159.824C144.336 159.824 144.336 162.746 146.208 162.746Z" fill="#FFE9BF" fill-opacity="0.24" style="mix-blend-mode:saturation"/>
<path d="M93.7925 162.746C95.6645 162.746 95.6645 159.824 93.7925 159.824C91.8725 159.824 91.8725 162.746 93.7925 162.746Z" fill="url(#paint36_linear_103_9456)"/>
<path d="M93.7925 162.746C95.6645 162.746 95.6645 159.824 93.7925 159.824C91.8725 159.824 91.8725 162.746 93.7925 162.746Z" fill="#FFE9BF" fill-opacity="0.24" style="mix-blend-mode:saturation"/>
<path d="M66.7199 179.462C68.5919 179.462 68.5919 176.54 66.7199 176.54C64.8479 176.54 64.7999 179.462 66.7199 179.462Z" fill="url(#paint37_linear_103_9456)"/>
<path d="M66.7199 179.462C68.5919 179.462 68.5919 176.54 66.7199 176.54C64.8479 176.54 64.7999 179.462 66.7199 179.462Z" fill="#FFE9BF" fill-opacity="0.24" style="mix-blend-mode:saturation"/>
<path d="M169.633 181.856C171.505 181.856 171.505 178.935 169.633 178.935C167.761 178.935 167.761 181.856 169.633 181.856Z" fill="url(#paint38_linear_103_9456)"/>
<path d="M169.633 181.856C171.505 181.856 171.505 178.935 169.633 178.935C167.761 178.935 167.761 181.856 169.633 181.856Z" fill="#FFE9BF" fill-opacity="0.24" style="mix-blend-mode:saturation"/>
</g>
<defs>
<linearGradient id="paint0_linear_103_9456" x1="133.497" y1="95.2784" x2="159.385" y2="95.2784" gradientUnits="userSpaceOnUse">
<stop offset="0.0186222" stop-color="#9A8C84"/>
<stop offset="0.4235" stop-color="#D3CCC5"/>
<stop offset="0.4999" stop-color="#DED9D1"/>
<stop offset="0.5991" stop-color="#D1CAC0"/>
<stop offset="0.7129" stop-color="#C7C0B1"/>
<stop offset="0.8064" stop-color="#C4BCAC"/>
<stop offset="0.8566" stop-color="#B8AF9E"/>
<stop offset="0.9516" stop-color="#978E78"/>
<stop offset="0.9972" stop-color="#867664"/>
</linearGradient>
<linearGradient id="paint1_linear_103_9456" x1="82.4592" y1="95.6362" x2="113.499" y2="95.6362" gradientUnits="userSpaceOnUse">
<stop offset="0.0186222" stop-color="#9A8C84"/>
<stop offset="0.4235" stop-color="#D3CCC5"/>
<stop offset="0.4999" stop-color="#DED9D1"/>
<stop offset="0.5991" stop-color="#D1CAC0"/>
<stop offset="0.7129" stop-color="#C7C0B1"/>
<stop offset="0.8064" stop-color="#C4BCAC"/>
<stop offset="0.8566" stop-color="#B8AF9E"/>
<stop offset="0.9516" stop-color="#978E78"/>
<stop offset="0.9972" stop-color="#867664"/>
</linearGradient>
<linearGradient id="paint2_linear_103_9456" x1="115.302" y1="80.7533" x2="132.662" y2="80.7533" gradientUnits="userSpaceOnUse">
<stop offset="0.0186222" stop-color="#9A8C84"/>
<stop offset="0.4235" stop-color="#D3CCC5"/>
<stop offset="0.4999" stop-color="#DED9D1"/>
<stop offset="0.5991" stop-color="#D1CAC0"/>
<stop offset="0.7129" stop-color="#C7C0B1"/>
<stop offset="0.8064" stop-color="#C4BCAC"/>
<stop offset="0.8566" stop-color="#B8AF9E"/>
<stop offset="0.9516" stop-color="#978E78"/>
<stop offset="0.9972" stop-color="#867664"/>
</linearGradient>
<linearGradient id="paint3_linear_103_9456" x1="82.2446" y1="47.1653" x2="125.162" y2="47.1653" gradientUnits="userSpaceOnUse">
<stop offset="0.0186222" stop-color="#9A8C84"/>
<stop offset="0.4235" stop-color="#D3CCC5"/>
<stop offset="0.4999" stop-color="#DED9D1"/>
<stop offset="0.5991" stop-color="#D1CAC0"/>
<stop offset="0.7129" stop-color="#C7C0B1"/>
<stop offset="0.8064" stop-color="#C4BCAC"/>
<stop offset="0.8566" stop-color="#B8AF9E"/>
<stop offset="0.9516" stop-color="#978E78"/>
<stop offset="0.9972" stop-color="#867664"/>
</linearGradient>
<linearGradient id="paint4_linear_103_9456" x1="124.859" y1="47.1653" x2="158.352" y2="47.1653" gradientUnits="userSpaceOnUse">
<stop offset="0.0186222" stop-color="#9A8C84"/>
<stop offset="0.4235" stop-color="#D3CCC5"/>
<stop offset="0.4999" stop-color="#DED9D1"/>
<stop offset="0.5991" stop-color="#D1CAC0"/>
<stop offset="0.7129" stop-color="#C7C0B1"/>
<stop offset="0.8064" stop-color="#C4BCAC"/>
<stop offset="0.8566" stop-color="#B8AF9E"/>
<stop offset="0.9516" stop-color="#978E78"/>
<stop offset="0.9972" stop-color="#867664"/>
</linearGradient>
<linearGradient id="paint5_linear_103_9456" x1="153.034" y1="32.7578" x2="180.686" y2="32.7578" gradientUnits="userSpaceOnUse">
<stop offset="0.0186222" stop-color="#9A8C84"/>
<stop offset="0.4235" stop-color="#D3CCC5"/>
<stop offset="0.4999" stop-color="#DED9D1"/>
<stop offset="0.5991" stop-color="#D1CAC0"/>
<stop offset="0.7129" stop-color="#C7C0B1"/>
<stop offset="0.8064" stop-color="#C4BCAC"/>
<stop offset="0.8566" stop-color="#B8AF9E"/>
<stop offset="0.9516" stop-color="#978E78"/>
<stop offset="0.9972" stop-color="#867664"/>
</linearGradient>
<linearGradient id="paint6_linear_103_9456" x1="175.538" y1="39.8926" x2="180.934" y2="39.8926" gradientUnits="userSpaceOnUse">
<stop offset="0.0186222" stop-color="#9A8C84"/>
<stop offset="0.4235" stop-color="#D3CCC5"/>
<stop offset="0.4999" stop-color="#DED9D1"/>
<stop offset="0.5991" stop-color="#D1CAC0"/>
<stop offset="0.7129" stop-color="#C7C0B1"/>
<stop offset="0.8064" stop-color="#C4BCAC"/>
<stop offset="0.8566" stop-color="#B8AF9E"/>
<stop offset="0.9516" stop-color="#978E78"/>
<stop offset="0.9972" stop-color="#867664"/>
</linearGradient>
<linearGradient id="paint7_linear_103_9456" x1="163.366" y1="59.7473" x2="227.775" y2="59.7473" gradientUnits="userSpaceOnUse">
<stop offset="0.0186222" stop-color="#9A8C84"/>
<stop offset="0.4235" stop-color="#D3CCC5"/>
<stop offset="0.4999" stop-color="#DED9D1"/>
<stop offset="0.5991" stop-color="#D1CAC0"/>
<stop offset="0.7129" stop-color="#C7C0B1"/>
<stop offset="0.8064" stop-color="#C4BCAC"/>
<stop offset="0.8566" stop-color="#B8AF9E"/>
<stop offset="0.9516" stop-color="#978E78"/>
<stop offset="0.9972" stop-color="#867664"/>
</linearGradient>
<linearGradient id="paint8_linear_103_9456" x1="183.712" y1="78.9132" x2="228.514" y2="78.9132" gradientUnits="userSpaceOnUse">
<stop offset="0.0186222" stop-color="#9A8C84"/>
<stop offset="0.4235" stop-color="#D3CCC5"/>
<stop offset="0.4999" stop-color="#DED9D1"/>
<stop offset="0.5991" stop-color="#D1CAC0"/>
<stop offset="0.7129" stop-color="#C7C0B1"/>
<stop offset="0.8064" stop-color="#C4BCAC"/>
<stop offset="0.8566" stop-color="#B8AF9E"/>
<stop offset="0.9516" stop-color="#978E78"/>
<stop offset="0.9972" stop-color="#867664"/>
</linearGradient>
<linearGradient id="paint9_linear_103_9456" x1="171.286" y1="116.518" x2="233.671" y2="116.518" gradientUnits="userSpaceOnUse">
<stop offset="0.0186222" stop-color="#9A8C84"/>
<stop offset="0.4235" stop-color="#D3CCC5"/>
<stop offset="0.4999" stop-color="#DED9D1"/>
<stop offset="0.5991" stop-color="#D1CAC0"/>
<stop offset="0.7129" stop-color="#C7C0B1"/>
<stop offset="0.8064" stop-color="#C4BCAC"/>
<stop offset="0.8566" stop-color="#B8AF9E"/>
<stop offset="0.9516" stop-color="#978E78"/>
<stop offset="0.9972" stop-color="#867664"/>
</linearGradient>
<linearGradient id="paint10_linear_103_9456" x1="176.948" y1="140.008" x2="234.564" y2="140.008" gradientUnits="userSpaceOnUse">
<stop offset="0.0186222" stop-color="#9A8C84"/>
<stop offset="0.4235" stop-color="#D3CCC5"/>
<stop offset="0.4999" stop-color="#DED9D1"/>
<stop offset="0.5991" stop-color="#D1CAC0"/>
<stop offset="0.7129" stop-color="#C7C0B1"/>
<stop offset="0.8064" stop-color="#C4BCAC"/>
<stop offset="0.8566" stop-color="#B8AF9E"/>
<stop offset="0.9516" stop-color="#978E78"/>
<stop offset="0.9972" stop-color="#867664"/>
</linearGradient>
<linearGradient id="paint11_linear_103_9456" x1="209.194" y1="97.4352" x2="239.11" y2="97.4352" gradientUnits="userSpaceOnUse">
<stop offset="0.0186222" stop-color="#9A8C84"/>
<stop offset="0.4235" stop-color="#D3CCC5"/>
<stop offset="0.4999" stop-color="#DED9D1"/>
<stop offset="0.5991" stop-color="#D1CAC0"/>
<stop offset="0.7129" stop-color="#C7C0B1"/>
<stop offset="0.8064" stop-color="#C4BCAC"/>
<stop offset="0.8566" stop-color="#B8AF9E"/>
<stop offset="0.9516" stop-color="#978E78"/>
<stop offset="0.9972" stop-color="#867664"/>
</linearGradient>
<linearGradient id="paint12_linear_103_9456" x1="214.041" y1="108.175" x2="239.718" y2="108.175" gradientUnits="userSpaceOnUse">
<stop offset="0.0186222" stop-color="#9A8C84"/>
<stop offset="0.4235" stop-color="#D3CCC5"/>
<stop offset="0.4999" stop-color="#DED9D1"/>
<stop offset="0.5991" stop-color="#D1CAC0"/>
<stop offset="0.7129" stop-color="#C7C0B1"/>
<stop offset="0.8064" stop-color="#C4BCAC"/>
<stop offset="0.8566" stop-color="#B8AF9E"/>
<stop offset="0.9516" stop-color="#978E78"/>
<stop offset="0.9972" stop-color="#867664"/>
</linearGradient>
<linearGradient id="paint13_linear_103_9456" x1="61.5937" y1="32.7339" x2="89.2456" y2="32.7339" gradientUnits="userSpaceOnUse">
<stop offset="0.0186222" stop-color="#9A8C84"/>
<stop offset="0.4235" stop-color="#D3CCC5"/>
<stop offset="0.4999" stop-color="#DED9D1"/>
<stop offset="0.5991" stop-color="#D1CAC0"/>
<stop offset="0.7129" stop-color="#C7C0B1"/>
<stop offset="0.8064" stop-color="#C4BCAC"/>
<stop offset="0.8566" stop-color="#B8AF9E"/>
<stop offset="0.9516" stop-color="#978E78"/>
<stop offset="0.9972" stop-color="#867664"/>
</linearGradient>
<linearGradient id="paint14_linear_103_9456" x1="61.25" y1="39.8926" x2="66.7418" y2="39.8926" gradientUnits="userSpaceOnUse">
<stop offset="0.0186222" stop-color="#9A8C84"/>
<stop offset="0.4235" stop-color="#D3CCC5"/>
<stop offset="0.4999" stop-color="#DED9D1"/>
<stop offset="0.5991" stop-color="#D1CAC0"/>
<stop offset="0.7129" stop-color="#C7C0B1"/>
<stop offset="0.8064" stop-color="#C4BCAC"/>
<stop offset="0.8566" stop-color="#B8AF9E"/>
<stop offset="0.9516" stop-color="#978E78"/>
<stop offset="0.9972" stop-color="#867664"/>
</linearGradient>
<linearGradient id="paint15_linear_103_9456" x1="14.7111" y1="59.7712" x2="79.0716" y2="59.7712" gradientUnits="userSpaceOnUse">
<stop offset="0.0186222" stop-color="#9A8C84"/>
<stop offset="0.4235" stop-color="#D3CCC5"/>
<stop offset="0.4999" stop-color="#DED9D1"/>
<stop offset="0.5991" stop-color="#D1CAC0"/>
<stop offset="0.7129" stop-color="#C7C0B1"/>
<stop offset="0.8064" stop-color="#C4BCAC"/>
<stop offset="0.8566" stop-color="#B8AF9E"/>
<stop offset="0.9516" stop-color="#978E78"/>
<stop offset="0.9972" stop-color="#867664"/>
</linearGradient>
<linearGradient id="paint16_linear_103_9456" x1="13.7921" y1="78.9371" x2="58.5939" y2="78.9371" gradientUnits="userSpaceOnUse">
<stop offset="0.0186222" stop-color="#9A8C84"/>
<stop offset="0.4235" stop-color="#D3CCC5"/>
<stop offset="0.4999" stop-color="#DED9D1"/>
<stop offset="0.5991" stop-color="#D1CAC0"/>
<stop offset="0.7129" stop-color="#C7C0B1"/>
<stop offset="0.8064" stop-color="#C4BCAC"/>
<stop offset="0.8566" stop-color="#B8AF9E"/>
<stop offset="0.9516" stop-color="#978E78"/>
<stop offset="0.9972" stop-color="#867664"/>
</linearGradient>
<linearGradient id="paint17_linear_103_9456" x1="8.80612" y1="116.555" x2="71.1433" y2="116.555" gradientUnits="userSpaceOnUse">
<stop offset="0.0186222" stop-color="#9A8C84"/>
<stop offset="0.4235" stop-color="#D3CCC5"/>
<stop offset="0.4999" stop-color="#DED9D1"/>
<stop offset="0.5991" stop-color="#D1CAC0"/>
<stop offset="0.7129" stop-color="#C7C0B1"/>
<stop offset="0.8064" stop-color="#C4BCAC"/>
<stop offset="0.8566" stop-color="#B8AF9E"/>
<stop offset="0.9516" stop-color="#978E78"/>
<stop offset="0.9972" stop-color="#867664"/>
</linearGradient>
<linearGradient id="paint18_linear_103_9456" x1="7.7" y1="139.966" x2="65.4124" y2="139.966" gradientUnits="userSpaceOnUse">
<stop offset="0.0186222" stop-color="#9A8C84"/>
<stop offset="0.4235" stop-color="#D3CCC5"/>
<stop offset="0.4999" stop-color="#DED9D1"/>
<stop offset="0.5991" stop-color="#D1CAC0"/>
<stop offset="0.7129" stop-color="#C7C0B1"/>
<stop offset="0.8064" stop-color="#C4BCAC"/>
<stop offset="0.8566" stop-color="#B8AF9E"/>
<stop offset="0.9516" stop-color="#978E78"/>
<stop offset="0.9972" stop-color="#867664"/>
</linearGradient>
<linearGradient id="paint19_linear_103_9456" x1="3.27417" y1="97.4831" x2="33.0939" y2="97.4831" gradientUnits="userSpaceOnUse">
<stop offset="0.0186222" stop-color="#9A8C84"/>
<stop offset="0.4235" stop-color="#D3CCC5"/>
<stop offset="0.4999" stop-color="#DED9D1"/>
<stop offset="0.5991" stop-color="#D1CAC0"/>
<stop offset="0.7129" stop-color="#C7C0B1"/>
<stop offset="0.8064" stop-color="#C4BCAC"/>
<stop offset="0.8566" stop-color="#B8AF9E"/>
<stop offset="0.9516" stop-color="#978E78"/>
<stop offset="0.9972" stop-color="#867664"/>
</linearGradient>
<linearGradient id="paint20_linear_103_9456" x1="2.50513" y1="108.079" x2="28.1819" y2="108.079" gradientUnits="userSpaceOnUse">
<stop offset="0.0186222" stop-color="#9A8C84"/>
<stop offset="0.4235" stop-color="#D3CCC5"/>
<stop offset="0.4999" stop-color="#DED9D1"/>
<stop offset="0.5991" stop-color="#D1CAC0"/>
<stop offset="0.7129" stop-color="#C7C0B1"/>
<stop offset="0.8064" stop-color="#C4BCAC"/>
<stop offset="0.8566" stop-color="#B8AF9E"/>
<stop offset="0.9516" stop-color="#978E78"/>
<stop offset="0.9972" stop-color="#867664"/>
</linearGradient>
<linearGradient id="paint21_linear_103_9456" x1="77.9165" y1="126.221" x2="162.632" y2="126.221" gradientUnits="userSpaceOnUse">
<stop offset="0.0186222" stop-color="#9A8C84"/>
<stop offset="0.4235" stop-color="#D3CCC5"/>
<stop offset="0.4999" stop-color="#DED9D1"/>
<stop offset="0.5991" stop-color="#D1CAC0"/>
<stop offset="0.7129" stop-color="#C7C0B1"/>
<stop offset="0.8064" stop-color="#C4BCAC"/>
<stop offset="0.8566" stop-color="#B8AF9E"/>
<stop offset="0.9516" stop-color="#978E78"/>
<stop offset="0.9972" stop-color="#867664"/>
</linearGradient>
<linearGradient id="paint22_linear_103_9456" x1="198.663" y1="34.8695" x2="206.479" y2="34.8695" gradientUnits="userSpaceOnUse">
<stop offset="0.0186222" stop-color="#9A8C84"/>
<stop offset="0.4235" stop-color="#D3CCC5"/>
<stop offset="0.4999" stop-color="#DED9D1"/>
<stop offset="0.5991" stop-color="#D1CAC0"/>
<stop offset="0.7129" stop-color="#C7C0B1"/>
<stop offset="0.8064" stop-color="#C4BCAC"/>
<stop offset="0.8566" stop-color="#B8AF9E"/>
<stop offset="0.9516" stop-color="#978E78"/>
<stop offset="0.9972" stop-color="#867664"/>
</linearGradient>
<linearGradient id="paint23_linear_103_9456" x1="232.107" y1="80.1302" x2="239.887" y2="80.1302" gradientUnits="userSpaceOnUse">
<stop offset="0.0186222" stop-color="#9A8C84"/>
<stop offset="0.4235" stop-color="#D3CCC5"/>
<stop offset="0.4999" stop-color="#DED9D1"/>
<stop offset="0.5991" stop-color="#D1CAC0"/>
<stop offset="0.7129" stop-color="#C7C0B1"/>
<stop offset="0.8064" stop-color="#C4BCAC"/>
<stop offset="0.8566" stop-color="#B8AF9E"/>
<stop offset="0.9516" stop-color="#978E78"/>
<stop offset="0.9972" stop-color="#867664"/>
</linearGradient>
<linearGradient id="paint24_linear_103_9456" x1="84.4705" y1="11.8324" x2="92.2868" y2="11.8324" gradientUnits="userSpaceOnUse">
<stop offset="0.0186222" stop-color="#9A8C84"/>
<stop offset="0.4235" stop-color="#D3CCC5"/>
<stop offset="0.4999" stop-color="#DED9D1"/>
<stop offset="0.5991" stop-color="#D1CAC0"/>
<stop offset="0.7129" stop-color="#C7C0B1"/>
<stop offset="0.8064" stop-color="#C4BCAC"/>
<stop offset="0.8566" stop-color="#B8AF9E"/>
<stop offset="0.9516" stop-color="#978E78"/>
<stop offset="0.9972" stop-color="#867664"/>
</linearGradient>
<linearGradient id="paint25_linear_103_9456" x1="5.93047" y1="75.389" x2="13.7106" y2="75.389" gradientUnits="userSpaceOnUse">
<stop offset="0.0186222" stop-color="#9A8C84"/>
<stop offset="0.4235" stop-color="#D3CCC5"/>
<stop offset="0.4999" stop-color="#DED9D1"/>
<stop offset="0.5991" stop-color="#D1CAC0"/>
<stop offset="0.7129" stop-color="#C7C0B1"/>
<stop offset="0.8064" stop-color="#C4BCAC"/>
<stop offset="0.8566" stop-color="#B8AF9E"/>
<stop offset="0.9516" stop-color="#978E78"/>
<stop offset="0.9972" stop-color="#867664"/>
</linearGradient>
<linearGradient id="paint26_linear_103_9456" x1="152.078" y1="10.1776" x2="155.871" y2="10.1776" gradientUnits="userSpaceOnUse">
<stop offset="0.0186222" stop-color="#9A8C84"/>
<stop offset="0.4235" stop-color="#D3CCC5"/>
<stop offset="0.4999" stop-color="#DED9D1"/>
<stop offset="0.5991" stop-color="#D1CAC0"/>
<stop offset="0.7129" stop-color="#C7C0B1"/>
<stop offset="0.8064" stop-color="#C4BCAC"/>
<stop offset="0.8566" stop-color="#B8AF9E"/>
<stop offset="0.9516" stop-color="#978E78"/>
<stop offset="0.9972" stop-color="#867664"/>
</linearGradient>
<linearGradient id="paint27_linear_103_9456" x1="39.7933" y1="35.6092" x2="43.5509" y2="35.6092" gradientUnits="userSpaceOnUse">
<stop offset="0.0186222" stop-color="#9A8C84"/>
<stop offset="0.4235" stop-color="#D3CCC5"/>
<stop offset="0.4999" stop-color="#DED9D1"/>
<stop offset="0.5991" stop-color="#D1CAC0"/>
<stop offset="0.7129" stop-color="#C7C0B1"/>
<stop offset="0.8064" stop-color="#C4BCAC"/>
<stop offset="0.8566" stop-color="#B8AF9E"/>
<stop offset="0.9516" stop-color="#978E78"/>
<stop offset="0.9972" stop-color="#867664"/>
</linearGradient>
<linearGradient id="paint28_linear_103_9456" x1="224.545" y1="151.61" x2="228.399" y2="151.61" gradientUnits="userSpaceOnUse">
<stop offset="0.0186222" stop-color="#9A8C84"/>
<stop offset="0.4235" stop-color="#D3CCC5"/>
<stop offset="0.4999" stop-color="#DED9D1"/>
<stop offset="0.5991" stop-color="#D1CAC0"/>
<stop offset="0.7129" stop-color="#C7C0B1"/>
<stop offset="0.8064" stop-color="#C4BCAC"/>
<stop offset="0.8566" stop-color="#B8AF9E"/>
<stop offset="0.9516" stop-color="#978E78"/>
<stop offset="0.9972" stop-color="#867664"/>
</linearGradient>
<linearGradient id="paint29_linear_103_9456" x1="7.87344" y1="150.82" x2="11.7755" y2="150.82" gradientUnits="userSpaceOnUse">
<stop offset="0.0186222" stop-color="#9A8C84"/>
<stop offset="0.4235" stop-color="#D3CCC5"/>
<stop offset="0.4999" stop-color="#DED9D1"/>
<stop offset="0.5991" stop-color="#D1CAC0"/>
<stop offset="0.7129" stop-color="#C7C0B1"/>
<stop offset="0.8064" stop-color="#C4BCAC"/>
<stop offset="0.8566" stop-color="#B8AF9E"/>
<stop offset="0.9516" stop-color="#978E78"/>
<stop offset="0.9972" stop-color="#867664"/>
</linearGradient>
<linearGradient id="paint30_linear_103_9456" x1="237.169" y1="117.079" x2="240.023" y2="117.079" gradientUnits="userSpaceOnUse">
<stop offset="0.0186222" stop-color="#9A8C84"/>
<stop offset="0.4235" stop-color="#D3CCC5"/>
<stop offset="0.4999" stop-color="#DED9D1"/>
<stop offset="0.5991" stop-color="#D1CAC0"/>
<stop offset="0.7129" stop-color="#C7C0B1"/>
<stop offset="0.8064" stop-color="#C4BCAC"/>
<stop offset="0.8566" stop-color="#B8AF9E"/>
<stop offset="0.9516" stop-color="#978E78"/>
<stop offset="0.9972" stop-color="#867664"/>
</linearGradient>
<linearGradient id="paint31_linear_103_9456" x1="-0.0465968" y1="118.204" x2="3.51828" y2="118.204" gradientUnits="userSpaceOnUse">
<stop offset="0.0186222" stop-color="#9A8C84"/>
<stop offset="0.4235" stop-color="#D3CCC5"/>
<stop offset="0.4999" stop-color="#DED9D1"/>
<stop offset="0.5991" stop-color="#D1CAC0"/>
<stop offset="0.7129" stop-color="#C7C0B1"/>
<stop offset="0.8064" stop-color="#C4BCAC"/>
<stop offset="0.8566" stop-color="#B8AF9E"/>
<stop offset="0.9516" stop-color="#978E78"/>
<stop offset="0.9972" stop-color="#867664"/>
</linearGradient>
<linearGradient id="paint32_linear_103_9456" x1="197.953" y1="169.116" x2="200.892" y2="169.116" gradientUnits="userSpaceOnUse">
<stop offset="0.0186222" stop-color="#9A8C84"/>
<stop offset="0.4235" stop-color="#D3CCC5"/>
<stop offset="0.4999" stop-color="#DED9D1"/>
<stop offset="0.5991" stop-color="#D1CAC0"/>
<stop offset="0.7129" stop-color="#C7C0B1"/>
<stop offset="0.8064" stop-color="#C4BCAC"/>
<stop offset="0.8566" stop-color="#B8AF9E"/>
<stop offset="0.9516" stop-color="#978E78"/>
<stop offset="0.9972" stop-color="#867664"/>
</linearGradient>
<linearGradient id="paint33_linear_103_9456" x1="35.2081" y1="167.118" x2="38.2241" y2="167.118" gradientUnits="userSpaceOnUse">
<stop offset="0.0186222" stop-color="#9A8C84"/>
<stop offset="0.4235" stop-color="#D3CCC5"/>
<stop offset="0.4999" stop-color="#DED9D1"/>
<stop offset="0.5991" stop-color="#D1CAC0"/>
<stop offset="0.7129" stop-color="#C7C0B1"/>
<stop offset="0.8064" stop-color="#C4BCAC"/>
<stop offset="0.8566" stop-color="#B8AF9E"/>
<stop offset="0.9516" stop-color="#978E78"/>
<stop offset="0.9972" stop-color="#867664"/>
</linearGradient>
<linearGradient id="paint34_linear_103_9456" x1="117.963" y1="178.027" x2="125.743" y2="178.027" gradientUnits="userSpaceOnUse">
<stop offset="0.0186222" stop-color="#9A8C84"/>
<stop offset="0.4235" stop-color="#D3CCC5"/>
<stop offset="0.4999" stop-color="#DED9D1"/>
<stop offset="0.5991" stop-color="#D1CAC0"/>
<stop offset="0.7129" stop-color="#C7C0B1"/>
<stop offset="0.8064" stop-color="#C4BCAC"/>
<stop offset="0.8566" stop-color="#B8AF9E"/>
<stop offset="0.9516" stop-color="#978E78"/>
<stop offset="0.9972" stop-color="#867664"/>
</linearGradient>
<linearGradient id="paint35_linear_103_9456" x1="144.805" y1="161.285" x2="147.623" y2="161.285" gradientUnits="userSpaceOnUse">
<stop offset="0.0186222" stop-color="#9A8C84"/>
<stop offset="0.4235" stop-color="#D3CCC5"/>
<stop offset="0.4999" stop-color="#DED9D1"/>
<stop offset="0.5991" stop-color="#D1CAC0"/>
<stop offset="0.7129" stop-color="#C7C0B1"/>
<stop offset="0.8064" stop-color="#C4BCAC"/>
<stop offset="0.8566" stop-color="#B8AF9E"/>
<stop offset="0.9516" stop-color="#978E78"/>
<stop offset="0.9972" stop-color="#867664"/>
</linearGradient>
<linearGradient id="paint36_linear_103_9456" x1="92.3535" y1="161.285" x2="95.2079" y2="161.285" gradientUnits="userSpaceOnUse">
<stop offset="0.0186222" stop-color="#9A8C84"/>
<stop offset="0.4235" stop-color="#D3CCC5"/>
<stop offset="0.4999" stop-color="#DED9D1"/>
<stop offset="0.5991" stop-color="#D1CAC0"/>
<stop offset="0.7129" stop-color="#C7C0B1"/>
<stop offset="0.8064" stop-color="#C4BCAC"/>
<stop offset="0.8566" stop-color="#B8AF9E"/>
<stop offset="0.9516" stop-color="#978E78"/>
<stop offset="0.9972" stop-color="#867664"/>
</linearGradient>
<linearGradient id="paint37_linear_103_9456" x1="65.2988" y1="178" x2="68.1352" y2="178" gradientUnits="userSpaceOnUse">
<stop offset="0.0186222" stop-color="#9A8C84"/>
<stop offset="0.4235" stop-color="#D3CCC5"/>
<stop offset="0.4999" stop-color="#DED9D1"/>
<stop offset="0.5991" stop-color="#D1CAC0"/>
<stop offset="0.7129" stop-color="#C7C0B1"/>
<stop offset="0.8064" stop-color="#C4BCAC"/>
<stop offset="0.8566" stop-color="#B8AF9E"/>
<stop offset="0.9516" stop-color="#978E78"/>
<stop offset="0.9972" stop-color="#867664"/>
</linearGradient>
<linearGradient id="paint38_linear_103_9456" x1="168.23" y1="180.395" x2="171.048" y2="180.395" gradientUnits="userSpaceOnUse">
<stop offset="0.0186222" stop-color="#9A8C84"/>
<stop offset="0.4235" stop-color="#D3CCC5"/>
<stop offset="0.4999" stop-color="#DED9D1"/>
<stop offset="0.5991" stop-color="#D1CAC0"/>
<stop offset="0.7129" stop-color="#C7C0B1"/>
<stop offset="0.8064" stop-color="#C4BCAC"/>
<stop offset="0.8566" stop-color="#B8AF9E"/>
<stop offset="0.9516" stop-color="#978E78"/>
<stop offset="0.9972" stop-color="#867664"/>
</linearGradient>
<clipPath id="clip0_103_9456">
<rect width="240" height="182" fill="white"/>
</clipPath>
</defs>
</svg>
