<svg width="24" height="25" viewBox="0 0 24 25" fill="none" xmlns="http://www.w3.org/2000/svg">
<path d="M11.3648 12.1054H11.5075H12.4721H12.6134L12.6365 12.2449L14.2583 22.0457L19.9842 20.8798C19.6228 17.6391 19.2543 14.9608 18.8855 12.2809L18.8849 12.2765C18.5141 9.58179 18.1431 6.88511 17.7794 3.61587C16.0119 2.97906 13.9027 2.67176 11.872 2.6795L11.3648 12.1054ZM11.3648 12.1054L11.3428 12.2464M11.3648 12.1054L11.3428 12.2464M11.3428 12.2464L9.82083 22.0014M11.3428 12.2464L9.82083 22.0014M9.82083 22.0014L4.37375 20.9056C4.68191 18.1128 5.00725 15.5856 5.34474 12.9641C5.35827 12.8589 5.37183 12.7536 5.3854 12.6481C5.74016 9.89178 6.10798 7.01638 6.48267 3.60971C7.91178 3.00894 9.84505 2.68802 11.8719 2.6795L9.82083 22.0014Z" fill="url(#paint0_linear_171_11338)"/>
<path d="M11.3648 12.1054H11.5075H12.4721H12.6134L12.6365 12.2449L14.2583 22.0457L19.9842 20.8798C19.6228 17.6391 19.2543 14.9608 18.8855 12.2809L18.8849 12.2765C18.5141 9.58179 18.1431 6.88511 17.7794 3.61587C16.0119 2.97906 13.9027 2.67176 11.872 2.6795L11.3648 12.1054ZM11.3648 12.1054L11.3428 12.2464M11.3648 12.1054L11.3428 12.2464M11.3428 12.2464L9.82083 22.0014M11.3428 12.2464L9.82083 22.0014M9.82083 22.0014L4.37375 20.9056C4.68191 18.1128 5.00725 15.5856 5.34474 12.9641C5.35827 12.8589 5.37183 12.7536 5.3854 12.6481C5.74016 9.89178 6.10798 7.01638 6.48267 3.60971C7.91178 3.00894 9.84505 2.68802 11.8719 2.6795L9.82083 22.0014Z" fill="#FFE9BF" fill-opacity="0.24" style="mix-blend-mode:saturation"/>
<path d="M11.3648 12.1054H11.5075H12.4721H12.6134L12.6365 12.2449L14.2583 22.0457L19.9842 20.8798C19.6228 17.6391 19.2543 14.9608 18.8855 12.2809L18.8849 12.2765C18.5141 9.58179 18.1431 6.88511 17.7794 3.61587C16.0119 2.97906 13.9027 2.67176 11.872 2.6795L11.3648 12.1054ZM11.3648 12.1054L11.3428 12.2464M11.3648 12.1054L11.3428 12.2464M11.3428 12.2464L9.82083 22.0014M11.3428 12.2464L9.82083 22.0014M9.82083 22.0014L4.37375 20.9056C4.68191 18.1128 5.00725 15.5856 5.34474 12.9641C5.35827 12.8589 5.37183 12.7536 5.3854 12.6481C5.74016 9.89178 6.10798 7.01638 6.48267 3.60971C7.91178 3.00894 9.84505 2.68802 11.8719 2.6795L9.82083 22.0014Z" stroke="url(#paint1_linear_171_11338)" stroke-width="0.333333"/>
<path d="M11.3648 12.1054H11.5075H12.4721H12.6134L12.6365 12.2449L14.2583 22.0457L19.9842 20.8798C19.6228 17.6391 19.2543 14.9608 18.8855 12.2809L18.8849 12.2765C18.5141 9.58179 18.1431 6.88511 17.7794 3.61587C16.0119 2.97906 13.9027 2.67176 11.872 2.6795L11.3648 12.1054ZM11.3648 12.1054L11.3428 12.2464M11.3648 12.1054L11.3428 12.2464M11.3428 12.2464L9.82083 22.0014M11.3428 12.2464L9.82083 22.0014M9.82083 22.0014L4.37375 20.9056C4.68191 18.1128 5.00725 15.5856 5.34474 12.9641C5.35827 12.8589 5.37183 12.7536 5.3854 12.6481C5.74016 9.89178 6.10798 7.01638 6.48267 3.60971C7.91178 3.00894 9.84505 2.68802 11.8719 2.6795L9.82083 22.0014Z" stroke="#FFE9BF" stroke-opacity="0.24" stroke-width="0.333333" style="mix-blend-mode:saturation"/>
<defs>
<linearGradient id="paint0_linear_171_11338" x1="4.19705" y1="12.3748" x2="20.2302" y2="12.3748" gradientUnits="userSpaceOnUse">
<stop offset="0.0186222" stop-color="#9A8C84"/>
<stop offset="0.4235" stop-color="#D3CCC5"/>
<stop offset="0.4999" stop-color="#DED9D1"/>
<stop offset="0.5991" stop-color="#D1CAC0"/>
<stop offset="0.7129" stop-color="#C7C0B1"/>
<stop offset="0.8064" stop-color="#C4BCAC"/>
<stop offset="0.8566" stop-color="#B8AF9E"/>
<stop offset="0.9516" stop-color="#978E78"/>
<stop offset="0.9972" stop-color="#867664"/>
</linearGradient>
<linearGradient id="paint1_linear_171_11338" x1="4.19705" y1="12.3748" x2="20.2302" y2="12.3748" gradientUnits="userSpaceOnUse">
<stop offset="0.0186222" stop-color="#9A8C84"/>
<stop offset="0.4235" stop-color="#D3CCC5"/>
<stop offset="0.4999" stop-color="#DED9D1"/>
<stop offset="0.5991" stop-color="#D1CAC0"/>
<stop offset="0.7129" stop-color="#C7C0B1"/>
<stop offset="0.8064" stop-color="#C4BCAC"/>
<stop offset="0.8566" stop-color="#B8AF9E"/>
<stop offset="0.9516" stop-color="#978E78"/>
<stop offset="0.9972" stop-color="#867664"/>
</linearGradient>
</defs>
</svg>
