<svg width="75" height="22" viewBox="0 0 75 22" fill="none" xmlns="http://www.w3.org/2000/svg">
<path fill-rule="evenodd" clip-rule="evenodd" d="M11.5097 15.9589H8.24349C3.14876 15.9589 6.8501 5.0938 11.1394 5.0938H16.2998C17.127 5.0938 18.5857 5.24659 19.3044 3.19184L20.4149 0H13.3385C9.5064 0 6.52345 1.35527 4.36797 3.62913C0.644625 7.52046 -0.617976 13.5979 0.274586 16.5053C1.12376 19.1944 3.43171 20.965 7.04597 21.0087L9.85475 21.0307H13.3168L14.166 18.4729C14.7973 16.6584 13.3819 15.9589 11.5097 15.9589ZM51.2671 11.4555L52.3342 7.97944H40.9469C39.0527 7.97944 38.2035 8.50413 37.8769 9.59721L36.8098 13.0732H48.1974C50.0916 13.0732 50.9408 12.5486 51.2671 11.4555ZM35.1118 17.5766L34.0447 21.0524H45.432C47.3045 21.0524 48.1754 20.528 48.5021 19.4349L49.5691 15.9589H38.1815C36.3093 15.9589 35.4601 16.4836 35.1118 17.5766ZM53.9238 3.49773L54.9905 0.0220039H43.6032C41.709 0.0220039 40.8598 0.546382 40.5332 1.63946L39.4661 5.11549H50.8537C52.7262 5.11549 53.5751 4.5908 53.9238 3.49773ZM36.7227 4.19752C36.2439 0.961985 34.5239 0.0220039 30.3434 0.0220039H22.7228L18.2811 13.0732H21.0899C22.7662 13.0732 23.6154 13.0949 24.5083 10.6903L26.3588 5.0938H29.1893C31.6063 5.0938 31.0618 8.13254 29.8426 11.0836C28.7538 13.6853 26.8596 15.9806 24.5733 15.9806H19.8487C17.9544 15.9806 17.0836 16.5053 16.7352 17.5983L15.5594 21.0744H19.0212L22.4179 21.0524C25.4225 21.0307 27.883 20.8122 30.7571 18.2104C33.8052 15.4342 37.3326 8.30734 36.7227 4.19752ZM75 0H68.4028L62.1973 6.62386C61.4789 7.38905 60.7385 8.15424 60.0201 9.05052H59.9548L63.0465 0H57.6685L50.4183 21.0524H55.796L58.1039 14.4285L60.499 12.3955L62.3935 18.3855C62.9811 20.2438 63.591 21.0524 64.8973 21.0524H69.0124L64.7885 9.29101L75 0Z" fill="#00B33C"/>
</svg>
