<svg width="19" height="19" viewBox="0 0 19 19" fill="none" xmlns="http://www.w3.org/2000/svg">
<g clip-path="url(#clip0_193_5893)">
<path d="M15.5947 3.93164H6.09473C5.89581 3.93164 5.70505 4.01066 5.5644 4.15131C5.42374 4.29196 5.34473 4.48273 5.34473 4.68164V16.6816C5.34473 16.8806 5.42374 17.0713 5.5644 17.212C5.70505 17.3526 5.89581 17.4316 6.09473 17.4316H15.5947C15.7936 17.4316 15.9844 17.3526 16.1251 17.212C16.2657 17.0713 16.3447 16.8806 16.3447 16.6816V4.68164C16.3447 4.48273 16.2657 4.29196 16.1251 4.15131C15.9844 4.01066 15.7936 3.93164 15.5947 3.93164ZM15.3447 16.4316H6.34473V4.93164H15.3447V16.4316Z" fill="url(#paint0_linear_193_5893)"/>
<path d="M15.5947 3.93164H6.09473C5.89581 3.93164 5.70505 4.01066 5.5644 4.15131C5.42374 4.29196 5.34473 4.48273 5.34473 4.68164V16.6816C5.34473 16.8806 5.42374 17.0713 5.5644 17.212C5.70505 17.3526 5.89581 17.4316 6.09473 17.4316H15.5947C15.7936 17.4316 15.9844 17.3526 16.1251 17.212C16.2657 17.0713 16.3447 16.8806 16.3447 16.6816V4.68164C16.3447 4.48273 16.2657 4.29196 16.1251 4.15131C15.9844 4.01066 15.7936 3.93164 15.5947 3.93164ZM15.3447 16.4316H6.34473V4.93164H15.3447V16.4316Z" fill="#FFE9BF" fill-opacity="0.24" style="mix-blend-mode:saturation"/>
<path d="M13.8447 2.18164C13.8447 1.98273 13.7657 1.79196 13.6251 1.65131C13.4844 1.51066 13.2936 1.43164 13.0947 1.43164H3.59473C3.39581 1.43164 3.20505 1.51066 3.0644 1.65131C2.92374 1.79196 2.84473 1.98273 2.84473 2.18164V14.1816C2.84473 14.3806 2.92374 14.5713 3.0644 14.712C3.20505 14.8526 3.39581 14.9316 3.59473 14.9316H3.84473V2.43164H13.8447V2.18164Z" fill="url(#paint1_linear_193_5893)"/>
<path d="M13.8447 2.18164C13.8447 1.98273 13.7657 1.79196 13.6251 1.65131C13.4844 1.51066 13.2936 1.43164 13.0947 1.43164H3.59473C3.39581 1.43164 3.20505 1.51066 3.0644 1.65131C2.92374 1.79196 2.84473 1.98273 2.84473 2.18164V14.1816C2.84473 14.3806 2.92374 14.5713 3.0644 14.712C3.20505 14.8526 3.39581 14.9316 3.59473 14.9316H3.84473V2.43164H13.8447V2.18164Z" fill="#FFE9BF" fill-opacity="0.24" style="mix-blend-mode:saturation"/>
</g>
<defs>
<linearGradient id="paint0_linear_193_5893" x1="5.34861" y1="10.6801" x2="16.3885" y2="10.6801" gradientUnits="userSpaceOnUse">
<stop offset="0.0186222" stop-color="#9A8C84"/>
<stop offset="0.4235" stop-color="#D3CCC5"/>
<stop offset="0.4999" stop-color="#DED9D1"/>
<stop offset="0.5991" stop-color="#D1CAC0"/>
<stop offset="0.7129" stop-color="#C7C0B1"/>
<stop offset="0.8064" stop-color="#C4BCAC"/>
<stop offset="0.8566" stop-color="#B8AF9E"/>
<stop offset="0.9516" stop-color="#978E78"/>
<stop offset="0.9972" stop-color="#867664"/>
</linearGradient>
<linearGradient id="paint1_linear_193_5893" x1="2.84861" y1="8.18007" x2="13.8885" y2="8.18007" gradientUnits="userSpaceOnUse">
<stop offset="0.0186222" stop-color="#9A8C84"/>
<stop offset="0.4235" stop-color="#D3CCC5"/>
<stop offset="0.4999" stop-color="#DED9D1"/>
<stop offset="0.5991" stop-color="#D1CAC0"/>
<stop offset="0.7129" stop-color="#C7C0B1"/>
<stop offset="0.8064" stop-color="#C4BCAC"/>
<stop offset="0.8566" stop-color="#B8AF9E"/>
<stop offset="0.9516" stop-color="#978E78"/>
<stop offset="0.9972" stop-color="#867664"/>
</linearGradient>
<clipPath id="clip0_193_5893">
<rect width="18" height="18" fill="white" transform="translate(0.844727 0.431641)"/>
</clipPath>
</defs>
</svg>
