<svg width="23" height="24" viewBox="0 0 23 24" fill="none" xmlns="http://www.w3.org/2000/svg">
<g clip-path="url(#clip0_2020_384)">
<mask id="mask0_2020_384" style="mask-type:luminance" maskUnits="userSpaceOnUse" x="0" y="0" width="23" height="23">
<path d="M22.9201 0.0791016H0.0507812V22.9485H22.9201V0.0791016Z" fill="white"/>
</mask>
<g mask="url(#mask0_2020_384)">
<path d="M11.4391 22.6647H11.528C15.9573 22.6647 18.5283 22.2187 20.3494 20.4507C22.2063 18.5752 22.6351 15.9869 22.6351 11.5749V11.4501C22.6351 7.03943 22.2063 4.46841 20.3494 2.57432C18.5296 0.806332 15.9401 0.360352 11.5293 0.360352H11.4404C7.01112 0.360352 4.43876 0.806332 2.61768 2.57432C0.760757 4.44983 0.332031 7.03943 0.332031 11.4501V11.5749C0.332031 15.9856 0.760757 18.5567 2.61768 20.4507C4.42152 22.2187 7.01112 22.6647 11.4391 22.6647Z" fill="url(#paint0_linear_2020_384)"/>
<path d="M11.4391 22.6647H11.528C15.9573 22.6647 18.5283 22.2187 20.3494 20.4507C22.2063 18.5752 22.6351 15.9869 22.6351 11.5749V11.4501C22.6351 7.03943 22.2063 4.46841 20.3494 2.57432C18.5296 0.806332 15.9401 0.360352 11.5293 0.360352H11.4404C7.01112 0.360352 4.43876 0.806332 2.61768 2.57432C0.760757 4.44983 0.332031 7.03943 0.332031 11.4501V11.5749C0.332031 15.9856 0.760757 18.5567 2.61768 20.4507C4.42152 22.2187 7.01112 22.6647 11.4391 22.6647Z" fill="#FFE9BF" fill-opacity="0.24" style="mix-blend-mode:saturation"/>
<path d="M20.1936 11.3351C20.1936 11.2481 20.1228 11.1759 20.0357 11.1719C16.9106 11.0535 15.0087 10.6549 13.6781 9.32427C12.3447 7.99097 11.9474 6.08759 11.8291 2.95567C11.8263 2.86859 11.7542 2.79785 11.6658 2.79785H11.3012C11.2141 2.79785 11.142 2.86859 11.1379 2.95567C11.0196 6.08623 10.6223 7.99097 9.28897 9.32427C7.95703 10.6562 6.05637 11.0535 2.93125 11.1719C2.84418 11.1746 2.77344 11.2467 2.77344 11.3351V11.6997C2.77344 11.7868 2.84418 11.8589 2.93125 11.863C6.05637 11.9814 7.95837 12.38 9.28897 13.7106C10.6196 15.0412 11.0168 16.9392 11.1366 20.0587C11.1393 20.1458 11.2114 20.2166 11.2998 20.2166H11.6658C11.7529 20.2166 11.825 20.1458 11.8291 20.0587C11.9488 16.9392 12.3461 15.0412 13.6767 13.7106C15.0087 12.3786 16.9092 11.9814 20.0344 11.863C20.1215 11.8603 20.1922 11.7882 20.1922 11.6997V11.3351H20.1936Z" fill="#061027"/>
</g>
</g>
<defs>
<linearGradient id="paint0_linear_2020_384" x1="0.33991" y1="11.5099" x2="22.7238" y2="11.5099" gradientUnits="userSpaceOnUse">
<stop offset="0.0186222" stop-color="#9A8C84"/>
<stop offset="0.4235" stop-color="#D3CCC5"/>
<stop offset="0.4999" stop-color="#DED9D1"/>
<stop offset="0.5991" stop-color="#D1CAC0"/>
<stop offset="0.7129" stop-color="#C7C0B1"/>
<stop offset="0.8064" stop-color="#C4BCAC"/>
<stop offset="0.8566" stop-color="#B8AF9E"/>
<stop offset="0.9516" stop-color="#978E78"/>
<stop offset="0.9972" stop-color="#867664"/>
</linearGradient>
<clipPath id="clip0_2020_384">
<rect width="23" height="23" fill="white" transform="translate(0 0.0830078)"/>
</clipPath>
</defs>
</svg>
