<svg width="108" height="91" viewBox="0 0 108 91" fill="none" xmlns="http://www.w3.org/2000/svg">
<path d="M49.6913 60.4834C45.4669 59.6051 41.7072 57.7986 38.5041 54.8822C38.3718 54.7614 38.2174 54.6643 38.0783 54.5504C37.9384 54.4373 37.8038 54.3165 37.524 54.0772C40.7822 54.87 43.6344 56.1841 46.3246 57.8552C47.5134 58.5937 48.6371 59.4354 49.7854 60.2358C49.8595 60.2877 49.8985 60.3902 49.9528 60.4689C49.8656 60.4743 49.7739 60.5003 49.6913 60.4834ZM36.4989 52.4818C35.1106 52.046 34.7506 50.6524 33.9991 49.6272C34.5212 49.7083 35.0648 49.7236 35.5632 49.8803C39.5644 51.1416 43.0252 53.3372 46.3934 56.1871C44.5128 55.3286 42.8952 54.4839 41.1988 53.8471C39.676 53.276 38.0554 52.9695 36.4989 52.4818ZM31.9924 45.4486C31.815 45.0527 32.5168 45.36 32.7125 45.4196C37.6639 46.9279 41.789 49.7442 45.3415 53.4572C45.723 53.8563 46.1664 54.1957 46.5815 54.5626C42.8302 51.4467 38.6639 49.1158 33.9043 48.0272C32.3371 47.6687 32.4189 46.4019 31.9924 45.4486ZM30.9848 42.124C31.0291 41.7104 31.5688 42.088 31.867 42.1645C37.6616 43.6544 42.0184 47.2581 45.8216 51.6699C46.3942 52.3334 46.9614 53.0008 47.5309 53.6667C45.6182 51.6187 43.5404 49.748 41.2493 48.1151C38.3122 46.0212 35.1022 44.5252 31.5964 43.6376C30.9099 43.4641 30.9305 42.6247 30.9848 42.124ZM30.5995 40.0431C30.5269 39.3054 30.5192 38.5608 30.4841 37.8193C31.0742 37.9355 31.6804 38.0004 32.253 38.1755C36.3536 39.4353 39.8259 41.7364 42.7591 44.8111C44.8484 47.0005 46.8223 49.313 48.0867 52.1202C48.1379 52.2325 48.1547 52.3602 48.2511 52.7126C46.5608 50.2319 44.6695 48.2558 42.5909 46.444C39.3236 43.5963 35.6297 41.5736 31.3991 40.5622C31.0635 40.4819 30.6431 40.4903 30.5995 40.0431ZM30.51 34.6888C30.6102 34.094 31.1384 34.568 31.3892 34.6307C37.0103 36.035 41.4832 39.1938 44.9516 43.7661C46.0922 45.2698 47.3391 46.762 48.0248 49.1624C45.4241 45.3676 42.75 42.3655 39.3657 40.0806C36.7038 38.284 33.8041 37.0104 30.6446 36.2888C29.9283 36.126 30.4237 35.2063 30.51 34.6888ZM30.7463 32.2631C30.8586 31.8495 30.7065 31.0996 31.5887 31.3205C35.8093 32.3793 39.5736 34.3088 42.8157 37.2161C44.9249 39.1074 46.7099 41.2884 48.3436 43.594C48.4949 43.8073 48.553 44.0871 48.6731 44.3807C48.5003 44.8761 48.3321 45.3577 48.1639 45.8393C47.9155 45.4762 47.6655 45.113 47.4178 44.7492C44.2972 40.1669 40.3786 36.5112 35.1748 34.4067C33.8309 33.8631 32.3968 33.5405 31.0008 33.1269C30.4596 32.9672 30.6752 32.5268 30.7463 32.2631ZM31.5222 29.2778C31.7737 28.2817 32.1399 28.0601 33.1681 28.3528C38.3321 29.8206 42.6995 32.5192 46.1771 36.6022C47.3391 37.9676 48.498 39.3619 49.1577 40.8343C49.1271 41.9573 49.0071 42.2073 48.7724 41.8985C48.5117 41.5575 48.2648 41.2058 48.0126 40.8588C46.2336 38.4064 44.0908 36.2949 41.685 34.4854C38.8558 32.3579 35.6557 30.939 32.2255 30.0416C31.8739 29.9498 31.3227 30.0698 31.5222 29.2778ZM32.7308 26.3048C33.4708 23.3563 35.3507 24.7484 36.8131 25.3332C40.2754 26.7169 43.61 28.3849 46.041 31.348C47.4919 33.117 48.4705 35.149 48.8466 37.4737C48.8366 37.4936 48.8137 37.5433 48.7908 37.5922C48.7304 37.5479 48.6539 37.5142 48.6119 37.4561C44.6711 32.0796 39.4826 28.5493 33.0099 26.9133C32.6651 26.8262 32.6399 26.6664 32.7308 26.3048ZM36.0991 21.5086C40.7027 23.0803 44.9065 25.3951 48.3382 28.9048C51.7363 32.3793 52.8639 39.021 50.8839 43.4748C49.5048 46.5793 48.8703 49.7648 49.6646 53.1384C49.6898 53.2455 49.6676 53.364 49.6676 54.0711C48.9414 50.9146 48.8007 48.3574 49.5965 45.7827C51.5956 39.313 50.0858 31.8388 44.0748 27.583C41.341 25.6474 38.2977 24.3241 35.1473 23.2271C35.0005 23.1759 34.8889 23.023 34.7613 22.9182C35.1932 22.4106 35.4531 21.2884 36.0991 21.5086ZM52 44.0237C54.379 38.375 53.464 32.7707 49.4253 28.0784C46.3613 24.5183 42.2324 22.3334 37.8642 20.6447C37.6074 20.5453 36.5012 20.6218 37.365 19.7931C38.2014 18.9904 39.0278 18.1564 39.9627 17.4798C40.7142 16.9363 41.484 16.4508 42.2638 15.9922C42.2416 15.5098 42.25 15.0274 42.2959 14.5473C39.9459 15.8492 37.7931 17.5463 35.843 19.6379C32.3287 23.4052 30.163 27.9049 29.4727 33.0681C28.2832 41.9665 30.9932 49.5248 37.5088 55.6138C41.4626 59.3077 46.2627 61.3603 51.695 62.0361C53.7155 62.2868 53.7484 61.8595 53.0672 60.2144C50.8923 54.9609 49.5866 49.7534 52 44.0237Z" fill="url(#paint0_linear_2020_346)"/>
<path d="M49.6913 60.4834C45.4669 59.6051 41.7072 57.7986 38.5041 54.8822C38.3718 54.7614 38.2174 54.6643 38.0783 54.5504C37.9384 54.4373 37.8038 54.3165 37.524 54.0772C40.7822 54.87 43.6344 56.1841 46.3246 57.8552C47.5134 58.5937 48.6371 59.4354 49.7854 60.2358C49.8595 60.2877 49.8985 60.3902 49.9528 60.4689C49.8656 60.4743 49.7739 60.5003 49.6913 60.4834ZM36.4989 52.4818C35.1106 52.046 34.7506 50.6524 33.9991 49.6272C34.5212 49.7083 35.0648 49.7236 35.5632 49.8803C39.5644 51.1416 43.0252 53.3372 46.3934 56.1871C44.5128 55.3286 42.8952 54.4839 41.1988 53.8471C39.676 53.276 38.0554 52.9695 36.4989 52.4818ZM31.9924 45.4486C31.815 45.0527 32.5168 45.36 32.7125 45.4196C37.6639 46.9279 41.789 49.7442 45.3415 53.4572C45.723 53.8563 46.1664 54.1957 46.5815 54.5626C42.8302 51.4467 38.6639 49.1158 33.9043 48.0272C32.3371 47.6687 32.4189 46.4019 31.9924 45.4486ZM30.9848 42.124C31.0291 41.7104 31.5688 42.088 31.867 42.1645C37.6616 43.6544 42.0184 47.2581 45.8216 51.6699C46.3942 52.3334 46.9614 53.0008 47.5309 53.6667C45.6182 51.6187 43.5404 49.748 41.2493 48.1151C38.3122 46.0212 35.1022 44.5252 31.5964 43.6376C30.9099 43.4641 30.9305 42.6247 30.9848 42.124ZM30.5995 40.0431C30.5269 39.3054 30.5192 38.5608 30.4841 37.8193C31.0742 37.9355 31.6804 38.0004 32.253 38.1755C36.3536 39.4353 39.8259 41.7364 42.7591 44.8111C44.8484 47.0005 46.8223 49.313 48.0867 52.1202C48.1379 52.2325 48.1547 52.3602 48.2511 52.7126C46.5608 50.2319 44.6695 48.2558 42.5909 46.444C39.3236 43.5963 35.6297 41.5736 31.3991 40.5622C31.0635 40.4819 30.6431 40.4903 30.5995 40.0431ZM30.51 34.6888C30.6102 34.094 31.1384 34.568 31.3892 34.6307C37.0103 36.035 41.4832 39.1938 44.9516 43.7661C46.0922 45.2698 47.3391 46.762 48.0248 49.1624C45.4241 45.3676 42.75 42.3655 39.3657 40.0806C36.7038 38.284 33.8041 37.0104 30.6446 36.2888C29.9283 36.126 30.4237 35.2063 30.51 34.6888ZM30.7463 32.2631C30.8586 31.8495 30.7065 31.0996 31.5887 31.3205C35.8093 32.3793 39.5736 34.3088 42.8157 37.2161C44.9249 39.1074 46.7099 41.2884 48.3436 43.594C48.4949 43.8073 48.553 44.0871 48.6731 44.3807C48.5003 44.8761 48.3321 45.3577 48.1639 45.8393C47.9155 45.4762 47.6655 45.113 47.4178 44.7492C44.2972 40.1669 40.3786 36.5112 35.1748 34.4067C33.8309 33.8631 32.3968 33.5405 31.0008 33.1269C30.4596 32.9672 30.6752 32.5268 30.7463 32.2631ZM31.5222 29.2778C31.7737 28.2817 32.1399 28.0601 33.1681 28.3528C38.3321 29.8206 42.6995 32.5192 46.1771 36.6022C47.3391 37.9676 48.498 39.3619 49.1577 40.8343C49.1271 41.9573 49.0071 42.2073 48.7724 41.8985C48.5117 41.5575 48.2648 41.2058 48.0126 40.8588C46.2336 38.4064 44.0908 36.2949 41.685 34.4854C38.8558 32.3579 35.6557 30.939 32.2255 30.0416C31.8739 29.9498 31.3227 30.0698 31.5222 29.2778ZM32.7308 26.3048C33.4708 23.3563 35.3507 24.7484 36.8131 25.3332C40.2754 26.7169 43.61 28.3849 46.041 31.348C47.4919 33.117 48.4705 35.149 48.8466 37.4737C48.8366 37.4936 48.8137 37.5433 48.7908 37.5922C48.7304 37.5479 48.6539 37.5142 48.6119 37.4561C44.6711 32.0796 39.4826 28.5493 33.0099 26.9133C32.6651 26.8262 32.6399 26.6664 32.7308 26.3048ZM36.0991 21.5086C40.7027 23.0803 44.9065 25.3951 48.3382 28.9048C51.7363 32.3793 52.8639 39.021 50.8839 43.4748C49.5048 46.5793 48.8703 49.7648 49.6646 53.1384C49.6898 53.2455 49.6676 53.364 49.6676 54.0711C48.9414 50.9146 48.8007 48.3574 49.5965 45.7827C51.5956 39.313 50.0858 31.8388 44.0748 27.583C41.341 25.6474 38.2977 24.3241 35.1473 23.2271C35.0005 23.1759 34.8889 23.023 34.7613 22.9182C35.1932 22.4106 35.4531 21.2884 36.0991 21.5086ZM52 44.0237C54.379 38.375 53.464 32.7707 49.4253 28.0784C46.3613 24.5183 42.2324 22.3334 37.8642 20.6447C37.6074 20.5453 36.5012 20.6218 37.365 19.7931C38.2014 18.9904 39.0278 18.1564 39.9627 17.4798C40.7142 16.9363 41.484 16.4508 42.2638 15.9922C42.2416 15.5098 42.25 15.0274 42.2959 14.5473C39.9459 15.8492 37.7931 17.5463 35.843 19.6379C32.3287 23.4052 30.163 27.9049 29.4727 33.0681C28.2832 41.9665 30.9932 49.5248 37.5088 55.6138C41.4626 59.3077 46.2627 61.3603 51.695 62.0361C53.7155 62.2868 53.7484 61.8595 53.0672 60.2144C50.8923 54.9609 49.5866 49.7534 52 44.0237Z" fill="#FFE9BF" fill-opacity="0.24" style="mix-blend-mode:saturation"/>
<path d="M75.7832 41.1276C73.1458 41.8615 70.7675 43.1534 68.5796 44.7642C65.6509 46.92 63.2406 49.6155 60.662 52.7536C61.4662 50.5458 62.6741 49.1094 63.8285 47.6363C66.1601 44.6617 68.861 42.0985 72.1359 40.1827C73.9691 39.1102 75.9545 38.3793 77.9956 37.8136C78.2073 37.7548 78.6263 37.4421 78.7341 38.176C79.0865 40.5741 77.3404 40.6941 75.7832 41.1276ZM77.4039 43.6427C72.3156 44.9117 67.9757 47.491 64.1962 51.068C63.5464 51.6826 62.957 52.3607 62.34 53.0097C64.703 49.7607 67.5132 46.9926 70.9082 44.8758C73.0296 43.5532 75.3069 42.5487 77.764 42.0006C77.8618 41.9792 78.0896 42.1267 78.0881 42.1313C77.8886 42.6527 78.108 43.4669 77.4039 43.6427ZM77.0576 45.6402C76.6188 48.6714 73.7857 48.1683 71.9303 48.968C69.1086 50.1842 66.4223 51.5664 64.0043 53.4592C63.4974 53.856 63.0044 54.2688 62.1673 54.9476C64.6816 52.3737 67.0064 50.224 69.7011 48.4994C71.8928 47.0966 74.2206 46.0011 76.7227 45.2825C76.8412 45.2488 76.9765 45.2771 77.1035 45.2764C77.0882 45.3979 77.0752 45.5195 77.0576 45.6402ZM74.9087 49.8479C73.9967 52.2208 71.8416 52.5809 69.7409 53.145C67.1699 53.8361 64.781 55.0004 62.2537 56.5591C66.1264 53.2972 70.0673 50.7882 74.7145 49.5497C74.8039 49.526 74.9064 49.5513 75.0027 49.5536C74.9721 49.6522 74.9461 49.7523 74.9087 49.8479ZM58.916 60.5925C59.8402 58.9886 69.3319 54.0937 71.3485 54.187C67.7976 57.5438 63.6977 59.656 58.916 60.5925ZM57.2533 40.5405C56.5071 35.3933 58.007 31.0106 61.9616 27.5139C65.125 24.716 68.8678 22.9806 72.7796 21.5824C73.7092 21.2499 73.9278 22.3974 74.2956 22.9546C74.492 23.2528 73.817 23.2505 73.5487 23.3552C68.6966 25.2488 63.9599 27.3702 61.1016 32.0335C58.4978 36.2809 58.1584 40.8608 59.6246 45.6181C60.448 48.2861 60.3486 50.9747 59.2745 53.6351C60.9273 48.8847 57.887 44.9079 57.2533 40.5405ZM76.4468 26.5851C76.592 26.978 76.008 26.8817 75.7442 26.9528C69.7753 28.5743 64.885 31.8278 61.0114 36.631C60.7599 36.9429 60.4854 37.2364 60.2217 37.5384C60.3073 37.0988 60.3601 36.6509 60.4816 36.222C62.0144 30.8195 66.128 28.0017 70.9174 25.8879C72.2628 25.2947 73.6603 24.8207 75.1999 24.2282C75.638 25.0286 76.1448 25.7687 76.4468 26.5851ZM77.5767 29.5444C77.6485 30.1812 76.8252 30.0367 76.4139 30.1491C72.1841 31.3072 68.4489 33.3208 65.2099 36.2916C63.3782 37.9719 61.7476 39.8119 60.2958 41.8202C60.2485 41.8867 60.1483 41.915 60.0726 41.9609C60.0046 41.717 59.9365 41.4724 59.8303 41.0909C60.4457 39.4503 61.6497 38.1056 62.7811 36.7411C65.9277 32.9455 69.9006 30.3364 74.5708 28.7791C75.2404 28.5559 75.9193 28.3097 76.6127 28.218C77.5958 28.0888 77.5239 29.0757 77.5767 29.5444ZM78.757 35.8176C78.7547 36.5851 78.0781 36.4246 77.6737 36.5186C73.3025 37.53 69.6193 39.763 66.3566 42.7712C64.5402 44.4469 63.0059 46.3596 61.5786 48.3663C61.5228 48.4458 61.3974 48.4757 61.3049 48.5292C61.3072 48.3564 61.2468 48.1469 61.3218 48.0154C63.934 43.4355 67.2173 39.4939 71.9089 36.8802C73.9026 35.7694 76.037 35.0501 78.228 34.4683C78.6377 34.359 78.7539 34.6579 78.757 35.8176ZM78.1974 31.4448C78.121 32.0258 79.2279 32.8759 78.0223 33.1664C72.0694 34.6006 67.2303 37.7448 63.4118 42.486C62.697 43.3728 62.1092 44.3621 61.4502 45.2947C61.2828 45.5317 61.0664 45.735 60.873 45.9537C60.7675 45.6915 60.6498 45.4338 60.5588 45.167C60.4549 44.859 60.3746 44.5432 60.24 44.0784C61.1077 42.9363 61.9876 41.6956 62.9524 40.5229C66.7923 35.8543 71.5695 32.629 77.4987 31.2109C77.7808 31.1436 78.2631 30.9464 78.1974 31.4448ZM73.8048 20.4984C72.7704 19.3479 71.8064 18.153 70.5802 17.173C69.38 16.2143 68.1401 15.3902 66.8657 14.6755C66.8496 15.099 66.8145 15.5225 66.7449 15.9399C68.0116 16.6761 69.2248 17.53 70.3784 18.5154C70.9839 19.0329 71.4945 19.6613 72.0488 20.2377C71.5672 20.4778 71.1031 20.766 70.6009 20.9487C66.5438 22.4241 62.8744 24.6067 59.9312 27.7188C56.4169 31.4334 55.4178 36.0324 56.1715 41.0618C56.5507 43.5938 57.9948 45.7962 58.3487 48.3075C59.0138 53.0242 57.1715 57.2357 55.5026 61.4663C55.3146 61.9425 55.3008 62.1604 55.9002 62.1252C61.334 61.8072 66.1922 59.9893 70.4166 56.5431C76.4024 51.6597 79.5773 45.2955 79.8525 37.637C80.0833 31.2048 78.1943 25.3826 73.8048 20.4984Z" fill="url(#paint1_linear_2020_346)"/>
<path d="M75.7832 41.1276C73.1458 41.8615 70.7675 43.1534 68.5796 44.7642C65.6509 46.92 63.2406 49.6155 60.662 52.7536C61.4662 50.5458 62.6741 49.1094 63.8285 47.6363C66.1601 44.6617 68.861 42.0985 72.1359 40.1827C73.9691 39.1102 75.9545 38.3793 77.9956 37.8136C78.2073 37.7548 78.6263 37.4421 78.7341 38.176C79.0865 40.5741 77.3404 40.6941 75.7832 41.1276ZM77.4039 43.6427C72.3156 44.9117 67.9757 47.491 64.1962 51.068C63.5464 51.6826 62.957 52.3607 62.34 53.0097C64.703 49.7607 67.5132 46.9926 70.9082 44.8758C73.0296 43.5532 75.3069 42.5487 77.764 42.0006C77.8618 41.9792 78.0896 42.1267 78.0881 42.1313C77.8886 42.6527 78.108 43.4669 77.4039 43.6427ZM77.0576 45.6402C76.6188 48.6714 73.7857 48.1683 71.9303 48.968C69.1086 50.1842 66.4223 51.5664 64.0043 53.4592C63.4974 53.856 63.0044 54.2688 62.1673 54.9476C64.6816 52.3737 67.0064 50.224 69.7011 48.4994C71.8928 47.0966 74.2206 46.0011 76.7227 45.2825C76.8412 45.2488 76.9765 45.2771 77.1035 45.2764C77.0882 45.3979 77.0752 45.5195 77.0576 45.6402ZM74.9087 49.8479C73.9967 52.2208 71.8416 52.5809 69.7409 53.145C67.1699 53.8361 64.781 55.0004 62.2537 56.5591C66.1264 53.2972 70.0673 50.7882 74.7145 49.5497C74.8039 49.526 74.9064 49.5513 75.0027 49.5536C74.9721 49.6522 74.9461 49.7523 74.9087 49.8479ZM58.916 60.5925C59.8402 58.9886 69.3319 54.0937 71.3485 54.187C67.7976 57.5438 63.6977 59.656 58.916 60.5925ZM57.2533 40.5405C56.5071 35.3933 58.007 31.0106 61.9616 27.5139C65.125 24.716 68.8678 22.9806 72.7796 21.5824C73.7092 21.2499 73.9278 22.3974 74.2956 22.9546C74.492 23.2528 73.817 23.2505 73.5487 23.3552C68.6966 25.2488 63.9599 27.3702 61.1016 32.0335C58.4978 36.2809 58.1584 40.8608 59.6246 45.6181C60.448 48.2861 60.3486 50.9747 59.2745 53.6351C60.9273 48.8847 57.887 44.9079 57.2533 40.5405ZM76.4468 26.5851C76.592 26.978 76.008 26.8817 75.7442 26.9528C69.7753 28.5743 64.885 31.8278 61.0114 36.631C60.7599 36.9429 60.4854 37.2364 60.2217 37.5384C60.3073 37.0988 60.3601 36.6509 60.4816 36.222C62.0144 30.8195 66.128 28.0017 70.9174 25.8879C72.2628 25.2947 73.6603 24.8207 75.1999 24.2282C75.638 25.0286 76.1448 25.7687 76.4468 26.5851ZM77.5767 29.5444C77.6485 30.1812 76.8252 30.0367 76.4139 30.1491C72.1841 31.3072 68.4489 33.3208 65.2099 36.2916C63.3782 37.9719 61.7476 39.8119 60.2958 41.8202C60.2485 41.8867 60.1483 41.915 60.0726 41.9609C60.0046 41.717 59.9365 41.4724 59.8303 41.0909C60.4457 39.4503 61.6497 38.1056 62.7811 36.7411C65.9277 32.9455 69.9006 30.3364 74.5708 28.7791C75.2404 28.5559 75.9193 28.3097 76.6127 28.218C77.5958 28.0888 77.5239 29.0757 77.5767 29.5444ZM78.757 35.8176C78.7547 36.5851 78.0781 36.4246 77.6737 36.5186C73.3025 37.53 69.6193 39.763 66.3566 42.7712C64.5402 44.4469 63.0059 46.3596 61.5786 48.3663C61.5228 48.4458 61.3974 48.4757 61.3049 48.5292C61.3072 48.3564 61.2468 48.1469 61.3218 48.0154C63.934 43.4355 67.2173 39.4939 71.9089 36.8802C73.9026 35.7694 76.037 35.0501 78.228 34.4683C78.6377 34.359 78.7539 34.6579 78.757 35.8176ZM78.1974 31.4448C78.121 32.0258 79.2279 32.8759 78.0223 33.1664C72.0694 34.6006 67.2303 37.7448 63.4118 42.486C62.697 43.3728 62.1092 44.3621 61.4502 45.2947C61.2828 45.5317 61.0664 45.735 60.873 45.9537C60.7675 45.6915 60.6498 45.4338 60.5588 45.167C60.4549 44.859 60.3746 44.5432 60.24 44.0784C61.1077 42.9363 61.9876 41.6956 62.9524 40.5229C66.7923 35.8543 71.5695 32.629 77.4987 31.2109C77.7808 31.1436 78.2631 30.9464 78.1974 31.4448ZM73.8048 20.4984C72.7704 19.3479 71.8064 18.153 70.5802 17.173C69.38 16.2143 68.1401 15.3902 66.8657 14.6755C66.8496 15.099 66.8145 15.5225 66.7449 15.9399C68.0116 16.6761 69.2248 17.53 70.3784 18.5154C70.9839 19.0329 71.4945 19.6613 72.0488 20.2377C71.5672 20.4778 71.1031 20.766 70.6009 20.9487C66.5438 22.4241 62.8744 24.6067 59.9312 27.7188C56.4169 31.4334 55.4178 36.0324 56.1715 41.0618C56.5507 43.5938 57.9948 45.7962 58.3487 48.3075C59.0138 53.0242 57.1715 57.2357 55.5026 61.4663C55.3146 61.9425 55.3008 62.1604 55.9002 62.1252C61.334 61.8072 66.1922 59.9893 70.4166 56.5431C76.4024 51.6597 79.5773 45.2955 79.8525 37.637C80.0833 31.2048 78.1943 25.3826 73.8048 20.4984Z" fill="#FFE9BF" fill-opacity="0.24" style="mix-blend-mode:saturation"/>
<path d="M59.5936 18.8316C59.7786 18.6764 59.9827 18.5258 60.18 18.3806L60.2144 18.3553C60.4384 18.191 60.6776 17.9991 60.9139 17.7904C61.0928 18.4096 61.1952 18.9883 61.1952 19.5005C61.1952 23.5285 57.687 24.9588 55.9701 25.4182C56.1749 22.936 57.4195 20.661 59.5936 18.8316ZM47.8453 19.5005C47.8453 18.9875 47.9477 18.4096 48.1243 17.7942C48.3368 17.9815 48.5646 18.1642 48.8253 18.3553L48.8597 18.3806C49.057 18.5258 49.2611 18.6764 49.4461 18.8316C51.621 20.661 52.8663 22.9368 53.0697 25.4182C51.3527 24.9596 47.8453 23.5292 47.8453 19.5005ZM54.5894 6.529C54.5657 6.51906 54.5443 6.5397 54.5199 6.54276C54.4954 6.5397 54.4748 6.51906 54.4503 6.529C54.4304 6.53664 54.4312 6.56187 54.4174 6.57716L54.1139 6.88371C53.6713 7.33322 49.8237 11.3016 47.8407 15.3624C47.5418 14.5597 47.3927 13.5766 47.3927 12.2816C47.3927 7.91192 53.1216 2.7273 54.5199 1.52708C55.9181 2.7273 61.6478 7.91345 61.6478 12.2816C61.6478 13.5759 61.4979 14.5582 61.1983 15.3624C59.1602 11.19 55.1016 7.06107 54.9258 6.88371L54.6215 6.57716C54.6078 6.56187 54.6093 6.53664 54.5894 6.529ZM46.2934 13.7433C46.34 14.2035 46.4088 14.614 46.5029 14.9978C46.5946 15.3777 46.7162 15.7408 46.8629 16.0772C46.9493 16.2721 47.0678 16.526 47.2245 16.7645C47.2268 16.7683 47.2299 16.7713 47.2322 16.7744C46.866 17.7789 46.6772 18.6955 46.6772 19.5005C46.6772 25.5627 53.5306 26.6834 53.601 26.6941L54.1139 26.7729C54.1208 26.7744 54.1284 26.7744 54.1346 26.7744C54.1437 26.7744 54.1483 26.7637 54.1567 26.7614C54.1659 26.7599 54.1758 26.7599 54.185 26.7568C54.1927 26.7538 54.1911 26.7415 54.198 26.737C54.2187 26.7247 54.2469 26.724 54.2584 26.701C54.2668 26.6865 54.2515 26.672 54.2538 26.6567C54.2576 26.6429 54.2768 26.6383 54.2768 26.6238L54.2752 26.1261C54.2676 23.027 52.8625 20.2099 50.2113 17.9807C49.9835 17.7881 49.7427 17.6123 49.508 17.4395C49.3199 17.3019 49.1311 17.1635 48.953 17.0144C48.8643 16.9403 48.7764 16.8631 48.6938 16.7828C48.6541 16.7431 48.6151 16.7025 48.5769 16.6613C48.5639 16.6467 48.5524 16.6269 48.5394 16.6123C49.998 13.1508 53.3464 9.38352 54.5199 8.12444C55.6925 9.38123 59.0394 13.1447 60.5011 16.6116C60.4881 16.6269 60.4774 16.646 60.4644 16.6605C60.4254 16.7025 60.3864 16.7431 60.3459 16.7828C60.2641 16.8631 60.1777 16.9403 60.0867 17.0144C59.9086 17.1635 59.7198 17.3019 59.5088 17.4563C59.2664 17.6344 59.047 17.7965 58.8284 17.9807C56.1765 20.2107 54.7721 23.0278 54.7645 26.1261L54.763 26.6238C54.763 26.6383 54.7813 26.6429 54.7859 26.6567C54.7882 26.672 54.7729 26.6865 54.7805 26.701C54.7928 26.724 54.8203 26.7247 54.8417 26.737C54.8486 26.7415 54.847 26.7538 54.8547 26.7568C54.8639 26.7599 54.8738 26.7599 54.883 26.7614C54.8914 26.7637 54.896 26.7744 54.9044 26.7744C54.9113 26.7744 54.9189 26.7744 54.9258 26.7729L55.4387 26.6941C55.5083 26.6834 62.3625 25.5627 62.3625 19.5005C62.3625 18.6978 62.1737 17.7797 61.8083 16.7752C61.8106 16.7713 61.8136 16.7691 61.8159 16.7652C61.975 16.5229 62.0927 16.2699 62.1768 16.0772C62.3228 15.7462 62.4443 15.3831 62.5368 14.9985C62.6309 14.614 62.6997 14.2035 62.7463 13.7433C62.7929 13.29 62.8143 12.8114 62.8143 12.2816C62.8143 9.93165 61.4689 7.19867 58.8123 4.15915C56.8408 1.90091 54.8944 0.346745 54.8761 0.331455L54.6215 0.128107C54.6101 0.115875 54.6116 0.0952339 54.5963 0.0875893C54.5718 0.0753574 54.5466 0.0929413 54.5199 0.0967636C54.4931 0.0929413 54.4679 0.0753574 54.4434 0.0875893C54.4281 0.0952339 54.4296 0.115875 54.4182 0.128107L54.1628 0.332983C53.9564 0.498108 52.1064 2.00717 50.2266 4.15915C47.5708 7.2002 46.2246 9.93241 46.2246 12.2816C46.2246 12.8114 46.2468 13.29 46.2934 13.7433Z" fill="url(#paint2_linear_2020_346)"/>
<path d="M59.5936 18.8316C59.7786 18.6764 59.9827 18.5258 60.18 18.3806L60.2144 18.3553C60.4384 18.191 60.6776 17.9991 60.9139 17.7904C61.0928 18.4096 61.1952 18.9883 61.1952 19.5005C61.1952 23.5285 57.687 24.9588 55.9701 25.4182C56.1749 22.936 57.4195 20.661 59.5936 18.8316ZM47.8453 19.5005C47.8453 18.9875 47.9477 18.4096 48.1243 17.7942C48.3368 17.9815 48.5646 18.1642 48.8253 18.3553L48.8597 18.3806C49.057 18.5258 49.2611 18.6764 49.4461 18.8316C51.621 20.661 52.8663 22.9368 53.0697 25.4182C51.3527 24.9596 47.8453 23.5292 47.8453 19.5005ZM54.5894 6.529C54.5657 6.51906 54.5443 6.5397 54.5199 6.54276C54.4954 6.5397 54.4748 6.51906 54.4503 6.529C54.4304 6.53664 54.4312 6.56187 54.4174 6.57716L54.1139 6.88371C53.6713 7.33322 49.8237 11.3016 47.8407 15.3624C47.5418 14.5597 47.3927 13.5766 47.3927 12.2816C47.3927 7.91192 53.1216 2.7273 54.5199 1.52708C55.9181 2.7273 61.6478 7.91345 61.6478 12.2816C61.6478 13.5759 61.4979 14.5582 61.1983 15.3624C59.1602 11.19 55.1016 7.06107 54.9258 6.88371L54.6215 6.57716C54.6078 6.56187 54.6093 6.53664 54.5894 6.529ZM46.2934 13.7433C46.34 14.2035 46.4088 14.614 46.5029 14.9978C46.5946 15.3777 46.7162 15.7408 46.8629 16.0772C46.9493 16.2721 47.0678 16.526 47.2245 16.7645C47.2268 16.7683 47.2299 16.7713 47.2322 16.7744C46.866 17.7789 46.6772 18.6955 46.6772 19.5005C46.6772 25.5627 53.5306 26.6834 53.601 26.6941L54.1139 26.7729C54.1208 26.7744 54.1284 26.7744 54.1346 26.7744C54.1437 26.7744 54.1483 26.7637 54.1567 26.7614C54.1659 26.7599 54.1758 26.7599 54.185 26.7568C54.1927 26.7538 54.1911 26.7415 54.198 26.737C54.2187 26.7247 54.2469 26.724 54.2584 26.701C54.2668 26.6865 54.2515 26.672 54.2538 26.6567C54.2576 26.6429 54.2768 26.6383 54.2768 26.6238L54.2752 26.1261C54.2676 23.027 52.8625 20.2099 50.2113 17.9807C49.9835 17.7881 49.7427 17.6123 49.508 17.4395C49.3199 17.3019 49.1311 17.1635 48.953 17.0144C48.8643 16.9403 48.7764 16.8631 48.6938 16.7828C48.6541 16.7431 48.6151 16.7025 48.5769 16.6613C48.5639 16.6467 48.5524 16.6269 48.5394 16.6123C49.998 13.1508 53.3464 9.38352 54.5199 8.12444C55.6925 9.38123 59.0394 13.1447 60.5011 16.6116C60.4881 16.6269 60.4774 16.646 60.4644 16.6605C60.4254 16.7025 60.3864 16.7431 60.3459 16.7828C60.2641 16.8631 60.1777 16.9403 60.0867 17.0144C59.9086 17.1635 59.7198 17.3019 59.5088 17.4563C59.2664 17.6344 59.047 17.7965 58.8284 17.9807C56.1765 20.2107 54.7721 23.0278 54.7645 26.1261L54.763 26.6238C54.763 26.6383 54.7813 26.6429 54.7859 26.6567C54.7882 26.672 54.7729 26.6865 54.7805 26.701C54.7928 26.724 54.8203 26.7247 54.8417 26.737C54.8486 26.7415 54.847 26.7538 54.8547 26.7568C54.8639 26.7599 54.8738 26.7599 54.883 26.7614C54.8914 26.7637 54.896 26.7744 54.9044 26.7744C54.9113 26.7744 54.9189 26.7744 54.9258 26.7729L55.4387 26.6941C55.5083 26.6834 62.3625 25.5627 62.3625 19.5005C62.3625 18.6978 62.1737 17.7797 61.8083 16.7752C61.8106 16.7713 61.8136 16.7691 61.8159 16.7652C61.975 16.5229 62.0927 16.2699 62.1768 16.0772C62.3228 15.7462 62.4443 15.3831 62.5368 14.9985C62.6309 14.614 62.6997 14.2035 62.7463 13.7433C62.7929 13.29 62.8143 12.8114 62.8143 12.2816C62.8143 9.93165 61.4689 7.19867 58.8123 4.15915C56.8408 1.90091 54.8944 0.346745 54.8761 0.331455L54.6215 0.128107C54.6101 0.115875 54.6116 0.0952339 54.5963 0.0875893C54.5718 0.0753574 54.5466 0.0929413 54.5199 0.0967636C54.4931 0.0929413 54.4679 0.0753574 54.4434 0.0875893C54.4281 0.0952339 54.4296 0.115875 54.4182 0.128107L54.1628 0.332983C53.9564 0.498108 52.1064 2.00717 50.2266 4.15915C47.5708 7.2002 46.2246 9.93241 46.2246 12.2816C46.2246 12.8114 46.2468 13.29 46.2934 13.7433Z" fill="#FFE9BF" fill-opacity="0.24" style="mix-blend-mode:saturation"/>
<path d="M66.3177 17.4614C66.3177 15.6534 65.8797 12.1223 62.9464 8.78924C62.8998 8.7365 62.821 8.72579 62.7637 8.76325C62.7048 8.80071 62.6819 8.87563 62.711 8.93984C63.0328 9.67373 63.253 10.5032 63.3653 11.4068C63.3676 11.4274 63.3753 11.4465 63.3867 11.4641C64.5778 13.3646 65.1091 15.2138 65.1091 17.4614C65.1091 24.6007 58.9299 27.8169 54.5319 27.8245C50.1339 27.8169 43.9547 24.6007 43.9547 17.4614C43.9547 15.2138 44.486 13.3646 45.6771 11.4641C45.6885 11.4465 45.6962 11.4274 45.6985 11.4068C45.8108 10.5032 46.031 9.67373 46.3529 8.93984C46.3819 8.87563 46.359 8.80071 46.3001 8.76325C46.2428 8.72656 46.164 8.73726 46.1174 8.78924C43.1841 12.1223 42.7461 15.6534 42.7461 17.4614C42.7461 25.3966 49.6125 28.9743 54.5113 28.9926C54.5128 28.9926 54.5136 28.9941 54.5151 28.9941C54.5204 28.9941 54.5266 28.9934 54.5319 28.9934C54.5373 28.9934 54.5434 28.9941 54.5487 28.9941C54.5503 28.9941 54.551 28.9926 54.5525 28.9926C59.4513 28.9743 66.3177 25.3966 66.3177 17.4614Z" fill="url(#paint3_linear_2020_346)"/>
<path d="M66.3177 17.4614C66.3177 15.6534 65.8797 12.1223 62.9464 8.78924C62.8998 8.7365 62.821 8.72579 62.7637 8.76325C62.7048 8.80071 62.6819 8.87563 62.711 8.93984C63.0328 9.67373 63.253 10.5032 63.3653 11.4068C63.3676 11.4274 63.3753 11.4465 63.3867 11.4641C64.5778 13.3646 65.1091 15.2138 65.1091 17.4614C65.1091 24.6007 58.9299 27.8169 54.5319 27.8245C50.1339 27.8169 43.9547 24.6007 43.9547 17.4614C43.9547 15.2138 44.486 13.3646 45.6771 11.4641C45.6885 11.4465 45.6962 11.4274 45.6985 11.4068C45.8108 10.5032 46.031 9.67373 46.3529 8.93984C46.3819 8.87563 46.359 8.80071 46.3001 8.76325C46.2428 8.72656 46.164 8.73726 46.1174 8.78924C43.1841 12.1223 42.7461 15.6534 42.7461 17.4614C42.7461 25.3966 49.6125 28.9743 54.5113 28.9926C54.5128 28.9926 54.5136 28.9941 54.5151 28.9941C54.5204 28.9941 54.5266 28.9934 54.5319 28.9934C54.5373 28.9934 54.5434 28.9941 54.5487 28.9941C54.5503 28.9941 54.551 28.9926 54.5525 28.9926C59.4513 28.9743 66.3177 25.3966 66.3177 17.4614Z" fill="#FFE9BF" fill-opacity="0.24" style="mix-blend-mode:saturation"/>
<path d="M0.396439 84.8622L0.438248 85.6984C0.562929 88.1054 2.3973 89.6554 4.58556 89.6554C6.66929 89.6554 8.02435 88.5743 8.02435 86.5757C8.02435 82.8435 0.480057 82.8435 0.480057 78.3154C0.480057 76.3369 2.29278 75.0117 5.00215 75.0117C6.37737 75.0117 7.33599 75.4395 8.04525 75.9091C8.21174 76.0107 8.37823 76.3168 8.42004 76.378L8.56637 76.3369C8.52456 76.1943 8.50366 75.9704 8.48276 75.6844L8.42004 74.6034H8.64925L8.89935 79.4174L8.48276 79.4375L8.44095 78.5804C8.33642 76.9693 7.27403 75.3783 5.00215 75.3783C3.14762 75.3783 2.08448 76.2556 2.08448 77.8667C2.08448 81.4765 9.73329 81.4361 9.73329 86.2285C9.73329 88.6766 7.79515 90.0018 4.62662 90.0018C3.20959 90.0018 2.1681 89.6352 1.00043 88.9006C0.833941 88.7983 0.500215 88.4108 0.438248 88.2279L0.333726 88.248C0.417344 88.4519 0.417344 88.8804 0.438248 89.1245L0.500215 90.4102H0.291917L0 84.8421L0.396439 84.8622Z" fill="url(#paint4_linear_2020_346)"/>
<path d="M0.396439 84.8622L0.438248 85.6984C0.562929 88.1054 2.3973 89.6554 4.58556 89.6554C6.66929 89.6554 8.02435 88.5743 8.02435 86.5757C8.02435 82.8435 0.480057 82.8435 0.480057 78.3154C0.480057 76.3369 2.29278 75.0117 5.00215 75.0117C6.37737 75.0117 7.33599 75.4395 8.04525 75.9091C8.21174 76.0107 8.37823 76.3168 8.42004 76.378L8.56637 76.3369C8.52456 76.1943 8.50366 75.9704 8.48276 75.6844L8.42004 74.6034H8.64925L8.89935 79.4174L8.48276 79.4375L8.44095 78.5804C8.33642 76.9693 7.27403 75.3783 5.00215 75.3783C3.14762 75.3783 2.08448 76.2556 2.08448 77.8667C2.08448 81.4765 9.73329 81.4361 9.73329 86.2285C9.73329 88.6766 7.79515 90.0018 4.62662 90.0018C3.20959 90.0018 2.1681 89.6352 1.00043 88.9006C0.833941 88.7983 0.500215 88.4108 0.438248 88.2279L0.333726 88.248C0.417344 88.4519 0.417344 88.8804 0.438248 89.1245L0.500215 90.4102H0.291917L0 84.8421L0.396439 84.8622Z" fill="#FFE9BF" fill-opacity="0.24" style="mix-blend-mode:saturation"/>
<path d="M25.2772 85.4974L21.38 76.9922C21.2135 76.666 21.1926 76.4009 21.1926 76.177H20.9843C20.9843 76.2994 20.9216 76.5644 20.7133 76.9922L16.5443 85.4974H25.2772ZM13.0645 89.6581H13.4191C14.0022 89.6581 14.3359 89.087 14.6898 88.3934L21.1299 75.1773H22.9015V75.4222C22.9015 75.8298 22.9851 76.3606 23.1098 76.6048L28.5077 88.3934C28.9661 89.3722 29.0497 89.6581 29.862 89.6581H30.0501V89.8418H25.6729V89.6581H27.4236V89.6171C27.1115 89.5155 26.8816 89.0049 26.7151 88.6585L25.4437 85.8647H16.3577L15.1273 88.3934C15.0653 88.5569 15.0026 88.7197 15.0026 88.8623C15.0026 89.3319 15.4192 89.6581 16.1068 89.6581H17.2327V89.8418H13.0645V89.6581Z" fill="url(#paint5_linear_2020_346)"/>
<path d="M25.2772 85.4974L21.38 76.9922C21.2135 76.666 21.1926 76.4009 21.1926 76.177H20.9843C20.9843 76.2994 20.9216 76.5644 20.7133 76.9922L16.5443 85.4974H25.2772ZM13.0645 89.6581H13.4191C14.0022 89.6581 14.3359 89.087 14.6898 88.3934L21.1299 75.1773H22.9015V75.4222C22.9015 75.8298 22.9851 76.3606 23.1098 76.6048L28.5077 88.3934C28.9661 89.3722 29.0497 89.6581 29.862 89.6581H30.0501V89.8418H25.6729V89.6581H27.4236V89.6171C27.1115 89.5155 26.8816 89.0049 26.7151 88.6585L25.4437 85.8647H16.3577L15.1273 88.3934C15.0653 88.5569 15.0026 88.7197 15.0026 88.8623C15.0026 89.3319 15.4192 89.6581 16.1068 89.6581H17.2327V89.8418H13.0645V89.6581Z" fill="#FFE9BF" fill-opacity="0.24" style="mix-blend-mode:saturation"/>
<path d="M33.5137 82.4323C33.5137 77.9662 36.7233 74.9881 41.5164 74.9881C43.0588 74.9881 44.5386 75.4166 45.7264 76.2931C45.8309 76.3954 45.9138 76.5589 45.9765 76.7015L46.1221 76.6604C46.081 76.4977 46.0594 76.273 46.0594 76.0691L46.0183 74.5805H46.2266L46.4349 80.4748L46.0183 80.4949L45.9556 78.5978C45.8309 76.7627 43.6008 75.3345 41.3499 75.3345C37.5774 75.3345 35.5563 77.7004 35.5563 82.1061C35.5563 86.9806 37.6819 89.6115 41.6 89.6115C43.7673 89.6115 45.8929 88.5514 46.7059 86.838L47.1016 86.9806C46.2057 89.0202 43.9756 89.999 41.5791 89.999C36.7651 89.999 33.5346 86.9806 33.5346 82.4525L33.5137 82.4323Z" fill="url(#paint6_linear_2020_346)"/>
<path d="M33.5137 82.4323C33.5137 77.9662 36.7233 74.9881 41.5164 74.9881C43.0588 74.9881 44.5386 75.4166 45.7264 76.2931C45.8309 76.3954 45.9138 76.5589 45.9765 76.7015L46.1221 76.6604C46.081 76.4977 46.0594 76.273 46.0594 76.0691L46.0183 74.5805H46.2266L46.4349 80.4748L46.0183 80.4949L45.9556 78.5978C45.8309 76.7627 43.6008 75.3345 41.3499 75.3345C37.5774 75.3345 35.5563 77.7004 35.5563 82.1061C35.5563 86.9806 37.6819 89.6115 41.6 89.6115C43.7673 89.6115 45.8929 88.5514 46.7059 86.838L47.1016 86.9806C46.2057 89.0202 43.9756 89.999 41.5791 89.999C36.7651 89.999 33.5346 86.9806 33.5346 82.4525L33.5137 82.4323Z" fill="#FFE9BF" fill-opacity="0.24" style="mix-blend-mode:saturation"/>
<path fill-rule="evenodd" clip-rule="evenodd" d="M52.1195 89.6766H51.3073L51.2236 89.8394H57.601V89.6557H56.2676C55.1626 89.6557 55.0171 89.5542 55.0171 88.5754V76.624C55.0171 76.1544 54.9125 75.808 54.6415 75.5631V75.543H57.0172C59.581 75.543 61.3108 77.2153 61.3108 79.7037C61.3108 82.2115 59.581 83.8846 57.0172 83.8846H55.9757V84.231H56.2459C57.0309 84.231 57.685 84.9168 58.5372 85.8102C58.7031 85.9842 58.8765 86.1659 59.0598 86.3521C62.3112 89.6766 66.169 90.1371 68.9403 90.1371L69.3344 90.1455C64.124 90.1455 60.5187 85.6585 60.5187 85.6585C59.7474 84.9246 59.0389 84.3535 58.0803 84.2721V84.1496L58.5387 84.1287C61.2899 83.9048 63.3945 82.2115 63.3945 79.7239C63.3945 77.0115 60.9562 75.1958 57.2882 75.1958H51.3073V75.3794H52.1195C53.2245 75.3794 53.3283 75.4817 53.3283 76.4605V88.5956C53.3283 89.5744 53.2245 89.6766 52.1195 89.6766Z" fill="url(#paint7_linear_2020_346)"/>
<path fill-rule="evenodd" clip-rule="evenodd" d="M52.1195 89.6766H51.3073L51.2236 89.8394H57.601V89.6557H56.2676C55.1626 89.6557 55.0171 89.5542 55.0171 88.5754V76.624C55.0171 76.1544 54.9125 75.808 54.6415 75.5631V75.543H57.0172C59.581 75.543 61.3108 77.2153 61.3108 79.7037C61.3108 82.2115 59.581 83.8846 57.0172 83.8846H55.9757V84.231H56.2459C57.0309 84.231 57.685 84.9168 58.5372 85.8102C58.7031 85.9842 58.8765 86.1659 59.0598 86.3521C62.3112 89.6766 66.169 90.1371 68.9403 90.1371L69.3344 90.1455C64.124 90.1455 60.5187 85.6585 60.5187 85.6585C59.7474 84.9246 59.0389 84.3535 58.0803 84.2721V84.1496L58.5387 84.1287C61.2899 83.9048 63.3945 82.2115 63.3945 79.7239C63.3945 77.0115 60.9562 75.1958 57.2882 75.1958H51.3073V75.3794H52.1195C53.2245 75.3794 53.3283 75.4817 53.3283 76.4605V88.5956C53.3283 89.5744 53.2245 89.6766 52.1195 89.6766Z" fill="#FFE9BF" fill-opacity="0.24" style="mix-blend-mode:saturation"/>
<path d="M75.6298 75.2821V75.5057H74.412C73.0669 75.5057 72.9151 75.6293 72.9151 76.8217V86.7272C72.9151 88.6394 74.1075 89.6573 76.3151 89.6573C79.2834 89.6573 80.9066 88.3168 80.9066 85.8338V77.2689C80.9066 76.0765 80.653 75.5057 79.3079 75.5057H78.2937V75.2821H83.4441V75.5057H82.9869C81.6682 75.5057 81.4137 76.0765 81.4137 77.2689V85.8338C81.4137 88.614 79.6124 90.1045 76.3151 90.1045C72.9915 90.1045 70.7584 88.3913 70.7584 85.8338V76.8217C70.7584 75.6293 70.5812 75.5057 69.2361 75.5057H68.5254V75.2821H75.6298Z" fill="url(#paint8_linear_2020_346)"/>
<path d="M75.6298 75.2821V75.5057H74.412C73.0669 75.5057 72.9151 75.6293 72.9151 76.8217V86.7272C72.9151 88.6394 74.1075 89.6573 76.3151 89.6573C79.2834 89.6573 80.9066 88.3168 80.9066 85.8338V77.2689C80.9066 76.0765 80.653 75.5057 79.3079 75.5057H78.2937V75.2821H83.4441V75.5057H82.9869C81.6682 75.5057 81.4137 76.0765 81.4137 77.2689V85.8338C81.4137 88.614 79.6124 90.1045 76.3151 90.1045C72.9915 90.1045 70.7584 88.3913 70.7584 85.8338V76.8217C70.7584 75.6293 70.5812 75.5057 69.2361 75.5057H68.5254V75.2821H75.6298Z" fill="#FFE9BF" fill-opacity="0.24" style="mix-blend-mode:saturation"/>
<path d="M87.7432 89.7594H88.118C89.2849 89.7594 89.4514 89.4533 89.5357 88.311L90.1397 76.5432V76.1147C90.1397 75.6458 89.9934 75.4622 88.9937 75.4622H88.0761V75.2792H91.453L97.3928 86.9649C97.6004 87.3733 97.7467 87.7197 97.7467 87.8421H97.8505C97.8505 87.7197 98.0177 87.271 98.1633 86.9649L104.103 75.2792H107.542V75.4622H106.771C105.646 75.4622 105.479 75.7683 105.479 76.3596C105.479 76.5231 105.499 76.7067 105.499 76.9105L106.041 88.311C106.083 89.4734 106.25 89.7594 107.5 89.7594H108V89.943H102.019V89.7594H102.853C104.103 89.7594 104.27 89.4533 104.27 88.9642V88.6171L103.811 77.8692C103.79 77.5018 103.79 77.1957 103.79 76.9718H103.645C103.645 77.033 103.498 77.3794 103.29 77.8079L97.1211 90.0244L97.0584 90.167H96.9964L96.9337 90.0244L90.8482 78.0319C90.6608 77.6243 90.5981 77.2368 90.5981 77.1756H90.5145C90.5145 77.3592 90.5145 77.5018 90.4943 77.8692L89.9105 88.5768C89.9105 88.7597 89.8896 88.9232 89.8896 89.0658C89.8896 89.5555 90.077 89.7795 91.3484 89.7795H92.1615V89.9632H87.7432V89.7594Z" fill="url(#paint9_linear_2020_346)"/>
<path d="M87.7432 89.7594H88.118C89.2849 89.7594 89.4514 89.4533 89.5357 88.311L90.1397 76.5432V76.1147C90.1397 75.6458 89.9934 75.4622 88.9937 75.4622H88.0761V75.2792H91.453L97.3928 86.9649C97.6004 87.3733 97.7467 87.7197 97.7467 87.8421H97.8505C97.8505 87.7197 98.0177 87.271 98.1633 86.9649L104.103 75.2792H107.542V75.4622H106.771C105.646 75.4622 105.479 75.7683 105.479 76.3596C105.479 76.5231 105.499 76.7067 105.499 76.9105L106.041 88.311C106.083 89.4734 106.25 89.7594 107.5 89.7594H108V89.943H102.019V89.7594H102.853C104.103 89.7594 104.27 89.4533 104.27 88.9642V88.6171L103.811 77.8692C103.79 77.5018 103.79 77.1957 103.79 76.9718H103.645C103.645 77.033 103.498 77.3794 103.29 77.8079L97.1211 90.0244L97.0584 90.167H96.9964L96.9337 90.0244L90.8482 78.0319C90.6608 77.6243 90.5981 77.2368 90.5981 77.1756H90.5145C90.5145 77.3592 90.5145 77.5018 90.4943 77.8692L89.9105 88.5768C89.9105 88.7597 89.8896 88.9232 89.8896 89.0658C89.8896 89.5555 90.077 89.7795 91.3484 89.7795H92.1615V89.9632H87.7432V89.7594Z" fill="#FFE9BF" fill-opacity="0.24" style="mix-blend-mode:saturation"/>
<defs>
<linearGradient id="paint0_linear_2020_346" x1="29.2088" y1="38.3305" x2="53.5624" y2="38.3305" gradientUnits="userSpaceOnUse">
<stop offset="0.0186222" stop-color="#9A8C84"/>
<stop offset="0.4235" stop-color="#D3CCC5"/>
<stop offset="0.4999" stop-color="#DED9D1"/>
<stop offset="0.5991" stop-color="#D1CAC0"/>
<stop offset="0.7129" stop-color="#C7C0B1"/>
<stop offset="0.8064" stop-color="#C4BCAC"/>
<stop offset="0.8566" stop-color="#B8AF9E"/>
<stop offset="0.9516" stop-color="#978E78"/>
<stop offset="0.9972" stop-color="#867664"/>
</linearGradient>
<linearGradient id="paint1_linear_2020_346" x1="55.3963" y1="38.4077" x2="79.9687" y2="38.4077" gradientUnits="userSpaceOnUse">
<stop offset="0.0186222" stop-color="#9A8C84"/>
<stop offset="0.4235" stop-color="#D3CCC5"/>
<stop offset="0.4999" stop-color="#DED9D1"/>
<stop offset="0.5991" stop-color="#D1CAC0"/>
<stop offset="0.7129" stop-color="#C7C0B1"/>
<stop offset="0.8064" stop-color="#C4BCAC"/>
<stop offset="0.8566" stop-color="#B8AF9E"/>
<stop offset="0.9516" stop-color="#978E78"/>
<stop offset="0.9972" stop-color="#867664"/>
</linearGradient>
<linearGradient id="paint2_linear_2020_346" x1="46.2305" y1="13.432" x2="62.8803" y2="13.432" gradientUnits="userSpaceOnUse">
<stop offset="0.0186222" stop-color="#9A8C84"/>
<stop offset="0.4235" stop-color="#D3CCC5"/>
<stop offset="0.4999" stop-color="#DED9D1"/>
<stop offset="0.5991" stop-color="#D1CAC0"/>
<stop offset="0.7129" stop-color="#C7C0B1"/>
<stop offset="0.8064" stop-color="#C4BCAC"/>
<stop offset="0.8566" stop-color="#B8AF9E"/>
<stop offset="0.9516" stop-color="#978E78"/>
<stop offset="0.9972" stop-color="#867664"/>
</linearGradient>
<linearGradient id="paint3_linear_2020_346" x1="42.7544" y1="18.8699" x2="66.4115" y2="18.8699" gradientUnits="userSpaceOnUse">
<stop offset="0.0186222" stop-color="#9A8C84"/>
<stop offset="0.4235" stop-color="#D3CCC5"/>
<stop offset="0.4999" stop-color="#DED9D1"/>
<stop offset="0.5991" stop-color="#D1CAC0"/>
<stop offset="0.7129" stop-color="#C7C0B1"/>
<stop offset="0.8064" stop-color="#C4BCAC"/>
<stop offset="0.8566" stop-color="#B8AF9E"/>
<stop offset="0.9516" stop-color="#978E78"/>
<stop offset="0.9972" stop-color="#867664"/>
</linearGradient>
<linearGradient id="paint4_linear_2020_346" x1="0.00343821" y1="82.5086" x2="9.77201" y2="82.5086" gradientUnits="userSpaceOnUse">
<stop offset="0.0186222" stop-color="#9A8C84"/>
<stop offset="0.4235" stop-color="#D3CCC5"/>
<stop offset="0.4999" stop-color="#DED9D1"/>
<stop offset="0.5991" stop-color="#D1CAC0"/>
<stop offset="0.7129" stop-color="#C7C0B1"/>
<stop offset="0.8064" stop-color="#C4BCAC"/>
<stop offset="0.8566" stop-color="#B8AF9E"/>
<stop offset="0.9516" stop-color="#978E78"/>
<stop offset="0.9972" stop-color="#867664"/>
</linearGradient>
<linearGradient id="paint5_linear_2020_346" x1="13.0705" y1="82.5112" x2="30.1177" y2="82.5112" gradientUnits="userSpaceOnUse">
<stop offset="0.0186222" stop-color="#9A8C84"/>
<stop offset="0.4235" stop-color="#D3CCC5"/>
<stop offset="0.4999" stop-color="#DED9D1"/>
<stop offset="0.5991" stop-color="#D1CAC0"/>
<stop offset="0.7129" stop-color="#C7C0B1"/>
<stop offset="0.8064" stop-color="#C4BCAC"/>
<stop offset="0.8566" stop-color="#B8AF9E"/>
<stop offset="0.9516" stop-color="#978E78"/>
<stop offset="0.9972" stop-color="#867664"/>
</linearGradient>
<linearGradient id="paint6_linear_2020_346" x1="33.5185" y1="82.2915" x2="47.1557" y2="82.2915" gradientUnits="userSpaceOnUse">
<stop offset="0.0186222" stop-color="#9A8C84"/>
<stop offset="0.4235" stop-color="#D3CCC5"/>
<stop offset="0.4999" stop-color="#DED9D1"/>
<stop offset="0.5991" stop-color="#D1CAC0"/>
<stop offset="0.7129" stop-color="#C7C0B1"/>
<stop offset="0.8064" stop-color="#C4BCAC"/>
<stop offset="0.8566" stop-color="#B8AF9E"/>
<stop offset="0.9516" stop-color="#978E78"/>
<stop offset="0.9972" stop-color="#867664"/>
</linearGradient>
<linearGradient id="paint7_linear_2020_346" x1="51.23" y1="82.6724" x2="69.4065" y2="82.6724" gradientUnits="userSpaceOnUse">
<stop offset="0.0186222" stop-color="#9A8C84"/>
<stop offset="0.4235" stop-color="#D3CCC5"/>
<stop offset="0.4999" stop-color="#DED9D1"/>
<stop offset="0.5991" stop-color="#D1CAC0"/>
<stop offset="0.7129" stop-color="#C7C0B1"/>
<stop offset="0.8064" stop-color="#C4BCAC"/>
<stop offset="0.8566" stop-color="#B8AF9E"/>
<stop offset="0.9516" stop-color="#978E78"/>
<stop offset="0.9972" stop-color="#867664"/>
</linearGradient>
<linearGradient id="paint8_linear_2020_346" x1="68.5307" y1="82.695" x2="83.5034" y2="82.695" gradientUnits="userSpaceOnUse">
<stop offset="0.0186222" stop-color="#9A8C84"/>
<stop offset="0.4235" stop-color="#D3CCC5"/>
<stop offset="0.4999" stop-color="#DED9D1"/>
<stop offset="0.5991" stop-color="#D1CAC0"/>
<stop offset="0.7129" stop-color="#C7C0B1"/>
<stop offset="0.8064" stop-color="#C4BCAC"/>
<stop offset="0.8566" stop-color="#B8AF9E"/>
<stop offset="0.9516" stop-color="#978E78"/>
<stop offset="0.9972" stop-color="#867664"/>
</linearGradient>
<linearGradient id="paint9_linear_2020_346" x1="87.7503" y1="82.7249" x2="108.081" y2="82.7249" gradientUnits="userSpaceOnUse">
<stop offset="0.0186222" stop-color="#9A8C84"/>
<stop offset="0.4235" stop-color="#D3CCC5"/>
<stop offset="0.4999" stop-color="#DED9D1"/>
<stop offset="0.5991" stop-color="#D1CAC0"/>
<stop offset="0.7129" stop-color="#C7C0B1"/>
<stop offset="0.8064" stop-color="#C4BCAC"/>
<stop offset="0.8566" stop-color="#B8AF9E"/>
<stop offset="0.9516" stop-color="#978E78"/>
<stop offset="0.9972" stop-color="#867664"/>
</linearGradient>
</defs>
</svg>
