<svg width="25" height="22" viewBox="0 0 25 22" fill="none" xmlns="http://www.w3.org/2000/svg">
<mask id="path-1-inside-1_183_4715" fill="white">
<path d="M24.3518 17.9896C22.5305 16.7575 19.5348 14.6967 19.2498 14.4117C19.1245 14.2865 18.9608 14.2369 18.7992 14.2754C18.5534 14.3346 18.4454 14.5382 18.3309 14.8675C17.6648 14.6023 17.2164 14.058 16.9333 13.1757C16.692 12.4237 16.7168 11.9614 16.7429 11.472C16.7727 10.9145 16.8035 10.3379 16.4623 9.41682C15.9561 8.05041 15.1324 4.58537 14.9835 2.91419C14.9362 2.38454 14.7505 1.10415 14.0473 0.656856C13.7699 0.480394 13.4482 0.450897 13.1165 0.571235C12.7404 0.708053 12.5779 1.03753 12.4994 1.40885C12.4208 1.03753 12.2584 0.708053 11.8822 0.571235C11.5506 0.450766 11.2291 0.480525 10.9515 0.656725C10.2484 1.10415 10.0626 2.38454 10.0154 2.91419C9.86633 4.58563 9.04249 8.05054 8.53646 9.41682C8.19529 10.338 8.22609 10.9145 8.25585 11.4721C8.28208 11.9616 8.30675 12.4239 8.06555 13.1757C7.78234 14.058 7.3339 14.6023 6.66785 14.8675C6.55335 14.5382 6.44533 14.3346 6.19951 14.2754C6.03832 14.2368 5.87425 14.2864 5.74895 14.4117C5.4639 14.6967 2.46821 16.7575 0.647067 17.9896C0.463556 18.1136 0.415524 18.3629 0.53965 18.5463C0.663514 18.7297 0.912937 18.7778 1.09632 18.6537C1.52024 18.3671 4.80986 16.1386 5.95766 15.27C5.96784 15.3012 5.97788 15.3322 5.98741 15.362C6.33721 16.4437 7.06029 18.6795 9.72942 19.3401L7.70532 21.3124C7.54673 21.4669 7.54347 21.7208 7.69801 21.8794C7.77658 21.96 7.88087 22.0005 7.98515 22.0005C8.08604 22.0005 8.18706 21.9626 8.26498 21.8867L10.9849 19.2365C11.1034 19.1211 11.1388 18.9446 11.074 18.7924C11.0093 18.6401 10.8571 18.543 10.6923 18.5486L10.6231 18.5508C10.7722 18.2457 10.9226 17.8694 10.9853 17.5002C11.6789 17.4908 12.2104 17.1606 12.4993 16.5357C12.7884 17.1605 13.3198 17.4907 14.0134 17.5002C14.0761 17.8694 14.2266 18.2457 14.3757 18.5508L14.3065 18.5486C14.1431 18.5422 13.9894 18.6401 13.9247 18.7924C13.86 18.9446 13.8953 19.1211 14.0139 19.2365L16.7338 21.8867C16.8117 21.9626 16.9127 22.0005 17.0136 22.0005C17.1179 22.0005 17.2222 21.96 17.3007 21.8794C17.4553 21.7208 17.452 21.4669 17.2934 21.3124L15.2693 19.3401C17.9384 18.6795 18.6615 16.4437 19.0113 15.362C19.0209 15.3322 19.0309 15.3012 19.0411 15.27C20.1889 16.1386 23.4786 18.3671 23.9026 18.6537C24.0859 18.7778 24.3351 18.7297 24.4594 18.5463C24.5833 18.3629 24.5353 18.1136 24.3518 17.9896ZM12.0652 9.49657L12.0516 11.2544C12.0469 11.9194 12.0421 12.5844 12.035 13.2494C12.0327 13.4755 12.038 13.7056 12.0435 13.9376C12.0619 14.7136 12.0809 15.516 11.7774 16.189C11.6845 16.3955 11.4366 16.9442 10.3071 16.5874C10.0962 16.5213 9.87077 16.6381 9.80394 16.8491C9.73738 17.0603 9.85445 17.2856 10.0656 17.3523C10.1079 17.3656 10.1489 17.3757 10.1905 17.3873C10.1175 17.793 9.89364 18.2377 9.74064 18.5056C8.46441 18.0869 7.38424 16.9543 6.97349 15.6095C7.85319 15.2538 8.47655 14.5194 8.82909 13.4206C9.11532 12.5283 9.08413 11.9445 9.05672 11.4293C9.02892 10.9097 9.0049 10.4609 9.28852 9.69535C9.82169 8.25559 10.6573 4.74317 10.8142 2.98546C10.8747 2.30545 11.0893 1.51959 11.3819 1.33334C11.429 1.3032 11.4887 1.28127 11.6081 1.32486C11.6973 1.35734 11.7394 1.66281 11.7614 1.92331C11.5642 1.93047 11.3738 1.99802 11.2283 2.13513C10.9461 2.40087 10.9329 2.78251 10.925 3.01065C10.8568 4.97615 10.634 6.95052 10.2628 8.87908C10.2211 9.09666 10.3634 9.3068 10.5808 9.3487C10.7999 9.38968 11.0086 9.24807 11.0504 9.03075C11.4293 7.06147 11.6568 5.04533 11.7264 3.03846C11.7329 2.85273 11.7503 2.74518 11.7726 2.72286C11.7907 2.71503 11.8604 2.72495 11.9053 2.76828C11.9899 2.8496 12.0456 3.00074 12.0691 3.19391L12.0984 3.68455L12.0878 3.87091C12.091 4.32726 12.095 4.78362 12.0984 5.23996C12.0877 6.65888 12.0767 8.0778 12.0652 9.49657ZM13.2212 16.1888C12.9179 15.516 12.9368 14.7136 12.9552 13.9376C12.9607 13.7056 12.966 13.4755 12.9637 13.2494C12.9566 12.5858 12.9519 11.9221 12.9473 11.2586L12.9338 9.52633C12.9222 8.10856 12.9109 6.69444 12.8999 5.28773C12.9034 4.80688 12.9072 4.32846 12.9104 3.84467L12.9009 3.6838L12.9275 3.21752C12.9531 3.00073 13.0089 2.84959 13.0934 2.76827C13.1385 2.72468 13.2072 2.71476 13.2207 2.71907C13.2485 2.74517 13.2658 2.85272 13.2724 3.03832C13.3419 5.04441 13.5694 7.06054 13.9483 9.03061C13.9902 9.24793 14.1991 9.38902 14.4178 9.34869C14.6353 9.30679 14.7777 9.09665 14.7359 8.87921C14.3647 6.94974 14.1419 4.97523 14.0738 3.01052C14.0658 2.7825 14.0526 2.40086 13.7706 2.13525C13.6249 1.99814 13.4345 1.93057 13.2373 1.92334C13.2594 1.66282 13.3014 1.35734 13.3906 1.32486C13.5095 1.28139 13.5697 1.30345 13.6168 1.33334C13.9096 1.51959 14.1241 2.30545 14.1847 2.98546C14.3413 4.74291 15.1769 8.25546 15.7102 9.69535C15.9938 10.4608 15.9698 10.9097 15.9422 11.4293C15.9146 11.9445 15.8834 12.5283 16.1698 13.4206C16.5222 14.5194 17.1454 15.2538 18.0253 15.6095C17.6145 16.9543 16.5343 18.087 15.2581 18.5056C15.1051 18.2377 14.8813 17.7931 14.8082 17.3873C14.8499 17.3757 14.8909 17.3657 14.9332 17.3523C15.1444 17.2856 15.2615 17.0603 15.1949 16.8491C15.1282 16.6381 14.9036 16.5208 14.6918 16.5874C13.5615 16.944 13.3141 16.3954 13.2212 16.1888Z"/>
</mask>
<path d="M24.3518 17.9896C22.5305 16.7575 19.5348 14.6967 19.2498 14.4117C19.1245 14.2865 18.9608 14.2369 18.7992 14.2754C18.5534 14.3346 18.4454 14.5382 18.3309 14.8675C17.6648 14.6023 17.2164 14.058 16.9333 13.1757C16.692 12.4237 16.7168 11.9614 16.7429 11.472C16.7727 10.9145 16.8035 10.3379 16.4623 9.41682C15.9561 8.05041 15.1324 4.58537 14.9835 2.91419C14.9362 2.38454 14.7505 1.10415 14.0473 0.656856C13.7699 0.480394 13.4482 0.450897 13.1165 0.571235C12.7404 0.708053 12.5779 1.03753 12.4994 1.40885C12.4208 1.03753 12.2584 0.708053 11.8822 0.571235C11.5506 0.450766 11.2291 0.480525 10.9515 0.656725C10.2484 1.10415 10.0626 2.38454 10.0154 2.91419C9.86633 4.58563 9.04249 8.05054 8.53646 9.41682C8.19529 10.338 8.22609 10.9145 8.25585 11.4721C8.28208 11.9616 8.30675 12.4239 8.06555 13.1757C7.78234 14.058 7.3339 14.6023 6.66785 14.8675C6.55335 14.5382 6.44533 14.3346 6.19951 14.2754C6.03832 14.2368 5.87425 14.2864 5.74895 14.4117C5.4639 14.6967 2.46821 16.7575 0.647067 17.9896C0.463556 18.1136 0.415524 18.3629 0.53965 18.5463C0.663514 18.7297 0.912937 18.7778 1.09632 18.6537C1.52024 18.3671 4.80986 16.1386 5.95766 15.27C5.96784 15.3012 5.97788 15.3322 5.98741 15.362C6.33721 16.4437 7.06029 18.6795 9.72942 19.3401L7.70532 21.3124C7.54673 21.4669 7.54347 21.7208 7.69801 21.8794C7.77658 21.96 7.88087 22.0005 7.98515 22.0005C8.08604 22.0005 8.18706 21.9626 8.26498 21.8867L10.9849 19.2365C11.1034 19.1211 11.1388 18.9446 11.074 18.7924C11.0093 18.6401 10.8571 18.543 10.6923 18.5486L10.6231 18.5508C10.7722 18.2457 10.9226 17.8694 10.9853 17.5002C11.6789 17.4908 12.2104 17.1606 12.4993 16.5357C12.7884 17.1605 13.3198 17.4907 14.0134 17.5002C14.0761 17.8694 14.2266 18.2457 14.3757 18.5508L14.3065 18.5486C14.1431 18.5422 13.9894 18.6401 13.9247 18.7924C13.86 18.9446 13.8953 19.1211 14.0139 19.2365L16.7338 21.8867C16.8117 21.9626 16.9127 22.0005 17.0136 22.0005C17.1179 22.0005 17.2222 21.96 17.3007 21.8794C17.4553 21.7208 17.452 21.4669 17.2934 21.3124L15.2693 19.3401C17.9384 18.6795 18.6615 16.4437 19.0113 15.362C19.0209 15.3322 19.0309 15.3012 19.0411 15.27C20.1889 16.1386 23.4786 18.3671 23.9026 18.6537C24.0859 18.7778 24.3351 18.7297 24.4594 18.5463C24.5833 18.3629 24.5353 18.1136 24.3518 17.9896ZM12.0652 9.49657L12.0516 11.2544C12.0469 11.9194 12.0421 12.5844 12.035 13.2494C12.0327 13.4755 12.038 13.7056 12.0435 13.9376C12.0619 14.7136 12.0809 15.516 11.7774 16.189C11.6845 16.3955 11.4366 16.9442 10.3071 16.5874C10.0962 16.5213 9.87077 16.6381 9.80394 16.8491C9.73738 17.0603 9.85445 17.2856 10.0656 17.3523C10.1079 17.3656 10.1489 17.3757 10.1905 17.3873C10.1175 17.793 9.89364 18.2377 9.74064 18.5056C8.46441 18.0869 7.38424 16.9543 6.97349 15.6095C7.85319 15.2538 8.47655 14.5194 8.82909 13.4206C9.11532 12.5283 9.08413 11.9445 9.05672 11.4293C9.02892 10.9097 9.0049 10.4609 9.28852 9.69535C9.82169 8.25559 10.6573 4.74317 10.8142 2.98546C10.8747 2.30545 11.0893 1.51959 11.3819 1.33334C11.429 1.3032 11.4887 1.28127 11.6081 1.32486C11.6973 1.35734 11.7394 1.66281 11.7614 1.92331C11.5642 1.93047 11.3738 1.99802 11.2283 2.13513C10.9461 2.40087 10.9329 2.78251 10.925 3.01065C10.8568 4.97615 10.634 6.95052 10.2628 8.87908C10.2211 9.09666 10.3634 9.3068 10.5808 9.3487C10.7999 9.38968 11.0086 9.24807 11.0504 9.03075C11.4293 7.06147 11.6568 5.04533 11.7264 3.03846C11.7329 2.85273 11.7503 2.74518 11.7726 2.72286C11.7907 2.71503 11.8604 2.72495 11.9053 2.76828C11.9899 2.8496 12.0456 3.00074 12.0691 3.19391L12.0984 3.68455L12.0878 3.87091C12.091 4.32726 12.095 4.78362 12.0984 5.23996C12.0877 6.65888 12.0767 8.0778 12.0652 9.49657ZM13.2212 16.1888C12.9179 15.516 12.9368 14.7136 12.9552 13.9376C12.9607 13.7056 12.966 13.4755 12.9637 13.2494C12.9566 12.5858 12.9519 11.9221 12.9473 11.2586L12.9338 9.52633C12.9222 8.10856 12.9109 6.69444 12.8999 5.28773C12.9034 4.80688 12.9072 4.32846 12.9104 3.84467L12.9009 3.6838L12.9275 3.21752C12.9531 3.00073 13.0089 2.84959 13.0934 2.76827C13.1385 2.72468 13.2072 2.71476 13.2207 2.71907C13.2485 2.74517 13.2658 2.85272 13.2724 3.03832C13.3419 5.04441 13.5694 7.06054 13.9483 9.03061C13.9902 9.24793 14.1991 9.38902 14.4178 9.34869C14.6353 9.30679 14.7777 9.09665 14.7359 8.87921C14.3647 6.94974 14.1419 4.97523 14.0738 3.01052C14.0658 2.7825 14.0526 2.40086 13.7706 2.13525C13.6249 1.99814 13.4345 1.93057 13.2373 1.92334C13.2594 1.66282 13.3014 1.35734 13.3906 1.32486C13.5095 1.28139 13.5697 1.30345 13.6168 1.33334C13.9096 1.51959 14.1241 2.30545 14.1847 2.98546C14.3413 4.74291 15.1769 8.25546 15.7102 9.69535C15.9938 10.4608 15.9698 10.9097 15.9422 11.4293C15.9146 11.9445 15.8834 12.5283 16.1698 13.4206C16.5222 14.5194 17.1454 15.2538 18.0253 15.6095C17.6145 16.9543 16.5343 18.087 15.2581 18.5056C15.1051 18.2377 14.8813 17.7931 14.8082 17.3873C14.8499 17.3757 14.8909 17.3657 14.9332 17.3523C15.1444 17.2856 15.2615 17.0603 15.1949 16.8491C15.1282 16.6381 14.9036 16.5208 14.6918 16.5874C13.5615 16.944 13.3141 16.3954 13.2212 16.1888Z" fill="url(#paint0_linear_183_4715)"/>
<path d="M24.3518 17.9896C22.5305 16.7575 19.5348 14.6967 19.2498 14.4117C19.1245 14.2865 18.9608 14.2369 18.7992 14.2754C18.5534 14.3346 18.4454 14.5382 18.3309 14.8675C17.6648 14.6023 17.2164 14.058 16.9333 13.1757C16.692 12.4237 16.7168 11.9614 16.7429 11.472C16.7727 10.9145 16.8035 10.3379 16.4623 9.41682C15.9561 8.05041 15.1324 4.58537 14.9835 2.91419C14.9362 2.38454 14.7505 1.10415 14.0473 0.656856C13.7699 0.480394 13.4482 0.450897 13.1165 0.571235C12.7404 0.708053 12.5779 1.03753 12.4994 1.40885C12.4208 1.03753 12.2584 0.708053 11.8822 0.571235C11.5506 0.450766 11.2291 0.480525 10.9515 0.656725C10.2484 1.10415 10.0626 2.38454 10.0154 2.91419C9.86633 4.58563 9.04249 8.05054 8.53646 9.41682C8.19529 10.338 8.22609 10.9145 8.25585 11.4721C8.28208 11.9616 8.30675 12.4239 8.06555 13.1757C7.78234 14.058 7.3339 14.6023 6.66785 14.8675C6.55335 14.5382 6.44533 14.3346 6.19951 14.2754C6.03832 14.2368 5.87425 14.2864 5.74895 14.4117C5.4639 14.6967 2.46821 16.7575 0.647067 17.9896C0.463556 18.1136 0.415524 18.3629 0.53965 18.5463C0.663514 18.7297 0.912937 18.7778 1.09632 18.6537C1.52024 18.3671 4.80986 16.1386 5.95766 15.27C5.96784 15.3012 5.97788 15.3322 5.98741 15.362C6.33721 16.4437 7.06029 18.6795 9.72942 19.3401L7.70532 21.3124C7.54673 21.4669 7.54347 21.7208 7.69801 21.8794C7.77658 21.96 7.88087 22.0005 7.98515 22.0005C8.08604 22.0005 8.18706 21.9626 8.26498 21.8867L10.9849 19.2365C11.1034 19.1211 11.1388 18.9446 11.074 18.7924C11.0093 18.6401 10.8571 18.543 10.6923 18.5486L10.6231 18.5508C10.7722 18.2457 10.9226 17.8694 10.9853 17.5002C11.6789 17.4908 12.2104 17.1606 12.4993 16.5357C12.7884 17.1605 13.3198 17.4907 14.0134 17.5002C14.0761 17.8694 14.2266 18.2457 14.3757 18.5508L14.3065 18.5486C14.1431 18.5422 13.9894 18.6401 13.9247 18.7924C13.86 18.9446 13.8953 19.1211 14.0139 19.2365L16.7338 21.8867C16.8117 21.9626 16.9127 22.0005 17.0136 22.0005C17.1179 22.0005 17.2222 21.96 17.3007 21.8794C17.4553 21.7208 17.452 21.4669 17.2934 21.3124L15.2693 19.3401C17.9384 18.6795 18.6615 16.4437 19.0113 15.362C19.0209 15.3322 19.0309 15.3012 19.0411 15.27C20.1889 16.1386 23.4786 18.3671 23.9026 18.6537C24.0859 18.7778 24.3351 18.7297 24.4594 18.5463C24.5833 18.3629 24.5353 18.1136 24.3518 17.9896ZM12.0652 9.49657L12.0516 11.2544C12.0469 11.9194 12.0421 12.5844 12.035 13.2494C12.0327 13.4755 12.038 13.7056 12.0435 13.9376C12.0619 14.7136 12.0809 15.516 11.7774 16.189C11.6845 16.3955 11.4366 16.9442 10.3071 16.5874C10.0962 16.5213 9.87077 16.6381 9.80394 16.8491C9.73738 17.0603 9.85445 17.2856 10.0656 17.3523C10.1079 17.3656 10.1489 17.3757 10.1905 17.3873C10.1175 17.793 9.89364 18.2377 9.74064 18.5056C8.46441 18.0869 7.38424 16.9543 6.97349 15.6095C7.85319 15.2538 8.47655 14.5194 8.82909 13.4206C9.11532 12.5283 9.08413 11.9445 9.05672 11.4293C9.02892 10.9097 9.0049 10.4609 9.28852 9.69535C9.82169 8.25559 10.6573 4.74317 10.8142 2.98546C10.8747 2.30545 11.0893 1.51959 11.3819 1.33334C11.429 1.3032 11.4887 1.28127 11.6081 1.32486C11.6973 1.35734 11.7394 1.66281 11.7614 1.92331C11.5642 1.93047 11.3738 1.99802 11.2283 2.13513C10.9461 2.40087 10.9329 2.78251 10.925 3.01065C10.8568 4.97615 10.634 6.95052 10.2628 8.87908C10.2211 9.09666 10.3634 9.3068 10.5808 9.3487C10.7999 9.38968 11.0086 9.24807 11.0504 9.03075C11.4293 7.06147 11.6568 5.04533 11.7264 3.03846C11.7329 2.85273 11.7503 2.74518 11.7726 2.72286C11.7907 2.71503 11.8604 2.72495 11.9053 2.76828C11.9899 2.8496 12.0456 3.00074 12.0691 3.19391L12.0984 3.68455L12.0878 3.87091C12.091 4.32726 12.095 4.78362 12.0984 5.23996C12.0877 6.65888 12.0767 8.0778 12.0652 9.49657ZM13.2212 16.1888C12.9179 15.516 12.9368 14.7136 12.9552 13.9376C12.9607 13.7056 12.966 13.4755 12.9637 13.2494C12.9566 12.5858 12.9519 11.9221 12.9473 11.2586L12.9338 9.52633C12.9222 8.10856 12.9109 6.69444 12.8999 5.28773C12.9034 4.80688 12.9072 4.32846 12.9104 3.84467L12.9009 3.6838L12.9275 3.21752C12.9531 3.00073 13.0089 2.84959 13.0934 2.76827C13.1385 2.72468 13.2072 2.71476 13.2207 2.71907C13.2485 2.74517 13.2658 2.85272 13.2724 3.03832C13.3419 5.04441 13.5694 7.06054 13.9483 9.03061C13.9902 9.24793 14.1991 9.38902 14.4178 9.34869C14.6353 9.30679 14.7777 9.09665 14.7359 8.87921C14.3647 6.94974 14.1419 4.97523 14.0738 3.01052C14.0658 2.7825 14.0526 2.40086 13.7706 2.13525C13.6249 1.99814 13.4345 1.93057 13.2373 1.92334C13.2594 1.66282 13.3014 1.35734 13.3906 1.32486C13.5095 1.28139 13.5697 1.30345 13.6168 1.33334C13.9096 1.51959 14.1241 2.30545 14.1847 2.98546C14.3413 4.74291 15.1769 8.25546 15.7102 9.69535C15.9938 10.4608 15.9698 10.9097 15.9422 11.4293C15.9146 11.9445 15.8834 12.5283 16.1698 13.4206C16.5222 14.5194 17.1454 15.2538 18.0253 15.6095C17.6145 16.9543 16.5343 18.087 15.2581 18.5056C15.1051 18.2377 14.8813 17.7931 14.8082 17.3873C14.8499 17.3757 14.8909 17.3657 14.9332 17.3523C15.1444 17.2856 15.2615 17.0603 15.1949 16.8491C15.1282 16.6381 14.9036 16.5208 14.6918 16.5874C13.5615 16.944 13.3141 16.3954 13.2212 16.1888Z" fill="#FFE9BF" fill-opacity="0.24" style="mix-blend-mode:saturation"/>
<path d="M24.3518 17.9896C22.5305 16.7575 19.5348 14.6967 19.2498 14.4117C19.1245 14.2865 18.9608 14.2369 18.7992 14.2754C18.5534 14.3346 18.4454 14.5382 18.3309 14.8675C17.6648 14.6023 17.2164 14.058 16.9333 13.1757C16.692 12.4237 16.7168 11.9614 16.7429 11.472C16.7727 10.9145 16.8035 10.3379 16.4623 9.41682C15.9561 8.05041 15.1324 4.58537 14.9835 2.91419C14.9362 2.38454 14.7505 1.10415 14.0473 0.656856C13.7699 0.480394 13.4482 0.450897 13.1165 0.571235C12.7404 0.708053 12.5779 1.03753 12.4994 1.40885C12.4208 1.03753 12.2584 0.708053 11.8822 0.571235C11.5506 0.450766 11.2291 0.480525 10.9515 0.656725C10.2484 1.10415 10.0626 2.38454 10.0154 2.91419C9.86633 4.58563 9.04249 8.05054 8.53646 9.41682C8.19529 10.338 8.22609 10.9145 8.25585 11.4721C8.28208 11.9616 8.30675 12.4239 8.06555 13.1757C7.78234 14.058 7.3339 14.6023 6.66785 14.8675C6.55335 14.5382 6.44533 14.3346 6.19951 14.2754C6.03832 14.2368 5.87425 14.2864 5.74895 14.4117C5.4639 14.6967 2.46821 16.7575 0.647067 17.9896C0.463556 18.1136 0.415524 18.3629 0.53965 18.5463C0.663514 18.7297 0.912937 18.7778 1.09632 18.6537C1.52024 18.3671 4.80986 16.1386 5.95766 15.27C5.96784 15.3012 5.97788 15.3322 5.98741 15.362C6.33721 16.4437 7.06029 18.6795 9.72942 19.3401L7.70532 21.3124C7.54673 21.4669 7.54347 21.7208 7.69801 21.8794C7.77658 21.96 7.88087 22.0005 7.98515 22.0005C8.08604 22.0005 8.18706 21.9626 8.26498 21.8867L10.9849 19.2365C11.1034 19.1211 11.1388 18.9446 11.074 18.7924C11.0093 18.6401 10.8571 18.543 10.6923 18.5486L10.6231 18.5508C10.7722 18.2457 10.9226 17.8694 10.9853 17.5002C11.6789 17.4908 12.2104 17.1606 12.4993 16.5357C12.7884 17.1605 13.3198 17.4907 14.0134 17.5002C14.0761 17.8694 14.2266 18.2457 14.3757 18.5508L14.3065 18.5486C14.1431 18.5422 13.9894 18.6401 13.9247 18.7924C13.86 18.9446 13.8953 19.1211 14.0139 19.2365L16.7338 21.8867C16.8117 21.9626 16.9127 22.0005 17.0136 22.0005C17.1179 22.0005 17.2222 21.96 17.3007 21.8794C17.4553 21.7208 17.452 21.4669 17.2934 21.3124L15.2693 19.3401C17.9384 18.6795 18.6615 16.4437 19.0113 15.362C19.0209 15.3322 19.0309 15.3012 19.0411 15.27C20.1889 16.1386 23.4786 18.3671 23.9026 18.6537C24.0859 18.7778 24.3351 18.7297 24.4594 18.5463C24.5833 18.3629 24.5353 18.1136 24.3518 17.9896ZM12.0652 9.49657L12.0516 11.2544C12.0469 11.9194 12.0421 12.5844 12.035 13.2494C12.0327 13.4755 12.038 13.7056 12.0435 13.9376C12.0619 14.7136 12.0809 15.516 11.7774 16.189C11.6845 16.3955 11.4366 16.9442 10.3071 16.5874C10.0962 16.5213 9.87077 16.6381 9.80394 16.8491C9.73738 17.0603 9.85445 17.2856 10.0656 17.3523C10.1079 17.3656 10.1489 17.3757 10.1905 17.3873C10.1175 17.793 9.89364 18.2377 9.74064 18.5056C8.46441 18.0869 7.38424 16.9543 6.97349 15.6095C7.85319 15.2538 8.47655 14.5194 8.82909 13.4206C9.11532 12.5283 9.08413 11.9445 9.05672 11.4293C9.02892 10.9097 9.0049 10.4609 9.28852 9.69535C9.82169 8.25559 10.6573 4.74317 10.8142 2.98546C10.8747 2.30545 11.0893 1.51959 11.3819 1.33334C11.429 1.3032 11.4887 1.28127 11.6081 1.32486C11.6973 1.35734 11.7394 1.66281 11.7614 1.92331C11.5642 1.93047 11.3738 1.99802 11.2283 2.13513C10.9461 2.40087 10.9329 2.78251 10.925 3.01065C10.8568 4.97615 10.634 6.95052 10.2628 8.87908C10.2211 9.09666 10.3634 9.3068 10.5808 9.3487C10.7999 9.38968 11.0086 9.24807 11.0504 9.03075C11.4293 7.06147 11.6568 5.04533 11.7264 3.03846C11.7329 2.85273 11.7503 2.74518 11.7726 2.72286C11.7907 2.71503 11.8604 2.72495 11.9053 2.76828C11.9899 2.8496 12.0456 3.00074 12.0691 3.19391L12.0984 3.68455L12.0878 3.87091C12.091 4.32726 12.095 4.78362 12.0984 5.23996C12.0877 6.65888 12.0767 8.0778 12.0652 9.49657ZM13.2212 16.1888C12.9179 15.516 12.9368 14.7136 12.9552 13.9376C12.9607 13.7056 12.966 13.4755 12.9637 13.2494C12.9566 12.5858 12.9519 11.9221 12.9473 11.2586L12.9338 9.52633C12.9222 8.10856 12.9109 6.69444 12.8999 5.28773C12.9034 4.80688 12.9072 4.32846 12.9104 3.84467L12.9009 3.6838L12.9275 3.21752C12.9531 3.00073 13.0089 2.84959 13.0934 2.76827C13.1385 2.72468 13.2072 2.71476 13.2207 2.71907C13.2485 2.74517 13.2658 2.85272 13.2724 3.03832C13.3419 5.04441 13.5694 7.06054 13.9483 9.03061C13.9902 9.24793 14.1991 9.38902 14.4178 9.34869C14.6353 9.30679 14.7777 9.09665 14.7359 8.87921C14.3647 6.94974 14.1419 4.97523 14.0738 3.01052C14.0658 2.7825 14.0526 2.40086 13.7706 2.13525C13.6249 1.99814 13.4345 1.93057 13.2373 1.92334C13.2594 1.66282 13.3014 1.35734 13.3906 1.32486C13.5095 1.28139 13.5697 1.30345 13.6168 1.33334C13.9096 1.51959 14.1241 2.30545 14.1847 2.98546C14.3413 4.74291 15.1769 8.25546 15.7102 9.69535C15.9938 10.4608 15.9698 10.9097 15.9422 11.4293C15.9146 11.9445 15.8834 12.5283 16.1698 13.4206C16.5222 14.5194 17.1454 15.2538 18.0253 15.6095C17.6145 16.9543 16.5343 18.087 15.2581 18.5056C15.1051 18.2377 14.8813 17.7931 14.8082 17.3873C14.8499 17.3757 14.8909 17.3657 14.9332 17.3523C15.1444 17.2856 15.2615 17.0603 15.1949 16.8491C15.1282 16.6381 14.9036 16.5208 14.6918 16.5874C13.5615 16.944 13.3141 16.3954 13.2212 16.1888Z" stroke="#070F21" stroke-width="0.270614" mask="url(#path-1-inside-1_183_4715)"/>
<defs>
<linearGradient id="paint0_linear_183_4715" x1="0.479201" y1="11.247" x2="24.6239" y2="11.247" gradientUnits="userSpaceOnUse">
<stop offset="0.0186222" stop-color="#9A8C84"/>
<stop offset="0.4235" stop-color="#D3CCC5"/>
<stop offset="0.4999" stop-color="#DED9D1"/>
<stop offset="0.5991" stop-color="#D1CAC0"/>
<stop offset="0.7129" stop-color="#C7C0B1"/>
<stop offset="0.8064" stop-color="#C4BCAC"/>
<stop offset="0.8566" stop-color="#B8AF9E"/>
<stop offset="0.9516" stop-color="#978E78"/>
<stop offset="0.9972" stop-color="#867664"/>
</linearGradient>
</defs>
</svg>
