<svg width="25" height="25" viewBox="0 0 25 25" fill="none" xmlns="http://www.w3.org/2000/svg">
<path fill-rule="evenodd" clip-rule="evenodd" d="M19.7857 13.1433C20.4927 12.4251 20.8855 11.4554 20.8777 10.4476C20.8698 9.43978 20.4619 8.47637 19.7437 7.7693C19.388 7.4192 18.967 7.14257 18.5044 6.9552C18.0419 6.76784 17.547 6.67341 17.048 6.67731C16.0401 6.68519 15.0767 7.0931 14.3697 7.8113C14.1777 8.0033 13.9337 8.23897 13.6377 8.5183L12.8147 9.2933L11.9917 8.5183C11.695 8.2383 11.4507 8.00263 11.2587 7.8113C10.546 7.09867 9.57949 6.69831 8.57167 6.69831C7.56385 6.69831 6.5973 7.09867 5.88467 7.8113C4.41667 9.2803 4.39967 11.6553 5.83067 13.1313L12.8147 20.1153L19.7857 13.1433ZM5.03567 6.9633C5.49998 6.49887 6.05123 6.13045 6.65794 5.8791C7.26466 5.62774 7.91495 5.49837 8.57167 5.49837C9.22839 5.49837 9.87867 5.62774 10.4854 5.8791C11.0921 6.13045 11.6434 6.49887 12.1077 6.9633C12.2897 7.14597 12.5253 7.3733 12.8147 7.6453C13.1027 7.3733 13.3383 7.14563 13.5217 6.9623C14.4522 6.01747 15.7199 5.48098 17.046 5.47085C18.3721 5.46072 19.6478 5.97779 20.5927 6.9083C21.5375 7.83881 22.074 9.10655 22.0841 10.4326C22.0942 11.7587 21.5772 13.0345 20.6467 13.9793L13.5217 21.1053C13.3341 21.2928 13.0798 21.3981 12.8147 21.3981C12.5495 21.3981 12.2952 21.2928 12.1077 21.1053L4.98067 13.9783C4.06671 13.0357 3.56018 11.7714 3.57047 10.4585C3.58076 9.14563 4.10704 7.88946 5.03567 6.9613V6.9633Z" fill="url(#paint0_linear_183_4721)"/>
<path fill-rule="evenodd" clip-rule="evenodd" d="M19.7857 13.1433C20.4927 12.4251 20.8855 11.4554 20.8777 10.4476C20.8698 9.43978 20.4619 8.47637 19.7437 7.7693C19.388 7.4192 18.967 7.14257 18.5044 6.9552C18.0419 6.76784 17.547 6.67341 17.048 6.67731C16.0401 6.68519 15.0767 7.0931 14.3697 7.8113C14.1777 8.0033 13.9337 8.23897 13.6377 8.5183L12.8147 9.2933L11.9917 8.5183C11.695 8.2383 11.4507 8.00263 11.2587 7.8113C10.546 7.09867 9.57949 6.69831 8.57167 6.69831C7.56385 6.69831 6.5973 7.09867 5.88467 7.8113C4.41667 9.2803 4.39967 11.6553 5.83067 13.1313L12.8147 20.1153L19.7857 13.1433ZM5.03567 6.9633C5.49998 6.49887 6.05123 6.13045 6.65794 5.8791C7.26466 5.62774 7.91495 5.49837 8.57167 5.49837C9.22839 5.49837 9.87867 5.62774 10.4854 5.8791C11.0921 6.13045 11.6434 6.49887 12.1077 6.9633C12.2897 7.14597 12.5253 7.3733 12.8147 7.6453C13.1027 7.3733 13.3383 7.14563 13.5217 6.9623C14.4522 6.01747 15.7199 5.48098 17.046 5.47085C18.3721 5.46072 19.6478 5.97779 20.5927 6.9083C21.5375 7.83881 22.074 9.10655 22.0841 10.4326C22.0942 11.7587 21.5772 13.0345 20.6467 13.9793L13.5217 21.1053C13.3341 21.2928 13.0798 21.3981 12.8147 21.3981C12.5495 21.3981 12.2952 21.2928 12.1077 21.1053L4.98067 13.9783C4.06671 13.0357 3.56018 11.7714 3.57047 10.4585C3.58076 9.14563 4.10704 7.88946 5.03567 6.9613V6.9633Z" fill="#FFE9BF" fill-opacity="0.24" style="mix-blend-mode:saturation"/>
<defs>
<linearGradient id="paint0_linear_183_4721" x1="3.57685" y1="13.4325" x2="22.1579" y2="13.4325" gradientUnits="userSpaceOnUse">
<stop offset="0.0186222" stop-color="#9A8C84"/>
<stop offset="0.4235" stop-color="#D3CCC5"/>
<stop offset="0.4999" stop-color="#DED9D1"/>
<stop offset="0.5991" stop-color="#D1CAC0"/>
<stop offset="0.7129" stop-color="#C7C0B1"/>
<stop offset="0.8064" stop-color="#C4BCAC"/>
<stop offset="0.8566" stop-color="#B8AF9E"/>
<stop offset="0.9516" stop-color="#978E78"/>
<stop offset="0.9972" stop-color="#867664"/>
</linearGradient>
</defs>
</svg>
