<svg width="125" height="19" viewBox="0 0 125 19" fill="none" xmlns="http://www.w3.org/2000/svg">
<path d="M0.460779 11.8964L0.509168 12.8642C0.653469 15.65 2.77651 17.4438 5.30913 17.4438C7.72077 17.4438 9.28908 16.1926 9.28908 13.8795C9.28908 9.55994 0.557556 9.55994 0.557556 4.3193C0.557556 2.02949 2.65554 0.495752 5.79128 0.495752C7.38292 0.495752 8.49239 0.99087 9.31327 1.53437C9.50596 1.65189 9.69865 2.00616 9.74704 2.07702L9.9164 2.02949C9.86801 1.86445 9.84381 1.60523 9.81962 1.27429L9.74704 0.0230999H10.0123L10.3018 5.59468L9.81962 5.61801L9.77123 4.62605C9.65026 2.76137 8.42068 0.920015 5.79128 0.920015C3.64491 0.920015 2.41446 1.93531 2.41446 3.79999C2.41446 7.97781 11.267 7.93115 11.267 13.4777C11.267 16.311 9.0238 17.8447 5.35665 17.8447C3.71663 17.8447 2.51124 17.4205 1.15982 16.5702C0.96713 16.4518 0.580886 16.0034 0.509168 15.7917L0.388197 15.815C0.484973 16.0509 0.484973 16.5469 0.509168 16.8294L0.580886 18.3174H0.339808L0.00195312 11.8731L0.460779 11.8964Z" fill="url(#paint0_linear_103_6970)"/>
<path d="M0.460779 11.8964L0.509168 12.8642C0.653469 15.65 2.77651 17.4438 5.30913 17.4438C7.72077 17.4438 9.28908 16.1926 9.28908 13.8795C9.28908 9.55994 0.557556 9.55994 0.557556 4.3193C0.557556 2.02949 2.65554 0.495752 5.79128 0.495752C7.38292 0.495752 8.49239 0.99087 9.31327 1.53437C9.50596 1.65189 9.69865 2.00616 9.74704 2.07702L9.9164 2.02949C9.86801 1.86445 9.84381 1.60523 9.81962 1.27429L9.74704 0.0230999H10.0123L10.3018 5.59468L9.81962 5.61801L9.77123 4.62605C9.65026 2.76137 8.42068 0.920015 5.79128 0.920015C3.64491 0.920015 2.41446 1.93531 2.41446 3.79999C2.41446 7.97781 11.267 7.93115 11.267 13.4777C11.267 16.311 9.0238 17.8447 5.35665 17.8447C3.71663 17.8447 2.51124 17.4205 1.15982 16.5702C0.96713 16.4518 0.580886 16.0034 0.509168 15.7917L0.388197 15.815C0.484973 16.0509 0.484973 16.5469 0.509168 16.8294L0.580886 18.3174H0.339808L0.00195312 11.8731L0.460779 11.8964Z" fill="#FFE9BF" fill-opacity="0.24" style="mix-blend-mode:saturation"/>
<path d="M29.2616 12.6292L24.7511 2.78556C24.5584 2.40796 24.5342 2.10121 24.5342 1.84199H24.2931C24.2931 1.9837 24.2205 2.29044 23.9794 2.78556L19.1544 12.6292H29.2616ZM15.127 17.4447H15.5374C16.2122 17.4447 16.5985 16.7836 17.0081 15.9809L24.4616 0.684984H26.5121V0.968403C26.5121 1.44019 26.6088 2.05455 26.7531 2.3371L33.0004 15.9809C33.531 17.1137 33.6278 17.4447 34.5679 17.4447H34.7856V17.6572H29.7195V17.4447H31.7458V17.3971C31.3846 17.2796 31.1185 16.6886 30.9258 16.2877L29.4542 13.0543H18.9384L17.5144 15.9809C17.4427 16.1701 17.3701 16.3585 17.3701 16.5236C17.3701 17.0671 17.8523 17.4447 18.6481 17.4447H19.9511V17.6572H15.127V17.4447Z" fill="url(#paint1_linear_103_6970)"/>
<path d="M29.2616 12.6292L24.7511 2.78556C24.5584 2.40796 24.5342 2.10121 24.5342 1.84199H24.2931C24.2931 1.9837 24.2205 2.29044 23.9794 2.78556L19.1544 12.6292H29.2616ZM15.127 17.4447H15.5374C16.2122 17.4447 16.5985 16.7836 17.0081 15.9809L24.4616 0.684984H26.5121V0.968403C26.5121 1.44019 26.6088 2.05455 26.7531 2.3371L33.0004 15.9809C33.531 17.1137 33.6278 17.4447 34.5679 17.4447H34.7856V17.6572H29.7195V17.4447H31.7458V17.3971C31.3846 17.2796 31.1185 16.6886 30.9258 16.2877L29.4542 13.0543H18.9384L17.5144 15.9809C17.4427 16.1701 17.3701 16.3585 17.3701 16.5236C17.3701 17.0671 17.8523 17.4447 18.6481 17.4447H19.9511V17.6572H15.127V17.4447Z" fill="#FFE9BF" fill-opacity="0.24" style="mix-blend-mode:saturation"/>
<path d="M38.7871 9.08729C38.7871 3.91836 42.5018 0.471554 48.0492 0.471554C49.8344 0.471554 51.547 0.967535 52.9217 1.98196C53.0427 2.10034 53.1386 2.28957 53.2112 2.45461L53.3797 2.40709C53.3322 2.21872 53.3071 1.95863 53.3071 1.72274L53.2596 -0.000234604H53.5006L53.7417 6.82167L53.2596 6.845L53.187 4.64937C53.0427 2.52547 50.4617 0.872486 47.8565 0.872486C43.4903 0.872486 41.1512 3.61075 41.1512 8.70968C41.1512 14.3513 43.6113 17.3963 48.1459 17.3963C50.6544 17.3963 53.1144 16.1693 54.0554 14.1862L54.5133 14.3513C53.4765 16.7119 50.8954 17.8447 48.1218 17.8447C42.5502 17.8447 38.8113 14.3513 38.8113 9.11062L38.7871 9.08729Z" fill="url(#paint2_linear_103_6970)"/>
<path d="M38.7871 9.08729C38.7871 3.91836 42.5018 0.471554 48.0492 0.471554C49.8344 0.471554 51.547 0.967535 52.9217 1.98196C53.0427 2.10034 53.1386 2.28957 53.2112 2.45461L53.3797 2.40709C53.3322 2.21872 53.3071 1.95863 53.3071 1.72274L53.2596 -0.000234604H53.5006L53.7417 6.82167L53.2596 6.845L53.187 4.64937C53.0427 2.52547 50.4617 0.872486 47.8565 0.872486C43.4903 0.872486 41.1512 3.61075 41.1512 8.70968C41.1512 14.3513 43.6113 17.3963 48.1459 17.3963C50.6544 17.3963 53.1144 16.1693 54.0554 14.1862L54.5133 14.3513C53.4765 16.7119 50.8954 17.8447 48.1218 17.8447C42.5502 17.8447 38.8113 14.3513 38.8113 9.11062L38.7871 9.08729Z" fill="#FFE9BF" fill-opacity="0.24" style="mix-blend-mode:saturation"/>
<path fill-rule="evenodd" clip-rule="evenodd" d="M60.324 17.4661H59.3839L59.2871 17.6545H66.6681V17.442H65.1248C63.846 17.442 63.6775 17.3244 63.6775 16.1916V2.35945C63.6775 1.81595 63.5565 1.41501 63.2429 1.1316V1.10827H65.9924C68.9596 1.10827 70.9617 3.0438 70.9617 5.92378C70.9617 8.82622 68.9596 10.7626 65.9924 10.7626H64.787V11.1636H65.0998C66.0082 11.1636 66.7653 11.9573 67.7516 12.9913C67.9436 13.1926 68.1443 13.403 68.3565 13.6184C72.1195 17.4661 76.5844 17.9991 79.7919 17.9991L80.2479 18.0088C74.2175 18.0088 70.0449 12.8157 70.0449 12.8157C69.1523 11.9663 68.3323 11.3053 67.2228 11.2111V11.0694L67.7534 11.0452C70.9375 10.786 73.3733 8.82622 73.3733 5.94711C73.3733 2.80791 70.5512 0.70647 66.306 0.70647H59.3839V0.919033H60.324C61.6028 0.919033 61.7229 1.03741 61.7229 2.17022V16.215C61.7229 17.3478 61.6028 17.4661 60.324 17.4661Z" fill="url(#paint3_linear_103_6970)"/>
<path fill-rule="evenodd" clip-rule="evenodd" d="M60.324 17.4661H59.3839L59.2871 17.6545H66.6681V17.442H65.1248C63.846 17.442 63.6775 17.3244 63.6775 16.1916V2.35945C63.6775 1.81595 63.5565 1.41501 63.2429 1.1316V1.10827H65.9924C68.9596 1.10827 70.9617 3.0438 70.9617 5.92378C70.9617 8.82622 68.9596 10.7626 65.9924 10.7626H64.787V11.1636H65.0998C66.0082 11.1636 66.7653 11.9573 67.7516 12.9913C67.9436 13.1926 68.1443 13.403 68.3565 13.6184C72.1195 17.4661 76.5844 17.9991 79.7919 17.9991L80.2479 18.0088C74.2175 18.0088 70.0449 12.8157 70.0449 12.8157C69.1523 11.9663 68.3323 11.3053 67.2228 11.2111V11.0694L67.7534 11.0452C70.9375 10.786 73.3733 8.82622 73.3733 5.94711C73.3733 2.80791 70.5512 0.70647 66.306 0.70647H59.3839V0.919033H60.324C61.6028 0.919033 61.7229 1.03741 61.7229 2.17022V16.215C61.7229 17.3478 61.6028 17.4661 60.324 17.4661Z" fill="#FFE9BF" fill-opacity="0.24" style="mix-blend-mode:saturation"/>
<path d="M87.533 0.803076V1.06184H86.1235C84.5667 1.06184 84.3911 1.20489 84.3911 2.58494V14.0493C84.3911 16.2624 85.7711 17.4405 88.3261 17.4405C91.7615 17.4405 93.6402 15.889 93.6402 13.0153V3.10246C93.6402 1.72241 93.3467 1.06184 91.7899 1.06184H90.616V0.803076H96.577V1.06184H96.0479C94.5216 1.06184 94.2271 1.72241 94.2271 3.10246V13.0153C94.2271 16.2329 92.1423 17.958 88.3261 17.958C84.4794 17.958 81.895 15.9752 81.895 13.0153V2.58494C81.895 1.20489 81.6899 1.06184 80.1331 1.06184H79.3105V0.803076H87.533Z" fill="url(#paint4_linear_103_6970)"/>
<path d="M87.533 0.803076V1.06184H86.1235C84.5667 1.06184 84.3911 1.20489 84.3911 2.58494V14.0493C84.3911 16.2624 85.7711 17.4405 88.3261 17.4405C91.7615 17.4405 93.6402 15.889 93.6402 13.0153V3.10246C93.6402 1.72241 93.3467 1.06184 91.7899 1.06184H90.616V0.803076H96.577V1.06184H96.0479C94.5216 1.06184 94.2271 1.72241 94.2271 3.10246V13.0153C94.2271 16.2329 92.1423 17.958 88.3261 17.958C84.4794 17.958 81.895 15.9752 81.895 13.0153V2.58494C81.895 1.20489 81.6899 1.06184 80.1331 1.06184H79.3105V0.803076H87.533Z" fill="#FFE9BF" fill-opacity="0.24" style="mix-blend-mode:saturation"/>
<path d="M101.553 17.5643H101.987C103.337 17.5643 103.53 17.2101 103.627 15.888L104.326 2.26842V1.77244C104.326 1.2298 104.157 1.01723 103 1.01723H101.938V0.805531H105.846L112.721 14.3301C112.961 14.8027 113.131 15.2037 113.131 15.3454H113.251C113.251 15.2037 113.444 14.6844 113.613 14.3301L120.487 0.805531H124.467V1.01723H123.575C122.272 1.01723 122.08 1.3715 122.08 2.05585C122.08 2.24509 122.103 2.45765 122.103 2.69355L122.73 15.888C122.779 17.2334 122.972 17.5643 124.419 17.5643H124.998V17.7769H118.076V17.5643H119.04C120.487 17.5643 120.68 17.2101 120.68 16.6441V16.2423L120.149 3.80302C120.125 3.37789 120.125 3.02362 120.125 2.7644H119.957C119.957 2.83525 119.787 3.23619 119.546 3.73217L112.406 17.8711L112.334 18.0361H112.262L112.19 17.8711L105.146 3.99139C104.93 3.5196 104.857 3.07115 104.857 3.00029H104.76C104.76 3.21286 104.76 3.37789 104.737 3.80302L104.061 16.1956C104.061 16.4073 104.037 16.5966 104.037 16.7616C104.037 17.3285 104.254 17.5877 105.725 17.5877H106.666V17.8002H101.553V17.5643Z" fill="url(#paint5_linear_103_6970)"/>
<path d="M101.553 17.5643H101.987C103.337 17.5643 103.53 17.2101 103.627 15.888L104.326 2.26842V1.77244C104.326 1.2298 104.157 1.01723 103 1.01723H101.938V0.805531H105.846L112.721 14.3301C112.961 14.8027 113.131 15.2037 113.131 15.3454H113.251C113.251 15.2037 113.444 14.6844 113.613 14.3301L120.487 0.805531H124.467V1.01723H123.575C122.272 1.01723 122.08 1.3715 122.08 2.05585C122.08 2.24509 122.103 2.45765 122.103 2.69355L122.73 15.888C122.779 17.2334 122.972 17.5643 124.419 17.5643H124.998V17.7769H118.076V17.5643H119.04C120.487 17.5643 120.68 17.2101 120.68 16.6441V16.2423L120.149 3.80302C120.125 3.37789 120.125 3.02362 120.125 2.7644H119.957C119.957 2.83525 119.787 3.23619 119.546 3.73217L112.406 17.8711L112.334 18.0361H112.262L112.19 17.8711L105.146 3.99139C104.93 3.5196 104.857 3.07115 104.857 3.00029H104.76C104.76 3.21286 104.76 3.37789 104.737 3.80302L104.061 16.1956C104.061 16.4073 104.037 16.5966 104.037 16.7616C104.037 17.3285 104.254 17.5877 105.725 17.5877H106.666V17.8002H101.553V17.5643Z" fill="#FFE9BF" fill-opacity="0.24" style="mix-blend-mode:saturation"/>
<defs>
<linearGradient id="paint0_linear_103_6970" x1="0.0059324" y1="9.17237" x2="11.3118" y2="9.17237" gradientUnits="userSpaceOnUse">
<stop offset="0.0186222" stop-color="#9A8C84"/>
<stop offset="0.4235" stop-color="#D3CCC5"/>
<stop offset="0.4999" stop-color="#DED9D1"/>
<stop offset="0.5991" stop-color="#D1CAC0"/>
<stop offset="0.7129" stop-color="#C7C0B1"/>
<stop offset="0.8064" stop-color="#C4BCAC"/>
<stop offset="0.8566" stop-color="#B8AF9E"/>
<stop offset="0.9516" stop-color="#978E78"/>
<stop offset="0.9972" stop-color="#867664"/>
</linearGradient>
<linearGradient id="paint1_linear_103_6970" x1="15.1339" y1="9.17308" x2="34.8638" y2="9.17308" gradientUnits="userSpaceOnUse">
<stop offset="0.0186222" stop-color="#9A8C84"/>
<stop offset="0.4235" stop-color="#D3CCC5"/>
<stop offset="0.4999" stop-color="#DED9D1"/>
<stop offset="0.5991" stop-color="#D1CAC0"/>
<stop offset="0.7129" stop-color="#C7C0B1"/>
<stop offset="0.8064" stop-color="#C4BCAC"/>
<stop offset="0.8566" stop-color="#B8AF9E"/>
<stop offset="0.9516" stop-color="#978E78"/>
<stop offset="0.9972" stop-color="#867664"/>
</linearGradient>
<linearGradient id="paint2_linear_103_6970" x1="38.7927" y1="8.92433" x2="54.5759" y2="8.92433" gradientUnits="userSpaceOnUse">
<stop offset="0.0186222" stop-color="#9A8C84"/>
<stop offset="0.4235" stop-color="#D3CCC5"/>
<stop offset="0.4999" stop-color="#DED9D1"/>
<stop offset="0.5991" stop-color="#D1CAC0"/>
<stop offset="0.7129" stop-color="#C7C0B1"/>
<stop offset="0.8064" stop-color="#C4BCAC"/>
<stop offset="0.8566" stop-color="#B8AF9E"/>
<stop offset="0.9516" stop-color="#978E78"/>
<stop offset="0.9972" stop-color="#867664"/>
</linearGradient>
<linearGradient id="paint3_linear_103_6970" x1="59.2945" y1="9.35965" x2="80.3313" y2="9.35965" gradientUnits="userSpaceOnUse">
<stop offset="0.0186222" stop-color="#9A8C84"/>
<stop offset="0.4235" stop-color="#D3CCC5"/>
<stop offset="0.4999" stop-color="#DED9D1"/>
<stop offset="0.5991" stop-color="#D1CAC0"/>
<stop offset="0.7129" stop-color="#C7C0B1"/>
<stop offset="0.8064" stop-color="#C4BCAC"/>
<stop offset="0.8566" stop-color="#B8AF9E"/>
<stop offset="0.9516" stop-color="#978E78"/>
<stop offset="0.9972" stop-color="#867664"/>
</linearGradient>
<linearGradient id="paint4_linear_103_6970" x1="79.3166" y1="9.38254" x2="96.6457" y2="9.38254" gradientUnits="userSpaceOnUse">
<stop offset="0.0186222" stop-color="#9A8C84"/>
<stop offset="0.4235" stop-color="#D3CCC5"/>
<stop offset="0.4999" stop-color="#DED9D1"/>
<stop offset="0.5991" stop-color="#D1CAC0"/>
<stop offset="0.7129" stop-color="#C7C0B1"/>
<stop offset="0.8064" stop-color="#C4BCAC"/>
<stop offset="0.8566" stop-color="#B8AF9E"/>
<stop offset="0.9516" stop-color="#978E78"/>
<stop offset="0.9972" stop-color="#867664"/>
</linearGradient>
<linearGradient id="paint5_linear_103_6970" x1="101.561" y1="9.42284" x2="125.091" y2="9.42284" gradientUnits="userSpaceOnUse">
<stop offset="0.0186222" stop-color="#9A8C84"/>
<stop offset="0.4235" stop-color="#D3CCC5"/>
<stop offset="0.4999" stop-color="#DED9D1"/>
<stop offset="0.5991" stop-color="#D1CAC0"/>
<stop offset="0.7129" stop-color="#C7C0B1"/>
<stop offset="0.8064" stop-color="#C4BCAC"/>
<stop offset="0.8566" stop-color="#B8AF9E"/>
<stop offset="0.9516" stop-color="#978E78"/>
<stop offset="0.9972" stop-color="#867664"/>
</linearGradient>
</defs>
</svg>
