<svg width="22" height="23" viewBox="0 0 22 23" fill="none" xmlns="http://www.w3.org/2000/svg">
<path d="M12.1308 0.0830078C13.3682 0.0863076 13.9963 0.0929073 14.5386 0.108307L14.752 0.116006C14.9984 0.124806 15.2415 0.135805 15.5351 0.149004C16.7055 0.204002 17.504 0.388793 18.2047 0.660479C18.9307 0.939865 19.5422 1.31825 20.1538 1.92871C20.7133 2.47839 21.1462 3.14357 21.422 3.87782C21.6937 4.57848 21.8785 5.37704 21.9335 6.54848C21.9467 6.84107 21.9577 7.08416 21.9665 7.33164L21.9731 7.54503C21.9896 8.08621 21.9962 8.71427 21.9984 9.95171L21.9995 10.7723V12.2132C22.0022 13.0155 21.9938 13.8178 21.9742 14.6199L21.9676 14.8333C21.9588 15.0808 21.9478 15.3238 21.9346 15.6164C21.8796 16.7879 21.6926 17.5853 21.422 18.2871C21.1462 19.0213 20.7133 19.6865 20.1538 20.2362C19.6041 20.7957 18.9389 21.2285 18.2047 21.5044C17.504 21.7761 16.7055 21.9609 15.5351 22.0159L14.752 22.0489L14.5386 22.0555C13.9963 22.0709 13.3682 22.0786 12.1308 22.0808L11.3103 22.0819H9.87043C9.06775 22.0847 8.26508 22.0763 7.46265 22.0566L7.24926 22.05C6.98814 22.0401 6.72709 22.0287 6.4661 22.0159C5.29576 21.9609 4.4972 21.7761 3.79543 21.5044C3.06158 21.2284 2.39679 20.7956 1.84743 20.2362C1.2875 19.6866 0.854302 19.0214 0.578097 18.2871C0.30641 17.5864 0.121619 16.7879 0.0666222 15.6164L0.0336239 14.8333L0.0281244 14.6199C0.00784803 13.8178 -0.00131916 13.0155 0.000625645 12.2132V9.95171C-0.00241889 9.14941 0.00564823 8.34711 0.0248245 7.54503L0.0325241 7.33164C0.0413236 7.08416 0.0523231 6.84107 0.0655224 6.54848C0.12052 5.37704 0.30531 4.57958 0.576997 3.87782C0.853846 3.14327 1.28781 2.47807 1.84853 1.92871C2.39757 1.36945 3.06198 0.936646 3.79543 0.660479C4.4972 0.388793 5.29466 0.204002 6.4661 0.149004C6.75868 0.135805 7.00287 0.124806 7.24926 0.116006L7.46265 0.109406C8.26472 0.0898634 9.06702 0.0814297 9.86933 0.0841077L12.1308 0.0830078ZM11.0001 5.58273C9.54145 5.58273 8.14258 6.16216 7.11118 7.19356C6.07978 8.22496 5.50035 9.62384 5.50035 11.0825C5.50035 12.5411 6.07978 13.9399 7.11118 14.9713C8.14258 16.0027 9.54145 16.5822 11.0001 16.5822C12.4587 16.5822 13.8576 16.0027 14.889 14.9713C15.9204 13.9399 16.4998 12.5411 16.4998 11.0825C16.4998 9.62384 15.9204 8.22496 14.889 7.19356C13.8576 6.16216 12.4587 5.58273 11.0001 5.58273ZM11.0001 7.78262C11.4334 7.78255 11.8625 7.86783 12.2629 8.03359C12.6633 8.19936 13.0271 8.44236 13.3336 8.74873C13.64 9.0551 13.8832 9.41883 14.0491 9.81915C14.215 10.2195 14.3004 10.6486 14.3005 11.0819C14.3005 11.5152 14.2152 11.9444 14.0495 12.3447C13.8837 12.7451 13.6407 13.1089 13.3343 13.4154C13.028 13.7219 12.6642 13.965 12.2639 14.1309C11.8636 14.2968 11.4345 14.3822 11.0012 14.3823C10.126 14.3823 9.28667 14.0346 8.66784 13.4158C8.049 12.797 7.70134 11.9576 7.70134 11.0825C7.70134 10.2073 8.049 9.36796 8.66784 8.74912C9.28667 8.13028 10.126 7.78262 11.0012 7.78262M16.7759 3.93281C16.4112 3.93281 16.0615 4.07767 15.8037 4.33552C15.5458 4.59337 15.4009 4.94309 15.4009 5.30774C15.4009 5.6724 15.5458 6.02212 15.8037 6.27997C16.0615 6.53782 16.4112 6.68268 16.7759 6.68268C17.1405 6.68268 17.4903 6.53782 17.7481 6.27997C18.006 6.02212 18.1508 5.6724 18.1508 5.30774C18.1508 4.94309 18.006 4.59337 17.7481 4.33552C17.4903 4.07767 17.1405 3.93281 16.7759 3.93281Z" fill="url(#paint0_linear_2020_391)"/>
<path d="M12.1308 0.0830078C13.3682 0.0863076 13.9963 0.0929073 14.5386 0.108307L14.752 0.116006C14.9984 0.124806 15.2415 0.135805 15.5351 0.149004C16.7055 0.204002 17.504 0.388793 18.2047 0.660479C18.9307 0.939865 19.5422 1.31825 20.1538 1.92871C20.7133 2.47839 21.1462 3.14357 21.422 3.87782C21.6937 4.57848 21.8785 5.37704 21.9335 6.54848C21.9467 6.84107 21.9577 7.08416 21.9665 7.33164L21.9731 7.54503C21.9896 8.08621 21.9962 8.71427 21.9984 9.95171L21.9995 10.7723V12.2132C22.0022 13.0155 21.9938 13.8178 21.9742 14.6199L21.9676 14.8333C21.9588 15.0808 21.9478 15.3238 21.9346 15.6164C21.8796 16.7879 21.6926 17.5853 21.422 18.2871C21.1462 19.0213 20.7133 19.6865 20.1538 20.2362C19.6041 20.7957 18.9389 21.2285 18.2047 21.5044C17.504 21.7761 16.7055 21.9609 15.5351 22.0159L14.752 22.0489L14.5386 22.0555C13.9963 22.0709 13.3682 22.0786 12.1308 22.0808L11.3103 22.0819H9.87043C9.06775 22.0847 8.26508 22.0763 7.46265 22.0566L7.24926 22.05C6.98814 22.0401 6.72709 22.0287 6.4661 22.0159C5.29576 21.9609 4.4972 21.7761 3.79543 21.5044C3.06158 21.2284 2.39679 20.7956 1.84743 20.2362C1.2875 19.6866 0.854302 19.0214 0.578097 18.2871C0.30641 17.5864 0.121619 16.7879 0.0666222 15.6164L0.0336239 14.8333L0.0281244 14.6199C0.00784803 13.8178 -0.00131916 13.0155 0.000625645 12.2132V9.95171C-0.00241889 9.14941 0.00564823 8.34711 0.0248245 7.54503L0.0325241 7.33164C0.0413236 7.08416 0.0523231 6.84107 0.0655224 6.54848C0.12052 5.37704 0.30531 4.57958 0.576997 3.87782C0.853846 3.14327 1.28781 2.47807 1.84853 1.92871C2.39757 1.36945 3.06198 0.936646 3.79543 0.660479C4.4972 0.388793 5.29466 0.204002 6.4661 0.149004C6.75868 0.135805 7.00287 0.124806 7.24926 0.116006L7.46265 0.109406C8.26472 0.0898634 9.06702 0.0814297 9.86933 0.0841077L12.1308 0.0830078ZM11.0001 5.58273C9.54145 5.58273 8.14258 6.16216 7.11118 7.19356C6.07978 8.22496 5.50035 9.62384 5.50035 11.0825C5.50035 12.5411 6.07978 13.9399 7.11118 14.9713C8.14258 16.0027 9.54145 16.5822 11.0001 16.5822C12.4587 16.5822 13.8576 16.0027 14.889 14.9713C15.9204 13.9399 16.4998 12.5411 16.4998 11.0825C16.4998 9.62384 15.9204 8.22496 14.889 7.19356C13.8576 6.16216 12.4587 5.58273 11.0001 5.58273ZM11.0001 7.78262C11.4334 7.78255 11.8625 7.86783 12.2629 8.03359C12.6633 8.19936 13.0271 8.44236 13.3336 8.74873C13.64 9.0551 13.8832 9.41883 14.0491 9.81915C14.215 10.2195 14.3004 10.6486 14.3005 11.0819C14.3005 11.5152 14.2152 11.9444 14.0495 12.3447C13.8837 12.7451 13.6407 13.1089 13.3343 13.4154C13.028 13.7219 12.6642 13.965 12.2639 14.1309C11.8636 14.2968 11.4345 14.3822 11.0012 14.3823C10.126 14.3823 9.28667 14.0346 8.66784 13.4158C8.049 12.797 7.70134 11.9576 7.70134 11.0825C7.70134 10.2073 8.049 9.36796 8.66784 8.74912C9.28667 8.13028 10.126 7.78262 11.0012 7.78262M16.7759 3.93281C16.4112 3.93281 16.0615 4.07767 15.8037 4.33552C15.5458 4.59337 15.4009 4.94309 15.4009 5.30774C15.4009 5.6724 15.5458 6.02212 15.8037 6.27997C16.0615 6.53782 16.4112 6.68268 16.7759 6.68268C17.1405 6.68268 17.4903 6.53782 17.7481 6.27997C18.006 6.02212 18.1508 5.6724 18.1508 5.30774C18.1508 4.94309 18.006 4.59337 17.7481 4.33552C17.4903 4.07767 17.1405 3.93281 16.7759 3.93281Z" fill="#FFE9BF" fill-opacity="0.24" style="mix-blend-mode:saturation"/>
<defs>
<linearGradient id="paint0_linear_2020_391" x1="0.00777133" y1="11.0802" x2="22.0875" y2="11.0802" gradientUnits="userSpaceOnUse">
<stop offset="0.0186222" stop-color="#9A8C84"/>
<stop offset="0.4235" stop-color="#D3CCC5"/>
<stop offset="0.4999" stop-color="#DED9D1"/>
<stop offset="0.5991" stop-color="#D1CAC0"/>
<stop offset="0.7129" stop-color="#C7C0B1"/>
<stop offset="0.8064" stop-color="#C4BCAC"/>
<stop offset="0.8566" stop-color="#B8AF9E"/>
<stop offset="0.9516" stop-color="#978E78"/>
<stop offset="0.9972" stop-color="#867664"/>
</linearGradient>
</defs>
</svg>
