<svg width="13" height="13" viewBox="0 0 13 13" fill="none" xmlns="http://www.w3.org/2000/svg">
<path d="M6.52128 0.837891C6.52128 0.837891 5.96208 3.07469 4.91358 4.89209C3.09618 5.94059 0.859375 6.49979 0.859375 6.49979C0.859375 6.49979 3.09618 7.05899 4.91358 8.10749C5.96208 9.92489 6.52128 12.1617 6.52128 12.1617C6.52128 12.1617 7.08048 9.92489 8.12898 8.10749C9.94638 7.05899 12.1832 6.49979 12.1832 6.49979C12.1832 6.49979 9.94638 5.94059 8.12898 4.89209C7.08048 3.07469 6.52128 0.837891 6.52128 0.837891Z" fill="url(#paint0_linear_193_5389)"/>
<path d="M6.52128 0.837891C6.52128 0.837891 5.96208 3.07469 4.91358 4.89209C3.09618 5.94059 0.859375 6.49979 0.859375 6.49979C0.859375 6.49979 3.09618 7.05899 4.91358 8.10749C5.96208 9.92489 6.52128 12.1617 6.52128 12.1617C6.52128 12.1617 7.08048 9.92489 8.12898 8.10749C9.94638 7.05899 12.1832 6.49979 12.1832 6.49979C12.1832 6.49979 9.94638 5.94059 8.12898 4.89209C7.08048 3.07469 6.52128 0.837891 6.52128 0.837891Z" fill="#FFE9BF" fill-opacity="0.24" style="mix-blend-mode:saturation"/>
<defs>
<linearGradient id="paint0_linear_193_5389" x1="0.863375" y1="6.49847" x2="12.2282" y2="6.49847" gradientUnits="userSpaceOnUse">
<stop offset="0.0186222" stop-color="#9A8C84"/>
<stop offset="0.4235" stop-color="#D3CCC5"/>
<stop offset="0.4999" stop-color="#DED9D1"/>
<stop offset="0.5991" stop-color="#D1CAC0"/>
<stop offset="0.7129" stop-color="#C7C0B1"/>
<stop offset="0.8064" stop-color="#C4BCAC"/>
<stop offset="0.8566" stop-color="#B8AF9E"/>
<stop offset="0.9516" stop-color="#978E78"/>
<stop offset="0.9972" stop-color="#867664"/>
</linearGradient>
</defs>
</svg>
