<svg width="14" height="21" viewBox="0 0 14 21" fill="none" xmlns="http://www.w3.org/2000/svg">
<path d="M0.775373 19.9511H13.6848C13.6848 19.9511 11.899 14.7604 12.0711 11.3448C12.1787 9.20504 13.7106 8.03243 13.1469 5.96585C12.8995 5.06004 12.0711 3.81427 12.0711 3.81427C12.0711 3.81427 10.4575 4.89006 7.23009 4.89006C4.00273 4.89006 2.38905 3.81427 2.38905 3.81427C2.38905 3.81427 1.5607 5.06004 1.31327 5.96585C0.749555 8.03243 2.28148 9.20504 2.38905 11.3448C2.56118 14.7604 0.775373 19.9511 0.775373 19.9511Z" fill="url(#paint0_linear_2115_2507)"/>
<path d="M0.775373 19.9511H13.6848C13.6848 19.9511 11.899 14.7604 12.0711 11.3448C12.1787 9.20504 13.7106 8.03243 13.1469 5.96585C12.8995 5.06004 12.0711 3.81427 12.0711 3.81427C12.0711 3.81427 10.4575 4.89006 7.23009 4.89006C4.00273 4.89006 2.38905 3.81427 2.38905 3.81427C2.38905 3.81427 1.5607 5.06004 1.31327 5.96585C0.749555 8.03243 2.28148 9.20504 2.38905 11.3448C2.56118 14.7604 0.775373 19.9511 0.775373 19.9511Z" fill="#FFE9BF" fill-opacity="0.24" style="mix-blend-mode:saturation"/>
<path d="M12.0711 3.81427C12.0711 3.81427 12.8995 5.06004 13.1469 5.96585C13.7106 8.03243 12.1787 9.20504 12.0711 11.3448C11.899 14.7604 13.6848 19.9511 13.6848 19.9511H0.775374C0.775374 19.9511 2.56118 14.7604 2.38905 11.3448C2.28148 9.20504 0.749555 8.03243 1.31327 5.96585C1.5607 5.06004 2.38905 3.81427 2.38905 3.81427M12.0711 3.81427C12.0711 3.81427 10.4575 4.89006 7.23009 4.89006C4.00273 4.89006 2.38905 3.81427 2.38905 3.81427M12.0711 3.81427V0.586914M2.38905 3.81427V0.586914" stroke="url(#paint1_linear_2115_2507)" stroke-width="0.6" stroke-linecap="round" stroke-linejoin="round"/>
<path d="M12.0711 3.81427C12.0711 3.81427 12.8995 5.06004 13.1469 5.96585C13.7106 8.03243 12.1787 9.20504 12.0711 11.3448C11.899 14.7604 13.6848 19.9511 13.6848 19.9511H0.775374C0.775374 19.9511 2.56118 14.7604 2.38905 11.3448C2.28148 9.20504 0.749555 8.03243 1.31327 5.96585C1.5607 5.06004 2.38905 3.81427 2.38905 3.81427M12.0711 3.81427C12.0711 3.81427 10.4575 4.89006 7.23009 4.89006C4.00273 4.89006 2.38905 3.81427 2.38905 3.81427M12.0711 3.81427V0.586914M2.38905 3.81427V0.586914" stroke="#FFE9BF" stroke-opacity="0.24" stroke-width="0.6" stroke-linecap="round" stroke-linejoin="round" style="mix-blend-mode:saturation"/>
<defs>
<linearGradient id="paint0_linear_2115_2507" x1="13.6803" y1="10.2667" x2="0.72402" y2="10.2667" gradientUnits="userSpaceOnUse">
<stop offset="0.0186222" stop-color="#9A8C84"/>
<stop offset="0.4235" stop-color="#D3CCC5"/>
<stop offset="0.4999" stop-color="#DED9D1"/>
<stop offset="0.5991" stop-color="#D1CAC0"/>
<stop offset="0.7129" stop-color="#C7C0B1"/>
<stop offset="0.8064" stop-color="#C4BCAC"/>
<stop offset="0.8566" stop-color="#B8AF9E"/>
<stop offset="0.9516" stop-color="#978E78"/>
<stop offset="0.9972" stop-color="#867664"/>
</linearGradient>
<linearGradient id="paint1_linear_2115_2507" x1="13.6803" y1="10.2667" x2="0.72402" y2="10.2667" gradientUnits="userSpaceOnUse">
<stop offset="0.0186222" stop-color="#9A8C84"/>
<stop offset="0.4235" stop-color="#D3CCC5"/>
<stop offset="0.4999" stop-color="#DED9D1"/>
<stop offset="0.5991" stop-color="#D1CAC0"/>
<stop offset="0.7129" stop-color="#C7C0B1"/>
<stop offset="0.8064" stop-color="#C4BCAC"/>
<stop offset="0.8566" stop-color="#B8AF9E"/>
<stop offset="0.9516" stop-color="#978E78"/>
<stop offset="0.9972" stop-color="#867664"/>
</linearGradient>
</defs>
</svg>
