<svg width="143" height="21" viewBox="0 0 143 21" fill="none" xmlns="http://www.w3.org/2000/svg">
<g clip-path="url(#clip0_144_35812)">
<mask id="mask0_144_35812" style="mask-type:luminance" maskUnits="userSpaceOnUse" x="0" y="0" width="143" height="21">
<path d="M142.678 0.509766H0.320312V20.3715H142.678V0.509766Z" fill="white"/>
</mask>
<g mask="url(#mask0_144_35812)">
<path d="M12.1107 0.933594V20.0577H8.92644V3.68142H3.51073V20.0577H0.320312V0.933594H12.1107Z" fill="#1928DC"/>
<path d="M16.1307 19.3023C15.1743 18.425 14.4805 17.2992 14.1267 16.0504C13.6085 14.3017 13.3679 12.4826 13.4137 10.6593C13.3695 8.78965 13.6099 6.92411 14.1267 5.12677C14.4777 3.84149 15.1703 2.67526 16.1307 1.75193C16.9726 1.0316 18.0441 0.635742 19.1521 0.635742C20.2601 0.635742 21.3316 1.0316 22.1735 1.75193C23.1329 2.66428 23.822 3.82353 24.1652 5.10218C24.6786 6.90024 24.919 8.76524 24.8783 10.6347C24.9246 12.4681 24.684 14.2975 24.1652 16.0565C23.8212 17.3049 23.1307 18.4302 22.1735 19.3023C21.3177 19.9977 20.2487 20.3772 19.146 20.3772C18.0433 20.3772 16.9742 19.9977 16.1185 19.3023H16.1307ZM16.9176 14.4706C17.043 15.2901 17.3496 16.0713 17.8151 16.7573C17.9613 16.9799 18.1588 17.1641 18.3909 17.2946C18.623 17.425 18.8829 17.498 19.1491 17.5073C19.9359 17.5073 20.5568 16.9356 20.9932 15.78C21.5325 14.1288 21.7739 12.3949 21.7063 10.6593C21.7256 9.32895 21.6227 7.99969 21.3989 6.68818C21.263 5.83513 20.9488 5.02035 20.4768 4.29689C20.336 4.06285 20.1392 3.86736 19.9043 3.72791C19.6694 3.58845 19.4035 3.50938 19.1306 3.49775C18.8626 3.51274 18.6024 3.59348 18.3729 3.73285C18.1435 3.87223 17.952 4.06594 17.8151 4.29689C17.3494 5.02788 17.0436 5.84905 16.9176 6.70663C16.6837 8.01489 16.5767 9.34272 16.598 10.6716C16.5772 11.9454 16.6844 13.2181 16.9176 14.4706Z" fill="#1928DC"/>
<path d="M33.6263 0.933594V8.26725H31.942C31.3277 8.29303 30.7156 8.17735 30.1531 7.92915C29.7084 7.69524 29.3683 7.30234 29.2003 6.82879C28.974 6.17312 28.8718 5.48103 28.8991 4.78792V0.933594H25.7148V4.78792C25.619 6.45577 26.1154 8.10389 27.1164 9.44139C28.0507 10.5684 29.4462 11.1319 31.3026 11.1319H33.6263V20.0577H36.8167V0.933594H33.6263Z" fill="#1928DC"/>
<path d="M48.8139 3.68142H45.0641V20.0577H41.8921V3.68142H38.1484V0.933594H48.8139V3.68142Z" fill="#1928DC"/>
<path d="M53.3482 0.933807H55.8993C56.9476 0.892544 57.9853 1.16201 58.8811 1.70836C59.6694 2.23847 60.2813 2.99193 60.639 3.87219C61.0797 4.96278 61.3572 6.11236 61.4625 7.2839L62.9504 20.0579H59.7662L58.7269 11.1321H53.3482V20.0579H50.1641V0.933807H53.3482ZM53.3482 8.38425H58.4138L58.266 7.2839C58.2102 6.57804 58.0656 5.88207 57.8359 5.21229C57.6733 4.76229 57.358 4.38371 56.9444 4.14267C56.4081 3.88814 55.8164 3.77192 55.2231 3.80457H53.3482V8.38425Z" fill="#1928DC"/>
<path d="M76.1527 0.93424C77.2154 0.908766 78.2637 1.18362 79.1775 1.72724C80.0733 2.29736 80.7707 3.13041 81.1753 4.11236C81.6856 5.36153 81.9285 6.70387 81.8881 8.05274C81.9179 9.33289 81.6898 10.606 81.2183 11.7964C80.8664 12.7042 80.3034 13.5153 79.5767 14.1631C79.0733 14.6344 78.421 14.9149 77.7326 14.9561C77.378 14.9789 77.0224 14.9229 76.6923 14.7922C76.3616 14.6614 76.0639 14.4592 75.821 14.2V20.0583H72.6367V0.93424H76.1527ZM76.0113 10.862C76.0921 11.2033 76.2542 11.5198 76.485 11.7841C76.5604 11.8751 76.654 11.9494 76.7598 12.0024C76.8656 12.0553 76.9815 12.0856 77.0995 12.0915C77.3775 12.0759 77.6391 11.955 77.831 11.7534C78.1244 11.4413 78.336 11.061 78.4455 10.6469C78.6231 10.0109 78.7039 9.35197 78.6852 8.69204C78.6852 6.90529 78.4684 5.64301 78.034 4.90536C77.8506 4.56524 77.5763 4.28247 77.2425 4.08828C76.9081 3.8941 76.527 3.79606 76.1405 3.80501H75.821V9.33751C75.8151 9.85199 75.8795 10.3648 76.0113 10.862Z" fill="#1928DC"/>
<path d="M85.4355 19.3026C84.477 18.427 83.7828 17.3005 83.4314 16.0507C82.9109 14.3024 82.668 12.4832 82.7121 10.6596C82.6691 8.78958 82.9115 6.92394 83.4314 5.12707C83.779 3.84044 84.4722 2.67342 85.4355 1.75223C86.2643 1.01566 87.3386 0.616469 88.4475 0.633432C89.5607 0.614922 90.6409 1.01156 91.4782 1.74608C92.4404 2.66435 93.132 3.82981 93.4759 5.11477C93.9868 6.9132 94.2255 8.77815 94.183 10.6473C94.2271 12.4716 93.9905 14.2919 93.4823 16.0446C93.1357 17.2918 92.4457 18.4165 91.4904 19.2903C90.6298 20.0093 89.5378 20.3916 88.4167 20.3661C87.328 20.3772 86.2712 20.0002 85.4355 19.3026ZM86.2159 14.4709C86.3472 15.2889 86.6534 16.0689 87.1138 16.7577C87.2599 16.9798 87.4577 17.1637 87.6895 17.2942C87.9218 17.4247 88.1817 17.4978 88.4475 17.5076C89.2407 17.5076 89.8552 16.9359 90.2917 15.7803C90.8206 14.1272 91.0513 12.3934 90.9742 10.6596C90.9944 9.32894 90.8897 7.99936 90.6606 6.68844C90.541 5.84075 90.2481 5.02672 89.7999 4.29719C89.6681 4.05607 89.4741 3.85487 89.2375 3.7147C89.0009 3.57453 88.7314 3.50057 88.4566 3.50057C88.1817 3.50057 87.9122 3.57453 87.6757 3.7147C87.4396 3.85487 87.2451 4.05607 87.1138 4.29719C86.6523 5.03043 86.3467 5.85064 86.2159 6.70689C85.9878 8.01584 85.8826 9.3433 85.9022 10.6719C85.8831 11.9454 85.9884 13.2177 86.2159 14.4709Z" fill="#1928DC"/>
<path d="M96.3884 5.26149C97.1725 3.83044 98.3968 2.69014 99.8799 2.0096C101.611 1.25321 103.487 0.885985 105.376 0.933829V3.80459C103.113 3.80459 101.38 4.37834 100.175 5.5258C98.9454 6.66921 98.3675 8.38431 98.3675 10.6588C98.3675 12.9333 98.9821 14.4885 100.169 15.5766C101.355 16.6646 103.101 17.2056 105.376 17.2056V20.0763C102.123 20.0763 99.603 19.2895 97.8328 17.7158C96.0625 16.1421 95.1769 13.8 95.1769 10.6772C95.1099 8.798 95.5267 6.93304 96.3884 5.26149Z" fill="#1928DC"/>
<path d="M107.117 5.26149C107.901 3.83044 109.125 2.69014 110.608 2.0096C112.339 1.25321 114.215 0.885985 116.104 0.933829V3.80459C113.841 3.80459 112.108 4.37834 110.903 5.5258C109.674 6.66921 109.096 8.38431 109.096 10.6588C109.096 12.9333 109.71 14.4885 110.897 15.5766C112.083 16.6646 113.829 17.2056 116.104 17.2056V20.0763C112.852 20.0763 110.331 19.2895 108.561 17.7158C106.791 16.1421 105.924 13.7816 105.924 10.6588C105.854 8.78737 106.264 6.92927 107.117 5.26149Z" fill="#1928DC"/>
<path d="M120.788 0.934037V7.76361L126.21 3.19622L129.382 0.52832V20.0765H126.21V7.04441L120.794 11.6118V20.0581H117.604V0.934037H120.788Z" fill="#1928DC"/>
<path d="M134.072 0.934037V7.76361L139.494 3.19622L142.666 0.52832V20.0765H139.482V7.04441L134.059 11.6118V20.0581H130.875V0.934037H134.072Z" fill="#1928DC"/>
</g>
</g>
<defs>
<clipPath id="clip0_144_35812">
<rect width="143" height="20.7323" fill="white" transform="translate(0 0.0742188)"/>
</clipPath>
</defs>
</svg>
