<svg width="650" height="437" viewBox="0 0 650 437" fill="none" xmlns="http://www.w3.org/2000/svg">
<path d="M314.918 167.608C306.203 165.796 298.447 162.069 291.839 156.052C291.566 155.803 291.247 155.603 290.96 155.368C290.672 155.134 290.394 154.885 289.817 154.392C296.539 156.027 302.423 158.738 307.973 162.186C310.425 163.709 312.744 165.446 315.112 167.097C315.265 167.204 315.346 167.416 315.458 167.578C315.278 167.589 315.089 167.643 314.918 167.608ZM287.702 151.1C284.838 150.201 284.095 147.326 282.545 145.211C283.622 145.378 284.743 145.41 285.772 145.733C294.026 148.336 301.166 152.865 308.115 158.745C304.235 156.973 300.898 155.231 297.398 153.917C294.257 152.739 290.913 152.106 287.702 151.1ZM278.405 136.591C278.039 135.774 279.487 136.408 279.891 136.531C290.106 139.642 298.616 145.453 305.945 153.113C306.732 153.936 307.646 154.636 308.503 155.393C300.764 148.965 292.168 144.156 282.349 141.91C279.116 141.171 279.285 138.557 278.405 136.591ZM276.326 129.732C276.418 128.878 277.531 129.658 278.146 129.815C290.101 132.889 299.089 140.324 306.935 149.425C308.116 150.794 309.287 152.171 310.462 153.545C306.516 149.32 302.229 145.46 297.502 142.092C291.443 137.772 284.821 134.685 277.588 132.854C276.172 132.496 276.214 130.765 276.326 129.732ZM275.531 125.439C275.382 123.917 275.366 122.381 275.293 120.851C276.511 121.091 277.761 121.225 278.943 121.586C287.402 124.185 294.566 128.932 300.617 135.275C304.927 139.792 309 144.563 311.608 150.354C311.714 150.586 311.748 150.849 311.947 151.577C308.46 146.459 304.558 142.382 300.27 138.644C293.529 132.769 285.909 128.596 277.181 126.51C276.489 126.344 275.621 126.361 275.531 125.439ZM275.347 114.393C275.553 113.166 276.643 114.143 277.161 114.273C288.757 117.17 297.985 123.687 305.14 133.119C307.493 136.222 310.066 139.3 311.48 144.252C306.115 136.423 300.598 130.23 293.616 125.516C288.125 121.81 282.143 119.182 275.624 117.694C274.147 117.358 275.169 115.46 275.347 114.393ZM275.834 109.388C276.066 108.535 275.752 106.988 277.572 107.444C286.279 109.628 294.045 113.609 300.734 119.607C305.085 123.508 308.768 128.008 312.138 132.765C312.45 133.205 312.57 133.782 312.818 134.387C312.461 135.409 312.114 136.403 311.767 137.397C311.255 136.647 310.739 135.898 310.228 135.148C303.79 125.694 295.706 118.152 284.97 113.811C282.198 112.689 279.239 112.024 276.359 111.171C275.243 110.841 275.687 109.932 275.834 109.388ZM277.435 103.23C277.954 101.175 278.709 100.717 280.83 101.321C291.484 104.349 300.494 109.917 307.668 118.34C310.066 121.157 312.457 124.034 313.818 127.071C313.755 129.388 313.507 129.904 313.023 129.266C312.485 128.563 311.976 127.838 311.455 127.122C307.785 122.062 303.364 117.706 298.401 113.973C292.564 109.584 285.962 106.657 278.886 104.805C278.16 104.616 277.023 104.864 277.435 103.23ZM279.928 97.0962C281.455 91.0133 285.333 93.8852 288.35 95.0917C295.493 97.9463 302.372 101.388 307.388 107.501C310.381 111.15 312.4 115.342 313.176 120.138C313.155 120.179 313.108 120.282 313.061 120.383C312.936 120.291 312.778 120.222 312.692 120.102C304.561 109.01 293.858 101.727 280.504 98.3516C279.793 98.1719 279.741 97.8422 279.928 97.0962ZM286.877 87.2014C296.375 90.4439 305.047 95.2195 312.127 102.46C319.137 109.628 321.464 123.33 317.379 132.519C314.534 138.923 313.225 145.495 314.863 152.455C314.915 152.676 314.87 152.92 314.87 154.379C313.371 147.867 313.081 142.592 314.723 137.28C318.847 123.933 315.732 108.513 303.331 99.7332C297.692 95.7399 291.413 93.0099 284.914 90.7467C284.611 90.6411 284.381 90.3256 284.117 90.1096C285.008 89.0624 285.545 86.7471 286.877 87.2014ZM319.681 133.651C324.589 121.997 322.702 110.436 314.37 100.755C308.049 93.4105 299.53 88.9031 290.519 85.4192C289.989 85.2142 287.707 85.3719 289.489 83.6623C291.214 82.0063 292.919 80.2857 294.848 78.8899C296.398 77.7686 297.986 76.7671 299.595 75.8208C299.549 74.8256 299.567 73.8305 299.661 72.84C294.813 75.5259 290.372 79.0271 286.349 83.3421C279.099 91.1142 274.631 100.397 273.207 111.049C270.753 129.407 276.344 145 289.785 157.562C297.942 165.182 307.845 169.417 319.052 170.811C323.22 171.328 323.288 170.447 321.883 167.053C317.396 156.215 314.702 145.471 319.681 133.651Z" fill="url(#paint0_linear_230_5385)"/>
<path d="M314.918 167.608C306.203 165.796 298.447 162.069 291.839 156.052C291.566 155.803 291.247 155.603 290.96 155.368C290.672 155.134 290.394 154.885 289.817 154.392C296.539 156.027 302.423 158.738 307.973 162.186C310.425 163.709 312.744 165.446 315.112 167.097C315.265 167.204 315.346 167.416 315.458 167.578C315.278 167.589 315.089 167.643 314.918 167.608ZM287.702 151.1C284.838 150.201 284.095 147.326 282.545 145.211C283.622 145.378 284.743 145.41 285.772 145.733C294.026 148.336 301.166 152.865 308.115 158.745C304.235 156.973 300.898 155.231 297.398 153.917C294.257 152.739 290.913 152.106 287.702 151.1ZM278.405 136.591C278.039 135.774 279.487 136.408 279.891 136.531C290.106 139.642 298.616 145.453 305.945 153.113C306.732 153.936 307.646 154.636 308.503 155.393C300.764 148.965 292.168 144.156 282.349 141.91C279.116 141.171 279.285 138.557 278.405 136.591ZM276.326 129.732C276.418 128.878 277.531 129.658 278.146 129.815C290.101 132.889 299.089 140.324 306.935 149.425C308.116 150.794 309.287 152.171 310.462 153.545C306.516 149.32 302.229 145.46 297.502 142.092C291.443 137.772 284.821 134.685 277.588 132.854C276.172 132.496 276.214 130.765 276.326 129.732ZM275.531 125.439C275.382 123.917 275.366 122.381 275.293 120.851C276.511 121.091 277.761 121.225 278.943 121.586C287.402 124.185 294.566 128.932 300.617 135.275C304.927 139.792 309 144.563 311.608 150.354C311.714 150.586 311.748 150.849 311.947 151.577C308.46 146.459 304.558 142.382 300.27 138.644C293.529 132.769 285.909 128.596 277.181 126.51C276.489 126.344 275.621 126.361 275.531 125.439ZM275.347 114.393C275.553 113.166 276.643 114.143 277.161 114.273C288.757 117.17 297.985 123.687 305.14 133.119C307.493 136.222 310.066 139.3 311.48 144.252C306.115 136.423 300.598 130.23 293.616 125.516C288.125 121.81 282.143 119.182 275.624 117.694C274.147 117.358 275.169 115.46 275.347 114.393ZM275.834 109.388C276.066 108.535 275.752 106.988 277.572 107.444C286.279 109.628 294.045 113.609 300.734 119.607C305.085 123.508 308.768 128.008 312.138 132.765C312.45 133.205 312.57 133.782 312.818 134.387C312.461 135.409 312.114 136.403 311.767 137.397C311.255 136.647 310.739 135.898 310.228 135.148C303.79 125.694 295.706 118.152 284.97 113.811C282.198 112.689 279.239 112.024 276.359 111.171C275.243 110.841 275.687 109.932 275.834 109.388ZM277.435 103.23C277.954 101.175 278.709 100.717 280.83 101.321C291.484 104.349 300.494 109.917 307.668 118.34C310.066 121.157 312.457 124.034 313.818 127.071C313.755 129.388 313.507 129.904 313.023 129.266C312.485 128.563 311.976 127.838 311.455 127.122C307.785 122.062 303.364 117.706 298.401 113.973C292.564 109.584 285.962 106.657 278.886 104.805C278.16 104.616 277.023 104.864 277.435 103.23ZM279.928 97.0962C281.455 91.0133 285.333 93.8852 288.35 95.0917C295.493 97.9463 302.372 101.388 307.388 107.501C310.381 111.15 312.4 115.342 313.176 120.138C313.155 120.179 313.108 120.282 313.061 120.383C312.936 120.291 312.778 120.222 312.692 120.102C304.561 109.01 293.858 101.727 280.504 98.3516C279.793 98.1719 279.741 97.8422 279.928 97.0962ZM286.877 87.2014C296.375 90.4439 305.047 95.2195 312.127 102.46C319.137 109.628 321.464 123.33 317.379 132.519C314.534 138.923 313.225 145.495 314.863 152.455C314.915 152.676 314.87 152.92 314.87 154.379C313.371 147.867 313.081 142.592 314.723 137.28C318.847 123.933 315.732 108.513 303.331 99.7332C297.692 95.7399 291.413 93.0099 284.914 90.7467C284.611 90.6411 284.381 90.3256 284.117 90.1096C285.008 89.0624 285.545 86.7471 286.877 87.2014ZM319.681 133.651C324.589 121.997 322.702 110.436 314.37 100.755C308.049 93.4105 299.53 88.9031 290.519 85.4192C289.989 85.2142 287.707 85.3719 289.489 83.6623C291.214 82.0063 292.919 80.2857 294.848 78.8899C296.398 77.7686 297.986 76.7671 299.595 75.8208C299.549 74.8256 299.567 73.8305 299.661 72.84C294.813 75.5259 290.372 79.0271 286.349 83.3421C279.099 91.1142 274.631 100.397 273.207 111.049C270.753 129.407 276.344 145 289.785 157.562C297.942 165.182 307.845 169.417 319.052 170.811C323.22 171.328 323.288 170.447 321.883 167.053C317.396 156.215 314.702 145.471 319.681 133.651Z" fill="#FFE9BF" fill-opacity="0.24" style="mix-blend-mode:saturation"/>
<path d="M368.75 127.674C363.308 129.188 358.402 131.853 353.888 135.176C347.846 139.623 342.874 145.184 337.554 151.658C339.213 147.104 341.705 144.14 344.086 141.101C348.897 134.965 354.469 129.676 361.225 125.724C365.007 123.511 369.103 122.004 373.314 120.837C373.751 120.715 374.615 120.07 374.837 121.584C375.564 126.532 371.962 126.779 368.75 127.674ZM372.093 132.862C361.596 135.48 352.642 140.802 344.845 148.181C343.504 149.449 342.289 150.848 341.016 152.187C345.891 145.484 351.688 139.773 358.692 135.406C363.069 132.678 367.767 130.605 372.836 129.475C373.038 129.43 373.508 129.735 373.505 129.744C373.093 130.82 373.546 132.5 372.093 132.862ZM371.379 136.983C370.473 143.237 364.629 142.199 360.801 143.849C354.98 146.358 349.438 149.209 344.449 153.114C343.404 153.933 342.386 154.784 340.659 156.185C345.847 150.875 350.643 146.44 356.202 142.882C360.724 139.988 365.526 137.728 370.688 136.245C370.932 136.176 371.211 136.234 371.473 136.233C371.442 136.483 371.415 136.734 371.379 136.983ZM366.945 145.664C365.064 150.559 360.618 151.302 356.284 152.466C350.98 153.892 346.052 156.294 340.838 159.509C348.827 152.78 356.957 147.604 366.545 145.049C366.729 145 366.941 145.052 367.139 145.057C367.076 145.26 367.023 145.467 366.945 145.664ZM333.952 167.83C335.859 164.521 355.44 154.423 359.601 154.616C352.275 161.541 343.817 165.898 333.952 167.83ZM330.522 126.462C328.982 115.843 332.077 106.802 340.235 99.588C346.761 93.8158 354.483 90.2357 362.553 87.3511C364.471 86.6651 364.922 89.0323 365.68 90.1821C366.086 90.7971 364.693 90.7924 364.14 91.0085C354.13 94.915 344.358 99.2915 338.461 108.912C333.089 117.675 332.389 127.123 335.414 136.938C337.112 142.442 336.907 147.988 334.692 153.477C338.101 143.677 331.829 135.472 330.522 126.462ZM370.119 97.6718C370.418 98.4825 369.213 98.2838 368.669 98.4304C356.355 101.776 346.266 108.488 338.275 118.397C337.756 119.04 337.19 119.646 336.646 120.269C336.822 119.362 336.931 118.438 337.182 117.553C340.344 106.408 348.83 100.594 358.711 96.2335C361.487 95.0096 364.37 94.0318 367.546 92.8095C368.45 94.4608 369.496 95.9875 370.119 97.6718ZM372.449 103.777C372.598 105.091 370.899 104.793 370.051 105.024C361.324 107.414 353.619 111.568 346.936 117.697C343.158 121.163 339.794 124.959 336.799 129.102C336.701 129.24 336.494 129.298 336.338 129.393C336.198 128.889 336.057 128.385 335.838 127.598C337.108 124.213 339.592 121.439 341.926 118.624C348.417 110.794 356.614 105.411 366.248 102.198C367.63 101.738 369.03 101.23 370.461 101.041C372.489 100.774 372.341 102.81 372.449 103.777ZM374.885 116.719C374.88 118.302 373.484 117.971 372.65 118.165C363.632 120.252 356.033 124.858 349.302 131.064C345.555 134.521 342.389 138.467 339.445 142.607C339.33 142.771 339.071 142.833 338.88 142.943C338.885 142.587 338.76 142.155 338.915 141.883C344.304 132.435 351.078 124.303 360.757 118.911C364.87 116.619 369.273 115.135 373.793 113.935C374.639 113.71 374.878 114.326 374.885 116.719ZM373.73 107.698C373.572 108.896 375.856 110.65 373.369 111.249C361.088 114.208 351.105 120.695 343.227 130.476C341.752 132.306 340.539 134.346 339.18 136.27C338.835 136.759 338.388 137.179 337.989 137.63C337.772 137.089 337.529 136.557 337.341 136.007C337.127 135.371 336.961 134.72 336.683 133.761C338.473 131.405 340.289 128.845 342.279 126.426C350.201 116.794 360.056 110.141 372.289 107.215C372.871 107.076 373.866 106.669 373.73 107.698ZM364.668 85.1148C362.534 82.7412 360.545 80.2761 358.016 78.2543C355.54 76.2765 352.981 74.5764 350.352 73.1018C350.319 73.9755 350.247 74.8492 350.103 75.7103C352.716 77.2291 355.219 78.9908 357.599 81.0237C358.848 82.0914 359.902 83.3878 361.045 84.577C360.052 85.0722 359.094 85.6667 358.058 86.0437C349.688 89.0875 342.118 93.5902 336.046 100.011C328.796 107.674 326.735 117.162 328.29 127.538C329.072 132.761 332.051 137.305 332.782 142.486C334.154 152.217 330.353 160.905 326.91 169.633C326.522 170.616 326.494 171.065 327.73 170.992C338.94 170.336 348.963 166.586 357.678 159.476C370.027 149.402 376.577 136.272 377.145 120.472C377.621 107.202 373.724 95.191 364.668 85.1148Z" fill="url(#paint1_linear_230_5385)"/>
<path d="M368.75 127.674C363.308 129.188 358.402 131.853 353.888 135.176C347.846 139.623 342.874 145.184 337.554 151.658C339.213 147.104 341.705 144.14 344.086 141.101C348.897 134.965 354.469 129.676 361.225 125.724C365.007 123.511 369.103 122.004 373.314 120.837C373.751 120.715 374.615 120.07 374.837 121.584C375.564 126.532 371.962 126.779 368.75 127.674ZM372.093 132.862C361.596 135.48 352.642 140.802 344.845 148.181C343.504 149.449 342.289 150.848 341.016 152.187C345.891 145.484 351.688 139.773 358.692 135.406C363.069 132.678 367.767 130.605 372.836 129.475C373.038 129.43 373.508 129.735 373.505 129.744C373.093 130.82 373.546 132.5 372.093 132.862ZM371.379 136.983C370.473 143.237 364.629 142.199 360.801 143.849C354.98 146.358 349.438 149.209 344.449 153.114C343.404 153.933 342.386 154.784 340.659 156.185C345.847 150.875 350.643 146.44 356.202 142.882C360.724 139.988 365.526 137.728 370.688 136.245C370.932 136.176 371.211 136.234 371.473 136.233C371.442 136.483 371.415 136.734 371.379 136.983ZM366.945 145.664C365.064 150.559 360.618 151.302 356.284 152.466C350.98 153.892 346.052 156.294 340.838 159.509C348.827 152.78 356.957 147.604 366.545 145.049C366.729 145 366.941 145.052 367.139 145.057C367.076 145.26 367.023 145.467 366.945 145.664ZM333.952 167.83C335.859 164.521 355.44 154.423 359.601 154.616C352.275 161.541 343.817 165.898 333.952 167.83ZM330.522 126.462C328.982 115.843 332.077 106.802 340.235 99.588C346.761 93.8158 354.483 90.2357 362.553 87.3511C364.471 86.6651 364.922 89.0323 365.68 90.1821C366.086 90.7971 364.693 90.7924 364.14 91.0085C354.13 94.915 344.358 99.2915 338.461 108.912C333.089 117.675 332.389 127.123 335.414 136.938C337.112 142.442 336.907 147.988 334.692 153.477C338.101 143.677 331.829 135.472 330.522 126.462ZM370.119 97.6718C370.418 98.4825 369.213 98.2838 368.669 98.4304C356.355 101.776 346.266 108.488 338.275 118.397C337.756 119.04 337.19 119.646 336.646 120.269C336.822 119.362 336.931 118.438 337.182 117.553C340.344 106.408 348.83 100.594 358.711 96.2335C361.487 95.0096 364.37 94.0318 367.546 92.8095C368.45 94.4608 369.496 95.9875 370.119 97.6718ZM372.449 103.777C372.598 105.091 370.899 104.793 370.051 105.024C361.324 107.414 353.619 111.568 346.936 117.697C343.158 121.163 339.794 124.959 336.799 129.102C336.701 129.24 336.494 129.298 336.338 129.393C336.198 128.889 336.057 128.385 335.838 127.598C337.108 124.213 339.592 121.439 341.926 118.624C348.417 110.794 356.614 105.411 366.248 102.198C367.63 101.738 369.03 101.23 370.461 101.041C372.489 100.774 372.341 102.81 372.449 103.777ZM374.885 116.719C374.88 118.302 373.484 117.971 372.65 118.165C363.632 120.252 356.033 124.858 349.302 131.064C345.555 134.521 342.389 138.467 339.445 142.607C339.33 142.771 339.071 142.833 338.88 142.943C338.885 142.587 338.76 142.155 338.915 141.883C344.304 132.435 351.078 124.303 360.757 118.911C364.87 116.619 369.273 115.135 373.793 113.935C374.639 113.71 374.878 114.326 374.885 116.719ZM373.73 107.698C373.572 108.896 375.856 110.65 373.369 111.249C361.088 114.208 351.105 120.695 343.227 130.476C341.752 132.306 340.539 134.346 339.18 136.27C338.835 136.759 338.388 137.179 337.989 137.63C337.772 137.089 337.529 136.557 337.341 136.007C337.127 135.371 336.961 134.72 336.683 133.761C338.473 131.405 340.289 128.845 342.279 126.426C350.201 116.794 360.056 110.141 372.289 107.215C372.871 107.076 373.866 106.669 373.73 107.698ZM364.668 85.1148C362.534 82.7412 360.545 80.2761 358.016 78.2543C355.54 76.2765 352.981 74.5764 350.352 73.1018C350.319 73.9755 350.247 74.8492 350.103 75.7103C352.716 77.2291 355.219 78.9908 357.599 81.0237C358.848 82.0914 359.902 83.3878 361.045 84.577C360.052 85.0722 359.094 85.6667 358.058 86.0437C349.688 89.0875 342.118 93.5902 336.046 100.011C328.796 107.674 326.735 117.162 328.29 127.538C329.072 132.761 332.051 137.305 332.782 142.486C334.154 152.217 330.353 160.905 326.91 169.633C326.522 170.616 326.494 171.065 327.73 170.992C338.94 170.336 348.963 166.586 357.678 159.476C370.027 149.402 376.577 136.272 377.145 120.472C377.621 107.202 373.724 95.191 364.668 85.1148Z" fill="#FFE9BF" fill-opacity="0.24" style="mix-blend-mode:saturation"/>
<path d="M335.349 81.6781C335.731 81.358 336.152 81.0473 336.559 80.7476L336.63 80.6956C337.092 80.3565 337.586 79.9606 338.073 79.5301C338.442 80.8075 338.653 82.0014 338.653 83.0581C338.653 91.368 331.416 94.3188 327.874 95.2666C328.296 90.1457 330.864 85.4522 335.349 81.6781ZM311.112 83.0581C311.112 81.9998 311.323 80.8075 311.688 79.538C312.126 79.9243 312.596 80.3013 313.134 80.6956L313.205 80.7476C313.612 81.0473 314.033 81.358 314.415 81.6781C318.901 85.4522 321.471 90.1473 321.89 95.2666C318.348 94.3204 311.112 91.3696 311.112 83.0581ZM325.025 56.2974C324.977 56.2769 324.932 56.3195 324.882 56.3258C324.831 56.3195 324.789 56.2769 324.738 56.2974C324.697 56.3132 324.699 56.3652 324.671 56.3968L324.045 57.0292C323.131 57.9566 315.194 66.1434 311.103 74.5211C310.486 72.8651 310.178 70.8369 310.178 68.1653C310.178 59.1504 321.997 48.4544 324.882 45.9783C327.767 48.4544 339.587 59.1536 339.587 68.1653C339.587 70.8354 339.278 72.862 338.66 74.5211C334.455 65.9132 326.082 57.3951 325.719 57.0292L325.092 56.3968C325.063 56.3652 325.066 56.3132 325.025 56.2974ZM307.91 71.1808C308.007 72.1302 308.149 72.9771 308.343 73.7688C308.532 74.5527 308.783 75.3018 309.085 75.9957C309.264 76.3979 309.508 76.9215 309.831 77.4136C309.836 77.4214 309.842 77.4278 309.847 77.4341C309.092 79.5064 308.702 81.3974 308.702 83.0581C308.702 95.5647 322.841 97.8768 322.986 97.8989L324.045 98.0613C324.059 98.0645 324.074 98.0645 324.087 98.0645C324.106 98.0645 324.115 98.0424 324.133 98.0376C324.152 98.0345 324.172 98.0345 324.191 98.0282C324.207 98.0219 324.204 97.9966 324.218 97.9872C324.261 97.9619 324.319 97.9604 324.343 97.913C324.36 97.8831 324.328 97.8531 324.333 97.8216C324.341 97.7932 324.38 97.7837 324.38 97.7538L324.377 96.727C324.362 90.3334 321.463 84.5217 315.993 79.9228C315.523 79.5253 315.026 79.1626 314.542 78.8062C314.154 78.5223 313.765 78.2368 313.397 77.9293C313.214 77.7763 313.033 77.617 312.863 77.4514C312.781 77.3694 312.7 77.2858 312.621 77.2006C312.595 77.1707 312.571 77.1297 312.544 77.0997C315.553 69.9585 322.461 62.1864 324.882 59.5889C327.301 62.1817 334.206 69.9459 337.221 77.0981C337.195 77.1297 337.173 77.1691 337.146 77.1991C337.065 77.2858 336.985 77.3694 336.901 77.4514C336.732 77.617 336.554 77.7763 336.367 77.9293C335.999 78.2368 335.61 78.5223 335.174 78.8409C334.674 79.2083 334.222 79.5427 333.771 79.9228C328.3 84.5232 325.402 90.335 325.387 96.727L325.383 97.7538C325.383 97.7837 325.421 97.7932 325.431 97.8216C325.436 97.8531 325.404 97.8831 325.42 97.913C325.445 97.9604 325.502 97.9619 325.546 97.9872C325.56 97.9966 325.557 98.0219 325.573 98.0282C325.592 98.0345 325.612 98.0345 325.631 98.0376C325.648 98.0424 325.658 98.0645 325.675 98.0645C325.689 98.0645 325.705 98.0645 325.719 98.0613L326.778 97.8989C326.921 97.8768 341.062 95.5647 341.062 83.0581C341.062 81.4021 340.672 79.508 339.918 77.4356C339.923 77.4278 339.929 77.423 339.934 77.4151C340.262 76.9152 340.505 76.3932 340.678 75.9957C340.98 75.3128 341.23 74.5637 341.421 73.7704C341.615 72.9771 341.757 72.1302 341.853 71.1808C341.95 70.2455 341.994 69.2582 341.994 68.1653C341.994 63.3172 339.218 57.679 333.738 51.4083C329.67 46.7495 325.655 43.5432 325.617 43.5117L325.092 43.0921C325.068 43.0669 325.071 43.0243 325.04 43.0086C324.989 42.9833 324.937 43.0196 324.882 43.0275C324.827 43.0196 324.775 42.9833 324.724 43.0086C324.693 43.0243 324.696 43.0669 324.672 43.0921L324.145 43.5148C323.72 43.8555 319.903 46.9687 316.025 51.4083C310.546 57.6821 307.769 63.3188 307.769 68.1653C307.769 69.2582 307.814 70.2455 307.91 71.1808Z" fill="url(#paint2_linear_230_5385)"/>
<path d="M335.349 81.6781C335.731 81.358 336.152 81.0473 336.559 80.7476L336.63 80.6956C337.092 80.3565 337.586 79.9606 338.073 79.5301C338.442 80.8075 338.653 82.0014 338.653 83.0581C338.653 91.368 331.416 94.3188 327.874 95.2666C328.296 90.1457 330.864 85.4522 335.349 81.6781ZM311.112 83.0581C311.112 81.9998 311.323 80.8075 311.688 79.538C312.126 79.9243 312.596 80.3013 313.134 80.6956L313.205 80.7476C313.612 81.0473 314.033 81.358 314.415 81.6781C318.901 85.4522 321.471 90.1473 321.89 95.2666C318.348 94.3204 311.112 91.3696 311.112 83.0581ZM325.025 56.2974C324.977 56.2769 324.932 56.3195 324.882 56.3258C324.831 56.3195 324.789 56.2769 324.738 56.2974C324.697 56.3132 324.699 56.3652 324.671 56.3968L324.045 57.0292C323.131 57.9566 315.194 66.1434 311.103 74.5211C310.486 72.8651 310.178 70.8369 310.178 68.1653C310.178 59.1504 321.997 48.4544 324.882 45.9783C327.767 48.4544 339.587 59.1536 339.587 68.1653C339.587 70.8354 339.278 72.862 338.66 74.5211C334.455 65.9132 326.082 57.3951 325.719 57.0292L325.092 56.3968C325.063 56.3652 325.066 56.3132 325.025 56.2974ZM307.91 71.1808C308.007 72.1302 308.149 72.9771 308.343 73.7688C308.532 74.5527 308.783 75.3018 309.085 75.9957C309.264 76.3979 309.508 76.9215 309.831 77.4136C309.836 77.4214 309.842 77.4278 309.847 77.4341C309.092 79.5064 308.702 81.3974 308.702 83.0581C308.702 95.5647 322.841 97.8768 322.986 97.8989L324.045 98.0613C324.059 98.0645 324.074 98.0645 324.087 98.0645C324.106 98.0645 324.115 98.0424 324.133 98.0376C324.152 98.0345 324.172 98.0345 324.191 98.0282C324.207 98.0219 324.204 97.9966 324.218 97.9872C324.261 97.9619 324.319 97.9604 324.343 97.913C324.36 97.8831 324.328 97.8531 324.333 97.8216C324.341 97.7932 324.38 97.7837 324.38 97.7538L324.377 96.727C324.362 90.3334 321.463 84.5217 315.993 79.9228C315.523 79.5253 315.026 79.1626 314.542 78.8062C314.154 78.5223 313.765 78.2368 313.397 77.9293C313.214 77.7763 313.033 77.617 312.863 77.4514C312.781 77.3694 312.7 77.2858 312.621 77.2006C312.595 77.1707 312.571 77.1297 312.544 77.0997C315.553 69.9585 322.461 62.1864 324.882 59.5889C327.301 62.1817 334.206 69.9459 337.221 77.0981C337.195 77.1297 337.173 77.1691 337.146 77.1991C337.065 77.2858 336.985 77.3694 336.901 77.4514C336.732 77.617 336.554 77.7763 336.367 77.9293C335.999 78.2368 335.61 78.5223 335.174 78.8409C334.674 79.2083 334.222 79.5427 333.771 79.9228C328.3 84.5232 325.402 90.335 325.387 96.727L325.383 97.7538C325.383 97.7837 325.421 97.7932 325.431 97.8216C325.436 97.8531 325.404 97.8831 325.42 97.913C325.445 97.9604 325.502 97.9619 325.546 97.9872C325.56 97.9966 325.557 98.0219 325.573 98.0282C325.592 98.0345 325.612 98.0345 325.631 98.0376C325.648 98.0424 325.658 98.0645 325.675 98.0645C325.689 98.0645 325.705 98.0645 325.719 98.0613L326.778 97.8989C326.921 97.8768 341.062 95.5647 341.062 83.0581C341.062 81.4021 340.672 79.508 339.918 77.4356C339.923 77.4278 339.929 77.423 339.934 77.4151C340.262 76.9152 340.505 76.3932 340.678 75.9957C340.98 75.3128 341.23 74.5637 341.421 73.7704C341.615 72.9771 341.757 72.1302 341.853 71.1808C341.95 70.2455 341.994 69.2582 341.994 68.1653C341.994 63.3172 339.218 57.679 333.738 51.4083C329.67 46.7495 325.655 43.5432 325.617 43.5117L325.092 43.0921C325.068 43.0669 325.071 43.0243 325.04 43.0086C324.989 42.9833 324.937 43.0196 324.882 43.0275C324.827 43.0196 324.775 42.9833 324.724 43.0086C324.693 43.0243 324.696 43.0669 324.672 43.0921L324.145 43.5148C323.72 43.8555 319.903 46.9687 316.025 51.4083C310.546 57.6821 307.769 63.3188 307.769 68.1653C307.769 69.2582 307.814 70.2455 307.91 71.1808Z" fill="#FFE9BF" fill-opacity="0.24" style="mix-blend-mode:saturation"/>
<path d="M349.225 78.85C349.225 75.1201 348.321 67.8354 342.27 60.9591C342.173 60.8503 342.011 60.8282 341.893 60.9055C341.771 60.9828 341.724 61.1373 341.784 61.2698C342.448 62.7839 342.902 64.495 343.134 66.3592C343.139 66.4018 343.154 66.4412 343.178 66.4775C345.635 70.3982 346.731 74.2133 346.731 78.85C346.731 93.5788 333.983 100.214 324.91 100.23C315.837 100.214 303.089 93.5788 303.089 78.85C303.089 74.2133 304.185 70.3982 306.642 66.4775C306.666 66.4412 306.682 66.4018 306.687 66.3592C306.918 64.495 307.373 62.7839 308.037 61.2698C308.097 61.1373 308.049 60.9828 307.928 60.9055C307.809 60.8298 307.647 60.8519 307.551 60.9591C301.499 67.8354 300.596 75.1201 300.596 78.85C300.596 95.2206 314.761 102.602 324.868 102.639C324.871 102.639 324.872 102.643 324.876 102.643C324.887 102.643 324.899 102.641 324.91 102.641C324.921 102.641 324.934 102.643 324.945 102.643C324.948 102.643 324.95 102.639 324.953 102.639C335.059 102.602 349.225 95.2206 349.225 78.85Z" fill="url(#paint3_linear_230_5385)"/>
<path d="M349.225 78.85C349.225 75.1201 348.321 67.8354 342.27 60.9591C342.173 60.8503 342.011 60.8282 341.893 60.9055C341.771 60.9828 341.724 61.1373 341.784 61.2698C342.448 62.7839 342.902 64.495 343.134 66.3592C343.139 66.4018 343.154 66.4412 343.178 66.4775C345.635 70.3982 346.731 74.2133 346.731 78.85C346.731 93.5788 333.983 100.214 324.91 100.23C315.837 100.214 303.089 93.5788 303.089 78.85C303.089 74.2133 304.185 70.3982 306.642 66.4775C306.666 66.4412 306.682 66.4018 306.687 66.3592C306.918 64.495 307.373 62.7839 308.037 61.2698C308.097 61.1373 308.049 60.9828 307.928 60.9055C307.809 60.8298 307.647 60.8519 307.551 60.9591C301.499 67.8354 300.596 75.1201 300.596 78.85C300.596 95.2206 314.761 102.602 324.868 102.639C324.871 102.639 324.872 102.643 324.876 102.643C324.887 102.643 324.899 102.641 324.91 102.641C324.921 102.641 324.934 102.643 324.945 102.643C324.948 102.643 324.95 102.639 324.953 102.639C335.059 102.602 349.225 95.2206 349.225 78.85Z" fill="#FFE9BF" fill-opacity="0.24" style="mix-blend-mode:saturation"/>
<path d="M2.38325 281.648L2.63459 286.675C3.38413 301.145 14.4117 310.462 27.5667 310.462C40.0934 310.462 48.2395 303.963 48.2395 291.948C48.2395 269.512 2.88593 269.512 2.88593 242.291C2.88593 230.397 13.7834 222.43 30.0712 222.43C38.3385 222.43 44.1014 225.002 48.3652 227.825C49.3661 228.435 50.367 230.276 50.6183 230.644L51.498 230.397C51.2466 229.54 51.121 228.193 50.9953 226.474L50.6183 219.975H51.9962L53.4997 248.915L50.9953 249.036L50.744 243.884C50.1156 234.198 43.7289 224.634 30.0712 224.634C18.9224 224.634 12.5311 229.908 12.5311 239.593C12.5311 261.294 58.5131 261.051 58.5131 289.861C58.5131 304.578 46.8616 312.545 27.8136 312.545C19.2949 312.545 13.0338 310.341 6.01423 305.925C5.01336 305.31 3.00712 302.981 2.63459 301.881L2.00624 302.002C2.50892 303.227 2.50892 305.804 2.63459 307.271L3.00712 315H1.7549L0 281.527L2.38325 281.648Z" fill="url(#paint4_linear_230_5385)"/>
<path d="M2.38325 281.648L2.63459 286.675C3.38413 301.145 14.4117 310.462 27.5667 310.462C40.0934 310.462 48.2395 303.963 48.2395 291.948C48.2395 269.512 2.88593 269.512 2.88593 242.291C2.88593 230.397 13.7834 222.43 30.0712 222.43C38.3385 222.43 44.1014 225.002 48.3652 227.825C49.3661 228.435 50.367 230.276 50.6183 230.644L51.498 230.397C51.2466 229.54 51.121 228.193 50.9953 226.474L50.6183 219.975H51.9962L53.4997 248.915L50.9953 249.036L50.744 243.884C50.1156 234.198 43.7289 224.634 30.0712 224.634C18.9224 224.634 12.5311 229.908 12.5311 239.593C12.5311 261.294 58.5131 261.051 58.5131 289.861C58.5131 304.578 46.8616 312.545 27.8136 312.545C19.2949 312.545 13.0338 310.341 6.01423 305.925C5.01336 305.31 3.00712 302.981 2.63459 301.881L2.00624 302.002C2.50892 303.227 2.50892 305.804 2.63459 307.271L3.00712 315H1.7549L0 281.527L2.38325 281.648Z" fill="#FFE9BF" fill-opacity="0.24" style="mix-blend-mode:saturation"/>
<path d="M151.965 285.468L128.537 234.338C127.536 232.377 127.41 230.783 127.41 229.437H126.158C126.158 230.173 125.781 231.766 124.529 234.338L99.4665 285.468H151.965ZM78.5469 310.481H80.6788C84.1841 310.481 86.1903 307.047 88.3178 302.878L127.033 223.427H137.684V224.899C137.684 227.35 138.187 230.541 138.936 232.009L171.386 302.878C174.142 308.762 174.644 310.481 179.528 310.481H180.659V311.585H154.344V310.481H164.869V310.234C162.993 309.624 161.611 306.554 160.61 304.471L152.966 287.676H98.3445L90.9479 302.878C90.5753 303.861 90.1983 304.839 90.1983 305.696C90.1983 308.519 92.7028 310.481 96.8364 310.481H103.605V311.585H78.5469V310.481Z" fill="url(#paint5_linear_230_5385)"/>
<path d="M151.965 285.468L128.537 234.338C127.536 232.377 127.41 230.783 127.41 229.437H126.158C126.158 230.173 125.781 231.766 124.529 234.338L99.4665 285.468H151.965ZM78.5469 310.481H80.6788C84.1841 310.481 86.1903 307.047 88.3178 302.878L127.033 223.427H137.684V224.899C137.684 227.35 138.187 230.541 138.936 232.009L171.386 302.878C174.142 308.762 174.644 310.481 179.528 310.481H180.659V311.585H154.344V310.481H164.869V310.234C162.993 309.624 161.611 306.554 160.61 304.471L152.966 287.676H98.3445L90.9479 302.878C90.5753 303.861 90.1983 304.839 90.1983 305.696C90.1983 308.519 92.7028 310.481 96.8364 310.481H103.605V311.585H78.5469V310.481Z" fill="#FFE9BF" fill-opacity="0.24" style="mix-blend-mode:saturation"/>
<path d="M201.465 267.052C201.465 240.203 220.76 222.3 249.574 222.3C258.847 222.3 267.743 224.876 274.883 230.145C275.512 230.76 276.01 231.743 276.387 232.6L277.262 232.353C277.015 231.375 276.885 230.024 276.885 228.799L276.638 219.849H277.89L279.143 255.284L276.638 255.405L276.261 244C275.512 232.968 262.105 224.382 248.573 224.382C225.894 224.382 213.745 238.605 213.745 265.09C213.745 294.394 226.523 310.211 250.077 310.211C263.106 310.211 275.884 303.837 280.772 293.537L283.151 294.394C277.765 306.656 264.358 312.54 249.951 312.54C221.011 312.54 201.591 294.394 201.591 267.173L201.465 267.052Z" fill="url(#paint6_linear_230_5385)"/>
<path d="M201.465 267.052C201.465 240.203 220.76 222.3 249.574 222.3C258.847 222.3 267.743 224.876 274.883 230.145C275.512 230.76 276.01 231.743 276.387 232.6L277.262 232.353C277.015 231.375 276.885 230.024 276.885 228.799L276.638 219.849H277.89L279.143 255.284L276.638 255.405L276.261 244C275.512 232.968 262.105 224.382 248.573 224.382C225.894 224.382 213.745 238.605 213.745 265.09C213.745 294.394 226.523 310.211 250.077 310.211C263.106 310.211 275.884 303.837 280.772 293.537L283.151 294.394C277.765 306.656 264.358 312.54 249.951 312.54C221.011 312.54 201.591 294.394 201.591 267.173L201.465 267.052Z" fill="#FFE9BF" fill-opacity="0.24" style="mix-blend-mode:saturation"/>
<path fill-rule="evenodd" clip-rule="evenodd" d="M313.321 310.599H308.438L307.936 311.578H346.274V310.474H338.258C331.615 310.474 330.74 309.863 330.74 303.979V232.132C330.74 229.308 330.112 227.226 328.483 225.754V225.633H342.764C358.177 225.633 368.576 235.686 368.576 250.646C368.576 265.722 358.177 275.78 342.764 275.78H336.503V277.862H338.128C342.847 277.862 346.779 281.985 351.902 287.356C352.899 288.401 353.942 289.494 355.044 290.613C374.59 310.599 397.782 313.368 414.442 313.368L416.811 313.418C385.488 313.418 363.814 286.444 363.814 286.444C359.178 282.032 354.918 278.598 349.155 278.109V277.373L351.911 277.247C368.45 275.901 381.103 265.722 381.103 250.767C381.103 234.461 366.444 223.546 344.393 223.546H308.438V224.65H313.321C319.964 224.65 320.588 225.265 320.588 231.149V304.1C320.588 309.984 319.964 310.599 313.321 310.599Z" fill="url(#paint7_linear_230_5385)"/>
<path fill-rule="evenodd" clip-rule="evenodd" d="M313.321 310.599H308.438L307.936 311.578H346.274V310.474H338.258C331.615 310.474 330.74 309.863 330.74 303.979V232.132C330.74 229.308 330.112 227.226 328.483 225.754V225.633H342.764C358.177 225.633 368.576 235.686 368.576 250.646C368.576 265.722 358.177 275.78 342.764 275.78H336.503V277.862H338.128C342.847 277.862 346.779 281.985 351.902 287.356C352.899 288.401 353.942 289.494 355.044 290.613C374.59 310.599 397.782 313.368 414.442 313.368L416.811 313.418C385.488 313.418 363.814 286.444 363.814 286.444C359.178 282.032 354.918 278.598 349.155 278.109V277.373L351.911 277.247C368.45 275.901 381.103 265.722 381.103 250.767C381.103 234.461 366.444 223.546 344.393 223.546H308.438V224.65H313.321C319.964 224.65 320.588 225.265 320.588 231.149V304.1C320.588 309.984 319.964 310.599 313.321 310.599Z" fill="#FFE9BF" fill-opacity="0.24" style="mix-blend-mode:saturation"/>
<path d="M454.653 224.059V225.403H447.331C439.245 225.403 438.333 226.146 438.333 233.315V292.863C438.333 304.359 445.501 310.478 458.772 310.478C476.617 310.478 486.375 302.419 486.375 287.492V236.003C486.375 228.834 484.85 225.403 476.764 225.403H470.667V224.059H501.629V225.403H498.881C490.953 225.403 489.424 228.834 489.424 236.003V287.492C489.424 304.206 478.595 313.166 458.772 313.166C438.792 313.166 425.368 302.867 425.368 287.492V233.315C425.368 226.146 424.302 225.403 416.216 225.403H411.943V224.059H454.653Z" fill="url(#paint8_linear_230_5385)"/>
<path d="M454.653 224.059V225.403H447.331C439.245 225.403 438.333 226.146 438.333 233.315V292.863C438.333 304.359 445.501 310.478 458.772 310.478C476.617 310.478 486.375 302.419 486.375 287.492V236.003C486.375 228.834 484.85 225.403 476.764 225.403H470.667V224.059H501.629V225.403H498.881C490.953 225.403 489.424 228.834 489.424 236.003V287.492C489.424 304.206 478.595 313.166 458.772 313.166C438.792 313.166 425.368 302.867 425.368 287.492V233.315C425.368 226.146 424.302 225.403 416.216 225.403H411.943V224.059H454.653Z" fill="#FFE9BF" fill-opacity="0.24" style="mix-blend-mode:saturation"/>
<path d="M527.48 311.096H529.734C536.749 311.096 537.75 309.256 538.257 302.389L541.888 231.646V229.069C541.888 226.251 541.008 225.147 534.998 225.147H529.482V224.047H549.782L585.491 294.297C586.739 296.752 587.618 298.834 587.618 299.571H588.242C588.242 298.834 589.248 296.137 590.123 294.297L625.831 224.047H646.504V225.147H641.868C635.104 225.147 634.103 226.987 634.103 230.542C634.103 231.524 634.224 232.629 634.224 233.854L637.483 302.389C637.734 309.377 638.739 311.096 646.253 311.096H649.26V312.2H613.304V311.096H618.313C625.831 311.096 626.832 309.256 626.832 306.316V304.229L624.076 239.617C623.951 237.408 623.951 235.568 623.951 234.222H623.075C623.075 234.59 622.196 236.672 620.943 239.249L583.857 312.69L583.48 313.547H583.108L582.731 312.69L546.147 240.595C545.02 238.145 544.643 235.815 544.643 235.447H544.141C544.141 236.551 544.141 237.408 544.02 239.617L540.51 303.987C540.51 305.087 540.384 306.069 540.384 306.927C540.384 309.871 541.511 311.217 549.154 311.217H554.042V312.322H527.48V311.096Z" fill="url(#paint9_linear_230_5385)"/>
<path d="M527.48 311.096H529.734C536.749 311.096 537.75 309.256 538.257 302.389L541.888 231.646V229.069C541.888 226.251 541.008 225.147 534.998 225.147H529.482V224.047H549.782L585.491 294.297C586.739 296.752 587.618 298.834 587.618 299.571H588.242C588.242 298.834 589.248 296.137 590.123 294.297L625.831 224.047H646.504V225.147H641.868C635.104 225.147 634.103 226.987 634.103 230.542C634.103 231.524 634.224 232.629 634.224 233.854L637.483 302.389C637.734 309.377 638.739 311.096 646.253 311.096H649.26V312.2H613.304V311.096H618.313C625.831 311.096 626.832 309.256 626.832 306.316V304.229L624.076 239.617C623.951 237.408 623.951 235.568 623.951 234.222H623.075C623.075 234.59 622.196 236.672 620.943 239.249L583.857 312.69L583.48 313.547H583.108L582.731 312.69L546.147 240.595C545.02 238.145 544.643 235.815 544.643 235.447H544.141C544.141 236.551 544.141 237.408 544.02 239.617L540.51 303.987C540.51 305.087 540.384 306.069 540.384 306.927C540.384 309.871 541.511 311.217 549.154 311.217H554.042V312.322H527.48V311.096Z" fill="#FFE9BF" fill-opacity="0.24" style="mix-blend-mode:saturation"/>
<circle cx="324.5" cy="218.5" r="217.5" stroke="url(#paint10_linear_230_5385)" stroke-width="2"/>
<defs>
<linearGradient id="paint0_linear_230_5385" x1="272.662" y1="121.906" x2="322.905" y2="121.906" gradientUnits="userSpaceOnUse">
<stop offset="0.0186222" stop-color="#9A8C84"/>
<stop offset="0.4235" stop-color="#D3CCC5"/>
<stop offset="0.4999" stop-color="#DED9D1"/>
<stop offset="0.5991" stop-color="#D1CAC0"/>
<stop offset="0.7129" stop-color="#C7C0B1"/>
<stop offset="0.8064" stop-color="#C4BCAC"/>
<stop offset="0.8566" stop-color="#B8AF9E"/>
<stop offset="0.9516" stop-color="#978E78"/>
<stop offset="0.9972" stop-color="#867664"/>
</linearGradient>
<linearGradient id="paint1_linear_230_5385" x1="326.691" y1="122.062" x2="377.384" y2="122.062" gradientUnits="userSpaceOnUse">
<stop offset="0.0186222" stop-color="#9A8C84"/>
<stop offset="0.4235" stop-color="#D3CCC5"/>
<stop offset="0.4999" stop-color="#DED9D1"/>
<stop offset="0.5991" stop-color="#D1CAC0"/>
<stop offset="0.7129" stop-color="#C7C0B1"/>
<stop offset="0.8064" stop-color="#C4BCAC"/>
<stop offset="0.8566" stop-color="#B8AF9E"/>
<stop offset="0.9516" stop-color="#978E78"/>
<stop offset="0.9972" stop-color="#867664"/>
</linearGradient>
<linearGradient id="paint2_linear_230_5385" x1="307.781" y1="70.5385" x2="342.13" y2="70.5385" gradientUnits="userSpaceOnUse">
<stop offset="0.0186222" stop-color="#9A8C84"/>
<stop offset="0.4235" stop-color="#D3CCC5"/>
<stop offset="0.4999" stop-color="#DED9D1"/>
<stop offset="0.5991" stop-color="#D1CAC0"/>
<stop offset="0.7129" stop-color="#C7C0B1"/>
<stop offset="0.8064" stop-color="#C4BCAC"/>
<stop offset="0.8566" stop-color="#B8AF9E"/>
<stop offset="0.9516" stop-color="#978E78"/>
<stop offset="0.9972" stop-color="#867664"/>
</linearGradient>
<linearGradient id="paint3_linear_230_5385" x1="300.613" y1="81.756" x2="349.418" y2="81.756" gradientUnits="userSpaceOnUse">
<stop offset="0.0186222" stop-color="#9A8C84"/>
<stop offset="0.4235" stop-color="#D3CCC5"/>
<stop offset="0.4999" stop-color="#DED9D1"/>
<stop offset="0.5991" stop-color="#D1CAC0"/>
<stop offset="0.7129" stop-color="#C7C0B1"/>
<stop offset="0.8064" stop-color="#C4BCAC"/>
<stop offset="0.8566" stop-color="#B8AF9E"/>
<stop offset="0.9516" stop-color="#978E78"/>
<stop offset="0.9972" stop-color="#867664"/>
</linearGradient>
<linearGradient id="paint4_linear_230_5385" x1="0.0206693" y1="267.499" x2="58.7459" y2="267.499" gradientUnits="userSpaceOnUse">
<stop offset="0.0186222" stop-color="#9A8C84"/>
<stop offset="0.4235" stop-color="#D3CCC5"/>
<stop offset="0.4999" stop-color="#DED9D1"/>
<stop offset="0.5991" stop-color="#D1CAC0"/>
<stop offset="0.7129" stop-color="#C7C0B1"/>
<stop offset="0.8064" stop-color="#C4BCAC"/>
<stop offset="0.8566" stop-color="#B8AF9E"/>
<stop offset="0.9516" stop-color="#978E78"/>
<stop offset="0.9972" stop-color="#867664"/>
</linearGradient>
<linearGradient id="paint5_linear_230_5385" x1="78.5829" y1="267.516" x2="181.065" y2="267.516" gradientUnits="userSpaceOnUse">
<stop offset="0.0186222" stop-color="#9A8C84"/>
<stop offset="0.4235" stop-color="#D3CCC5"/>
<stop offset="0.4999" stop-color="#DED9D1"/>
<stop offset="0.5991" stop-color="#D1CAC0"/>
<stop offset="0.7129" stop-color="#C7C0B1"/>
<stop offset="0.8064" stop-color="#C4BCAC"/>
<stop offset="0.8566" stop-color="#B8AF9E"/>
<stop offset="0.9516" stop-color="#978E78"/>
<stop offset="0.9972" stop-color="#867664"/>
</linearGradient>
<linearGradient id="paint6_linear_230_5385" x1="201.494" y1="266.205" x2="283.476" y2="266.205" gradientUnits="userSpaceOnUse">
<stop offset="0.0186222" stop-color="#9A8C84"/>
<stop offset="0.4235" stop-color="#D3CCC5"/>
<stop offset="0.4999" stop-color="#DED9D1"/>
<stop offset="0.5991" stop-color="#D1CAC0"/>
<stop offset="0.7129" stop-color="#C7C0B1"/>
<stop offset="0.8064" stop-color="#C4BCAC"/>
<stop offset="0.8566" stop-color="#B8AF9E"/>
<stop offset="0.9516" stop-color="#978E78"/>
<stop offset="0.9972" stop-color="#867664"/>
</linearGradient>
<linearGradient id="paint7_linear_230_5385" x1="307.974" y1="268.492" x2="417.244" y2="268.492" gradientUnits="userSpaceOnUse">
<stop offset="0.0186222" stop-color="#9A8C84"/>
<stop offset="0.4235" stop-color="#D3CCC5"/>
<stop offset="0.4999" stop-color="#DED9D1"/>
<stop offset="0.5991" stop-color="#D1CAC0"/>
<stop offset="0.7129" stop-color="#C7C0B1"/>
<stop offset="0.8064" stop-color="#C4BCAC"/>
<stop offset="0.8566" stop-color="#B8AF9E"/>
<stop offset="0.9516" stop-color="#978E78"/>
<stop offset="0.9972" stop-color="#867664"/>
</linearGradient>
<linearGradient id="paint8_linear_230_5385" x1="411.975" y1="268.623" x2="501.986" y2="268.623" gradientUnits="userSpaceOnUse">
<stop offset="0.0186222" stop-color="#9A8C84"/>
<stop offset="0.4235" stop-color="#D3CCC5"/>
<stop offset="0.4999" stop-color="#DED9D1"/>
<stop offset="0.5991" stop-color="#D1CAC0"/>
<stop offset="0.7129" stop-color="#C7C0B1"/>
<stop offset="0.8064" stop-color="#C4BCAC"/>
<stop offset="0.8566" stop-color="#B8AF9E"/>
<stop offset="0.9516" stop-color="#978E78"/>
<stop offset="0.9972" stop-color="#867664"/>
</linearGradient>
<linearGradient id="paint9_linear_230_5385" x1="527.523" y1="268.807" x2="649.744" y2="268.807" gradientUnits="userSpaceOnUse">
<stop offset="0.0186222" stop-color="#9A8C84"/>
<stop offset="0.4235" stop-color="#D3CCC5"/>
<stop offset="0.4999" stop-color="#DED9D1"/>
<stop offset="0.5991" stop-color="#D1CAC0"/>
<stop offset="0.7129" stop-color="#C7C0B1"/>
<stop offset="0.8064" stop-color="#C4BCAC"/>
<stop offset="0.8566" stop-color="#B8AF9E"/>
<stop offset="0.9516" stop-color="#978E78"/>
<stop offset="0.9972" stop-color="#867664"/>
</linearGradient>
<linearGradient id="paint10_linear_230_5385" x1="324.5" y1="0" x2="324.5" y2="437" gradientUnits="userSpaceOnUse">
<stop stop-color="#C2B7A3"/>
<stop offset="0.53" stop-color="#5C574D" stop-opacity="0"/>
</linearGradient>
</defs>
</svg>
