<svg width="100" height="104" viewBox="0 0 100 104" fill="none" xmlns="http://www.w3.org/2000/svg">
<path d="M34.2797 19.5104C34.2932 19.5648 34.3747 19.6599 34.4834 19.6328C34.5377 19.6193 34.6329 19.5378 34.6058 19.4291C34.6058 19.4291 34.3078 18.0026 35.2183 17.487C35.2726 17.4734 35.3134 17.4055 35.2863 17.2968C35.2728 17.2425 35.2049 17.2017 35.137 17.1609C34.091 17.1331 33.6979 15.788 33.6844 15.7336C33.6708 15.6793 33.5894 15.5841 33.4807 15.6112C33.4263 15.6248 33.3312 15.7062 33.3583 15.8149C33.3583 15.8149 33.6562 17.2415 32.7458 17.7571C32.6914 17.7706 32.6506 17.8385 32.6777 17.9472C32.6913 18.0016 32.7592 18.0424 32.8271 18.0832C33.873 18.111 34.2661 19.4561 34.2797 19.5104ZM33.7246 16.5894C33.9281 16.9428 34.2539 17.3233 34.7429 17.4323C34.3623 17.7581 34.2533 18.2471 34.2395 18.6546C34.0359 18.3013 33.7102 17.9207 33.2212 17.8117C33.5474 17.4995 33.6564 17.0105 33.7246 16.5894Z" fill="url(#paint0_linear_348_5359)"/>
<path d="M34.2797 19.5104C34.2932 19.5648 34.3747 19.6599 34.4834 19.6328C34.5377 19.6193 34.6329 19.5378 34.6058 19.4291C34.6058 19.4291 34.3078 18.0026 35.2183 17.487C35.2726 17.4734 35.3134 17.4055 35.2863 17.2968C35.2728 17.2425 35.2049 17.2017 35.137 17.1609C34.091 17.1331 33.6979 15.788 33.6844 15.7336C33.6708 15.6793 33.5894 15.5841 33.4807 15.6112C33.4263 15.6248 33.3312 15.7062 33.3583 15.8149C33.3583 15.8149 33.6562 17.2415 32.7458 17.7571C32.6914 17.7706 32.6506 17.8385 32.6777 17.9472C32.6913 18.0016 32.7592 18.0424 32.8271 18.0832C33.873 18.111 34.2661 19.4561 34.2797 19.5104ZM33.7246 16.5894C33.9281 16.9428 34.2539 17.3233 34.7429 17.4323C34.3623 17.7581 34.2533 18.2471 34.2395 18.6546C34.0359 18.3013 33.7102 17.9207 33.2212 17.8117C33.5474 17.4995 33.6564 17.0105 33.7246 16.5894Z" fill="#FFE9BF" fill-opacity="0.24" style="mix-blend-mode:saturation"/>
<path d="M80.6375 27.8719C80.624 27.8176 80.5425 27.7224 80.4338 27.7495C80.3794 27.7631 80.2843 27.8445 80.3114 27.9532C80.3114 27.9532 80.6094 29.3797 79.6989 29.8954C79.6446 29.9089 79.6038 29.9768 79.6309 30.0855C79.658 30.1942 79.7123 30.1806 79.7802 30.2214C80.8262 30.2493 81.2193 31.5944 81.2328 31.6487C81.2464 31.703 81.3278 31.7982 81.4365 31.7711C81.4908 31.7575 81.586 31.6761 81.5589 31.5674C81.5589 31.5674 81.2609 30.1409 82.1714 29.6252C82.2257 29.6117 82.2665 29.5438 82.2394 29.4351C82.2123 29.3264 82.158 29.34 82.0901 29.2992C81.0441 29.2713 80.6375 27.8719 80.6375 27.8719ZM81.179 30.7385C80.9755 30.3852 80.6497 30.0046 80.1608 29.8956C80.5413 29.5699 80.6503 29.0809 80.6641 28.6734C80.8677 29.0267 81.1935 29.4073 81.6824 29.5163C81.3698 29.8828 81.2472 30.3174 81.179 30.7385Z" fill="url(#paint1_linear_348_5359)"/>
<path d="M80.6375 27.8719C80.624 27.8176 80.5425 27.7224 80.4338 27.7495C80.3794 27.7631 80.2843 27.8445 80.3114 27.9532C80.3114 27.9532 80.6094 29.3797 79.6989 29.8954C79.6446 29.9089 79.6038 29.9768 79.6309 30.0855C79.658 30.1942 79.7123 30.1806 79.7802 30.2214C80.8262 30.2493 81.2193 31.5944 81.2328 31.6487C81.2464 31.703 81.3278 31.7982 81.4365 31.7711C81.4908 31.7575 81.586 31.6761 81.5589 31.5674C81.5589 31.5674 81.2609 30.1409 82.1714 29.6252C82.2257 29.6117 82.2665 29.5438 82.2394 29.4351C82.2123 29.3264 82.158 29.34 82.0901 29.2992C81.0441 29.2713 80.6375 27.8719 80.6375 27.8719ZM81.179 30.7385C80.9755 30.3852 80.6497 30.0046 80.1608 29.8956C80.5413 29.5699 80.6503 29.0809 80.6641 28.6734C80.8677 29.0267 81.1935 29.4073 81.6824 29.5163C81.3698 29.8828 81.2472 30.3174 81.179 30.7385Z" fill="#FFE9BF" fill-opacity="0.24" style="mix-blend-mode:saturation"/>
<path d="M91.0186 66.9597C91.0051 66.9054 90.9236 66.8102 90.815 66.8373C90.7063 66.8644 90.6655 66.9323 90.6926 67.041C90.6926 67.041 90.9905 68.4676 90.08 68.9832C90.0257 68.9967 89.9849 69.0646 90.012 69.1733C90.0256 69.2277 90.0935 69.2684 90.1613 69.3092C91.2073 69.3371 91.6004 70.6821 91.614 70.7365C91.6275 70.7908 91.709 70.886 91.8176 70.8589C91.872 70.8454 91.9671 70.7639 91.94 70.6552C91.94 70.6552 91.6421 69.2287 92.5526 68.713C92.6069 68.6995 92.6477 68.6316 92.6206 68.5229C92.607 68.4686 92.5392 68.4278 92.4713 68.387C91.4796 68.3456 91.0322 67.014 91.0186 66.9597ZM91.6281 69.8671C91.4245 69.5138 91.0988 69.1332 90.6098 69.0243C90.9904 68.6985 91.0993 68.2095 91.1132 67.802C91.3167 68.1553 91.6425 68.5359 92.1315 68.6449C91.7509 68.9706 91.6419 69.4596 91.6281 69.8671Z" fill="url(#paint2_linear_348_5359)"/>
<path d="M91.0186 66.9597C91.0051 66.9054 90.9236 66.8102 90.815 66.8373C90.7063 66.8644 90.6655 66.9323 90.6926 67.041C90.6926 67.041 90.9905 68.4676 90.08 68.9832C90.0257 68.9967 89.9849 69.0646 90.012 69.1733C90.0256 69.2277 90.0935 69.2684 90.1613 69.3092C91.2073 69.3371 91.6004 70.6821 91.614 70.7365C91.6275 70.7908 91.709 70.886 91.8176 70.8589C91.872 70.8454 91.9671 70.7639 91.94 70.6552C91.94 70.6552 91.6421 69.2287 92.5526 68.713C92.6069 68.6995 92.6477 68.6316 92.6206 68.5229C92.607 68.4686 92.5392 68.4278 92.4713 68.387C91.4796 68.3456 91.0322 67.014 91.0186 66.9597ZM91.6281 69.8671C91.4245 69.5138 91.0988 69.1332 90.6098 69.0243C90.9904 68.6985 91.0993 68.2095 91.1132 67.802C91.3167 68.1553 91.6425 68.5359 92.1315 68.6449C91.7509 68.9706 91.6419 69.4596 91.6281 69.8671Z" fill="#FFE9BF" fill-opacity="0.24" style="mix-blend-mode:saturation"/>
<path d="M62.7428 98.0191C62.7157 97.9104 62.5935 97.8831 62.4848 97.9102C62.3761 97.9373 62.3488 98.0596 62.308 98.1275C62.308 98.1275 62.66 100.002 61.4914 100.64C61.3827 100.667 61.3555 100.789 61.369 100.844C61.3961 100.952 61.464 100.993 61.5727 100.966C62.9039 100.981 63.4598 102.747 63.4733 102.801C63.5004 102.91 63.6227 102.937 63.7314 102.91C63.8401 102.883 63.8808 102.815 63.9081 102.693C63.9081 102.693 63.5561 100.818 64.7247 100.18C64.8334 100.153 64.8607 100.031 64.8471 99.9765C64.82 99.8678 64.7521 99.8271 64.6434 99.8542C63.3122 99.8397 62.7564 98.0734 62.7428 98.0191ZM63.4468 101.769C63.1618 101.32 62.7546 100.845 62.1298 100.654C62.592 100.192 62.7282 99.5813 62.7693 99.0515C63.0543 99.5 63.4615 99.9757 64.0863 100.166C63.6785 100.614 63.4879 101.239 63.4468 101.769Z" fill="url(#paint3_linear_348_5359)"/>
<path d="M62.7428 98.0191C62.7157 97.9104 62.5935 97.8831 62.4848 97.9102C62.3761 97.9373 62.3488 98.0596 62.308 98.1275C62.308 98.1275 62.66 100.002 61.4914 100.64C61.3827 100.667 61.3555 100.789 61.369 100.844C61.3961 100.952 61.464 100.993 61.5727 100.966C62.9039 100.981 63.4598 102.747 63.4733 102.801C63.5004 102.91 63.6227 102.937 63.7314 102.91C63.8401 102.883 63.8808 102.815 63.9081 102.693C63.9081 102.693 63.5561 100.818 64.7247 100.18C64.8334 100.153 64.8607 100.031 64.8471 99.9765C64.82 99.8678 64.7521 99.8271 64.6434 99.8542C63.3122 99.8397 62.7564 98.0734 62.7428 98.0191ZM63.4468 101.769C63.1618 101.32 62.7546 100.845 62.1298 100.654C62.592 100.192 62.7282 99.5813 62.7693 99.0515C63.0543 99.5 63.4615 99.9757 64.0863 100.166C63.6785 100.614 63.4879 101.239 63.4468 101.769Z" fill="#FFE9BF" fill-opacity="0.24" style="mix-blend-mode:saturation"/>
<path d="M8.5676 80.7629C8.82505 81.7954 8.22666 82.8682 7.13975 83.1392C8.17232 82.8818 9.24509 83.4801 9.51609 84.567C9.25864 83.5345 9.85703 82.4617 10.9439 82.1907C9.91137 82.4482 8.8386 81.8498 8.5676 80.7629Z" fill="url(#paint4_linear_348_5359)"/>
<path d="M8.5676 80.7629C8.82505 81.7954 8.22666 82.8682 7.13975 83.1392C8.17232 82.8818 9.24509 83.4801 9.51609 84.567C9.25864 83.5345 9.85703 82.4617 10.9439 82.1907C9.91137 82.4482 8.8386 81.8498 8.5676 80.7629Z" fill="#FFE9BF" fill-opacity="0.24" style="mix-blend-mode:saturation"/>
<path d="M45.112 95.84C46.0876 99.7529 46.0876 99.7529 42.8269 100.566C46.0876 99.7529 46.0876 99.7529 47.0632 103.666C46.0876 99.7529 46.0876 99.7529 49.3484 98.9399C46.0876 99.7529 46.0876 99.7529 45.112 95.84Z" fill="url(#paint5_linear_348_5359)"/>
<path d="M45.112 95.84C46.0876 99.7529 46.0876 99.7529 42.8269 100.566C46.0876 99.7529 46.0876 99.7529 47.0632 103.666C46.0876 99.7529 46.0876 99.7529 49.3484 98.9399C46.0876 99.7529 46.0876 99.7529 45.112 95.84Z" fill="#FFE9BF" fill-opacity="0.24" style="mix-blend-mode:saturation"/>
<path d="M95.0291 41.6C96.0047 45.5129 96.0047 45.5128 92.744 46.3258C96.0047 45.5128 96.0047 45.5129 96.9803 49.4257C96.0047 45.5129 96.0047 45.5128 99.2655 44.6999C96.0047 45.5128 96.0047 45.5129 95.0291 41.6Z" fill="url(#paint6_linear_348_5359)"/>
<path d="M95.0291 41.6C96.0047 45.5129 96.0047 45.5128 92.744 46.3258C96.0047 45.5128 96.0047 45.5129 96.9803 49.4257C96.0047 45.5129 96.0047 45.5128 99.2655 44.6999C96.0047 45.5128 96.0047 45.5129 95.0291 41.6Z" fill="#FFE9BF" fill-opacity="0.24" style="mix-blend-mode:saturation"/>
<path d="M71.7763 11.5504C71.8034 11.659 71.9257 11.6863 71.98 11.6727C72.0887 11.6456 72.1295 11.5777 72.1024 11.4691C72.1024 11.4691 71.7911 9.75724 72.851 9.14662C72.9054 9.13307 72.9326 9.01083 72.9191 8.95648C72.9055 8.90214 72.8241 8.807 72.7697 8.82055C71.5472 8.77903 71.032 7.17575 71.0184 7.12141C70.9913 7.01272 70.8691 6.98548 70.8148 6.99903C70.7061 7.02613 70.6652 7.09402 70.6923 7.20271C70.6923 7.20271 71.0037 8.91453 69.9437 9.52515C69.8894 9.5387 69.8621 9.66094 69.8757 9.71528C69.8892 9.76963 69.9707 9.86476 70.025 9.85121C71.3019 9.87919 71.7763 11.5504 71.7763 11.5504ZM71.1401 8.07239C71.4115 8.46651 71.8052 8.88786 72.3756 9.09198C71.9542 9.48566 71.818 10.0969 71.7634 10.5723C71.4919 10.1782 71.0983 9.75681 70.5278 9.55268C70.9492 9.159 71.099 8.60215 71.1401 8.07239Z" fill="url(#paint7_linear_348_5359)"/>
<path d="M71.7763 11.5504C71.8034 11.659 71.9257 11.6863 71.98 11.6727C72.0887 11.6456 72.1295 11.5777 72.1024 11.4691C72.1024 11.4691 71.7911 9.75724 72.851 9.14662C72.9054 9.13307 72.9326 9.01083 72.9191 8.95648C72.9055 8.90214 72.8241 8.807 72.7697 8.82055C71.5472 8.77903 71.032 7.17575 71.0184 7.12141C70.9913 7.01272 70.8691 6.98548 70.8148 6.99903C70.7061 7.02613 70.6652 7.09402 70.6923 7.20271C70.6923 7.20271 71.0037 8.91453 69.9437 9.52515C69.8894 9.5387 69.8621 9.66094 69.8757 9.71528C69.8892 9.76963 69.9707 9.86476 70.025 9.85121C71.3019 9.87919 71.7763 11.5504 71.7763 11.5504ZM71.1401 8.07239C71.4115 8.46651 71.8052 8.88786 72.3756 9.09198C71.9542 9.48566 71.818 10.0969 71.7634 10.5723C71.4919 10.1782 71.0983 9.75681 70.5278 9.55268C70.9492 9.159 71.099 8.60215 71.1401 8.07239Z" fill="#FFE9BF" fill-opacity="0.24" style="mix-blend-mode:saturation"/>
<path d="M72.9316 74.5293C72.6055 74.6106 72.3607 75.018 72.4285 75.2897C72.5098 75.6158 72.9171 75.8606 73.1889 75.7928C73.5149 75.7115 73.7054 75.3177 73.6241 74.9916C73.6107 74.7063 73.2033 74.4615 72.9316 74.5293Z" fill="url(#paint8_linear_348_5359)"/>
<path d="M72.9316 74.5293C72.6055 74.6106 72.3607 75.018 72.4285 75.2897C72.5098 75.6158 72.9171 75.8606 73.1889 75.7928C73.5149 75.7115 73.7054 75.3177 73.6241 74.9916C73.6107 74.7063 73.2033 74.4615 72.9316 74.5293Z" fill="#FFE9BF" fill-opacity="0.24" style="mix-blend-mode:saturation"/>
<path d="M51.8346 14.6749C52.1063 14.6071 52.2559 14.2812 52.2017 14.0638C52.2019 13.8329 51.8081 13.6424 51.5907 13.6966C51.319 13.7644 51.115 14.1039 51.1692 14.3213C51.2234 14.5386 51.5629 14.7426 51.8346 14.6749Z" fill="url(#paint9_linear_348_5359)"/>
<path d="M51.8346 14.6749C52.1063 14.6071 52.2559 14.2812 52.2017 14.0638C52.2019 13.8329 51.8081 13.6424 51.5907 13.6966C51.319 13.7644 51.115 14.1039 51.1692 14.3213C51.2234 14.5386 51.5629 14.7426 51.8346 14.6749Z" fill="#FFE9BF" fill-opacity="0.24" style="mix-blend-mode:saturation"/>
<path d="M23.6094 92.9404C23.3377 93.0081 23.1337 93.3476 23.1879 93.565C23.2557 93.8367 23.5951 94.0407 23.799 93.9322C24.0707 93.8644 24.2203 93.5385 24.1661 93.3211C24.1663 93.0901 23.8268 92.8862 23.6094 92.9404Z" fill="url(#paint10_linear_348_5359)"/>
<path d="M23.6094 92.9404C23.3377 93.0081 23.1337 93.3476 23.1879 93.565C23.2557 93.8367 23.5951 94.0407 23.799 93.9322C24.0707 93.8644 24.2203 93.5385 24.1661 93.3211C24.1663 93.0901 23.8268 92.8862 23.6094 92.9404Z" fill="#FFE9BF" fill-opacity="0.24" style="mix-blend-mode:saturation"/>
<path d="M82.3103 45.2308C82.0385 45.2985 81.8345 45.638 81.8887 45.8554C81.9565 46.1271 82.296 46.3311 82.4998 46.2225C82.7716 46.1548 82.9212 45.8288 82.867 45.6115C82.8671 45.3805 82.5276 45.1766 82.3103 45.2308Z" fill="url(#paint11_linear_348_5359)"/>
<path d="M82.3103 45.2308C82.0385 45.2985 81.8345 45.638 81.8887 45.8554C81.9565 46.1271 82.296 46.3311 82.4998 46.2225C82.7716 46.1548 82.9212 45.8288 82.867 45.6115C82.8671 45.3805 82.5276 45.1766 82.3103 45.2308Z" fill="#FFE9BF" fill-opacity="0.24" style="mix-blend-mode:saturation"/>
<path d="M65.7254 20.3877C65.4537 20.4555 65.2497 20.7949 65.3039 21.0123C65.3716 21.284 65.7111 21.488 65.9149 21.3795C66.1867 21.3117 66.3363 20.9858 66.2821 20.7684C66.2687 20.4831 65.9428 20.3335 65.7254 20.3877Z" fill="url(#paint12_linear_348_5359)"/>
<path d="M65.7254 20.3877C65.4537 20.4555 65.2497 20.7949 65.3039 21.0123C65.3716 21.284 65.7111 21.488 65.9149 21.3795C66.1867 21.3117 66.3363 20.9858 66.2821 20.7684C66.2687 20.4831 65.9428 20.3335 65.7254 20.3877Z" fill="#FFE9BF" fill-opacity="0.24" style="mix-blend-mode:saturation"/>
<path d="M18.4473 45.8571C18.719 45.7894 18.8687 45.4635 18.8145 45.2461C18.8146 45.0151 18.4208 44.8247 18.2034 44.8789C17.9317 44.9467 17.7277 45.2861 17.7819 45.5035C17.8904 45.7074 18.2299 45.9113 18.4473 45.8571Z" fill="url(#paint13_linear_348_5359)"/>
<path d="M18.4473 45.8571C18.719 45.7894 18.8687 45.4635 18.8145 45.2461C18.8146 45.0151 18.4208 44.8247 18.2034 44.8789C17.9317 44.9467 17.7277 45.2861 17.7819 45.5035C17.8904 45.7074 18.2299 45.9113 18.4473 45.8571Z" fill="#FFE9BF" fill-opacity="0.24" style="mix-blend-mode:saturation"/>
<path d="M38.2331 22.625C38.5048 22.5573 38.6545 22.2314 38.6003 22.014C38.6004 21.783 38.2066 21.5926 37.9892 21.6468C37.7175 21.7146 37.5135 22.054 37.5677 22.2714C37.6219 22.4888 37.9614 22.6928 38.2331 22.625Z" fill="url(#paint14_linear_348_5359)"/>
<path d="M38.2331 22.625C38.5048 22.5573 38.6545 22.2314 38.6003 22.014C38.6004 21.783 38.2066 21.5926 37.9892 21.6468C37.7175 21.7146 37.5135 22.054 37.5677 22.2714C37.6219 22.4888 37.9614 22.6928 38.2331 22.625Z" fill="#FFE9BF" fill-opacity="0.24" style="mix-blend-mode:saturation"/>
<path d="M21.8022 71.8055C22.0739 71.7378 22.2236 71.4119 22.1694 71.1945C22.1695 70.9636 21.7757 70.7731 21.5583 70.8273C21.2866 70.8951 21.0826 71.2346 21.1368 71.452C21.2454 71.6558 21.5305 71.8733 21.8022 71.8055Z" fill="url(#paint15_linear_348_5359)"/>
<path d="M21.8022 71.8055C22.0739 71.7378 22.2236 71.4119 22.1694 71.1945C22.1695 70.9636 21.7757 70.7731 21.5583 70.8273C21.2866 70.8951 21.0826 71.2346 21.1368 71.452C21.2454 71.6558 21.5305 71.8733 21.8022 71.8055Z" fill="#FFE9BF" fill-opacity="0.24" style="mix-blend-mode:saturation"/>
<path d="M86.6729 84.4907C85.8307 84.3543 85.2198 83.7562 84.8808 82.8595C84.8401 82.6964 84.7454 82.0851 84.5688 82.0714C84.3243 82.0169 84.5548 82.7098 84.5819 82.8185C84.6903 83.2533 84.7444 83.7016 84.5675 84.1497C84.4042 84.6523 84.1594 85.0596 83.8332 85.3719C83.7788 85.3854 83.7924 85.4398 83.7381 85.4533C83.6973 85.5212 83.7108 85.5756 83.7787 85.6164C83.8466 85.6572 83.9009 85.6436 83.9688 85.6844C84.6208 85.7527 85.1504 86.0248 85.4217 86.6498C85.5709 87.0167 85.7609 87.3156 85.8692 87.9813C85.9098 88.1444 86.1815 88.0766 86.1273 87.8593C86.0867 87.6962 86.0461 87.5332 86.0054 87.3701C85.8837 86.4192 86.0203 85.3461 86.6998 84.8303C86.7406 84.7624 86.8493 84.7353 86.8222 84.6266C86.8902 84.4365 86.7815 84.4636 86.6729 84.4907Z" fill="url(#paint16_linear_348_5359)"/>
<path d="M86.6729 84.4907C85.8307 84.3543 85.2198 83.7562 84.8808 82.8595C84.8401 82.6964 84.7454 82.0851 84.5688 82.0714C84.3243 82.0169 84.5548 82.7098 84.5819 82.8185C84.6903 83.2533 84.7444 83.7016 84.5675 84.1497C84.4042 84.6523 84.1594 85.0596 83.8332 85.3719C83.7788 85.3854 83.7924 85.4398 83.7381 85.4533C83.6973 85.5212 83.7108 85.5756 83.7787 85.6164C83.8466 85.6572 83.9009 85.6436 83.9688 85.6844C84.6208 85.7527 85.1504 86.0248 85.4217 86.6498C85.5709 87.0167 85.7609 87.3156 85.8692 87.9813C85.9098 88.1444 86.1815 88.0766 86.1273 87.8593C86.0867 87.6962 86.0461 87.5332 86.0054 87.3701C85.8837 86.4192 86.0203 85.3461 86.6998 84.8303C86.7406 84.7624 86.8493 84.7353 86.8222 84.6266C86.8902 84.4365 86.7815 84.4636 86.6729 84.4907Z" fill="#FFE9BF" fill-opacity="0.24" style="mix-blend-mode:saturation"/>
<path d="M29.7641 5.34099C30.2939 5.38208 30.7556 5.61331 31.0133 6.18401C31.149 6.49653 31.2711 6.75471 31.3522 7.31172C31.3929 7.47475 31.5967 7.36621 31.556 7.20317C31.5154 7.04013 31.4883 6.93143 31.4476 6.7684C31.3666 5.98046 31.4351 5.09752 32.006 4.60885C32.0468 4.54096 32.1555 4.51387 32.1419 4.45952C32.1148 4.35083 32.0061 4.37792 31.9518 4.39147C31.2862 4.26879 30.7568 3.76584 30.4584 3.0321C30.4313 2.92341 30.3501 2.36642 30.1735 2.35272C29.9969 2.33902 30.1868 2.86893 30.2139 2.97763C30.3087 3.35804 30.3357 3.69766 30.1996 4.07794C30.0635 4.45821 29.8731 4.85203 29.5877 5.09637C29.5333 5.10992 29.5469 5.16426 29.4925 5.17781C29.4382 5.19136 29.4653 5.30004 29.5196 5.28649C29.6419 5.31374 29.7098 5.35454 29.7641 5.34099Z" fill="url(#paint17_linear_348_5359)"/>
<path d="M29.7641 5.34099C30.2939 5.38208 30.7556 5.61331 31.0133 6.18401C31.149 6.49653 31.2711 6.75471 31.3522 7.31172C31.3929 7.47475 31.5967 7.36621 31.556 7.20317C31.5154 7.04013 31.4883 6.93143 31.4476 6.7684C31.3666 5.98046 31.4351 5.09752 32.006 4.60885C32.0468 4.54096 32.1555 4.51387 32.1419 4.45952C32.1148 4.35083 32.0061 4.37792 31.9518 4.39147C31.2862 4.26879 30.7568 3.76584 30.4584 3.0321C30.4313 2.92341 30.3501 2.36642 30.1735 2.35272C29.9969 2.33902 30.1868 2.86893 30.2139 2.97763C30.3087 3.35804 30.3357 3.69766 30.1996 4.07794C30.0635 4.45821 29.8731 4.85203 29.5877 5.09637C29.5333 5.10992 29.5469 5.16426 29.4925 5.17781C29.4382 5.19136 29.4653 5.30004 29.5196 5.28649C29.6419 5.31374 29.7098 5.35454 29.7641 5.34099Z" fill="#FFE9BF" fill-opacity="0.24" style="mix-blend-mode:saturation"/>
<path d="M60.3188 1.24435C60.5362 1.19015 60.6994 0.918564 60.6452 0.701182C60.591 0.483799 60.333 0.374974 60.1699 0.415623C59.9525 0.469823 59.7894 0.741393 59.83 0.904429C59.8299 1.13536 60.115 1.3529 60.3188 1.24435Z" fill="url(#paint18_linear_348_5359)"/>
<path d="M60.3188 1.24435C60.5362 1.19015 60.6994 0.918564 60.6452 0.701182C60.591 0.483799 60.333 0.374974 60.1699 0.415623C59.9525 0.469823 59.7894 0.741393 59.83 0.904429C59.8299 1.13536 60.115 1.3529 60.3188 1.24435Z" fill="#FFE9BF" fill-opacity="0.24" style="mix-blend-mode:saturation"/>
<path d="M95.2095 30.066C95.4269 30.0118 95.5901 29.7402 95.5359 29.5228C95.4817 29.3055 95.2237 29.1966 95.0606 29.2373C94.8432 29.2915 94.6801 29.563 94.7207 29.7261C94.7206 29.957 94.9922 30.1202 95.2095 30.066Z" fill="url(#paint19_linear_348_5359)"/>
<path d="M95.2095 30.066C95.4269 30.0118 95.5901 29.7402 95.5359 29.5228C95.4817 29.3055 95.2237 29.1966 95.0606 29.2373C94.8432 29.2915 94.6801 29.563 94.7207 29.7261C94.7206 29.957 94.9922 30.1202 95.2095 30.066Z" fill="#FFE9BF" fill-opacity="0.24" style="mix-blend-mode:saturation"/>
<path d="M93.3058 79.1456C93.0884 79.1998 92.9253 79.4714 92.9795 79.6888C93.0337 79.9061 93.3052 80.0693 93.5226 80.0151C93.74 79.9609 93.9032 79.6893 93.849 79.472C93.7404 79.2681 93.4688 79.1049 93.3058 79.1456Z" fill="url(#paint20_linear_348_5359)"/>
<path d="M93.3058 79.1456C93.0884 79.1998 92.9253 79.4714 92.9795 79.6888C93.0337 79.9061 93.3052 80.0693 93.5226 80.0151C93.74 79.9609 93.9032 79.6893 93.849 79.472C93.7404 79.2681 93.4688 79.1049 93.3058 79.1456Z" fill="#FFE9BF" fill-opacity="0.24" style="mix-blend-mode:saturation"/>
<path d="M0.857854 40.833C2.42003 40.8475 3.05717 42.9399 3.05717 42.9399C3.08427 43.0486 3.22005 43.1302 3.32874 43.1031C3.43743 43.076 3.51902 42.9402 3.49192 42.8315C3.49192 42.8315 3.07218 40.6849 4.44466 39.9387C4.55335 39.9116 4.58059 39.7893 4.55349 39.6806C4.52639 39.5719 4.4585 39.5311 4.33626 39.5039C2.77408 39.4893 2.13694 37.3969 2.13694 37.3969C2.10984 37.2883 1.97405 37.2067 1.86536 37.2338C1.75666 37.2609 1.67508 37.3967 1.70218 37.5053C1.70218 37.5053 2.12193 39.6519 0.749452 40.3982C0.640761 40.4253 0.613509 40.5475 0.640608 40.6562C0.667708 40.7649 0.735613 40.8057 0.857854 40.833ZM2.2041 38.5924C2.50264 39.0952 3.04566 39.6525 3.72476 39.8295C3.22181 40.359 2.99043 41.0516 2.9629 41.6357C2.66436 41.1329 2.12134 40.5756 1.44224 40.3986C1.95874 39.9235 2.12222 39.19 2.2041 38.5924Z" fill="url(#paint21_linear_348_5359)"/>
<path d="M0.857854 40.833C2.42003 40.8475 3.05717 42.9399 3.05717 42.9399C3.08427 43.0486 3.22005 43.1302 3.32874 43.1031C3.43743 43.076 3.51902 42.9402 3.49192 42.8315C3.49192 42.8315 3.07218 40.6849 4.44466 39.9387C4.55335 39.9116 4.58059 39.7893 4.55349 39.6806C4.52639 39.5719 4.4585 39.5311 4.33626 39.5039C2.77408 39.4893 2.13694 37.3969 2.13694 37.3969C2.10984 37.2883 1.97405 37.2067 1.86536 37.2338C1.75666 37.2609 1.67508 37.3967 1.70218 37.5053C1.70218 37.5053 2.12193 39.6519 0.749452 40.3982C0.640761 40.4253 0.613509 40.5475 0.640608 40.6562C0.667708 40.7649 0.735613 40.8057 0.857854 40.833ZM2.2041 38.5924C2.50264 39.0952 3.04566 39.6525 3.72476 39.8295C3.22181 40.359 2.99043 41.0516 2.9629 41.6357C2.66436 41.1329 2.12134 40.5756 1.44224 40.3986C1.95874 39.9235 2.12222 39.19 2.2041 38.5924Z" fill="#FFE9BF" fill-opacity="0.24" style="mix-blend-mode:saturation"/>
<path d="M22.3297 29.9395C21.3541 26.0266 21.3541 26.0266 24.6148 25.2136C21.3541 26.0266 21.3541 26.0266 20.3785 22.1137C21.3541 26.0266 21.3541 26.0266 18.0934 26.8396C21.3676 26.0809 21.3676 26.0809 22.3297 29.9395Z" fill="url(#paint22_linear_348_5359)"/>
<path d="M22.3297 29.9395C21.3541 26.0266 21.3541 26.0266 24.6148 25.2136C21.3541 26.0266 21.3541 26.0266 20.3785 22.1137C21.3541 26.0266 21.3541 26.0266 18.0934 26.8396C21.3676 26.0809 21.3676 26.0809 22.3297 29.9395Z" fill="#FFE9BF" fill-opacity="0.24" style="mix-blend-mode:saturation"/>
<path d="M14.5589 17.5024C14.8306 17.4346 14.9802 17.1087 14.926 16.8913C14.9262 16.6604 14.5324 16.47 14.315 16.5242C14.0433 16.5919 13.8393 16.9314 13.8935 17.1488C14.002 17.3526 14.2872 17.5701 14.5589 17.5024Z" fill="url(#paint23_linear_348_5359)"/>
<path d="M14.5589 17.5024C14.8306 17.4346 14.9802 17.1087 14.926 16.8913C14.9262 16.6604 14.5324 16.47 14.315 16.5242C14.0433 16.5919 13.8393 16.9314 13.8935 17.1488C14.002 17.3526 14.2872 17.5701 14.5589 17.5024Z" fill="#FFE9BF" fill-opacity="0.24" style="mix-blend-mode:saturation"/>
<path d="M31.588 86.5074C31.6015 86.5617 31.683 86.6569 31.7916 86.6298C31.846 86.6162 31.9411 86.5348 31.914 86.4261C31.914 86.4261 31.6161 84.9996 32.5266 84.4839C32.5809 84.4704 32.6217 84.4025 32.5946 84.2938C32.581 84.2394 32.5132 84.1986 32.4453 84.1579C31.3993 84.13 31.0062 82.7849 30.9927 82.7306C30.9791 82.6763 30.8976 82.5811 30.789 82.6082C30.7346 82.6218 30.6395 82.7032 30.6666 82.8119C30.6666 82.8119 30.9645 84.2384 30.0541 84.754C29.9997 84.7676 29.9589 84.8355 29.986 84.9442C29.9996 84.9985 30.0675 85.0393 30.1354 85.0801C31.1813 85.108 31.5744 86.453 31.588 86.5074ZM31.0329 83.5864C31.2364 83.9398 31.5622 84.3203 32.0511 84.4293C31.6706 84.7551 31.5616 85.244 31.5477 85.6516C31.3442 85.2982 31.0184 84.9177 30.5295 84.8087C30.91 84.4829 31.019 83.9939 31.0329 83.5864Z" fill="url(#paint24_linear_348_5359)"/>
<path d="M31.588 86.5074C31.6015 86.5617 31.683 86.6569 31.7916 86.6298C31.846 86.6162 31.9411 86.5348 31.914 86.4261C31.914 86.4261 31.6161 84.9996 32.5266 84.4839C32.5809 84.4704 32.6217 84.4025 32.5946 84.2938C32.581 84.2394 32.5132 84.1986 32.4453 84.1579C31.3993 84.13 31.0062 82.7849 30.9927 82.7306C30.9791 82.6763 30.8976 82.5811 30.789 82.6082C30.7346 82.6218 30.6395 82.7032 30.6666 82.8119C30.6666 82.8119 30.9645 84.2384 30.0541 84.754C29.9997 84.7676 29.9589 84.8355 29.986 84.9442C29.9996 84.9985 30.0675 85.0393 30.1354 85.0801C31.1813 85.108 31.5744 86.453 31.588 86.5074ZM31.0329 83.5864C31.2364 83.9398 31.5622 84.3203 32.0511 84.4293C31.6706 84.7551 31.5616 85.244 31.5477 85.6516C31.3442 85.2982 31.0184 84.9177 30.5295 84.8087C30.91 84.4829 31.019 83.9939 31.0329 83.5864Z" fill="#FFE9BF" fill-opacity="0.24" style="mix-blend-mode:saturation"/>
<path d="M14.5114 91.8614C14.294 91.9156 14.1309 92.1872 14.1851 92.4046C14.2393 92.622 14.5108 92.7851 14.7282 92.7309C14.9456 92.6767 15.1088 92.4052 15.0546 92.1878C15.0004 91.9704 14.7288 91.8072 14.5114 91.8614Z" fill="url(#paint25_linear_348_5359)"/>
<path d="M14.5114 91.8614C14.294 91.9156 14.1309 92.1872 14.1851 92.4046C14.2393 92.622 14.5108 92.7851 14.7282 92.7309C14.9456 92.6767 15.1088 92.4052 15.0546 92.1878C15.0004 91.9704 14.7288 91.8072 14.5114 91.8614Z" fill="#FFE9BF" fill-opacity="0.24" style="mix-blend-mode:saturation"/>
<path d="M44.4318 80.6916C40.5593 79.8864 37.1129 78.2305 34.1766 75.557C34.0554 75.4463 33.9138 75.3573 33.7863 75.2529C33.6581 75.1492 33.5347 75.0385 33.2783 74.8191C36.2649 75.5458 38.8795 76.7504 41.3455 78.2823C42.4352 78.9593 43.4654 79.7308 44.5179 80.4645C44.5859 80.5122 44.6217 80.6061 44.6714 80.6783C44.5915 80.6832 44.5074 80.707 44.4318 80.6916ZM32.3385 73.3566C31.0659 72.9572 30.7358 71.6797 30.047 70.7399C30.5256 70.8142 31.0239 70.8282 31.4808 70.9719C35.1486 72.1282 38.321 74.1408 41.4086 76.7533C39.6847 75.9663 38.2019 75.1919 36.6469 74.6082C35.2509 74.0847 33.7653 73.8037 32.3385 73.3566ZM28.2075 66.9095C28.0449 66.5465 28.6882 66.8282 28.8676 66.8829C33.4065 68.2655 37.1879 70.8472 40.4444 74.2508C40.794 74.6166 41.2005 74.9277 41.581 75.2641C38.1423 72.4078 34.3231 70.2711 29.9601 69.2732C28.5235 68.9446 28.5985 67.7834 28.2075 66.9095ZM27.2838 63.8619C27.3245 63.4827 27.8192 63.8289 28.0925 63.899C33.4044 65.2648 37.3981 68.5683 40.8844 72.6124C41.4093 73.2207 41.9293 73.8325 42.4514 74.4428C40.698 72.5655 38.7933 70.8507 36.6931 69.3538C34.0008 67.4344 31.0582 66.063 27.8445 65.2494C27.2152 65.0903 27.2341 64.3209 27.2838 63.8619ZM26.9306 61.9544C26.8641 61.2781 26.8571 60.5956 26.8248 59.9158C27.3658 60.0223 27.9215 60.0819 28.4464 60.2424C32.2054 61.3972 35.3883 63.5066 38.0771 66.3251C39.9923 68.3321 41.8017 70.4519 42.9608 73.0252C43.0078 73.1282 43.0232 73.2452 43.1115 73.5683C41.5621 71.2943 39.8284 69.4828 37.923 67.8219C34.9279 65.2116 31.5417 63.3573 27.6637 62.4302C27.356 62.3566 26.9706 62.3643 26.9306 61.9544ZM26.8487 57.0461C26.9405 56.5009 27.4247 56.9354 27.6546 56.9929C32.8073 58.2802 36.9076 61.1758 40.087 65.3671C41.1325 66.7455 42.2755 68.1135 42.9041 70.3139C40.52 66.8352 38.0687 64.0833 34.9664 61.9887C32.5263 60.3419 29.8683 59.1744 26.972 58.5129C26.3154 58.3636 26.7695 57.5206 26.8487 57.0461ZM27.0652 54.8226C27.1682 54.4435 27.0288 53.756 27.8374 53.9585C31.7064 54.9291 35.157 56.6979 38.129 59.3629C40.0624 61.0966 41.6987 63.0959 43.1963 65.2094C43.335 65.405 43.3883 65.6614 43.4983 65.9305C43.3399 66.3846 43.1858 66.8261 43.0316 67.2676C42.8038 66.9347 42.5747 66.6019 42.3476 66.2683C39.4871 62.0679 35.8949 58.7168 31.1248 56.7876C29.8928 56.2893 28.5782 55.9936 27.2986 55.6145C26.8024 55.468 27 55.0644 27.0652 54.8226ZM27.7765 52.0861C28.007 51.173 28.3427 50.9697 29.2852 51.2381C34.019 52.5836 38.0225 55.0573 41.2103 58.8002C42.2755 60.0518 43.3378 61.33 43.9426 62.6796C43.9146 63.7091 43.8046 63.9382 43.5894 63.6551C43.3505 63.3426 43.1241 63.0202 42.8928 62.7021C41.2621 60.454 39.2979 58.5185 37.0926 56.8597C34.499 54.9095 31.5656 53.6089 28.4212 52.7862C28.0988 52.7021 27.5936 52.8121 27.7765 52.0861ZM28.8844 49.3608C29.5627 46.6579 31.2859 47.934 32.6265 48.4701C35.8003 49.7385 38.8571 51.2676 41.0856 53.9838C42.4156 55.6054 43.3126 57.468 43.6574 59.5991C43.6483 59.6173 43.6273 59.6628 43.6062 59.7077C43.5509 59.667 43.4808 59.6362 43.4422 59.5829C39.8298 54.6544 35.0736 51.4182 29.1402 49.9186C28.8241 49.8387 28.801 49.6922 28.8844 49.3608ZM31.972 44.9641C36.1921 46.4049 40.0456 48.5269 43.1914 51.7441C46.3063 54.9291 47.34 61.0174 45.525 65.1001C44.2608 67.946 43.6791 70.8661 44.4072 73.9586C44.4303 74.0567 44.41 74.1653 44.41 74.8135C43.7443 71.92 43.6153 69.576 44.3449 67.2158C46.1774 61.2851 44.7934 54.4337 39.2832 50.5325C36.7772 48.7581 33.9874 47.5451 31.0996 46.5395C30.965 46.4925 30.8627 46.3524 30.7456 46.2564C31.1416 45.791 31.3799 44.7623 31.972 44.9641ZM46.5481 65.6033C48.7289 60.4253 47.8901 55.2879 44.1879 50.9866C41.3792 47.7231 37.5943 45.7203 33.5901 44.1723C33.3546 44.0812 32.3406 44.1512 33.1325 43.3916C33.8991 42.6558 34.6567 41.8912 35.5137 41.271C36.2026 40.7728 36.9082 40.3278 37.623 39.9073C37.6027 39.4652 37.6104 39.023 37.6525 38.5829C35.4983 39.7763 33.5249 41.332 31.7373 43.2493C28.5158 46.7027 26.5305 50.8275 25.8977 55.5605C24.8073 63.7175 27.2915 70.646 33.2642 76.2277C36.8886 79.6138 41.2888 81.4954 46.2685 82.1149C48.1206 82.3447 48.1508 81.953 47.5264 80.4449C45.5327 75.6292 44.3357 70.8556 46.5481 65.6033Z" fill="url(#paint26_linear_348_5359)"/>
<path d="M44.4318 80.6916C40.5593 79.8864 37.1129 78.2305 34.1766 75.557C34.0554 75.4463 33.9138 75.3573 33.7863 75.2529C33.6581 75.1492 33.5347 75.0385 33.2783 74.8191C36.2649 75.5458 38.8795 76.7504 41.3455 78.2823C42.4352 78.9593 43.4654 79.7308 44.5179 80.4645C44.5859 80.5122 44.6217 80.6061 44.6714 80.6783C44.5915 80.6832 44.5074 80.707 44.4318 80.6916ZM32.3385 73.3566C31.0659 72.9572 30.7358 71.6797 30.047 70.7399C30.5256 70.8142 31.0239 70.8282 31.4808 70.9719C35.1486 72.1282 38.321 74.1408 41.4086 76.7533C39.6847 75.9663 38.2019 75.1919 36.6469 74.6082C35.2509 74.0847 33.7653 73.8037 32.3385 73.3566ZM28.2075 66.9095C28.0449 66.5465 28.6882 66.8282 28.8676 66.8829C33.4065 68.2655 37.1879 70.8472 40.4444 74.2508C40.794 74.6166 41.2005 74.9277 41.581 75.2641C38.1423 72.4078 34.3231 70.2711 29.9601 69.2732C28.5235 68.9446 28.5985 67.7834 28.2075 66.9095ZM27.2838 63.8619C27.3245 63.4827 27.8192 63.8289 28.0925 63.899C33.4044 65.2648 37.3981 68.5683 40.8844 72.6124C41.4093 73.2207 41.9293 73.8325 42.4514 74.4428C40.698 72.5655 38.7933 70.8507 36.6931 69.3538C34.0008 67.4344 31.0582 66.063 27.8445 65.2494C27.2152 65.0903 27.2341 64.3209 27.2838 63.8619ZM26.9306 61.9544C26.8641 61.2781 26.8571 60.5956 26.8248 59.9158C27.3658 60.0223 27.9215 60.0819 28.4464 60.2424C32.2054 61.3972 35.3883 63.5066 38.0771 66.3251C39.9923 68.3321 41.8017 70.4519 42.9608 73.0252C43.0078 73.1282 43.0232 73.2452 43.1115 73.5683C41.5621 71.2943 39.8284 69.4828 37.923 67.8219C34.9279 65.2116 31.5417 63.3573 27.6637 62.4302C27.356 62.3566 26.9706 62.3643 26.9306 61.9544ZM26.8487 57.0461C26.9405 56.5009 27.4247 56.9354 27.6546 56.9929C32.8073 58.2802 36.9076 61.1758 40.087 65.3671C41.1325 66.7455 42.2755 68.1135 42.9041 70.3139C40.52 66.8352 38.0687 64.0833 34.9664 61.9887C32.5263 60.3419 29.8683 59.1744 26.972 58.5129C26.3154 58.3636 26.7695 57.5206 26.8487 57.0461ZM27.0652 54.8226C27.1682 54.4435 27.0288 53.756 27.8374 53.9585C31.7064 54.9291 35.157 56.6979 38.129 59.3629C40.0624 61.0966 41.6987 63.0959 43.1963 65.2094C43.335 65.405 43.3883 65.6614 43.4983 65.9305C43.3399 66.3846 43.1858 66.8261 43.0316 67.2676C42.8038 66.9347 42.5747 66.6019 42.3476 66.2683C39.4871 62.0679 35.8949 58.7168 31.1248 56.7876C29.8928 56.2893 28.5782 55.9936 27.2986 55.6145C26.8024 55.468 27 55.0644 27.0652 54.8226ZM27.7765 52.0861C28.007 51.173 28.3427 50.9697 29.2852 51.2381C34.019 52.5836 38.0225 55.0573 41.2103 58.8002C42.2755 60.0518 43.3378 61.33 43.9426 62.6796C43.9146 63.7091 43.8046 63.9382 43.5894 63.6551C43.3505 63.3426 43.1241 63.0202 42.8928 62.7021C41.2621 60.454 39.2979 58.5185 37.0926 56.8597C34.499 54.9095 31.5656 53.6089 28.4212 52.7862C28.0988 52.7021 27.5936 52.8121 27.7765 52.0861ZM28.8844 49.3608C29.5627 46.6579 31.2859 47.934 32.6265 48.4701C35.8003 49.7385 38.8571 51.2676 41.0856 53.9838C42.4156 55.6054 43.3126 57.468 43.6574 59.5991C43.6483 59.6173 43.6273 59.6628 43.6062 59.7077C43.5509 59.667 43.4808 59.6362 43.4422 59.5829C39.8298 54.6544 35.0736 51.4182 29.1402 49.9186C28.8241 49.8387 28.801 49.6922 28.8844 49.3608ZM31.972 44.9641C36.1921 46.4049 40.0456 48.5269 43.1914 51.7441C46.3063 54.9291 47.34 61.0174 45.525 65.1001C44.2608 67.946 43.6791 70.8661 44.4072 73.9586C44.4303 74.0567 44.41 74.1653 44.41 74.8135C43.7443 71.92 43.6153 69.576 44.3449 67.2158C46.1774 61.2851 44.7934 54.4337 39.2832 50.5325C36.7772 48.7581 33.9874 47.5451 31.0996 46.5395C30.965 46.4925 30.8627 46.3524 30.7456 46.2564C31.1416 45.791 31.3799 44.7623 31.972 44.9641ZM46.5481 65.6033C48.7289 60.4253 47.8901 55.2879 44.1879 50.9866C41.3792 47.7231 37.5943 45.7203 33.5901 44.1723C33.3546 44.0812 32.3406 44.1512 33.1325 43.3916C33.8991 42.6558 34.6567 41.8912 35.5137 41.271C36.2026 40.7728 36.9082 40.3278 37.623 39.9073C37.6027 39.4652 37.6104 39.023 37.6525 38.5829C35.4983 39.7763 33.5249 41.332 31.7373 43.2493C28.5158 46.7027 26.5305 50.8275 25.8977 55.5605C24.8073 63.7175 27.2915 70.646 33.2642 76.2277C36.8886 79.6138 41.2888 81.4954 46.2685 82.1149C48.1206 82.3447 48.1508 81.953 47.5264 80.4449C45.5327 75.6292 44.3357 70.8556 46.5481 65.6033Z" fill="#FFE9BF" fill-opacity="0.24" style="mix-blend-mode:saturation"/>
<path d="M68.3497 62.9485C65.932 63.6213 63.7519 64.8056 61.7463 66.2821C59.0616 68.2583 56.8521 70.7292 54.4884 73.6059C55.2256 71.5821 56.3328 70.2653 57.391 68.9149C59.5284 66.1882 62.0042 63.8385 65.0063 62.0824C66.6867 61.0992 68.5067 60.4293 70.3777 59.9107C70.5718 59.8567 70.9559 59.5701 71.0547 60.2429C71.3777 62.4412 69.7772 62.5512 68.3497 62.9485ZM69.8353 65.2541C65.171 66.4174 61.1927 68.7818 57.7281 72.0607C57.1324 72.6241 56.5921 73.2457 56.0266 73.8407C58.1927 70.8624 60.7687 68.3249 63.8809 66.3844C65.8255 65.1721 67.9131 64.2513 70.1654 63.7488C70.2551 63.7292 70.4639 63.8645 70.4625 63.8687C70.2796 64.3466 70.4807 65.0929 69.8353 65.2541ZM69.5179 67.0852C69.1156 69.8638 66.5186 69.4027 64.8178 70.1357C62.2312 71.2506 59.7687 72.5176 57.5522 74.2527C57.0876 74.6164 56.6356 74.9948 55.8682 75.6171C58.1731 73.2576 60.3041 71.287 62.7743 69.7061C64.7835 68.4202 66.9173 67.416 69.2109 66.7573C69.3196 66.7264 69.4436 66.7524 69.5599 66.7517C69.5459 66.8631 69.534 66.9745 69.5179 67.0852ZM67.548 70.9423C66.712 73.1175 64.7365 73.4475 62.8108 73.9647C60.4541 74.5982 58.2642 75.6655 55.9474 77.0943C59.4975 74.1041 63.11 71.8042 67.37 70.669C67.452 70.6472 67.5459 70.6704 67.6342 70.6725C67.6062 70.7629 67.5823 70.8547 67.548 70.9423ZM52.8878 80.7916C53.7351 79.3214 62.4359 74.8344 64.2845 74.9199C61.0294 77.9969 57.2712 79.9332 52.8878 80.7916ZM51.3637 62.4104C50.6797 57.6921 52.0546 53.6745 55.6797 50.4692C58.5795 47.9044 62.0105 46.3136 65.5964 45.0319C66.4485 44.7271 66.6489 45.7789 66.986 46.2898C67.1661 46.5631 66.5473 46.561 66.3013 46.657C61.8535 48.3928 57.5115 50.3374 54.8913 54.6122C52.5045 58.5056 52.1934 62.704 53.5375 67.0649C54.2922 69.5106 54.2011 71.9752 53.2165 74.4139C54.7316 70.0593 51.9446 66.4139 51.3637 62.4104ZM68.958 49.6178C69.0911 49.978 68.5557 49.8897 68.3139 49.9548C62.8423 51.4412 58.3595 54.4237 54.8087 58.8266C54.5781 59.1125 54.3265 59.3816 54.0847 59.6584C54.1632 59.2555 54.2116 58.8448 54.323 58.4517C55.7281 53.4993 59.4989 50.9163 63.8893 48.9787C65.1226 48.4349 66.4036 48.0004 67.815 47.4573C68.2165 48.191 68.6812 48.8693 68.958 49.6178ZM69.9937 52.3305C70.0596 52.9142 69.3048 52.7817 68.9278 52.8848C65.0505 53.9464 61.6265 55.7923 58.6573 58.5155C56.9782 60.0558 55.4835 61.7425 54.1527 63.5835C54.1093 63.6444 54.0175 63.6703 53.9481 63.7124C53.8857 63.4888 53.8234 63.2646 53.726 62.9149C54.2901 61.4111 55.3938 60.1784 56.4309 58.9275C59.3153 55.4482 62.9572 53.0565 67.2383 51.629C67.8521 51.4244 68.4744 51.1987 69.11 51.1146C70.0112 50.9962 69.9453 51.9009 69.9937 52.3305ZM71.0757 58.081C71.0736 58.7846 70.4534 58.6374 70.0827 58.7236C66.0757 59.6507 62.6994 61.6977 59.7085 64.4552C58.0434 65.9913 56.637 67.7446 55.3286 69.5842C55.2775 69.6571 55.1625 69.6844 55.0778 69.7334C55.0799 69.5751 55.0245 69.383 55.0932 69.2625C57.4877 65.0642 60.4975 61.451 64.7982 59.0551C66.6258 58.0368 68.5823 57.3774 70.5908 56.8441C70.9664 56.7439 71.0729 57.0179 71.0757 58.081ZM70.5627 54.0726C70.4927 54.6052 71.5074 55.3844 70.4023 55.6507C64.9453 56.9653 60.5094 59.8476 57.0091 64.1938C56.3539 65.0067 55.815 65.9135 55.2109 66.7685C55.0574 66.9857 54.8591 67.1721 54.6818 67.3725C54.5851 67.1322 54.4772 66.896 54.3938 66.6514C54.2985 66.369 54.2249 66.0796 54.1016 65.6535C54.8969 64.6066 55.7035 63.4692 56.5879 62.3942C60.1079 58.1146 64.487 55.1581 69.9222 53.8581C70.1808 53.7965 70.623 53.6157 70.5627 54.0726ZM66.5361 44.0382C65.5879 42.9835 64.7043 41.8882 63.5802 40.9898C62.48 40.1111 61.3434 39.3556 60.1752 38.7004C60.1605 39.0887 60.1282 39.4769 60.0645 39.8595C61.2256 40.5343 62.3378 41.3171 63.3952 42.2204C63.9502 42.6948 64.4183 43.2709 64.9264 43.7992C64.4849 44.0193 64.0596 44.2835 63.5992 44.451C59.8802 45.8034 56.5164 47.8042 53.8185 50.657C50.597 54.0621 49.6811 58.2779 50.3721 62.8883C50.7196 65.2093 52.0434 67.2282 52.3679 69.5302C52.9775 73.854 51.2887 77.7146 49.7589 81.5926C49.5865 82.0292 49.5739 82.2289 50.1233 82.1967C55.1044 81.9052 59.5578 80.2387 63.4303 77.0796C68.9173 72.6031 71.8276 66.7692 72.0799 59.7488C72.2915 53.8525 70.5599 48.5154 66.5361 44.0382Z" fill="url(#paint27_linear_348_5359)"/>
<path d="M68.3497 62.9485C65.932 63.6213 63.7519 64.8056 61.7463 66.2821C59.0616 68.2583 56.8521 70.7292 54.4884 73.6059C55.2256 71.5821 56.3328 70.2653 57.391 68.9149C59.5284 66.1882 62.0042 63.8385 65.0063 62.0824C66.6867 61.0992 68.5067 60.4293 70.3777 59.9107C70.5718 59.8567 70.9559 59.5701 71.0547 60.2429C71.3777 62.4412 69.7772 62.5512 68.3497 62.9485ZM69.8353 65.2541C65.171 66.4174 61.1927 68.7818 57.7281 72.0607C57.1324 72.6241 56.5921 73.2457 56.0266 73.8407C58.1927 70.8624 60.7687 68.3249 63.8809 66.3844C65.8255 65.1721 67.9131 64.2513 70.1654 63.7488C70.2551 63.7292 70.4639 63.8645 70.4625 63.8687C70.2796 64.3466 70.4807 65.0929 69.8353 65.2541ZM69.5179 67.0852C69.1156 69.8638 66.5186 69.4027 64.8178 70.1357C62.2312 71.2506 59.7687 72.5176 57.5522 74.2527C57.0876 74.6164 56.6356 74.9948 55.8682 75.6171C58.1731 73.2576 60.3041 71.287 62.7743 69.7061C64.7835 68.4202 66.9173 67.416 69.2109 66.7573C69.3196 66.7264 69.4436 66.7524 69.5599 66.7517C69.5459 66.8631 69.534 66.9745 69.5179 67.0852ZM67.548 70.9423C66.712 73.1175 64.7365 73.4475 62.8108 73.9647C60.4541 74.5982 58.2642 75.6655 55.9474 77.0943C59.4975 74.1041 63.11 71.8042 67.37 70.669C67.452 70.6472 67.5459 70.6704 67.6342 70.6725C67.6062 70.7629 67.5823 70.8547 67.548 70.9423ZM52.8878 80.7916C53.7351 79.3214 62.4359 74.8344 64.2845 74.9199C61.0294 77.9969 57.2712 79.9332 52.8878 80.7916ZM51.3637 62.4104C50.6797 57.6921 52.0546 53.6745 55.6797 50.4692C58.5795 47.9044 62.0105 46.3136 65.5964 45.0319C66.4485 44.7271 66.6489 45.7789 66.986 46.2898C67.1661 46.5631 66.5473 46.561 66.3013 46.657C61.8535 48.3928 57.5115 50.3374 54.8913 54.6122C52.5045 58.5056 52.1934 62.704 53.5375 67.0649C54.2922 69.5106 54.2011 71.9752 53.2165 74.4139C54.7316 70.0593 51.9446 66.4139 51.3637 62.4104ZM68.958 49.6178C69.0911 49.978 68.5557 49.8897 68.3139 49.9548C62.8423 51.4412 58.3595 54.4237 54.8087 58.8266C54.5781 59.1125 54.3265 59.3816 54.0847 59.6584C54.1632 59.2555 54.2116 58.8448 54.323 58.4517C55.7281 53.4993 59.4989 50.9163 63.8893 48.9787C65.1226 48.4349 66.4036 48.0004 67.815 47.4573C68.2165 48.191 68.6812 48.8693 68.958 49.6178ZM69.9937 52.3305C70.0596 52.9142 69.3048 52.7817 68.9278 52.8848C65.0505 53.9464 61.6265 55.7923 58.6573 58.5155C56.9782 60.0558 55.4835 61.7425 54.1527 63.5835C54.1093 63.6444 54.0175 63.6703 53.9481 63.7124C53.8857 63.4888 53.8234 63.2646 53.726 62.9149C54.2901 61.4111 55.3938 60.1784 56.4309 58.9275C59.3153 55.4482 62.9572 53.0565 67.2383 51.629C67.8521 51.4244 68.4744 51.1987 69.11 51.1146C70.0112 50.9962 69.9453 51.9009 69.9937 52.3305ZM71.0757 58.081C71.0736 58.7846 70.4534 58.6374 70.0827 58.7236C66.0757 59.6507 62.6994 61.6977 59.7085 64.4552C58.0434 65.9913 56.637 67.7446 55.3286 69.5842C55.2775 69.6571 55.1625 69.6844 55.0778 69.7334C55.0799 69.5751 55.0245 69.383 55.0932 69.2625C57.4877 65.0642 60.4975 61.451 64.7982 59.0551C66.6258 58.0368 68.5823 57.3774 70.5908 56.8441C70.9664 56.7439 71.0729 57.0179 71.0757 58.081ZM70.5627 54.0726C70.4927 54.6052 71.5074 55.3844 70.4023 55.6507C64.9453 56.9653 60.5094 59.8476 57.0091 64.1938C56.3539 65.0067 55.815 65.9135 55.2109 66.7685C55.0574 66.9857 54.8591 67.1721 54.6818 67.3725C54.5851 67.1322 54.4772 66.896 54.3938 66.6514C54.2985 66.369 54.2249 66.0796 54.1016 65.6535C54.8969 64.6066 55.7035 63.4692 56.5879 62.3942C60.1079 58.1146 64.487 55.1581 69.9222 53.8581C70.1808 53.7965 70.623 53.6157 70.5627 54.0726ZM66.5361 44.0382C65.5879 42.9835 64.7043 41.8882 63.5802 40.9898C62.48 40.1111 61.3434 39.3556 60.1752 38.7004C60.1605 39.0887 60.1282 39.4769 60.0645 39.8595C61.2256 40.5343 62.3378 41.3171 63.3952 42.2204C63.9502 42.6948 64.4183 43.2709 64.9264 43.7992C64.4849 44.0193 64.0596 44.2835 63.5992 44.451C59.8802 45.8034 56.5164 47.8042 53.8185 50.657C50.597 54.0621 49.6811 58.2779 50.3721 62.8883C50.7196 65.2093 52.0434 67.2282 52.3679 69.5302C52.9775 73.854 51.2887 77.7146 49.7589 81.5926C49.5865 82.0292 49.5739 82.2289 50.1233 82.1967C55.1044 81.9052 59.5578 80.2387 63.4303 77.0796C68.9173 72.6031 71.8276 66.7692 72.0799 59.7488C72.2915 53.8525 70.5599 48.5154 66.5361 44.0382Z" fill="#FFE9BF" fill-opacity="0.24" style="mix-blend-mode:saturation"/>
<path d="M53.5089 42.5102C53.6785 42.3679 53.8656 42.2298 54.0464 42.0967L54.078 42.0736C54.2833 41.9229 54.5026 41.747 54.7192 41.5557C54.8831 42.1233 54.977 42.6538 54.977 43.1233C54.977 46.8157 51.7612 48.1269 50.1873 48.548C50.3751 46.2726 51.5159 44.1871 53.5089 42.5102ZM42.7394 43.1233C42.7394 42.6531 42.8334 42.1233 42.9952 41.5592C43.1901 41.7309 43.3989 41.8984 43.6378 42.0736L43.6694 42.0967C43.8502 42.2298 44.0373 42.3679 44.2069 42.5102C46.2006 44.1871 47.3421 46.2733 47.5285 48.548C45.9546 48.1276 42.7394 46.8164 42.7394 43.1233ZM48.9217 31.2326C48.8999 31.2235 48.8803 31.2424 48.8579 31.2452C48.8355 31.2424 48.8166 31.2235 48.7941 31.2326C48.7759 31.2396 48.7766 31.2628 48.764 31.2768L48.4858 31.5578C48.0801 31.9698 44.5531 35.6076 42.7353 39.3301C42.4613 38.5942 42.3246 37.693 42.3246 36.5059C42.3246 32.5003 47.5762 27.7477 48.8579 26.6475C50.1396 27.7477 55.3919 32.5017 55.3919 36.5059C55.3919 37.6923 55.2546 38.5928 54.9799 39.3301C53.1116 35.5052 49.3912 31.7204 49.23 31.5578L48.9511 31.2768C48.9385 31.2628 48.9399 31.2396 48.9217 31.2326ZM41.3169 37.8458C41.3596 38.2677 41.4227 38.644 41.5089 38.9958C41.593 39.3441 41.7044 39.6769 41.839 39.9853C41.9182 40.164 42.0268 40.3966 42.1704 40.6153C42.1725 40.6188 42.1753 40.6216 42.1774 40.6244C41.8418 41.5452 41.6687 42.3854 41.6687 43.1233C41.6687 48.6805 47.9511 49.7078 48.0156 49.7176L48.4858 49.7898C48.4921 49.7912 48.4991 49.7912 48.5047 49.7912C48.5131 49.7912 48.5173 49.7814 48.525 49.7793C48.5334 49.7779 48.5426 49.7779 48.551 49.7751C48.558 49.7723 48.5566 49.7611 48.5629 49.7568C48.5818 49.7456 48.6077 49.7449 48.6182 49.7239C48.6259 49.7106 48.6119 49.6973 48.614 49.6833C48.6175 49.6706 48.635 49.6664 48.635 49.6531L48.6337 49.1969C48.6267 46.356 47.3386 43.7736 44.9083 41.7302C44.6995 41.5536 44.4788 41.3924 44.2636 41.2341C44.0912 41.1079 43.9182 40.9811 43.7549 40.8444C43.6736 40.7765 43.593 40.7057 43.5173 40.6321C43.4809 40.5956 43.4451 40.5585 43.4101 40.5207C43.3982 40.5074 43.3877 40.4891 43.3758 40.4758C44.7128 37.3027 47.7822 33.8493 48.8579 32.6951C49.9329 33.8472 53.0009 37.2971 54.3407 40.4751C54.3288 40.4891 54.319 40.5066 54.3071 40.52C54.2714 40.5585 54.2356 40.5956 54.1985 40.6321C54.1235 40.7057 54.0443 40.7765 53.9609 40.8444C53.7976 40.9811 53.6246 41.1079 53.4311 41.2495C53.209 41.4127 53.0079 41.5613 52.8075 41.7302C50.3765 43.7743 49.0892 46.3567 49.0822 49.1969L49.0807 49.6531C49.0807 49.6664 49.0976 49.6706 49.1018 49.6833C49.1039 49.6973 49.0899 49.7106 49.0969 49.7239C49.1081 49.7449 49.1333 49.7456 49.1529 49.7568C49.1592 49.7611 49.1578 49.7723 49.1648 49.7751C49.1733 49.7779 49.1824 49.7779 49.1908 49.7793C49.1985 49.7814 49.2027 49.7912 49.2104 49.7912C49.2167 49.7912 49.2237 49.7912 49.23 49.7898L49.7002 49.7176C49.764 49.7078 56.0471 48.6805 56.0471 43.1233C56.0471 42.3875 55.874 41.5459 55.5391 40.6251C55.5412 40.6216 55.544 40.6195 55.5461 40.616C55.6918 40.3938 55.7998 40.1619 55.8768 39.9853C56.0107 39.6818 56.1221 39.349 56.2069 38.9965C56.2931 38.644 56.3562 38.2677 56.3989 37.8458C56.4417 37.4303 56.4613 36.9916 56.4613 36.5059C56.4613 34.3518 55.2279 31.8465 52.7928 29.0602C50.9855 26.9901 49.2013 25.5655 49.1845 25.5515L48.9511 25.3651C48.9406 25.3538 48.942 25.3349 48.928 25.3279C48.9055 25.3167 48.8824 25.3328 48.8579 25.3363C48.8334 25.3328 48.8103 25.3167 48.7878 25.3279C48.7738 25.3349 48.7752 25.3538 48.7647 25.3651L48.5306 25.5529C48.3414 25.7042 46.6456 27.0875 44.9224 29.0602C42.4879 31.8479 41.2538 34.3525 41.2538 36.5059C41.2538 36.9916 41.2741 37.4303 41.3169 37.8458Z" fill="url(#paint28_linear_348_5359)"/>
<path d="M53.5089 42.5102C53.6785 42.3679 53.8656 42.2298 54.0464 42.0967L54.078 42.0736C54.2833 41.9229 54.5026 41.747 54.7192 41.5557C54.8831 42.1233 54.977 42.6538 54.977 43.1233C54.977 46.8157 51.7612 48.1269 50.1873 48.548C50.3751 46.2726 51.5159 44.1871 53.5089 42.5102ZM42.7394 43.1233C42.7394 42.6531 42.8334 42.1233 42.9952 41.5592C43.1901 41.7309 43.3989 41.8984 43.6378 42.0736L43.6694 42.0967C43.8502 42.2298 44.0373 42.3679 44.2069 42.5102C46.2006 44.1871 47.3421 46.2733 47.5285 48.548C45.9546 48.1276 42.7394 46.8164 42.7394 43.1233ZM48.9217 31.2326C48.8999 31.2235 48.8803 31.2424 48.8579 31.2452C48.8355 31.2424 48.8166 31.2235 48.7941 31.2326C48.7759 31.2396 48.7766 31.2628 48.764 31.2768L48.4858 31.5578C48.0801 31.9698 44.5531 35.6076 42.7353 39.3301C42.4613 38.5942 42.3246 37.693 42.3246 36.5059C42.3246 32.5003 47.5762 27.7477 48.8579 26.6475C50.1396 27.7477 55.3919 32.5017 55.3919 36.5059C55.3919 37.6923 55.2546 38.5928 54.9799 39.3301C53.1116 35.5052 49.3912 31.7204 49.23 31.5578L48.9511 31.2768C48.9385 31.2628 48.9399 31.2396 48.9217 31.2326ZM41.3169 37.8458C41.3596 38.2677 41.4227 38.644 41.5089 38.9958C41.593 39.3441 41.7044 39.6769 41.839 39.9853C41.9182 40.164 42.0268 40.3966 42.1704 40.6153C42.1725 40.6188 42.1753 40.6216 42.1774 40.6244C41.8418 41.5452 41.6687 42.3854 41.6687 43.1233C41.6687 48.6805 47.9511 49.7078 48.0156 49.7176L48.4858 49.7898C48.4921 49.7912 48.4991 49.7912 48.5047 49.7912C48.5131 49.7912 48.5173 49.7814 48.525 49.7793C48.5334 49.7779 48.5426 49.7779 48.551 49.7751C48.558 49.7723 48.5566 49.7611 48.5629 49.7568C48.5818 49.7456 48.6077 49.7449 48.6182 49.7239C48.6259 49.7106 48.6119 49.6973 48.614 49.6833C48.6175 49.6706 48.635 49.6664 48.635 49.6531L48.6337 49.1969C48.6267 46.356 47.3386 43.7736 44.9083 41.7302C44.6995 41.5536 44.4788 41.3924 44.2636 41.2341C44.0912 41.1079 43.9182 40.9811 43.7549 40.8444C43.6736 40.7765 43.593 40.7057 43.5173 40.6321C43.4809 40.5956 43.4451 40.5585 43.4101 40.5207C43.3982 40.5074 43.3877 40.4891 43.3758 40.4758C44.7128 37.3027 47.7822 33.8493 48.8579 32.6951C49.9329 33.8472 53.0009 37.2971 54.3407 40.4751C54.3288 40.4891 54.319 40.5066 54.3071 40.52C54.2714 40.5585 54.2356 40.5956 54.1985 40.6321C54.1235 40.7057 54.0443 40.7765 53.9609 40.8444C53.7976 40.9811 53.6246 41.1079 53.4311 41.2495C53.209 41.4127 53.0079 41.5613 52.8075 41.7302C50.3765 43.7743 49.0892 46.3567 49.0822 49.1969L49.0807 49.6531C49.0807 49.6664 49.0976 49.6706 49.1018 49.6833C49.1039 49.6973 49.0899 49.7106 49.0969 49.7239C49.1081 49.7449 49.1333 49.7456 49.1529 49.7568C49.1592 49.7611 49.1578 49.7723 49.1648 49.7751C49.1733 49.7779 49.1824 49.7779 49.1908 49.7793C49.1985 49.7814 49.2027 49.7912 49.2104 49.7912C49.2167 49.7912 49.2237 49.7912 49.23 49.7898L49.7002 49.7176C49.764 49.7078 56.0471 48.6805 56.0471 43.1233C56.0471 42.3875 55.874 41.5459 55.5391 40.6251C55.5412 40.6216 55.544 40.6195 55.5461 40.616C55.6918 40.3938 55.7998 40.1619 55.8768 39.9853C56.0107 39.6818 56.1221 39.349 56.2069 38.9965C56.2931 38.644 56.3562 38.2677 56.3989 37.8458C56.4417 37.4303 56.4613 36.9916 56.4613 36.5059C56.4613 34.3518 55.2279 31.8465 52.7928 29.0602C50.9855 26.9901 49.2013 25.5655 49.1845 25.5515L48.9511 25.3651C48.9406 25.3538 48.942 25.3349 48.928 25.3279C48.9055 25.3167 48.8824 25.3328 48.8579 25.3363C48.8334 25.3328 48.8103 25.3167 48.7878 25.3279C48.7738 25.3349 48.7752 25.3538 48.7647 25.3651L48.5306 25.5529C48.3414 25.7042 46.6456 27.0875 44.9224 29.0602C42.4879 31.8479 41.2538 34.3525 41.2538 36.5059C41.2538 36.9916 41.2741 37.4303 41.3169 37.8458Z" fill="#FFE9BF" fill-opacity="0.24" style="mix-blend-mode:saturation"/>
<path d="M59.6731 41.2543C59.6731 39.597 59.2716 36.3601 56.5827 33.3047C56.54 33.2564 56.4678 33.2466 56.4152 33.2809C56.3612 33.3152 56.3402 33.3839 56.3669 33.4428C56.6619 34.1155 56.8637 34.8759 56.9667 35.7042C56.9688 35.7231 56.9758 35.7406 56.9863 35.7567C58.0781 37.4989 58.5652 39.194 58.5652 41.2543C58.5652 47.7988 52.9008 50.747 48.8693 50.754C44.8377 50.747 39.1734 47.7988 39.1734 41.2543C39.1734 39.194 39.6604 37.4989 40.7522 35.7567C40.7627 35.7406 40.7698 35.7231 40.7719 35.7042C40.8749 34.8759 41.0767 34.1155 41.3717 33.4428C41.3983 33.3839 41.3773 33.3152 41.3234 33.2809C41.2708 33.2473 41.1986 33.2571 41.1559 33.3047C38.467 36.3601 38.0655 39.597 38.0655 41.2543C38.0655 48.5283 44.3598 51.8079 48.8504 51.8247L48.8539 51.8261C48.8588 51.8261 48.8644 51.8254 48.8693 51.8254C48.8742 51.8254 48.8798 51.8261 48.8847 51.8261L48.8882 51.8247C53.3787 51.8079 59.6731 48.5283 59.6731 41.2543Z" fill="url(#paint29_linear_348_5359)"/>
<path d="M59.6731 41.2543C59.6731 39.597 59.2716 36.3601 56.5827 33.3047C56.54 33.2564 56.4678 33.2466 56.4152 33.2809C56.3612 33.3152 56.3402 33.3839 56.3669 33.4428C56.6619 34.1155 56.8637 34.8759 56.9667 35.7042C56.9688 35.7231 56.9758 35.7406 56.9863 35.7567C58.0781 37.4989 58.5652 39.194 58.5652 41.2543C58.5652 47.7988 52.9008 50.747 48.8693 50.754C44.8377 50.747 39.1734 47.7988 39.1734 41.2543C39.1734 39.194 39.6604 37.4989 40.7522 35.7567C40.7627 35.7406 40.7698 35.7231 40.7719 35.7042C40.8749 34.8759 41.0767 34.1155 41.3717 33.4428C41.3983 33.3839 41.3773 33.3152 41.3234 33.2809C41.2708 33.2473 41.1986 33.2571 41.1559 33.3047C38.467 36.3601 38.0655 39.597 38.0655 41.2543C38.0655 48.5283 44.3598 51.8079 48.8504 51.8247L48.8539 51.8261C48.8588 51.8261 48.8644 51.8254 48.8693 51.8254C48.8742 51.8254 48.8798 51.8261 48.8847 51.8261L48.8882 51.8247C53.3787 51.8079 59.6731 48.5283 59.6731 41.2543Z" fill="#FFE9BF" fill-opacity="0.24" style="mix-blend-mode:saturation"/>
<defs>
<linearGradient id="paint0_linear_348_5359" x1="0.665701" y1="52.0245" x2="99.6578" y2="52.0245" gradientUnits="userSpaceOnUse">
<stop offset="0.0186222" stop-color="#9A8C84"/>
<stop offset="0.4235" stop-color="#D3CCC5"/>
<stop offset="0.4999" stop-color="#DED9D1"/>
<stop offset="0.5991" stop-color="#D1CAC0"/>
<stop offset="0.7129" stop-color="#C7C0B1"/>
<stop offset="0.8064" stop-color="#C4BCAC"/>
<stop offset="0.8566" stop-color="#B8AF9E"/>
<stop offset="0.9516" stop-color="#978E78"/>
<stop offset="0.9972" stop-color="#867664"/>
</linearGradient>
<linearGradient id="paint1_linear_348_5359" x1="0.665701" y1="52.0245" x2="99.6578" y2="52.0245" gradientUnits="userSpaceOnUse">
<stop offset="0.0186222" stop-color="#9A8C84"/>
<stop offset="0.4235" stop-color="#D3CCC5"/>
<stop offset="0.4999" stop-color="#DED9D1"/>
<stop offset="0.5991" stop-color="#D1CAC0"/>
<stop offset="0.7129" stop-color="#C7C0B1"/>
<stop offset="0.8064" stop-color="#C4BCAC"/>
<stop offset="0.8566" stop-color="#B8AF9E"/>
<stop offset="0.9516" stop-color="#978E78"/>
<stop offset="0.9972" stop-color="#867664"/>
</linearGradient>
<linearGradient id="paint2_linear_348_5359" x1="0.665701" y1="52.0245" x2="99.6578" y2="52.0245" gradientUnits="userSpaceOnUse">
<stop offset="0.0186222" stop-color="#9A8C84"/>
<stop offset="0.4235" stop-color="#D3CCC5"/>
<stop offset="0.4999" stop-color="#DED9D1"/>
<stop offset="0.5991" stop-color="#D1CAC0"/>
<stop offset="0.7129" stop-color="#C7C0B1"/>
<stop offset="0.8064" stop-color="#C4BCAC"/>
<stop offset="0.8566" stop-color="#B8AF9E"/>
<stop offset="0.9516" stop-color="#978E78"/>
<stop offset="0.9972" stop-color="#867664"/>
</linearGradient>
<linearGradient id="paint3_linear_348_5359" x1="0.665701" y1="52.0245" x2="99.6578" y2="52.0245" gradientUnits="userSpaceOnUse">
<stop offset="0.0186222" stop-color="#9A8C84"/>
<stop offset="0.4235" stop-color="#D3CCC5"/>
<stop offset="0.4999" stop-color="#DED9D1"/>
<stop offset="0.5991" stop-color="#D1CAC0"/>
<stop offset="0.7129" stop-color="#C7C0B1"/>
<stop offset="0.8064" stop-color="#C4BCAC"/>
<stop offset="0.8566" stop-color="#B8AF9E"/>
<stop offset="0.9516" stop-color="#978E78"/>
<stop offset="0.9972" stop-color="#867664"/>
</linearGradient>
<linearGradient id="paint4_linear_348_5359" x1="0.665701" y1="52.0245" x2="99.6578" y2="52.0245" gradientUnits="userSpaceOnUse">
<stop offset="0.0186222" stop-color="#9A8C84"/>
<stop offset="0.4235" stop-color="#D3CCC5"/>
<stop offset="0.4999" stop-color="#DED9D1"/>
<stop offset="0.5991" stop-color="#D1CAC0"/>
<stop offset="0.7129" stop-color="#C7C0B1"/>
<stop offset="0.8064" stop-color="#C4BCAC"/>
<stop offset="0.8566" stop-color="#B8AF9E"/>
<stop offset="0.9516" stop-color="#978E78"/>
<stop offset="0.9972" stop-color="#867664"/>
</linearGradient>
<linearGradient id="paint5_linear_348_5359" x1="0.665701" y1="52.0245" x2="99.6578" y2="52.0245" gradientUnits="userSpaceOnUse">
<stop offset="0.0186222" stop-color="#9A8C84"/>
<stop offset="0.4235" stop-color="#D3CCC5"/>
<stop offset="0.4999" stop-color="#DED9D1"/>
<stop offset="0.5991" stop-color="#D1CAC0"/>
<stop offset="0.7129" stop-color="#C7C0B1"/>
<stop offset="0.8064" stop-color="#C4BCAC"/>
<stop offset="0.8566" stop-color="#B8AF9E"/>
<stop offset="0.9516" stop-color="#978E78"/>
<stop offset="0.9972" stop-color="#867664"/>
</linearGradient>
<linearGradient id="paint6_linear_348_5359" x1="0.665701" y1="52.0245" x2="99.6578" y2="52.0245" gradientUnits="userSpaceOnUse">
<stop offset="0.0186222" stop-color="#9A8C84"/>
<stop offset="0.4235" stop-color="#D3CCC5"/>
<stop offset="0.4999" stop-color="#DED9D1"/>
<stop offset="0.5991" stop-color="#D1CAC0"/>
<stop offset="0.7129" stop-color="#C7C0B1"/>
<stop offset="0.8064" stop-color="#C4BCAC"/>
<stop offset="0.8566" stop-color="#B8AF9E"/>
<stop offset="0.9516" stop-color="#978E78"/>
<stop offset="0.9972" stop-color="#867664"/>
</linearGradient>
<linearGradient id="paint7_linear_348_5359" x1="0.665701" y1="52.0245" x2="99.6578" y2="52.0245" gradientUnits="userSpaceOnUse">
<stop offset="0.0186222" stop-color="#9A8C84"/>
<stop offset="0.4235" stop-color="#D3CCC5"/>
<stop offset="0.4999" stop-color="#DED9D1"/>
<stop offset="0.5991" stop-color="#D1CAC0"/>
<stop offset="0.7129" stop-color="#C7C0B1"/>
<stop offset="0.8064" stop-color="#C4BCAC"/>
<stop offset="0.8566" stop-color="#B8AF9E"/>
<stop offset="0.9516" stop-color="#978E78"/>
<stop offset="0.9972" stop-color="#867664"/>
</linearGradient>
<linearGradient id="paint8_linear_348_5359" x1="0.665701" y1="52.0245" x2="99.6578" y2="52.0245" gradientUnits="userSpaceOnUse">
<stop offset="0.0186222" stop-color="#9A8C84"/>
<stop offset="0.4235" stop-color="#D3CCC5"/>
<stop offset="0.4999" stop-color="#DED9D1"/>
<stop offset="0.5991" stop-color="#D1CAC0"/>
<stop offset="0.7129" stop-color="#C7C0B1"/>
<stop offset="0.8064" stop-color="#C4BCAC"/>
<stop offset="0.8566" stop-color="#B8AF9E"/>
<stop offset="0.9516" stop-color="#978E78"/>
<stop offset="0.9972" stop-color="#867664"/>
</linearGradient>
<linearGradient id="paint9_linear_348_5359" x1="0.665701" y1="52.0245" x2="99.6578" y2="52.0245" gradientUnits="userSpaceOnUse">
<stop offset="0.0186222" stop-color="#9A8C84"/>
<stop offset="0.4235" stop-color="#D3CCC5"/>
<stop offset="0.4999" stop-color="#DED9D1"/>
<stop offset="0.5991" stop-color="#D1CAC0"/>
<stop offset="0.7129" stop-color="#C7C0B1"/>
<stop offset="0.8064" stop-color="#C4BCAC"/>
<stop offset="0.8566" stop-color="#B8AF9E"/>
<stop offset="0.9516" stop-color="#978E78"/>
<stop offset="0.9972" stop-color="#867664"/>
</linearGradient>
<linearGradient id="paint10_linear_348_5359" x1="0.665701" y1="52.0245" x2="99.6578" y2="52.0245" gradientUnits="userSpaceOnUse">
<stop offset="0.0186222" stop-color="#9A8C84"/>
<stop offset="0.4235" stop-color="#D3CCC5"/>
<stop offset="0.4999" stop-color="#DED9D1"/>
<stop offset="0.5991" stop-color="#D1CAC0"/>
<stop offset="0.7129" stop-color="#C7C0B1"/>
<stop offset="0.8064" stop-color="#C4BCAC"/>
<stop offset="0.8566" stop-color="#B8AF9E"/>
<stop offset="0.9516" stop-color="#978E78"/>
<stop offset="0.9972" stop-color="#867664"/>
</linearGradient>
<linearGradient id="paint11_linear_348_5359" x1="0.665701" y1="52.0245" x2="99.6578" y2="52.0245" gradientUnits="userSpaceOnUse">
<stop offset="0.0186222" stop-color="#9A8C84"/>
<stop offset="0.4235" stop-color="#D3CCC5"/>
<stop offset="0.4999" stop-color="#DED9D1"/>
<stop offset="0.5991" stop-color="#D1CAC0"/>
<stop offset="0.7129" stop-color="#C7C0B1"/>
<stop offset="0.8064" stop-color="#C4BCAC"/>
<stop offset="0.8566" stop-color="#B8AF9E"/>
<stop offset="0.9516" stop-color="#978E78"/>
<stop offset="0.9972" stop-color="#867664"/>
</linearGradient>
<linearGradient id="paint12_linear_348_5359" x1="0.665701" y1="52.0245" x2="99.6578" y2="52.0245" gradientUnits="userSpaceOnUse">
<stop offset="0.0186222" stop-color="#9A8C84"/>
<stop offset="0.4235" stop-color="#D3CCC5"/>
<stop offset="0.4999" stop-color="#DED9D1"/>
<stop offset="0.5991" stop-color="#D1CAC0"/>
<stop offset="0.7129" stop-color="#C7C0B1"/>
<stop offset="0.8064" stop-color="#C4BCAC"/>
<stop offset="0.8566" stop-color="#B8AF9E"/>
<stop offset="0.9516" stop-color="#978E78"/>
<stop offset="0.9972" stop-color="#867664"/>
</linearGradient>
<linearGradient id="paint13_linear_348_5359" x1="0.665701" y1="52.0245" x2="99.6578" y2="52.0245" gradientUnits="userSpaceOnUse">
<stop offset="0.0186222" stop-color="#9A8C84"/>
<stop offset="0.4235" stop-color="#D3CCC5"/>
<stop offset="0.4999" stop-color="#DED9D1"/>
<stop offset="0.5991" stop-color="#D1CAC0"/>
<stop offset="0.7129" stop-color="#C7C0B1"/>
<stop offset="0.8064" stop-color="#C4BCAC"/>
<stop offset="0.8566" stop-color="#B8AF9E"/>
<stop offset="0.9516" stop-color="#978E78"/>
<stop offset="0.9972" stop-color="#867664"/>
</linearGradient>
<linearGradient id="paint14_linear_348_5359" x1="0.665701" y1="52.0245" x2="99.6578" y2="52.0245" gradientUnits="userSpaceOnUse">
<stop offset="0.0186222" stop-color="#9A8C84"/>
<stop offset="0.4235" stop-color="#D3CCC5"/>
<stop offset="0.4999" stop-color="#DED9D1"/>
<stop offset="0.5991" stop-color="#D1CAC0"/>
<stop offset="0.7129" stop-color="#C7C0B1"/>
<stop offset="0.8064" stop-color="#C4BCAC"/>
<stop offset="0.8566" stop-color="#B8AF9E"/>
<stop offset="0.9516" stop-color="#978E78"/>
<stop offset="0.9972" stop-color="#867664"/>
</linearGradient>
<linearGradient id="paint15_linear_348_5359" x1="0.665701" y1="52.0245" x2="99.6578" y2="52.0245" gradientUnits="userSpaceOnUse">
<stop offset="0.0186222" stop-color="#9A8C84"/>
<stop offset="0.4235" stop-color="#D3CCC5"/>
<stop offset="0.4999" stop-color="#DED9D1"/>
<stop offset="0.5991" stop-color="#D1CAC0"/>
<stop offset="0.7129" stop-color="#C7C0B1"/>
<stop offset="0.8064" stop-color="#C4BCAC"/>
<stop offset="0.8566" stop-color="#B8AF9E"/>
<stop offset="0.9516" stop-color="#978E78"/>
<stop offset="0.9972" stop-color="#867664"/>
</linearGradient>
<linearGradient id="paint16_linear_348_5359" x1="0.665701" y1="52.0245" x2="99.6578" y2="52.0245" gradientUnits="userSpaceOnUse">
<stop offset="0.0186222" stop-color="#9A8C84"/>
<stop offset="0.4235" stop-color="#D3CCC5"/>
<stop offset="0.4999" stop-color="#DED9D1"/>
<stop offset="0.5991" stop-color="#D1CAC0"/>
<stop offset="0.7129" stop-color="#C7C0B1"/>
<stop offset="0.8064" stop-color="#C4BCAC"/>
<stop offset="0.8566" stop-color="#B8AF9E"/>
<stop offset="0.9516" stop-color="#978E78"/>
<stop offset="0.9972" stop-color="#867664"/>
</linearGradient>
<linearGradient id="paint17_linear_348_5359" x1="0.665701" y1="52.0245" x2="99.6578" y2="52.0245" gradientUnits="userSpaceOnUse">
<stop offset="0.0186222" stop-color="#9A8C84"/>
<stop offset="0.4235" stop-color="#D3CCC5"/>
<stop offset="0.4999" stop-color="#DED9D1"/>
<stop offset="0.5991" stop-color="#D1CAC0"/>
<stop offset="0.7129" stop-color="#C7C0B1"/>
<stop offset="0.8064" stop-color="#C4BCAC"/>
<stop offset="0.8566" stop-color="#B8AF9E"/>
<stop offset="0.9516" stop-color="#978E78"/>
<stop offset="0.9972" stop-color="#867664"/>
</linearGradient>
<linearGradient id="paint18_linear_348_5359" x1="0.665701" y1="52.0245" x2="99.6578" y2="52.0245" gradientUnits="userSpaceOnUse">
<stop offset="0.0186222" stop-color="#9A8C84"/>
<stop offset="0.4235" stop-color="#D3CCC5"/>
<stop offset="0.4999" stop-color="#DED9D1"/>
<stop offset="0.5991" stop-color="#D1CAC0"/>
<stop offset="0.7129" stop-color="#C7C0B1"/>
<stop offset="0.8064" stop-color="#C4BCAC"/>
<stop offset="0.8566" stop-color="#B8AF9E"/>
<stop offset="0.9516" stop-color="#978E78"/>
<stop offset="0.9972" stop-color="#867664"/>
</linearGradient>
<linearGradient id="paint19_linear_348_5359" x1="0.665701" y1="52.0245" x2="99.6578" y2="52.0245" gradientUnits="userSpaceOnUse">
<stop offset="0.0186222" stop-color="#9A8C84"/>
<stop offset="0.4235" stop-color="#D3CCC5"/>
<stop offset="0.4999" stop-color="#DED9D1"/>
<stop offset="0.5991" stop-color="#D1CAC0"/>
<stop offset="0.7129" stop-color="#C7C0B1"/>
<stop offset="0.8064" stop-color="#C4BCAC"/>
<stop offset="0.8566" stop-color="#B8AF9E"/>
<stop offset="0.9516" stop-color="#978E78"/>
<stop offset="0.9972" stop-color="#867664"/>
</linearGradient>
<linearGradient id="paint20_linear_348_5359" x1="0.665701" y1="52.0245" x2="99.6578" y2="52.0245" gradientUnits="userSpaceOnUse">
<stop offset="0.0186222" stop-color="#9A8C84"/>
<stop offset="0.4235" stop-color="#D3CCC5"/>
<stop offset="0.4999" stop-color="#DED9D1"/>
<stop offset="0.5991" stop-color="#D1CAC0"/>
<stop offset="0.7129" stop-color="#C7C0B1"/>
<stop offset="0.8064" stop-color="#C4BCAC"/>
<stop offset="0.8566" stop-color="#B8AF9E"/>
<stop offset="0.9516" stop-color="#978E78"/>
<stop offset="0.9972" stop-color="#867664"/>
</linearGradient>
<linearGradient id="paint21_linear_348_5359" x1="0.665701" y1="52.0245" x2="99.6578" y2="52.0245" gradientUnits="userSpaceOnUse">
<stop offset="0.0186222" stop-color="#9A8C84"/>
<stop offset="0.4235" stop-color="#D3CCC5"/>
<stop offset="0.4999" stop-color="#DED9D1"/>
<stop offset="0.5991" stop-color="#D1CAC0"/>
<stop offset="0.7129" stop-color="#C7C0B1"/>
<stop offset="0.8064" stop-color="#C4BCAC"/>
<stop offset="0.8566" stop-color="#B8AF9E"/>
<stop offset="0.9516" stop-color="#978E78"/>
<stop offset="0.9972" stop-color="#867664"/>
</linearGradient>
<linearGradient id="paint22_linear_348_5359" x1="0.665701" y1="52.0245" x2="99.6578" y2="52.0245" gradientUnits="userSpaceOnUse">
<stop offset="0.0186222" stop-color="#9A8C84"/>
<stop offset="0.4235" stop-color="#D3CCC5"/>
<stop offset="0.4999" stop-color="#DED9D1"/>
<stop offset="0.5991" stop-color="#D1CAC0"/>
<stop offset="0.7129" stop-color="#C7C0B1"/>
<stop offset="0.8064" stop-color="#C4BCAC"/>
<stop offset="0.8566" stop-color="#B8AF9E"/>
<stop offset="0.9516" stop-color="#978E78"/>
<stop offset="0.9972" stop-color="#867664"/>
</linearGradient>
<linearGradient id="paint23_linear_348_5359" x1="0.665701" y1="52.0245" x2="99.6578" y2="52.0245" gradientUnits="userSpaceOnUse">
<stop offset="0.0186222" stop-color="#9A8C84"/>
<stop offset="0.4235" stop-color="#D3CCC5"/>
<stop offset="0.4999" stop-color="#DED9D1"/>
<stop offset="0.5991" stop-color="#D1CAC0"/>
<stop offset="0.7129" stop-color="#C7C0B1"/>
<stop offset="0.8064" stop-color="#C4BCAC"/>
<stop offset="0.8566" stop-color="#B8AF9E"/>
<stop offset="0.9516" stop-color="#978E78"/>
<stop offset="0.9972" stop-color="#867664"/>
</linearGradient>
<linearGradient id="paint24_linear_348_5359" x1="0.665701" y1="52.0245" x2="99.6578" y2="52.0245" gradientUnits="userSpaceOnUse">
<stop offset="0.0186222" stop-color="#9A8C84"/>
<stop offset="0.4235" stop-color="#D3CCC5"/>
<stop offset="0.4999" stop-color="#DED9D1"/>
<stop offset="0.5991" stop-color="#D1CAC0"/>
<stop offset="0.7129" stop-color="#C7C0B1"/>
<stop offset="0.8064" stop-color="#C4BCAC"/>
<stop offset="0.8566" stop-color="#B8AF9E"/>
<stop offset="0.9516" stop-color="#978E78"/>
<stop offset="0.9972" stop-color="#867664"/>
</linearGradient>
<linearGradient id="paint25_linear_348_5359" x1="0.665701" y1="52.0245" x2="99.6578" y2="52.0245" gradientUnits="userSpaceOnUse">
<stop offset="0.0186222" stop-color="#9A8C84"/>
<stop offset="0.4235" stop-color="#D3CCC5"/>
<stop offset="0.4999" stop-color="#DED9D1"/>
<stop offset="0.5991" stop-color="#D1CAC0"/>
<stop offset="0.7129" stop-color="#C7C0B1"/>
<stop offset="0.8064" stop-color="#C4BCAC"/>
<stop offset="0.8566" stop-color="#B8AF9E"/>
<stop offset="0.9516" stop-color="#978E78"/>
<stop offset="0.9972" stop-color="#867664"/>
</linearGradient>
<linearGradient id="paint26_linear_348_5359" x1="0.665701" y1="52.0245" x2="99.6578" y2="52.0245" gradientUnits="userSpaceOnUse">
<stop offset="0.0186222" stop-color="#9A8C84"/>
<stop offset="0.4235" stop-color="#D3CCC5"/>
<stop offset="0.4999" stop-color="#DED9D1"/>
<stop offset="0.5991" stop-color="#D1CAC0"/>
<stop offset="0.7129" stop-color="#C7C0B1"/>
<stop offset="0.8064" stop-color="#C4BCAC"/>
<stop offset="0.8566" stop-color="#B8AF9E"/>
<stop offset="0.9516" stop-color="#978E78"/>
<stop offset="0.9972" stop-color="#867664"/>
</linearGradient>
<linearGradient id="paint27_linear_348_5359" x1="0.665701" y1="52.0245" x2="99.6578" y2="52.0245" gradientUnits="userSpaceOnUse">
<stop offset="0.0186222" stop-color="#9A8C84"/>
<stop offset="0.4235" stop-color="#D3CCC5"/>
<stop offset="0.4999" stop-color="#DED9D1"/>
<stop offset="0.5991" stop-color="#D1CAC0"/>
<stop offset="0.7129" stop-color="#C7C0B1"/>
<stop offset="0.8064" stop-color="#C4BCAC"/>
<stop offset="0.8566" stop-color="#B8AF9E"/>
<stop offset="0.9516" stop-color="#978E78"/>
<stop offset="0.9972" stop-color="#867664"/>
</linearGradient>
<linearGradient id="paint28_linear_348_5359" x1="0.665701" y1="52.0245" x2="99.6578" y2="52.0245" gradientUnits="userSpaceOnUse">
<stop offset="0.0186222" stop-color="#9A8C84"/>
<stop offset="0.4235" stop-color="#D3CCC5"/>
<stop offset="0.4999" stop-color="#DED9D1"/>
<stop offset="0.5991" stop-color="#D1CAC0"/>
<stop offset="0.7129" stop-color="#C7C0B1"/>
<stop offset="0.8064" stop-color="#C4BCAC"/>
<stop offset="0.8566" stop-color="#B8AF9E"/>
<stop offset="0.9516" stop-color="#978E78"/>
<stop offset="0.9972" stop-color="#867664"/>
</linearGradient>
<linearGradient id="paint29_linear_348_5359" x1="0.665701" y1="52.0245" x2="99.6578" y2="52.0245" gradientUnits="userSpaceOnUse">
<stop offset="0.0186222" stop-color="#9A8C84"/>
<stop offset="0.4235" stop-color="#D3CCC5"/>
<stop offset="0.4999" stop-color="#DED9D1"/>
<stop offset="0.5991" stop-color="#D1CAC0"/>
<stop offset="0.7129" stop-color="#C7C0B1"/>
<stop offset="0.8064" stop-color="#C4BCAC"/>
<stop offset="0.8566" stop-color="#B8AF9E"/>
<stop offset="0.9516" stop-color="#978E78"/>
<stop offset="0.9972" stop-color="#867664"/>
</linearGradient>
</defs>
</svg>
