<svg width="24" height="25" viewBox="0 0 24 25" fill="none" xmlns="http://www.w3.org/2000/svg">
<path d="M23.22 18.1966L23.2201 18.1967C23.2571 18.1717 23.2912 18.1353 23.318 18.0883L23.4627 18.1709L23.318 18.0883C23.3449 18.0412 23.3632 17.9859 23.3702 17.9265C23.3772 17.8671 23.3726 17.8068 23.357 17.7505C23.3414 17.6943 23.3157 17.6451 23.2835 17.606L23.2731 17.5935L23.2654 17.5792L17.2117 6.37157C16.921 5.99128 16.5682 5.68903 16.177 5.48232C15.7825 5.27389 15.3569 5.16683 14.9277 5.16667C14.9277 5.16667 14.9277 5.16667 14.9277 5.16667C14.9277 5.16667 14.9276 5.16667 14.9276 5.16667L13.9608 5.16667C13.7358 5.73254 13.3821 6.21858 12.9346 6.56831C12.4579 6.94086 11.8958 7.14191 11.3182 7.14191C10.7405 7.14191 10.1785 6.94086 9.70177 6.56831C9.25424 6.21858 8.90055 5.73254 8.6756 5.16667H7.70751C7.2785 5.16668 6.85319 5.27355 6.45887 5.48176C6.07015 5.687 5.71939 5.98664 5.42981 6.36347L0.82279 17.4696L0.813146 17.4929L0.797066 17.5122C0.764883 17.551 0.739108 17.5999 0.723405 17.6559C0.707706 17.7119 0.702924 17.7721 0.709761 17.8313C0.716598 17.8906 0.734688 17.9458 0.761403 17.9929C0.788104 18.0399 0.822038 18.0763 0.85881 18.1014L0.864795 18.1054L0.864701 18.1056L2.64108 19.4319C2.734 19.4973 2.83908 19.519 2.93924 19.4989C3.03451 19.4798 3.12749 19.4222 3.20014 19.3279L6.0974 10.3239L6.42273 10.375V20.3476C6.42297 20.4846 6.46924 20.6114 6.54494 20.7011C6.61985 20.7899 6.71471 20.833 6.80639 20.8333C6.8065 20.8333 6.8066 20.8333 6.80671 20.8333H15.8297C15.8298 20.8333 15.8299 20.8333 15.83 20.8333C15.9216 20.833 16.0165 20.7899 16.0914 20.7011C16.1671 20.6115 16.2133 20.4848 16.2136 20.3479C16.2136 20.3478 16.2136 20.3477 16.2136 20.3476M23.22 18.1966L16.3803 20.3479L16.2136 20.3476M23.22 18.1966L23.2139 18.2012L21.4386 19.5276M23.22 18.1966L21.4386 19.5276M16.2136 20.3476L16.2136 10.386L16.5307 10.3142L20.8721 19.4151C20.9457 19.5148 21.0416 19.5754 21.1399 19.5951C21.2402 19.6152 21.3455 19.5933 21.4386 19.5276M16.2136 20.3476L21.4386 19.5276" fill="url(#paint0_linear_171_11200)"/>
<path d="M23.22 18.1966L23.2201 18.1967C23.2571 18.1717 23.2912 18.1353 23.318 18.0883L23.4627 18.1709L23.318 18.0883C23.3449 18.0412 23.3632 17.9859 23.3702 17.9265C23.3772 17.8671 23.3726 17.8068 23.357 17.7505C23.3414 17.6943 23.3157 17.6451 23.2835 17.606L23.2731 17.5935L23.2654 17.5792L17.2117 6.37157C16.921 5.99128 16.5682 5.68903 16.177 5.48232C15.7825 5.27389 15.3569 5.16683 14.9277 5.16667C14.9277 5.16667 14.9277 5.16667 14.9277 5.16667C14.9277 5.16667 14.9276 5.16667 14.9276 5.16667L13.9608 5.16667C13.7358 5.73254 13.3821 6.21858 12.9346 6.56831C12.4579 6.94086 11.8958 7.14191 11.3182 7.14191C10.7405 7.14191 10.1785 6.94086 9.70177 6.56831C9.25424 6.21858 8.90055 5.73254 8.6756 5.16667H7.70751C7.2785 5.16668 6.85319 5.27355 6.45887 5.48176C6.07015 5.687 5.71939 5.98664 5.42981 6.36347L0.82279 17.4696L0.813146 17.4929L0.797066 17.5122C0.764883 17.551 0.739108 17.5999 0.723405 17.6559C0.707706 17.7119 0.702924 17.7721 0.709761 17.8313C0.716598 17.8906 0.734688 17.9458 0.761403 17.9929C0.788104 18.0399 0.822038 18.0763 0.85881 18.1014L0.864795 18.1054L0.864701 18.1056L2.64108 19.4319C2.734 19.4973 2.83908 19.519 2.93924 19.4989C3.03451 19.4798 3.12749 19.4222 3.20014 19.3279L6.0974 10.3239L6.42273 10.375V20.3476C6.42297 20.4846 6.46924 20.6114 6.54494 20.7011C6.61985 20.7899 6.71471 20.833 6.80639 20.8333C6.8065 20.8333 6.8066 20.8333 6.80671 20.8333H15.8297C15.8298 20.8333 15.8299 20.8333 15.83 20.8333C15.9216 20.833 16.0165 20.7899 16.0914 20.7011C16.1671 20.6115 16.2133 20.4848 16.2136 20.3479C16.2136 20.3478 16.2136 20.3477 16.2136 20.3476M23.22 18.1966L16.3803 20.3479L16.2136 20.3476M23.22 18.1966L23.2139 18.2012L21.4386 19.5276M23.22 18.1966L21.4386 19.5276M16.2136 20.3476L16.2136 10.386L16.5307 10.3142L20.8721 19.4151C20.9457 19.5148 21.0416 19.5754 21.1399 19.5951C21.2402 19.6152 21.3455 19.5933 21.4386 19.5276M16.2136 20.3476L21.4386 19.5276" fill="#FFE9BF" fill-opacity="0.24" style="mix-blend-mode:saturation"/>
<path d="M23.22 18.1966L23.2201 18.1967C23.2571 18.1717 23.2912 18.1353 23.318 18.0883L23.4627 18.1709L23.318 18.0883C23.3449 18.0412 23.3632 17.9859 23.3702 17.9265C23.3772 17.8671 23.3726 17.8068 23.357 17.7505C23.3414 17.6943 23.3157 17.6451 23.2835 17.606L23.2731 17.5935L23.2654 17.5792L17.2117 6.37157C16.921 5.99128 16.5682 5.68903 16.177 5.48232C15.7825 5.27389 15.3569 5.16683 14.9277 5.16667C14.9277 5.16667 14.9277 5.16667 14.9277 5.16667C14.9277 5.16667 14.9276 5.16667 14.9276 5.16667L13.9608 5.16667C13.7358 5.73254 13.3821 6.21858 12.9346 6.56831C12.4579 6.94086 11.8958 7.14191 11.3182 7.14191C10.7405 7.14191 10.1785 6.94086 9.70177 6.56831C9.25424 6.21858 8.90055 5.73254 8.6756 5.16667H7.70751C7.2785 5.16668 6.85319 5.27355 6.45887 5.48176C6.07015 5.687 5.71939 5.98664 5.42981 6.36347L0.82279 17.4696L0.813146 17.4929L0.797066 17.5122C0.764883 17.551 0.739108 17.5999 0.723405 17.6559C0.707706 17.7119 0.702924 17.7721 0.709761 17.8313C0.716598 17.8906 0.734688 17.9458 0.761403 17.9929C0.788104 18.0399 0.822038 18.0763 0.85881 18.1014L0.864795 18.1054L0.864701 18.1056L2.64108 19.4319C2.734 19.4973 2.83908 19.519 2.93924 19.4989C3.03451 19.4798 3.12749 19.4222 3.20014 19.3279L6.0974 10.3239L6.42273 10.375V20.3476C6.42297 20.4846 6.46924 20.6114 6.54494 20.7011C6.61985 20.7899 6.71471 20.833 6.80639 20.8333C6.8065 20.8333 6.8066 20.8333 6.80671 20.8333H15.8297C15.8298 20.8333 15.8299 20.8333 15.83 20.8333C15.9216 20.833 16.0165 20.7899 16.0914 20.7011C16.1671 20.6115 16.2133 20.4848 16.2136 20.3479C16.2136 20.3478 16.2136 20.3477 16.2136 20.3476M23.22 18.1966L16.3803 20.3479L16.2136 20.3476M23.22 18.1966L23.2139 18.2012L21.4386 19.5276M23.22 18.1966L21.4386 19.5276M16.2136 20.3476L16.2136 10.386L16.5307 10.3142L20.8721 19.4151C20.9457 19.5148 21.0416 19.5754 21.1399 19.5951C21.2402 19.6152 21.3455 19.5933 21.4386 19.5276M16.2136 20.3476L21.4386 19.5276" stroke="url(#paint1_linear_171_11200)" stroke-width="0.333333"/>
<path d="M23.22 18.1966L23.2201 18.1967C23.2571 18.1717 23.2912 18.1353 23.318 18.0883L23.4627 18.1709L23.318 18.0883C23.3449 18.0412 23.3632 17.9859 23.3702 17.9265C23.3772 17.8671 23.3726 17.8068 23.357 17.7505C23.3414 17.6943 23.3157 17.6451 23.2835 17.606L23.2731 17.5935L23.2654 17.5792L17.2117 6.37157C16.921 5.99128 16.5682 5.68903 16.177 5.48232C15.7825 5.27389 15.3569 5.16683 14.9277 5.16667C14.9277 5.16667 14.9277 5.16667 14.9277 5.16667C14.9277 5.16667 14.9276 5.16667 14.9276 5.16667L13.9608 5.16667C13.7358 5.73254 13.3821 6.21858 12.9346 6.56831C12.4579 6.94086 11.8958 7.14191 11.3182 7.14191C10.7405 7.14191 10.1785 6.94086 9.70177 6.56831C9.25424 6.21858 8.90055 5.73254 8.6756 5.16667H7.70751C7.2785 5.16668 6.85319 5.27355 6.45887 5.48176C6.07015 5.687 5.71939 5.98664 5.42981 6.36347L0.82279 17.4696L0.813146 17.4929L0.797066 17.5122C0.764883 17.551 0.739108 17.5999 0.723405 17.6559C0.707706 17.7119 0.702924 17.7721 0.709761 17.8313C0.716598 17.8906 0.734688 17.9458 0.761403 17.9929C0.788104 18.0399 0.822038 18.0763 0.85881 18.1014L0.864795 18.1054L0.864701 18.1056L2.64108 19.4319C2.734 19.4973 2.83908 19.519 2.93924 19.4989C3.03451 19.4798 3.12749 19.4222 3.20014 19.3279L6.0974 10.3239L6.42273 10.375V20.3476C6.42297 20.4846 6.46924 20.6114 6.54494 20.7011C6.61985 20.7899 6.71471 20.833 6.80639 20.8333C6.8065 20.8333 6.8066 20.8333 6.80671 20.8333H15.8297C15.8298 20.8333 15.8299 20.8333 15.83 20.8333C15.9216 20.833 16.0165 20.7899 16.0914 20.7011C16.1671 20.6115 16.2133 20.4848 16.2136 20.3479C16.2136 20.3478 16.2136 20.3477 16.2136 20.3476M23.22 18.1966L16.3803 20.3479L16.2136 20.3476M23.22 18.1966L23.2139 18.2012L21.4386 19.5276M23.22 18.1966L21.4386 19.5276M16.2136 20.3476L16.2136 10.386L16.5307 10.3142L20.8721 19.4151C20.9457 19.5148 21.0416 19.5754 21.1399 19.5951C21.2402 19.6152 21.3455 19.5933 21.4386 19.5276M16.2136 20.3476L21.4386 19.5276" stroke="#FFE9BF" stroke-opacity="0.24" stroke-width="0.333333" style="mix-blend-mode:saturation"/>
<defs>
<linearGradient id="paint0_linear_171_11200" x1="0.548164" y1="12.9981" x2="23.6315" y2="12.9981" gradientUnits="userSpaceOnUse">
<stop offset="0.0186222" stop-color="#9A8C84"/>
<stop offset="0.4235" stop-color="#D3CCC5"/>
<stop offset="0.4999" stop-color="#DED9D1"/>
<stop offset="0.5991" stop-color="#D1CAC0"/>
<stop offset="0.7129" stop-color="#C7C0B1"/>
<stop offset="0.8064" stop-color="#C4BCAC"/>
<stop offset="0.8566" stop-color="#B8AF9E"/>
<stop offset="0.9516" stop-color="#978E78"/>
<stop offset="0.9972" stop-color="#867664"/>
</linearGradient>
<linearGradient id="paint1_linear_171_11200" x1="0.548164" y1="12.9981" x2="23.6315" y2="12.9981" gradientUnits="userSpaceOnUse">
<stop offset="0.0186222" stop-color="#9A8C84"/>
<stop offset="0.4235" stop-color="#D3CCC5"/>
<stop offset="0.4999" stop-color="#DED9D1"/>
<stop offset="0.5991" stop-color="#D1CAC0"/>
<stop offset="0.7129" stop-color="#C7C0B1"/>
<stop offset="0.8064" stop-color="#C4BCAC"/>
<stop offset="0.8566" stop-color="#B8AF9E"/>
<stop offset="0.9516" stop-color="#978E78"/>
<stop offset="0.9972" stop-color="#867664"/>
</linearGradient>
</defs>
</svg>
