<svg width="25" height="25" viewBox="0 0 25 25" fill="none" xmlns="http://www.w3.org/2000/svg">
<path d="M19.6038 6.6829L19.6038 6.68286C19.5877 6.62402 19.5488 6.57389 19.4957 6.54361C19.4425 6.51334 19.3795 6.50541 19.3206 6.52155C15.206 7.64893 10.8563 7.64893 6.74174 6.52155L19.6038 6.6829ZM19.6038 6.6829L21.9909 15.3967C22.0177 15.4945 21.9774 15.5983 21.8917 15.6524L21.9807 15.7933L21.8917 15.6524C19.5308 17.1434 16.8064 18.0174 14.0133 18.1796L14.0127 18.1796C14.011 18.1797 14.0093 18.1798 14.0074 18.1798C14.005 18.1799 14.0024 18.18 13.9997 18.18C13.8965 18.18 13.8052 18.111 13.7777 18.0104L13.1919 15.8723L13.0311 15.2856L12.8704 15.8723L12.2847 18.0104C12.2847 18.0104 12.2846 18.0104 12.2846 18.0104C12.2557 18.1159 12.1579 18.1862 12.0495 18.1796L12.049 18.1796C9.25594 18.0174 6.53148 17.1434 4.17057 15.6524L4.17057 15.6524C4.08485 15.5983 4.04458 15.4945 4.07137 15.3967L4.07138 15.3967L6.45858 6.68291L6.45859 6.68286C6.4747 6.62398 6.5136 6.57386 6.56671 6.54359L6.5668 6.54354M19.6038 6.6829L6.5668 6.54354M6.5668 6.54354C6.61974 6.51333 6.68264 6.50539 6.74169 6.52153L6.5668 6.54354Z" fill="url(#paint0_linear_171_11343)"/>
<path d="M19.6038 6.6829L19.6038 6.68286C19.5877 6.62402 19.5488 6.57389 19.4957 6.54361C19.4425 6.51334 19.3795 6.50541 19.3206 6.52155C15.206 7.64893 10.8563 7.64893 6.74174 6.52155L19.6038 6.6829ZM19.6038 6.6829L21.9909 15.3967C22.0177 15.4945 21.9774 15.5983 21.8917 15.6524L21.9807 15.7933L21.8917 15.6524C19.5308 17.1434 16.8064 18.0174 14.0133 18.1796L14.0127 18.1796C14.011 18.1797 14.0093 18.1798 14.0074 18.1798C14.005 18.1799 14.0024 18.18 13.9997 18.18C13.8965 18.18 13.8052 18.111 13.7777 18.0104L13.1919 15.8723L13.0311 15.2856L12.8704 15.8723L12.2847 18.0104C12.2847 18.0104 12.2846 18.0104 12.2846 18.0104C12.2557 18.1159 12.1579 18.1862 12.0495 18.1796L12.049 18.1796C9.25594 18.0174 6.53148 17.1434 4.17057 15.6524L4.17057 15.6524C4.08485 15.5983 4.04458 15.4945 4.07137 15.3967L4.07138 15.3967L6.45858 6.68291L6.45859 6.68286C6.4747 6.62398 6.5136 6.57386 6.56671 6.54359L6.5668 6.54354M19.6038 6.6829L6.5668 6.54354M6.5668 6.54354C6.61974 6.51333 6.68264 6.50539 6.74169 6.52153L6.5668 6.54354Z" fill="#FFE9BF" fill-opacity="0.24" style="mix-blend-mode:saturation"/>
<path d="M19.6038 6.6829L19.6038 6.68286C19.5877 6.62402 19.5488 6.57389 19.4957 6.54361C19.4425 6.51334 19.3795 6.50541 19.3206 6.52155C15.206 7.64893 10.8563 7.64893 6.74174 6.52155L19.6038 6.6829ZM19.6038 6.6829L21.9909 15.3967C22.0177 15.4945 21.9774 15.5983 21.8917 15.6524L21.9807 15.7933L21.8917 15.6524C19.5308 17.1434 16.8064 18.0174 14.0133 18.1796L14.0127 18.1796C14.011 18.1797 14.0093 18.1798 14.0074 18.1798C14.005 18.1799 14.0024 18.18 13.9997 18.18C13.8965 18.18 13.8052 18.111 13.7777 18.0104L13.1919 15.8723L13.0311 15.2856L12.8704 15.8723L12.2847 18.0104C12.2847 18.0104 12.2846 18.0104 12.2846 18.0104C12.2557 18.1159 12.1579 18.1862 12.0495 18.1796L12.049 18.1796C9.25594 18.0174 6.53148 17.1434 4.17057 15.6524L4.17057 15.6524C4.08485 15.5983 4.04458 15.4945 4.07137 15.3967L4.07138 15.3967L6.45858 6.68291L6.45859 6.68286C6.4747 6.62398 6.5136 6.57386 6.56671 6.54359L6.5668 6.54354M19.6038 6.6829L6.5668 6.54354M6.5668 6.54354C6.61974 6.51333 6.68264 6.50539 6.74169 6.52153L6.5668 6.54354Z" stroke="url(#paint1_linear_171_11343)" stroke-width="0.333333"/>
<path d="M19.6038 6.6829L19.6038 6.68286C19.5877 6.62402 19.5488 6.57389 19.4957 6.54361C19.4425 6.51334 19.3795 6.50541 19.3206 6.52155C15.206 7.64893 10.8563 7.64893 6.74174 6.52155L19.6038 6.6829ZM19.6038 6.6829L21.9909 15.3967C22.0177 15.4945 21.9774 15.5983 21.8917 15.6524L21.9807 15.7933L21.8917 15.6524C19.5308 17.1434 16.8064 18.0174 14.0133 18.1796L14.0127 18.1796C14.011 18.1797 14.0093 18.1798 14.0074 18.1798C14.005 18.1799 14.0024 18.18 13.9997 18.18C13.8965 18.18 13.8052 18.111 13.7777 18.0104L13.1919 15.8723L13.0311 15.2856L12.8704 15.8723L12.2847 18.0104C12.2847 18.0104 12.2846 18.0104 12.2846 18.0104C12.2557 18.1159 12.1579 18.1862 12.0495 18.1796L12.049 18.1796C9.25594 18.0174 6.53148 17.1434 4.17057 15.6524L4.17057 15.6524C4.08485 15.5983 4.04458 15.4945 4.07137 15.3967L4.07138 15.3967L6.45858 6.68291L6.45859 6.68286C6.4747 6.62398 6.5136 6.57386 6.56671 6.54359L6.5668 6.54354M19.6038 6.6829L6.5668 6.54354M6.5668 6.54354C6.61974 6.51333 6.68264 6.50539 6.74169 6.52153L6.5668 6.54354Z" stroke="#FFE9BF" stroke-opacity="0.24" stroke-width="0.333333" style="mix-blend-mode:saturation"/>
<defs>
<linearGradient id="paint0_linear_171_11343" x1="3.90294" y1="12.3453" x2="22.2384" y2="12.3453" gradientUnits="userSpaceOnUse">
<stop offset="0.0186222" stop-color="#9A8C84"/>
<stop offset="0.4235" stop-color="#D3CCC5"/>
<stop offset="0.4999" stop-color="#DED9D1"/>
<stop offset="0.5991" stop-color="#D1CAC0"/>
<stop offset="0.7129" stop-color="#C7C0B1"/>
<stop offset="0.8064" stop-color="#C4BCAC"/>
<stop offset="0.8566" stop-color="#B8AF9E"/>
<stop offset="0.9516" stop-color="#978E78"/>
<stop offset="0.9972" stop-color="#867664"/>
</linearGradient>
<linearGradient id="paint1_linear_171_11343" x1="3.90294" y1="12.3453" x2="22.2384" y2="12.3453" gradientUnits="userSpaceOnUse">
<stop offset="0.0186222" stop-color="#9A8C84"/>
<stop offset="0.4235" stop-color="#D3CCC5"/>
<stop offset="0.4999" stop-color="#DED9D1"/>
<stop offset="0.5991" stop-color="#D1CAC0"/>
<stop offset="0.7129" stop-color="#C7C0B1"/>
<stop offset="0.8064" stop-color="#C4BCAC"/>
<stop offset="0.8566" stop-color="#B8AF9E"/>
<stop offset="0.9516" stop-color="#978E78"/>
<stop offset="0.9972" stop-color="#867664"/>
</linearGradient>
</defs>
</svg>
