<svg width="24" height="24" viewBox="0 0 24 24" fill="none" xmlns="http://www.w3.org/2000/svg">
<path d="M3.79395 6.28418L6.24574 10.6666V13.3397L3.79681 17.7136L3.79395 6.28418Z" fill="#5B57A2"/>
<path d="M13.2061 9.07168L15.5035 7.66357L20.2053 7.65918L13.2061 11.9469V9.07168Z" fill="#D90751"/>
<path d="M13.1936 6.25802L13.2066 12.0602L10.749 10.5502V1.87695L13.1936 6.25802Z" fill="#FAB718"/>
<path d="M20.2058 7.65904L15.5038 7.66343L13.1936 6.25802L10.749 1.87695L20.2058 7.65904Z" fill="#ED6F26"/>
<path d="M13.2066 17.7378V14.9227L10.749 13.4414L10.7504 22.1232L13.2066 17.7378Z" fill="#63B22F"/>
<path d="M15.4995 16.3426L6.24557 10.6666L3.79395 6.28418L20.1971 16.3368L15.4995 16.3426Z" fill="#1487C9"/>
<path d="M10.751 22.1224L13.2068 17.737L15.4985 16.3417L20.1961 16.3359L10.751 22.1224Z" fill="#017F36"/>
<path d="M3.7959 17.7133L10.7695 13.4414L8.42498 12.0029L6.24482 13.3395L3.7959 17.7133Z" fill="#984995"/>
</svg>
