<svg width="24" height="25" viewBox="0 0 24 25" fill="none" xmlns="http://www.w3.org/2000/svg">
<path d="M12 0.0830078C5.376 0.0830078 0 5.45901 0 12.083C0 18.707 5.376 24.083 12 24.083C18.624 24.083 24 18.707 24 12.083C24 5.45901 18.624 0.0830078 12 0.0830078ZM17.568 8.24301C17.388 10.139 16.608 14.747 16.212 16.871C16.044 17.771 15.708 18.071 15.396 18.107C14.7 18.167 14.172 17.651 13.5 17.207C12.444 16.511 11.844 16.079 10.824 15.407C9.636 14.627 10.404 14.195 11.088 13.499C11.268 13.319 14.34 10.523 14.4 10.271C14.4083 10.2328 14.4072 10.1932 14.3968 10.1556C14.3863 10.1179 14.3668 10.0834 14.34 10.055C14.268 9.99501 14.172 10.019 14.088 10.031C13.98 10.055 12.3 11.171 9.024 13.379C8.544 13.703 8.112 13.871 7.728 13.859C7.296 13.847 6.48 13.619 5.868 13.415C5.112 13.175 4.524 13.043 4.572 12.623C4.596 12.407 4.896 12.191 5.46 11.963C8.964 10.439 11.292 9.43101 12.456 8.95101C15.792 7.55901 16.476 7.31901 16.932 7.31901C17.028 7.31901 17.256 7.34301 17.4 7.46301C17.52 7.55901 17.556 7.69101 17.568 7.78701C17.556 7.85901 17.58 8.07501 17.568 8.24301Z" fill="url(#paint0_linear_2020_392)"/>
<path d="M12 0.0830078C5.376 0.0830078 0 5.45901 0 12.083C0 18.707 5.376 24.083 12 24.083C18.624 24.083 24 18.707 24 12.083C24 5.45901 18.624 0.0830078 12 0.0830078ZM17.568 8.24301C17.388 10.139 16.608 14.747 16.212 16.871C16.044 17.771 15.708 18.071 15.396 18.107C14.7 18.167 14.172 17.651 13.5 17.207C12.444 16.511 11.844 16.079 10.824 15.407C9.636 14.627 10.404 14.195 11.088 13.499C11.268 13.319 14.34 10.523 14.4 10.271C14.4083 10.2328 14.4072 10.1932 14.3968 10.1556C14.3863 10.1179 14.3668 10.0834 14.34 10.055C14.268 9.99501 14.172 10.019 14.088 10.031C13.98 10.055 12.3 11.171 9.024 13.379C8.544 13.703 8.112 13.871 7.728 13.859C7.296 13.847 6.48 13.619 5.868 13.415C5.112 13.175 4.524 13.043 4.572 12.623C4.596 12.407 4.896 12.191 5.46 11.963C8.964 10.439 11.292 9.43101 12.456 8.95101C15.792 7.55901 16.476 7.31901 16.932 7.31901C17.028 7.31901 17.256 7.34301 17.4 7.46301C17.52 7.55901 17.556 7.69101 17.568 7.78701C17.556 7.85901 17.58 8.07501 17.568 8.24301Z" fill="#FFE9BF" fill-opacity="0.24" style="mix-blend-mode:saturation"/>
<defs>
<linearGradient id="paint0_linear_2020_392" x1="0.00847781" y1="12.0802" x2="24.0955" y2="12.0802" gradientUnits="userSpaceOnUse">
<stop offset="0.0186222" stop-color="#9A8C84"/>
<stop offset="0.4235" stop-color="#D3CCC5"/>
<stop offset="0.4999" stop-color="#DED9D1"/>
<stop offset="0.5991" stop-color="#D1CAC0"/>
<stop offset="0.7129" stop-color="#C7C0B1"/>
<stop offset="0.8064" stop-color="#C4BCAC"/>
<stop offset="0.8566" stop-color="#B8AF9E"/>
<stop offset="0.9516" stop-color="#978E78"/>
<stop offset="0.9972" stop-color="#867664"/>
</linearGradient>
</defs>
</svg>
