<svg width="232" height="35" viewBox="0 0 232 35" fill="none" xmlns="http://www.w3.org/2000/svg">
<path d="M0.85161 22.4993L0.941422 24.2955C1.20925 29.4661 5.14976 32.7956 9.85045 32.7956C14.3266 32.7956 17.2375 30.4733 17.2375 26.1799C17.2375 18.1626 1.03123 18.1626 1.03123 8.43566C1.03123 4.18563 4.92523 1.33891 10.7454 1.33891C13.6995 1.33891 15.7588 2.25788 17.2824 3.26666C17.64 3.48478 17.9977 4.14233 18.0875 4.27384L18.4018 4.18563C18.312 3.87931 18.2671 3.39817 18.2222 2.78392L18.0875 0.461639H18.5799L19.1171 10.8028L18.2222 10.8462L18.1324 9.00501C17.9079 5.54404 15.6257 2.12637 10.7454 2.12637C6.76156 2.12637 4.47777 4.01082 4.47777 7.47179C4.47777 15.2261 20.9086 15.1395 20.9086 25.4342C20.9086 30.693 16.7451 33.5397 9.93866 33.5397C6.89468 33.5397 4.65739 32.7523 2.14907 31.1741C1.79143 30.9544 1.07454 30.1221 0.941422 29.7291L0.716892 29.7724C0.896516 30.2103 0.896516 31.1308 0.941422 31.6553L1.07454 34.417H0.62708L0 22.456L0.85161 22.4993Z" fill="url(#paint0_linear_104_4026)"/>
<path d="M0.85161 22.4993L0.941422 24.2955C1.20925 29.4661 5.14976 32.7956 9.85045 32.7956C14.3266 32.7956 17.2375 30.4733 17.2375 26.1799C17.2375 18.1626 1.03123 18.1626 1.03123 8.43566C1.03123 4.18563 4.92523 1.33891 10.7454 1.33891C13.6995 1.33891 15.7588 2.25788 17.2824 3.26666C17.64 3.48478 17.9977 4.14233 18.0875 4.27384L18.4018 4.18563C18.312 3.87931 18.2671 3.39817 18.2222 2.78392L18.0875 0.461639H18.5799L19.1171 10.8028L18.2222 10.8462L18.1324 9.00501C17.9079 5.54404 15.6257 2.12637 10.7454 2.12637C6.76156 2.12637 4.47777 4.01082 4.47777 7.47179C4.47777 15.2261 20.9086 15.1395 20.9086 25.4342C20.9086 30.693 16.7451 33.5397 9.93866 33.5397C6.89468 33.5397 4.65739 32.7523 2.14907 31.1741C1.79143 30.9544 1.07454 30.1221 0.941422 29.7291L0.716892 29.7724C0.896516 30.2103 0.896516 31.1308 0.941422 31.6553L1.07454 34.417H0.62708L0 22.456L0.85161 22.4993Z" fill="#FFE9BF" fill-opacity="0.24" style="mix-blend-mode:saturation"/>
<path d="M54.2992 23.8639L45.9274 5.59353C45.5698 4.89268 45.5249 4.32334 45.5249 3.8422H45.0774C45.0774 4.10522 44.9427 4.67456 44.4952 5.59353L35.5397 23.8639H54.2992ZM28.0645 32.8018H28.8263C30.0788 32.8018 30.7957 31.5749 31.5559 30.0849L45.3902 1.69473H49.1959V2.22077C49.1959 3.09644 49.3756 4.23673 49.6434 4.76117L61.2388 30.0849C62.2235 32.1875 62.4031 32.8018 64.148 32.8018H64.5522V33.1963H55.1492V32.8018H58.9101V32.7136C58.2397 32.4954 57.7457 31.3984 57.3881 30.6543L54.6568 24.6529H35.1388L32.4957 30.0849C32.3626 30.4362 32.2279 30.7858 32.2279 31.0921C32.2279 32.1009 33.1228 32.8018 34.5999 32.8018H37.0184V33.1963H28.0645V32.8018Z" fill="url(#paint1_linear_104_4026)"/>
<path d="M54.2992 23.8639L45.9274 5.59353C45.5698 4.89268 45.5249 4.32334 45.5249 3.8422H45.0774C45.0774 4.10522 44.9427 4.67456 44.4952 5.59353L35.5397 23.8639H54.2992ZM28.0645 32.8018H28.8263C30.0788 32.8018 30.7957 31.5749 31.5559 30.0849L45.3902 1.69473H49.1959V2.22077C49.1959 3.09644 49.3756 4.23673 49.6434 4.76117L61.2388 30.0849C62.2235 32.1875 62.4031 32.8018 64.148 32.8018H64.5522V33.1963H55.1492V32.8018H58.9101V32.7136C58.2397 32.4954 57.7457 31.3984 57.3881 30.6543L54.6568 24.6529H35.1388L32.4957 30.0849C32.3626 30.4362 32.2279 30.7858 32.2279 31.0921C32.2279 32.1009 33.1228 32.8018 34.5999 32.8018H37.0184V33.1963H28.0645V32.8018Z" fill="#FFE9BF" fill-opacity="0.24" style="mix-blend-mode:saturation"/>
<path d="M71.9922 17.2788C71.9922 7.68499 78.8869 1.28749 89.1832 1.28749C92.4966 1.28749 95.6753 2.20807 98.2269 4.09091C98.4514 4.31063 98.6295 4.66186 98.7642 4.96818L99.0769 4.87997C98.9887 4.53034 98.9422 4.04761 98.9422 3.60977L98.854 0.411823H99.3014L99.7489 13.0737L98.854 13.117L98.7193 9.04179C98.4514 5.09969 93.6609 2.03165 88.8255 2.03165C80.7216 2.03165 76.3801 7.11404 76.3801 16.578C76.3801 27.0491 80.9461 32.7008 89.3628 32.7008C94.0186 32.7008 98.5846 30.4235 100.331 26.7428L101.181 27.0491C99.2565 31.4306 94.466 33.5332 89.3179 33.5332C78.9767 33.5332 72.0371 27.0491 72.0371 17.3221L71.9922 17.2788Z" fill="url(#paint2_linear_104_4026)"/>
<path d="M71.9922 17.2788C71.9922 7.68499 78.8869 1.28749 89.1832 1.28749C92.4966 1.28749 95.6753 2.20807 98.2269 4.09091C98.4514 4.31063 98.6295 4.66186 98.7642 4.96818L99.0769 4.87997C98.9887 4.53034 98.9422 4.04761 98.9422 3.60977L98.854 0.411823H99.3014L99.7489 13.0737L98.854 13.117L98.7193 9.04179C98.4514 5.09969 93.6609 2.03165 88.8255 2.03165C80.7216 2.03165 76.3801 7.11404 76.3801 16.578C76.3801 27.0491 80.9461 32.7008 89.3628 32.7008C94.0186 32.7008 98.5846 30.4235 100.331 26.7428L101.181 27.0491C99.2565 31.4306 94.466 33.5332 89.3179 33.5332C78.9767 33.5332 72.0371 27.0491 72.0371 17.3221L71.9922 17.2788Z" fill="#FFE9BF" fill-opacity="0.24" style="mix-blend-mode:saturation"/>
<path fill-rule="evenodd" clip-rule="evenodd" d="M111.961 32.8405H110.216L110.036 33.1901H123.736V32.7956H120.871C118.498 32.7956 118.185 32.5775 118.185 30.4749V4.80149C118.185 3.79271 117.96 3.04855 117.378 2.52251V2.47921H122.482C127.989 2.47921 131.705 6.07169 131.705 11.4171C131.705 16.8042 127.989 20.3983 122.482 20.3983H120.244V21.1425H120.825C122.511 21.1425 123.916 22.6156 125.747 24.5348C126.103 24.9085 126.476 25.299 126.869 25.6988C133.854 32.8405 142.141 33.8296 148.094 33.8296L148.941 33.8477C137.748 33.8477 130.003 24.2089 130.003 24.2089C128.347 22.6324 126.825 21.4055 124.765 21.2307V20.9677L125.75 20.9227C131.66 20.4416 136.181 16.8042 136.181 11.4604C136.181 5.63385 130.943 1.73345 123.064 1.73345H110.216V2.12798H111.961C114.334 2.12798 114.557 2.3477 114.557 4.45026V30.5182C114.557 32.6208 114.334 32.8405 111.961 32.8405Z" fill="url(#paint3_linear_104_4026)"/>
<path fill-rule="evenodd" clip-rule="evenodd" d="M111.961 32.8405H110.216L110.036 33.1901H123.736V32.7956H120.871C118.498 32.7956 118.185 32.5775 118.185 30.4749V4.80149C118.185 3.79271 117.96 3.04855 117.378 2.52251V2.47921H122.482C127.989 2.47921 131.705 6.07169 131.705 11.4171C131.705 16.8042 127.989 20.3983 122.482 20.3983H120.244V21.1425H120.825C122.511 21.1425 123.916 22.6156 125.747 24.5348C126.103 24.9085 126.476 25.299 126.869 25.6988C133.854 32.8405 142.141 33.8296 148.094 33.8296L148.941 33.8477C137.748 33.8477 130.003 24.2089 130.003 24.2089C128.347 22.6324 126.825 21.4055 124.765 21.2307V20.9677L125.75 20.9227C131.66 20.4416 136.181 16.8042 136.181 11.4604C136.181 5.63385 130.943 1.73345 123.064 1.73345H110.216V2.12798H111.961C114.334 2.12798 114.557 2.3477 114.557 4.45026V30.5182C114.557 32.6208 114.334 32.8405 111.961 32.8405Z" fill="#FFE9BF" fill-opacity="0.24" style="mix-blend-mode:saturation"/>
<path d="M162.465 1.91912V2.39939H159.848C156.959 2.39939 156.633 2.66491 156.633 5.22637V26.5049C156.633 30.6126 159.194 32.7992 163.937 32.7992C170.313 32.7992 173.8 29.9195 173.8 24.5857V6.18692C173.8 3.62546 173.255 2.39939 170.366 2.39939H168.187V1.91912H179.251V2.39939H178.269C175.436 2.39939 174.889 3.62546 174.889 6.18692V24.5857C174.889 30.5579 171.02 33.7598 163.937 33.7598C156.797 33.7598 152 30.0796 152 24.5857V5.22637C152 2.66491 151.619 2.39939 148.73 2.39939H147.203V1.91912H162.465Z" fill="url(#paint4_linear_104_4026)"/>
<path d="M162.465 1.91912V2.39939H159.848C156.959 2.39939 156.633 2.66491 156.633 5.22637V26.5049C156.633 30.6126 159.194 32.7992 163.937 32.7992C170.313 32.7992 173.8 29.9195 173.8 24.5857V6.18692C173.8 3.62546 173.255 2.39939 170.366 2.39939H168.187V1.91912H179.251V2.39939H178.269C175.436 2.39939 174.889 3.62546 174.889 6.18692V24.5857C174.889 30.5579 171.02 33.7598 163.937 33.7598C156.797 33.7598 152 30.0796 152 24.5857V5.22637C152 2.66491 151.619 2.39939 148.73 2.39939H147.203V1.91912H162.465Z" fill="#FFE9BF" fill-opacity="0.24" style="mix-blend-mode:saturation"/>
<path d="M188.485 33.0189H189.29C191.797 33.0189 192.155 32.3613 192.336 29.9075L193.634 4.62865V3.70808C193.634 2.7009 193.319 2.30637 191.172 2.30637H189.201V1.91344H196.455L209.214 27.0159C209.66 27.8932 209.974 28.6373 209.974 28.9003H210.197C210.197 28.6373 210.557 27.6734 210.869 27.0159L223.629 1.91344H231.016V2.30637H229.359C226.943 2.30637 226.585 2.96392 226.585 4.23412C226.585 4.58535 226.628 4.97988 226.628 5.41771L227.793 29.9075C227.882 32.4046 228.242 33.0189 230.926 33.0189H232.001V33.4134H219.153V33.0189H220.943C223.629 33.0189 223.987 32.3613 223.987 31.3108V30.5651L223.002 7.47697C222.957 6.68791 222.957 6.03036 222.957 5.54922H222.644C222.644 5.68073 222.33 6.42489 221.883 7.34546L208.63 33.5882L208.496 33.8945H208.363L208.228 33.5882L195.155 7.8266C194.753 6.95093 194.618 6.11857 194.618 5.98706H194.439C194.439 6.38159 194.439 6.68791 194.395 7.47697L193.141 30.4785C193.141 30.8714 193.096 31.2226 193.096 31.5289C193.096 32.581 193.499 33.0622 196.23 33.0622H197.977V33.4567H188.485V33.0189Z" fill="url(#paint5_linear_104_4026)"/>
<path d="M188.485 33.0189H189.29C191.797 33.0189 192.155 32.3613 192.336 29.9075L193.634 4.62865V3.70808C193.634 2.7009 193.319 2.30637 191.172 2.30637H189.201V1.91344H196.455L209.214 27.0159C209.66 27.8932 209.974 28.6373 209.974 28.9003H210.197C210.197 28.6373 210.557 27.6734 210.869 27.0159L223.629 1.91344H231.016V2.30637H229.359C226.943 2.30637 226.585 2.96392 226.585 4.23412C226.585 4.58535 226.628 4.97988 226.628 5.41771L227.793 29.9075C227.882 32.4046 228.242 33.0189 230.926 33.0189H232.001V33.4134H219.153V33.0189H220.943C223.629 33.0189 223.987 32.3613 223.987 31.3108V30.5651L223.002 7.47697C222.957 6.68791 222.957 6.03036 222.957 5.54922H222.644C222.644 5.68073 222.33 6.42489 221.883 7.34546L208.63 33.5882L208.496 33.8945H208.363L208.228 33.5882L195.155 7.8266C194.753 6.95093 194.618 6.11857 194.618 5.98706H194.439C194.439 6.38159 194.439 6.68791 194.395 7.47697L193.141 30.4785C193.141 30.8714 193.096 31.2226 193.096 31.5289C193.096 32.581 193.499 33.0622 196.23 33.0622H197.977V33.4567H188.485V33.0189Z" fill="#FFE9BF" fill-opacity="0.24" style="mix-blend-mode:saturation"/>
<defs>
<linearGradient id="paint0_linear_104_4026" x1="0.00738578" y1="17.4433" x2="20.9917" y2="17.4433" gradientUnits="userSpaceOnUse">
<stop offset="0.0186222" stop-color="#9A8C84"/>
<stop offset="0.4235" stop-color="#D3CCC5"/>
<stop offset="0.4999" stop-color="#DED9D1"/>
<stop offset="0.5991" stop-color="#D1CAC0"/>
<stop offset="0.7129" stop-color="#C7C0B1"/>
<stop offset="0.8064" stop-color="#C4BCAC"/>
<stop offset="0.8566" stop-color="#B8AF9E"/>
<stop offset="0.9516" stop-color="#978E78"/>
<stop offset="0.9972" stop-color="#867664"/>
</linearGradient>
<linearGradient id="paint1_linear_104_4026" x1="28.0773" y1="17.4492" x2="64.6973" y2="17.4492" gradientUnits="userSpaceOnUse">
<stop offset="0.0186222" stop-color="#9A8C84"/>
<stop offset="0.4235" stop-color="#D3CCC5"/>
<stop offset="0.4999" stop-color="#DED9D1"/>
<stop offset="0.5991" stop-color="#D1CAC0"/>
<stop offset="0.7129" stop-color="#C7C0B1"/>
<stop offset="0.8064" stop-color="#C4BCAC"/>
<stop offset="0.8566" stop-color="#B8AF9E"/>
<stop offset="0.9516" stop-color="#978E78"/>
<stop offset="0.9972" stop-color="#867664"/>
</linearGradient>
<linearGradient id="paint2_linear_104_4026" x1="72.0025" y1="16.9764" x2="101.297" y2="16.9764" gradientUnits="userSpaceOnUse">
<stop offset="0.0186222" stop-color="#9A8C84"/>
<stop offset="0.4235" stop-color="#D3CCC5"/>
<stop offset="0.4999" stop-color="#DED9D1"/>
<stop offset="0.5991" stop-color="#D1CAC0"/>
<stop offset="0.7129" stop-color="#C7C0B1"/>
<stop offset="0.8064" stop-color="#C4BCAC"/>
<stop offset="0.8566" stop-color="#B8AF9E"/>
<stop offset="0.9516" stop-color="#978E78"/>
<stop offset="0.9972" stop-color="#867664"/>
</linearGradient>
<linearGradient id="paint3_linear_104_4026" x1="110.05" y1="17.7943" x2="149.096" y2="17.7943" gradientUnits="userSpaceOnUse">
<stop offset="0.0186222" stop-color="#9A8C84"/>
<stop offset="0.4235" stop-color="#D3CCC5"/>
<stop offset="0.4999" stop-color="#DED9D1"/>
<stop offset="0.5991" stop-color="#D1CAC0"/>
<stop offset="0.7129" stop-color="#C7C0B1"/>
<stop offset="0.8064" stop-color="#C4BCAC"/>
<stop offset="0.8566" stop-color="#B8AF9E"/>
<stop offset="0.9516" stop-color="#978E78"/>
<stop offset="0.9972" stop-color="#867664"/>
</linearGradient>
<linearGradient id="paint4_linear_104_4026" x1="147.214" y1="17.8432" x2="179.378" y2="17.8432" gradientUnits="userSpaceOnUse">
<stop offset="0.0186222" stop-color="#9A8C84"/>
<stop offset="0.4235" stop-color="#D3CCC5"/>
<stop offset="0.4999" stop-color="#DED9D1"/>
<stop offset="0.5991" stop-color="#D1CAC0"/>
<stop offset="0.7129" stop-color="#C7C0B1"/>
<stop offset="0.8064" stop-color="#C4BCAC"/>
<stop offset="0.8566" stop-color="#B8AF9E"/>
<stop offset="0.9516" stop-color="#978E78"/>
<stop offset="0.9972" stop-color="#867664"/>
</linearGradient>
<linearGradient id="paint5_linear_104_4026" x1="188.501" y1="17.9077" x2="232.174" y2="17.9077" gradientUnits="userSpaceOnUse">
<stop offset="0.0186222" stop-color="#9A8C84"/>
<stop offset="0.4235" stop-color="#D3CCC5"/>
<stop offset="0.4999" stop-color="#DED9D1"/>
<stop offset="0.5991" stop-color="#D1CAC0"/>
<stop offset="0.7129" stop-color="#C7C0B1"/>
<stop offset="0.8064" stop-color="#C4BCAC"/>
<stop offset="0.8566" stop-color="#B8AF9E"/>
<stop offset="0.9516" stop-color="#978E78"/>
<stop offset="0.9972" stop-color="#867664"/>
</linearGradient>
</defs>
</svg>
